%TF.GenerationSoftware,KiCad,Pcbnew,8.0.0*%
%TF.CreationDate,2024-04-16T18:42:12-05:00*%
%TF.ProjectId,BreakoutBoardPCB,42726561-6b6f-4757-9442-6f6172645043,rev?*%
%TF.SameCoordinates,Original*%
%TF.FileFunction,Copper,L1,Top*%
%TF.FilePolarity,Positive*%
%FSLAX46Y46*%
G04 Gerber Fmt 4.6, Leading zero omitted, Abs format (unit mm)*
G04 Created by KiCad (PCBNEW 8.0.0) date 2024-04-16 18:42:12*
%MOMM*%
%LPD*%
G01*
G04 APERTURE LIST*
G04 Aperture macros list*
%AMRoundRect*
0 Rectangle with rounded corners*
0 $1 Rounding radius*
0 $2 $3 $4 $5 $6 $7 $8 $9 X,Y pos of 4 corners*
0 Add a 4 corners polygon primitive as box body*
4,1,4,$2,$3,$4,$5,$6,$7,$8,$9,$2,$3,0*
0 Add four circle primitives for the rounded corners*
1,1,$1+$1,$2,$3*
1,1,$1+$1,$4,$5*
1,1,$1+$1,$6,$7*
1,1,$1+$1,$8,$9*
0 Add four rect primitives between the rounded corners*
20,1,$1+$1,$2,$3,$4,$5,0*
20,1,$1+$1,$4,$5,$6,$7,0*
20,1,$1+$1,$6,$7,$8,$9,0*
20,1,$1+$1,$8,$9,$2,$3,0*%
G04 Aperture macros list end*
%TA.AperFunction,ComponentPad*%
%ADD10C,1.217000*%
%TD*%
%TA.AperFunction,ComponentPad*%
%ADD11O,1.508000X3.016000*%
%TD*%
%TA.AperFunction,SMDPad,CuDef*%
%ADD12C,0.164000*%
%TD*%
%TA.AperFunction,SMDPad,CuDef*%
%ADD13R,0.800000X0.200000*%
%TD*%
%TA.AperFunction,SMDPad,CuDef*%
%ADD14R,0.200000X0.800000*%
%TD*%
%TA.AperFunction,SMDPad,CuDef*%
%ADD15R,1.800000X1.800000*%
%TD*%
%TA.AperFunction,SMDPad,CuDef*%
%ADD16R,1.525000X0.650000*%
%TD*%
%TA.AperFunction,ComponentPad*%
%ADD17C,2.000000*%
%TD*%
%TA.AperFunction,SMDPad,CuDef*%
%ADD18R,1.475000X0.450000*%
%TD*%
%TA.AperFunction,ComponentPad*%
%ADD19R,1.700000X1.700000*%
%TD*%
%TA.AperFunction,ComponentPad*%
%ADD20O,1.700000X1.700000*%
%TD*%
%TA.AperFunction,SMDPad,CuDef*%
%ADD21RoundRect,0.250000X-0.250000X-0.475000X0.250000X-0.475000X0.250000X0.475000X-0.250000X0.475000X0*%
%TD*%
%TA.AperFunction,ViaPad*%
%ADD22C,0.500000*%
%TD*%
%TA.AperFunction,Conductor*%
%ADD23C,0.152400*%
%TD*%
%TA.AperFunction,Conductor*%
%ADD24C,0.254000*%
%TD*%
G04 APERTURE END LIST*
D10*
X149197500Y-119000000D03*
X146657500Y-124080000D03*
X144117500Y-119000000D03*
X139500000Y-119000000D03*
X136960000Y-124080000D03*
X134420000Y-119000000D03*
X149197500Y-128000000D03*
X146657500Y-133080000D03*
X144117500Y-128000000D03*
X139500000Y-128000000D03*
X136960000Y-133080000D03*
X134420000Y-128000000D03*
D11*
X165000000Y-78100000D03*
X162500000Y-93000000D03*
X147000000Y-78100000D03*
X144500000Y-93000000D03*
D12*
X135500000Y-88000000D03*
X135000000Y-88000000D03*
X135500000Y-87500000D03*
X135000000Y-87500000D03*
D13*
X128000000Y-129800000D03*
X128000000Y-129400000D03*
X128000000Y-129000000D03*
X128000000Y-128600000D03*
X128000000Y-128200000D03*
D14*
X127300000Y-127500000D03*
X126900000Y-127500000D03*
X126500000Y-127500000D03*
X126100000Y-127500000D03*
X125700000Y-127500000D03*
D13*
X125000000Y-128200000D03*
X125000000Y-128600000D03*
X125000000Y-129000000D03*
X125000000Y-129400000D03*
X125000000Y-129800000D03*
D14*
X125700000Y-130500000D03*
X126100000Y-130500000D03*
X126500000Y-130500000D03*
X126900000Y-130500000D03*
X127300000Y-130500000D03*
D15*
X126500000Y-129000000D03*
D16*
X160076000Y-125730000D03*
X160076000Y-127000000D03*
X160076000Y-128270000D03*
X160076000Y-129540000D03*
X165500000Y-129540000D03*
X165500000Y-128270000D03*
X165500000Y-127000000D03*
X165500000Y-125730000D03*
X160076000Y-119180000D03*
X160076000Y-120450000D03*
X160076000Y-121720000D03*
X160076000Y-122990000D03*
X165500000Y-122990000D03*
X165500000Y-121720000D03*
X165500000Y-120450000D03*
X165500000Y-119180000D03*
X160076000Y-112630000D03*
X160076000Y-113900000D03*
X160076000Y-115170000D03*
X160076000Y-116440000D03*
X165500000Y-116440000D03*
X165500000Y-115170000D03*
X165500000Y-113900000D03*
X165500000Y-112630000D03*
X160076000Y-106080000D03*
X160076000Y-107350000D03*
X160076000Y-108620000D03*
X160076000Y-109890000D03*
X165500000Y-109890000D03*
X165500000Y-108620000D03*
X165500000Y-107350000D03*
X165500000Y-106080000D03*
D13*
X127900000Y-88300000D03*
X127900000Y-87900000D03*
X127900000Y-87500000D03*
X127900000Y-87100000D03*
X127900000Y-86700000D03*
D14*
X127200000Y-86000000D03*
X126800000Y-86000000D03*
X126400000Y-86000000D03*
X126000000Y-86000000D03*
X125600000Y-86000000D03*
D13*
X124900000Y-86700000D03*
X124900000Y-87100000D03*
X124900000Y-87500000D03*
X124900000Y-87900000D03*
X124900000Y-88300000D03*
D14*
X125600000Y-89000000D03*
X126000000Y-89000000D03*
X126400000Y-89000000D03*
X126800000Y-89000000D03*
X127200000Y-89000000D03*
D15*
X126400000Y-87500000D03*
D17*
X178132807Y-133020001D03*
X175592807Y-133020001D03*
D18*
X129938000Y-75425000D03*
X129938000Y-74775000D03*
X129938000Y-74125000D03*
X129938000Y-73475000D03*
X129938000Y-72825000D03*
X129938000Y-72175000D03*
X129938000Y-71525000D03*
X129938000Y-70875000D03*
X129938000Y-70225000D03*
X129938000Y-69575000D03*
X124062000Y-69575000D03*
X124062000Y-70225000D03*
X124062000Y-70875000D03*
X124062000Y-71525000D03*
X124062000Y-72175000D03*
X124062000Y-72825000D03*
X124062000Y-73475000D03*
X124062000Y-74125000D03*
X124062000Y-74775000D03*
X124062000Y-75425000D03*
D19*
X167287007Y-132689801D03*
D20*
X164747007Y-132689801D03*
X162207007Y-132689801D03*
X159667007Y-132689801D03*
X157127007Y-132689801D03*
X154587007Y-132689801D03*
D17*
X119357207Y-132258001D03*
X116817207Y-132258001D03*
D19*
X111076807Y-63525601D03*
D20*
X111076807Y-66065601D03*
X111076807Y-68605601D03*
X111076807Y-71145601D03*
X111076807Y-73685601D03*
X111076807Y-76225601D03*
X111076807Y-78765601D03*
X111076807Y-81305601D03*
X111076807Y-83845601D03*
X111076807Y-86385601D03*
X111076807Y-88925601D03*
X111076807Y-91465601D03*
X111076807Y-94005601D03*
X111076807Y-96545601D03*
X111076807Y-99085601D03*
X111076807Y-101625601D03*
X111076807Y-104165601D03*
X111076807Y-106705601D03*
X111076807Y-109245601D03*
X111076807Y-111785601D03*
X111076807Y-114325601D03*
X111076807Y-116865601D03*
X111076807Y-119405601D03*
X111076807Y-121945601D03*
X111076807Y-124485601D03*
X111076807Y-127025601D03*
X111076807Y-129565601D03*
X111076807Y-132105601D03*
D21*
X174100000Y-119500000D03*
X176000000Y-119500000D03*
X174100000Y-106500000D03*
X176000000Y-106500000D03*
X174100000Y-113000000D03*
X176000000Y-113000000D03*
D19*
X183568407Y-132004001D03*
D20*
X183568407Y-129464001D03*
X183568407Y-126924001D03*
X183568407Y-124384001D03*
X183568407Y-121844001D03*
X183568407Y-119304001D03*
X183568407Y-116764001D03*
X183568407Y-114224001D03*
X183568407Y-111684001D03*
X183568407Y-109144001D03*
X183568407Y-106604001D03*
X183568407Y-104064001D03*
X183568407Y-101524001D03*
X183568407Y-98984001D03*
X183568407Y-96444001D03*
X183568407Y-93904001D03*
X183568407Y-91364001D03*
X183568407Y-88824001D03*
X183568407Y-86284001D03*
X183568407Y-83744001D03*
X183568407Y-81204001D03*
X183568407Y-78664001D03*
X183568407Y-76124001D03*
X183568407Y-73584001D03*
X183568407Y-71044001D03*
X183568407Y-68504001D03*
X183568407Y-65964001D03*
X183568407Y-63424001D03*
D21*
X174100000Y-126000000D03*
X176000000Y-126000000D03*
D22*
X174100000Y-103500000D03*
X124500000Y-92000000D03*
X122411578Y-91911578D03*
X125157200Y-132000000D03*
X115000000Y-71000000D03*
X135500000Y-93000000D03*
X129500000Y-90000000D03*
X127500000Y-132000000D03*
X132500000Y-66500000D03*
X132000000Y-64000000D03*
X169000000Y-107500000D03*
X169000000Y-114000000D03*
X169000000Y-127000000D03*
X169000000Y-120500000D03*
X133500000Y-89000000D03*
X133500000Y-87500000D03*
X130000000Y-132500000D03*
X114000000Y-89500000D03*
X114000000Y-79000000D03*
X126800000Y-90300000D03*
X118000000Y-90000000D03*
X127000000Y-133500000D03*
X130000000Y-131500000D03*
X126500000Y-94000000D03*
X122000000Y-133000000D03*
X131500000Y-73500000D03*
X132000000Y-91000000D03*
X131500000Y-71000000D03*
X165000000Y-68500000D03*
X130000000Y-68500000D03*
X129500000Y-125500000D03*
X126500000Y-124000000D03*
X125500000Y-125000000D03*
X127000000Y-126000000D03*
X158500000Y-106000000D03*
X158500000Y-112500000D03*
X167035999Y-116500000D03*
X167035999Y-123000000D03*
X167000000Y-110000000D03*
X167000000Y-129500000D03*
X168000000Y-122000000D03*
X168000000Y-128000000D03*
X168000000Y-108500000D03*
X168000000Y-115500000D03*
X156500000Y-120500000D03*
X156500000Y-111500000D03*
X170000000Y-111500000D03*
X156500000Y-107500000D03*
X157500000Y-114000000D03*
X157500000Y-124500000D03*
X157500000Y-127000000D03*
X170000000Y-124500000D03*
X158500000Y-125500000D03*
X158500000Y-119500000D03*
X169500000Y-118000000D03*
D23*
X174100000Y-103500000D02*
X174100000Y-68900000D01*
X174100000Y-106500000D02*
X174100000Y-103500000D01*
X174100000Y-68900000D02*
X174500000Y-68500000D01*
X175000000Y-68500000D02*
X175004001Y-68504001D01*
X174500000Y-68500000D02*
X175000000Y-68500000D01*
X175004001Y-68504001D02*
X183568407Y-68504001D01*
X126500000Y-129000000D02*
X127300000Y-129800000D01*
X127300000Y-129800000D02*
X127300000Y-130500000D01*
X126400000Y-87500000D02*
X126000000Y-87900000D01*
X126000000Y-87900000D02*
X126000000Y-89000000D01*
X149197500Y-119000000D02*
X149197500Y-128000000D01*
X139500000Y-119000000D02*
X139500000Y-128000000D01*
X113382408Y-129800000D02*
X111076807Y-132105601D01*
X176000000Y-119500000D02*
X176000000Y-126000000D01*
X160076000Y-122990000D02*
X155510000Y-122990000D01*
X155500000Y-129500000D02*
X155500000Y-131000000D01*
X155510000Y-122990000D02*
X155500000Y-123000000D01*
X144000000Y-132000000D02*
X144117500Y-131882500D01*
X122411578Y-91911578D02*
X124900000Y-89423156D01*
X124062000Y-70875000D02*
X115125000Y-70875000D01*
X127900000Y-88300000D02*
X129300000Y-88300000D01*
X115125000Y-70875000D02*
X115000000Y-71000000D01*
X124900000Y-89423156D02*
X124900000Y-88300000D01*
X134420000Y-119000000D02*
X134420000Y-128000000D01*
D24*
X183004406Y-88260000D02*
X183568407Y-88824001D01*
D23*
X176000000Y-131000000D02*
X181000000Y-131000000D01*
X144117500Y-119000000D02*
X144117500Y-128000000D01*
X155500000Y-110000000D02*
X155500000Y-116500000D01*
X123500000Y-132000000D02*
X125157200Y-132000000D01*
X182004001Y-132004001D02*
X183568407Y-132004001D01*
X129500000Y-130000000D02*
X129300000Y-129800000D01*
X135500000Y-88000000D02*
X135500000Y-93000000D01*
X155500000Y-131000000D02*
X174500000Y-131000000D01*
X127500000Y-90000000D02*
X127200000Y-89700000D01*
X160076000Y-109890000D02*
X155610000Y-109890000D01*
X176000000Y-106500000D02*
X176000000Y-113000000D01*
X127300000Y-131800000D02*
X127500000Y-132000000D01*
X174500000Y-131000000D02*
X176000000Y-131000000D01*
X126000000Y-90500000D02*
X124500000Y-92000000D01*
X129500000Y-132000000D02*
X129500000Y-130000000D01*
X134500000Y-132000000D02*
X144000000Y-132000000D01*
X174000000Y-131000000D02*
X174500000Y-131000000D01*
X160076000Y-116440000D02*
X155560000Y-116440000D01*
X127300000Y-130500000D02*
X127300000Y-131800000D01*
X129500000Y-132000000D02*
X134500000Y-132000000D01*
X155500000Y-123000000D02*
X155500000Y-129500000D01*
X144117500Y-131882500D02*
X144117500Y-128000000D01*
X126100000Y-131057200D02*
X126100000Y-130500000D01*
X134420000Y-128000000D02*
X134420000Y-131920000D01*
X129500000Y-90000000D02*
X127500000Y-90000000D01*
X129300000Y-88300000D02*
X129500000Y-88500000D01*
X155500000Y-129500000D02*
X155540000Y-129540000D01*
X134420000Y-131920000D02*
X134500000Y-132000000D01*
X155500000Y-116500000D02*
X155500000Y-123000000D01*
X155610000Y-109890000D02*
X155500000Y-110000000D01*
X125000000Y-129800000D02*
X123500000Y-129800000D01*
X176000000Y-126000000D02*
X176000000Y-131000000D01*
X155560000Y-116440000D02*
X155500000Y-116500000D01*
X129500000Y-88500000D02*
X129500000Y-90000000D01*
X129300000Y-129800000D02*
X128000000Y-129800000D01*
X123500000Y-129800000D02*
X113382408Y-129800000D01*
X126000000Y-89000000D02*
X126000000Y-90500000D01*
X127500000Y-132000000D02*
X129500000Y-132000000D01*
X127200000Y-89700000D02*
X127200000Y-89000000D01*
X125157200Y-132000000D02*
X126100000Y-131057200D01*
X181000000Y-131000000D02*
X182004001Y-132004001D01*
X123500000Y-129800000D02*
X123500000Y-132000000D01*
X176000000Y-113000000D02*
X176000000Y-119500000D01*
X155540000Y-129540000D02*
X160076000Y-129540000D01*
X111287408Y-73475000D02*
X124062000Y-73475000D01*
X111076807Y-73685601D02*
X111287408Y-73475000D01*
X111076807Y-81305601D02*
X130305601Y-81305601D01*
X130400000Y-87100000D02*
X127900000Y-87100000D01*
X130500000Y-81500000D02*
X130500000Y-87000000D01*
X130500000Y-87000000D02*
X130400000Y-87100000D01*
X130305601Y-81305601D02*
X130500000Y-81500000D01*
X129345601Y-83845601D02*
X111076807Y-83845601D01*
X129300000Y-86700000D02*
X129500000Y-86500000D01*
X129500000Y-86500000D02*
X129500000Y-84000000D01*
X127900000Y-86700000D02*
X129300000Y-86700000D01*
X129500000Y-84000000D02*
X129345601Y-83845601D01*
X124585601Y-86385601D02*
X124900000Y-86700000D01*
X111076807Y-86385601D02*
X124585601Y-86385601D01*
X112902408Y-87100000D02*
X111076807Y-88925601D01*
X124900000Y-87100000D02*
X112902408Y-87100000D01*
X124342800Y-87900000D02*
X118237199Y-94005601D01*
X124900000Y-87900000D02*
X124342800Y-87900000D01*
X118237199Y-94005601D02*
X111076807Y-94005601D01*
X118454399Y-96545601D02*
X125600000Y-89400000D01*
X111076807Y-96545601D02*
X118454399Y-96545601D01*
X125600000Y-89400000D02*
X125600000Y-89000000D01*
X119500000Y-91500000D02*
X123500000Y-87500000D01*
X123500000Y-87500000D02*
X124900000Y-87500000D01*
X119465601Y-91465601D02*
X119500000Y-91500000D01*
X111076807Y-91465601D02*
X119465601Y-91465601D01*
X125000000Y-128200000D02*
X117331206Y-128200000D01*
X117331206Y-128200000D02*
X111076807Y-121945601D01*
X112756206Y-72825000D02*
X124062000Y-72825000D01*
X111076807Y-71145601D02*
X112756206Y-72825000D01*
X111076807Y-68605601D02*
X113996206Y-71525000D01*
X113996206Y-71525000D02*
X124062000Y-71525000D01*
X132500000Y-72000000D02*
X132325000Y-72175000D01*
X132500000Y-66500000D02*
X132500000Y-72000000D01*
X132325000Y-72175000D02*
X129938000Y-72175000D01*
X132000000Y-71500000D02*
X132000000Y-71000000D01*
X129938000Y-71525000D02*
X131975000Y-71525000D01*
X132000000Y-71000000D02*
X132000000Y-64000000D01*
X131975000Y-71525000D02*
X132000000Y-71500000D01*
X125000000Y-128600000D02*
X115191206Y-128600000D01*
X115191206Y-128600000D02*
X111076807Y-124485601D01*
X111076807Y-127025601D02*
X113051206Y-129000000D01*
X113051206Y-129000000D02*
X125000000Y-129000000D01*
X111242408Y-129400000D02*
X125000000Y-129400000D01*
X111076807Y-129565601D02*
X111242408Y-129400000D01*
X168950000Y-120450000D02*
X169000000Y-120500000D01*
X168900000Y-113900000D02*
X169000000Y-114000000D01*
X165500000Y-113900000D02*
X168900000Y-113900000D01*
X165500000Y-120450000D02*
X168950000Y-120450000D01*
X165500000Y-107350000D02*
X168850000Y-107350000D01*
X168850000Y-107350000D02*
X169000000Y-107500000D01*
X165500000Y-127000000D02*
X169000000Y-127000000D01*
X165500000Y-112630000D02*
X173730000Y-112630000D01*
X173830000Y-125730000D02*
X174100000Y-126000000D01*
X173730000Y-112630000D02*
X174100000Y-113000000D01*
X165500000Y-119180000D02*
X173780000Y-119180000D01*
X174100000Y-126000000D02*
X174100000Y-119500000D01*
X174100000Y-113000000D02*
X174100000Y-106500000D01*
X165500000Y-125730000D02*
X173830000Y-125730000D01*
X174100000Y-119500000D02*
X174100000Y-113000000D01*
X173780000Y-119180000D02*
X174100000Y-119500000D01*
X165500000Y-106080000D02*
X173680000Y-106080000D01*
X173680000Y-106080000D02*
X174100000Y-106500000D01*
X122000000Y-77000000D02*
X122000000Y-74125000D01*
X130000000Y-89000000D02*
X130500000Y-89000000D01*
X131500000Y-77000000D02*
X122000000Y-77000000D01*
X130000000Y-88000000D02*
X130000000Y-89000000D01*
X122000000Y-74125000D02*
X114375000Y-74125000D01*
X114375000Y-74125000D02*
X114000000Y-74500000D01*
X126900000Y-133400000D02*
X126900000Y-130500000D01*
X129938000Y-74125000D02*
X131125000Y-74125000D01*
X130000000Y-130000000D02*
X130000000Y-130500000D01*
X133500000Y-87500000D02*
X135000000Y-87500000D01*
X128000000Y-129400000D02*
X129400000Y-129400000D01*
X126800000Y-90300000D02*
X126800000Y-89000000D01*
X127000000Y-133500000D02*
X126900000Y-133400000D01*
X130000000Y-89000000D02*
X130000000Y-90500000D01*
X130000000Y-132500000D02*
X130000000Y-133500000D01*
X127000000Y-90500000D02*
X126800000Y-90300000D01*
X118000000Y-90000000D02*
X114500000Y-90000000D01*
X130000000Y-130500000D02*
X130000000Y-131500000D01*
X131500000Y-74500000D02*
X131500000Y-77000000D01*
X114500000Y-90000000D02*
X114000000Y-89500000D01*
X124062000Y-74125000D02*
X122000000Y-74125000D01*
X129400000Y-129400000D02*
X130000000Y-130000000D01*
X127900000Y-87900000D02*
X129900000Y-87900000D01*
X114000000Y-74500000D02*
X114000000Y-79000000D01*
X129900000Y-87900000D02*
X130000000Y-88000000D01*
X130000000Y-133500000D02*
X127000000Y-133500000D01*
X131125000Y-74125000D02*
X131500000Y-74500000D01*
X130500000Y-89000000D02*
X133500000Y-89000000D01*
X130000000Y-90500000D02*
X127000000Y-90500000D01*
X131375000Y-70875000D02*
X131500000Y-71000000D01*
X126500000Y-133000000D02*
X126000000Y-133000000D01*
X126321400Y-90101757D02*
X126321400Y-91321400D01*
X126500000Y-131000000D02*
X126500000Y-133000000D01*
X126000000Y-133000000D02*
X122000000Y-133000000D01*
X126400000Y-89000000D02*
X126400000Y-90023157D01*
X126500000Y-130500000D02*
X126500000Y-131000000D01*
X131475000Y-73475000D02*
X129938000Y-73475000D01*
X126500000Y-94000000D02*
X126500000Y-91500000D01*
X126400000Y-90023157D02*
X126321400Y-90101757D01*
X126321400Y-91321400D02*
X126500000Y-91500000D01*
X127000000Y-91500000D02*
X131500000Y-91500000D01*
X129938000Y-70875000D02*
X131375000Y-70875000D01*
X131500000Y-91500000D02*
X132000000Y-91000000D01*
X126500000Y-91500000D02*
X127000000Y-91500000D01*
X131500000Y-73500000D02*
X131475000Y-73475000D01*
X133000000Y-88000000D02*
X135000000Y-88000000D01*
X132500000Y-87500000D02*
X133000000Y-88000000D01*
X127900000Y-87500000D02*
X132500000Y-87500000D01*
X129938000Y-68562000D02*
X130000000Y-68500000D01*
X129938000Y-69575000D02*
X129938000Y-68562000D01*
X165000000Y-68500000D02*
X165000000Y-78100000D01*
X126500000Y-127500000D02*
X126500000Y-125500000D01*
X127000000Y-125500000D02*
X129500000Y-125500000D01*
X126500000Y-125500000D02*
X127000000Y-125500000D01*
X126100000Y-124400000D02*
X126500000Y-124000000D01*
X126100000Y-127500000D02*
X126100000Y-124400000D01*
X125500000Y-126000000D02*
X125700000Y-126200000D01*
X125700000Y-126200000D02*
X125700000Y-127500000D01*
X125500000Y-125000000D02*
X125500000Y-126000000D01*
X126900000Y-126100000D02*
X127000000Y-126000000D01*
X126900000Y-127500000D02*
X126900000Y-126100000D01*
X158630000Y-112630000D02*
X158500000Y-112500000D01*
X158580000Y-106080000D02*
X160076000Y-106080000D01*
X160076000Y-112630000D02*
X158630000Y-112630000D01*
X158500000Y-106000000D02*
X158580000Y-106080000D01*
X167025999Y-122990000D02*
X167035999Y-123000000D01*
X166890000Y-109890000D02*
X165500000Y-109890000D01*
X167000000Y-110000000D02*
X166890000Y-109890000D01*
X166975999Y-116440000D02*
X167035999Y-116500000D01*
X165500000Y-116440000D02*
X166975999Y-116440000D01*
X167000000Y-129500000D02*
X165540000Y-129500000D01*
X165540000Y-129500000D02*
X165500000Y-129540000D01*
X165500000Y-122990000D02*
X167025999Y-122990000D01*
X168000000Y-108500000D02*
X167880000Y-108620000D01*
X167880000Y-108620000D02*
X165500000Y-108620000D01*
X165500000Y-115170000D02*
X167670000Y-115170000D01*
X167670000Y-115170000D02*
X168000000Y-115500000D01*
X167730000Y-128270000D02*
X168000000Y-128000000D01*
X167720000Y-121720000D02*
X168000000Y-122000000D01*
X165500000Y-128270000D02*
X167730000Y-128270000D01*
X165500000Y-121720000D02*
X167720000Y-121720000D01*
X156500000Y-111500000D02*
X167691230Y-111500000D01*
X156650000Y-107350000D02*
X160076000Y-107350000D01*
X156500000Y-107500000D02*
X156650000Y-107350000D01*
X156550000Y-120450000D02*
X156500000Y-120500000D01*
X160076000Y-120450000D02*
X156550000Y-120450000D01*
X167691230Y-111500000D02*
X170000000Y-111500000D01*
X157500000Y-124500000D02*
X170000000Y-124500000D01*
X157600000Y-113900000D02*
X157500000Y-114000000D01*
X157500000Y-127000000D02*
X160076000Y-127000000D01*
X160076000Y-113900000D02*
X157600000Y-113900000D01*
X158500000Y-118000000D02*
X159000000Y-118000000D01*
X159000000Y-118000000D02*
X169500000Y-118000000D01*
X158500000Y-119500000D02*
X159756000Y-119500000D01*
X158500000Y-119500000D02*
X158500000Y-118000000D01*
X160076000Y-125730000D02*
X158730000Y-125730000D01*
X158730000Y-125730000D02*
X158500000Y-125500000D01*
X159756000Y-119500000D02*
X160076000Y-119180000D01*
X147000000Y-87500000D02*
X147000000Y-78100000D01*
X135500000Y-87500000D02*
X147000000Y-87500000D01*
%TA.AperFunction,Conductor*%
G36*
X129173741Y-130004702D02*
G01*
X129194715Y-130021605D01*
X129378395Y-130205285D01*
X129412421Y-130267597D01*
X129415300Y-130294380D01*
X129415300Y-130968580D01*
X129395987Y-131035616D01*
X129383459Y-131055554D01*
X129312290Y-131168817D01*
X129255837Y-131330151D01*
X129236701Y-131500000D01*
X129255837Y-131669848D01*
X129312291Y-131831183D01*
X129312292Y-131831185D01*
X129376244Y-131932964D01*
X129395550Y-132001285D01*
X129376244Y-132067036D01*
X129312292Y-132168814D01*
X129312291Y-132168816D01*
X129255837Y-132330151D01*
X129236701Y-132500000D01*
X129255837Y-132669846D01*
X129255837Y-132669848D01*
X129255838Y-132669850D01*
X129283074Y-132747686D01*
X129286694Y-132818589D01*
X129251405Y-132880194D01*
X129188412Y-132912941D01*
X129164145Y-132915300D01*
X127610700Y-132915300D01*
X127542579Y-132895298D01*
X127496086Y-132841642D01*
X127484700Y-132789300D01*
X127484700Y-131498076D01*
X127504702Y-131429955D01*
X127558358Y-131383462D01*
X127566668Y-131380020D01*
X127645965Y-131350444D01*
X127762904Y-131262904D01*
X127850444Y-131145965D01*
X127850444Y-131145964D01*
X127901494Y-131009093D01*
X127907999Y-130948597D01*
X127908000Y-130948585D01*
X127908000Y-130534000D01*
X127928002Y-130465879D01*
X127981658Y-130419386D01*
X128034000Y-130408000D01*
X128448585Y-130408000D01*
X128448597Y-130407999D01*
X128509093Y-130401494D01*
X128645964Y-130350444D01*
X128645965Y-130350444D01*
X128762904Y-130262904D01*
X128850444Y-130145965D01*
X128850446Y-130145961D01*
X128880022Y-130066667D01*
X128922568Y-130009831D01*
X128989089Y-129985021D01*
X128998077Y-129984700D01*
X129105620Y-129984700D01*
X129173741Y-130004702D01*
G37*
%TD.AperFunction*%
%TA.AperFunction,Conductor*%
G36*
X124304563Y-88869291D02*
G01*
X124390905Y-88901494D01*
X124451402Y-88907999D01*
X124451415Y-88908000D01*
X124865500Y-88908000D01*
X124933621Y-88928002D01*
X124980114Y-88981658D01*
X124991500Y-89034000D01*
X124991500Y-89129420D01*
X124971498Y-89197541D01*
X124954595Y-89218515D01*
X118249114Y-95923996D01*
X118186802Y-95958022D01*
X118160019Y-95960901D01*
X112385431Y-95960901D01*
X112317310Y-95940899D01*
X112279727Y-95900381D01*
X112278517Y-95901172D01*
X112152531Y-95708335D01*
X112152527Y-95708330D01*
X112000044Y-95542692D01*
X111918189Y-95478982D01*
X111822383Y-95404412D01*
X111789126Y-95386414D01*
X111738736Y-95336403D01*
X111723383Y-95267086D01*
X111747943Y-95200473D01*
X111789127Y-95164787D01*
X111822383Y-95146790D01*
X112000047Y-95008507D01*
X112152529Y-94842869D01*
X112204515Y-94763298D01*
X112278517Y-94650030D01*
X112279944Y-94650962D01*
X112324635Y-94605939D01*
X112385431Y-94590301D01*
X118314174Y-94590301D01*
X118314176Y-94590301D01*
X118462885Y-94550454D01*
X118596213Y-94473477D01*
X118705075Y-94364615D01*
X124171440Y-88898249D01*
X124233748Y-88864226D01*
X124304563Y-88869291D01*
G37*
%TD.AperFunction*%
%TA.AperFunction,Conductor*%
G36*
X129357421Y-88504702D02*
G01*
X129403914Y-88558358D01*
X129415300Y-88610700D01*
X129415300Y-89789300D01*
X129395298Y-89857421D01*
X129341642Y-89903914D01*
X129289300Y-89915300D01*
X127800538Y-89915300D01*
X127732417Y-89895298D01*
X127685924Y-89841642D01*
X127675820Y-89771368D01*
X127699670Y-89713791D01*
X127750444Y-89645965D01*
X127750444Y-89645964D01*
X127801494Y-89509093D01*
X127807999Y-89448597D01*
X127808000Y-89448585D01*
X127808000Y-89034000D01*
X127828002Y-88965879D01*
X127881658Y-88919386D01*
X127934000Y-88908000D01*
X128348585Y-88908000D01*
X128348597Y-88907999D01*
X128409093Y-88901494D01*
X128545964Y-88850444D01*
X128545965Y-88850444D01*
X128662904Y-88762904D01*
X128750444Y-88645965D01*
X128750446Y-88645961D01*
X128780022Y-88566667D01*
X128822568Y-88509831D01*
X128889089Y-88485021D01*
X128898077Y-88484700D01*
X129289300Y-88484700D01*
X129357421Y-88504702D01*
G37*
%TD.AperFunction*%
%TA.AperFunction,Conductor*%
G36*
X183822407Y-90933298D02*
G01*
X183761400Y-90898076D01*
X183634233Y-90864001D01*
X183502581Y-90864001D01*
X183375414Y-90898076D01*
X183314407Y-90933298D01*
X183314407Y-89254703D01*
X183375414Y-89289926D01*
X183502581Y-89324001D01*
X183634233Y-89324001D01*
X183761400Y-89289926D01*
X183822407Y-89254703D01*
X183822407Y-90933298D01*
G37*
%TD.AperFunction*%
%TA.AperFunction,Conductor*%
G36*
X185313928Y-61290503D02*
G01*
X185360421Y-61344159D01*
X185371807Y-61396501D01*
X185371807Y-134875501D01*
X185351805Y-134943622D01*
X185298149Y-134990115D01*
X185245807Y-135001501D01*
X109399307Y-135001501D01*
X109331186Y-134981499D01*
X109284693Y-134927843D01*
X109273307Y-134875501D01*
X109273307Y-129565601D01*
X109713651Y-129565601D01*
X109722289Y-129669850D01*
X109732244Y-129789976D01*
X109787509Y-130008213D01*
X109787510Y-130008214D01*
X109787511Y-130008217D01*
X109866243Y-130187709D01*
X109877948Y-130214394D01*
X110001082Y-130402866D01*
X110001086Y-130402871D01*
X110153569Y-130568509D01*
X110183017Y-130591429D01*
X110331231Y-130706790D01*
X110365012Y-130725071D01*
X110415403Y-130775083D01*
X110430756Y-130844400D01*
X110406196Y-130911013D01*
X110365016Y-130946697D01*
X110331511Y-130964829D01*
X110331505Y-130964833D01*
X110153904Y-131103066D01*
X110001481Y-131268642D01*
X109878387Y-131457052D01*
X109787986Y-131663144D01*
X109787983Y-131663151D01*
X109740262Y-131851600D01*
X109740263Y-131851601D01*
X110646104Y-131851601D01*
X110610882Y-131912608D01*
X110576807Y-132039775D01*
X110576807Y-132171427D01*
X110610882Y-132298594D01*
X110646104Y-132359601D01*
X109740262Y-132359601D01*
X109787983Y-132548050D01*
X109787986Y-132548057D01*
X109878387Y-132754149D01*
X110001481Y-132942559D01*
X110153904Y-133108135D01*
X110331505Y-133246368D01*
X110331506Y-133246369D01*
X110529435Y-133353483D01*
X110529437Y-133353484D01*
X110742290Y-133426556D01*
X110742299Y-133426558D01*
X110822807Y-133439992D01*
X110822807Y-132536303D01*
X110883814Y-132571526D01*
X111010981Y-132605601D01*
X111142633Y-132605601D01*
X111269800Y-132571526D01*
X111330807Y-132536303D01*
X111330807Y-133439991D01*
X111411314Y-133426558D01*
X111411323Y-133426556D01*
X111624176Y-133353484D01*
X111624178Y-133353483D01*
X111822107Y-133246369D01*
X111822108Y-133246368D01*
X111999709Y-133108135D01*
X112152132Y-132942559D01*
X112275226Y-132754149D01*
X112365627Y-132548057D01*
X112365630Y-132548050D01*
X112413351Y-132359601D01*
X111507510Y-132359601D01*
X111542732Y-132298594D01*
X111553609Y-132258001D01*
X115304544Y-132258001D01*
X115323167Y-132494633D01*
X115378578Y-132725438D01*
X115469415Y-132944739D01*
X115584103Y-133131891D01*
X115584104Y-133131891D01*
X116333048Y-132382947D01*
X116351282Y-132450994D01*
X116417108Y-132565008D01*
X116510200Y-132658100D01*
X116624214Y-132723926D01*
X116692258Y-132742158D01*
X115943314Y-133491102D01*
X115943315Y-133491103D01*
X116130468Y-133605792D01*
X116349769Y-133696629D01*
X116580574Y-133752040D01*
X116817207Y-133770663D01*
X117053839Y-133752040D01*
X117284644Y-133696629D01*
X117503945Y-133605792D01*
X117691097Y-133491103D01*
X117691098Y-133491103D01*
X116942154Y-132742159D01*
X117010200Y-132723926D01*
X117124214Y-132658100D01*
X117217306Y-132565008D01*
X117283132Y-132450994D01*
X117301365Y-132382948D01*
X118050308Y-133131891D01*
X118072399Y-133129277D01*
X118102020Y-133129278D01*
X118124104Y-133131892D01*
X118873048Y-132382947D01*
X118891282Y-132450994D01*
X118957108Y-132565008D01*
X119050200Y-132658100D01*
X119164214Y-132723926D01*
X119232258Y-132742158D01*
X118483314Y-133491102D01*
X118483315Y-133491103D01*
X118670468Y-133605792D01*
X118889769Y-133696629D01*
X119120574Y-133752040D01*
X119357207Y-133770663D01*
X119593839Y-133752040D01*
X119824644Y-133696629D01*
X120043945Y-133605792D01*
X120231097Y-133491103D01*
X120231098Y-133491103D01*
X119482154Y-132742159D01*
X119550200Y-132723926D01*
X119664214Y-132658100D01*
X119757306Y-132565008D01*
X119823132Y-132450994D01*
X119841365Y-132382948D01*
X120590309Y-133131892D01*
X120590309Y-133131891D01*
X120704998Y-132944739D01*
X120795835Y-132725438D01*
X120851246Y-132494633D01*
X120869869Y-132258001D01*
X120851246Y-132021368D01*
X120795835Y-131790563D01*
X120704998Y-131571262D01*
X120590309Y-131384109D01*
X120590308Y-131384108D01*
X119841364Y-132133052D01*
X119823132Y-132065008D01*
X119757306Y-131950994D01*
X119664214Y-131857902D01*
X119550200Y-131792076D01*
X119482153Y-131773842D01*
X120231097Y-131024898D01*
X120231097Y-131024897D01*
X120043945Y-130910209D01*
X119824644Y-130819372D01*
X119593839Y-130763961D01*
X119357207Y-130745338D01*
X119120574Y-130763961D01*
X118889769Y-130819372D01*
X118670473Y-130910207D01*
X118483315Y-131024898D01*
X118483315Y-131024899D01*
X119232259Y-131773843D01*
X119164214Y-131792076D01*
X119050200Y-131857902D01*
X118957108Y-131950994D01*
X118891282Y-132065008D01*
X118873049Y-132133053D01*
X118124104Y-131384108D01*
X118102018Y-131386723D01*
X118072400Y-131386723D01*
X118050308Y-131384108D01*
X117301364Y-132133052D01*
X117283132Y-132065008D01*
X117217306Y-131950994D01*
X117124214Y-131857902D01*
X117010200Y-131792076D01*
X116942153Y-131773842D01*
X117691097Y-131024898D01*
X117691097Y-131024897D01*
X117503945Y-130910209D01*
X117284644Y-130819372D01*
X117053839Y-130763961D01*
X116817207Y-130745338D01*
X116580574Y-130763961D01*
X116349769Y-130819372D01*
X116130473Y-130910207D01*
X115943315Y-131024898D01*
X115943315Y-131024899D01*
X116692259Y-131773843D01*
X116624214Y-131792076D01*
X116510200Y-131857902D01*
X116417108Y-131950994D01*
X116351282Y-132065008D01*
X116333049Y-132133053D01*
X115584105Y-131384109D01*
X115584104Y-131384109D01*
X115469413Y-131571267D01*
X115378578Y-131790563D01*
X115323167Y-132021368D01*
X115304544Y-132258001D01*
X111553609Y-132258001D01*
X111576807Y-132171427D01*
X111576807Y-132039775D01*
X111542732Y-131912608D01*
X111507510Y-131851601D01*
X112413351Y-131851601D01*
X112413351Y-131851600D01*
X112365630Y-131663151D01*
X112365627Y-131663144D01*
X112275226Y-131457052D01*
X112152132Y-131268642D01*
X111999709Y-131103066D01*
X111822108Y-130964833D01*
X111822107Y-130964832D01*
X111788598Y-130946698D01*
X111738208Y-130896684D01*
X111722857Y-130827367D01*
X111747419Y-130760754D01*
X111788597Y-130725073D01*
X111822383Y-130706790D01*
X112000047Y-130568507D01*
X112152529Y-130402869D01*
X112275667Y-130214392D01*
X112321034Y-130110965D01*
X112343352Y-130060086D01*
X112389033Y-130005738D01*
X112456845Y-129984714D01*
X112458739Y-129984700D01*
X124001923Y-129984700D01*
X124070044Y-130004702D01*
X124116537Y-130058358D01*
X124119978Y-130066667D01*
X124149553Y-130145961D01*
X124149555Y-130145965D01*
X124237095Y-130262904D01*
X124354034Y-130350444D01*
X124490906Y-130401494D01*
X124551402Y-130407999D01*
X124551415Y-130408000D01*
X124965500Y-130408000D01*
X125033621Y-130428002D01*
X125080114Y-130481658D01*
X125091500Y-130534000D01*
X125091500Y-130948649D01*
X125098009Y-131009196D01*
X125098011Y-131009204D01*
X125149110Y-131146202D01*
X125149112Y-131146207D01*
X125236738Y-131263261D01*
X125353792Y-131350887D01*
X125353794Y-131350888D01*
X125353796Y-131350889D01*
X125400629Y-131368357D01*
X125490795Y-131401988D01*
X125490803Y-131401990D01*
X125551350Y-131408499D01*
X125551355Y-131408499D01*
X125551362Y-131408500D01*
X125551368Y-131408500D01*
X125789300Y-131408500D01*
X125857421Y-131428502D01*
X125903914Y-131482158D01*
X125915300Y-131534500D01*
X125915300Y-132289300D01*
X125895298Y-132357421D01*
X125841642Y-132403914D01*
X125789300Y-132415300D01*
X122531420Y-132415300D01*
X122464383Y-132395987D01*
X122359607Y-132330151D01*
X122331182Y-132312290D01*
X122231270Y-132277330D01*
X122169850Y-132255838D01*
X122169848Y-132255837D01*
X122169850Y-132255837D01*
X122000000Y-132236701D01*
X121830151Y-132255837D01*
X121668817Y-132312290D01*
X121524087Y-132403231D01*
X121403231Y-132524087D01*
X121312290Y-132668817D01*
X121255837Y-132830151D01*
X121236701Y-133000000D01*
X121255837Y-133169848D01*
X121312290Y-133331182D01*
X121403231Y-133475912D01*
X121524087Y-133596768D01*
X121524089Y-133596769D01*
X121524091Y-133596771D01*
X121668817Y-133687709D01*
X121830150Y-133744162D01*
X121830149Y-133744162D01*
X121847348Y-133746099D01*
X122000000Y-133763299D01*
X122169850Y-133744162D01*
X122331183Y-133687709D01*
X122464383Y-133604012D01*
X122531420Y-133584700D01*
X125923023Y-133584700D01*
X126136641Y-133584700D01*
X126204762Y-133604702D01*
X126251255Y-133658358D01*
X126255570Y-133669085D01*
X126312290Y-133831182D01*
X126329776Y-133859010D01*
X126402785Y-133975203D01*
X126403231Y-133975912D01*
X126524087Y-134096768D01*
X126524089Y-134096769D01*
X126524091Y-134096771D01*
X126668817Y-134187709D01*
X126830150Y-134244162D01*
X126830149Y-134244162D01*
X126847348Y-134246099D01*
X127000000Y-134263299D01*
X127169850Y-134244162D01*
X127331183Y-134187709D01*
X127464383Y-134104012D01*
X127531420Y-134084700D01*
X130076975Y-134084700D01*
X130076977Y-134084700D01*
X130225686Y-134044853D01*
X130359014Y-133967876D01*
X130467876Y-133859014D01*
X130544853Y-133725686D01*
X130584700Y-133576977D01*
X130584700Y-133080004D01*
X135838215Y-133080004D01*
X135857315Y-133286122D01*
X135857315Y-133286126D01*
X135911314Y-133475912D01*
X135913967Y-133485235D01*
X136006239Y-133670544D01*
X136006240Y-133670545D01*
X136006241Y-133670547D01*
X136130987Y-133835738D01*
X136283972Y-133975203D01*
X136342179Y-134011243D01*
X136459977Y-134084181D01*
X136653009Y-134158962D01*
X136856495Y-134197000D01*
X136856497Y-134197000D01*
X137063503Y-134197000D01*
X137063505Y-134197000D01*
X137266991Y-134158962D01*
X137460023Y-134084181D01*
X137636026Y-133975204D01*
X137789009Y-133835742D01*
X137913761Y-133670544D01*
X138006033Y-133485235D01*
X138062684Y-133286127D01*
X138076928Y-133132413D01*
X138081785Y-133080004D01*
X145535715Y-133080004D01*
X145554815Y-133286122D01*
X145554815Y-133286126D01*
X145608814Y-133475912D01*
X145611467Y-133485235D01*
X145703739Y-133670544D01*
X145703740Y-133670545D01*
X145703741Y-133670547D01*
X145828487Y-133835738D01*
X145981472Y-133975203D01*
X146039679Y-134011243D01*
X146157477Y-134084181D01*
X146350509Y-134158962D01*
X146553995Y-134197000D01*
X146553997Y-134197000D01*
X146761003Y-134197000D01*
X146761005Y-134197000D01*
X146964491Y-134158962D01*
X147157523Y-134084181D01*
X147333526Y-133975204D01*
X147486509Y-133835742D01*
X147611261Y-133670544D01*
X147703533Y-133485235D01*
X147760184Y-133286127D01*
X147774428Y-133132413D01*
X147779285Y-133080004D01*
X147779285Y-133079995D01*
X147762846Y-132902598D01*
X147760184Y-132873873D01*
X147707811Y-132689801D01*
X153223851Y-132689801D01*
X153242341Y-132912941D01*
X153242444Y-132914176D01*
X153297709Y-133132413D01*
X153297710Y-133132414D01*
X153297711Y-133132417D01*
X153365134Y-133286127D01*
X153388148Y-133338594D01*
X153511282Y-133527066D01*
X153511286Y-133527071D01*
X153663769Y-133692709D01*
X153681795Y-133706739D01*
X153841431Y-133830990D01*
X154039433Y-133938143D01*
X154039434Y-133938143D01*
X154039435Y-133938144D01*
X154126025Y-133967870D01*
X154252372Y-134011245D01*
X154474438Y-134048301D01*
X154474442Y-134048301D01*
X154699572Y-134048301D01*
X154699576Y-134048301D01*
X154921642Y-134011245D01*
X155134581Y-133938143D01*
X155332583Y-133830990D01*
X155510247Y-133692707D01*
X155662729Y-133527069D01*
X155751525Y-133391155D01*
X155805527Y-133345069D01*
X155875875Y-133335493D01*
X155940232Y-133365470D01*
X155962487Y-133391154D01*
X155981399Y-133420100D01*
X156051282Y-133527066D01*
X156051286Y-133527071D01*
X156203769Y-133692709D01*
X156221795Y-133706739D01*
X156381431Y-133830990D01*
X156579433Y-133938143D01*
X156579434Y-133938143D01*
X156579435Y-133938144D01*
X156666025Y-133967870D01*
X156792372Y-134011245D01*
X157014438Y-134048301D01*
X157014442Y-134048301D01*
X157239572Y-134048301D01*
X157239576Y-134048301D01*
X157461642Y-134011245D01*
X157674581Y-133938143D01*
X157872583Y-133830990D01*
X158050247Y-133692707D01*
X158202729Y-133527069D01*
X158291525Y-133391155D01*
X158345527Y-133345069D01*
X158415875Y-133335493D01*
X158480232Y-133365470D01*
X158502487Y-133391154D01*
X158521399Y-133420100D01*
X158591282Y-133527066D01*
X158591286Y-133527071D01*
X158743769Y-133692709D01*
X158761795Y-133706739D01*
X158921431Y-133830990D01*
X159119433Y-133938143D01*
X159119434Y-133938143D01*
X159119435Y-133938144D01*
X159206025Y-133967870D01*
X159332372Y-134011245D01*
X159554438Y-134048301D01*
X159554442Y-134048301D01*
X159779572Y-134048301D01*
X159779576Y-134048301D01*
X160001642Y-134011245D01*
X160214581Y-133938143D01*
X160412583Y-133830990D01*
X160590247Y-133692707D01*
X160742729Y-133527069D01*
X160831525Y-133391155D01*
X160885527Y-133345069D01*
X160955875Y-133335493D01*
X161020232Y-133365470D01*
X161042487Y-133391154D01*
X161061399Y-133420100D01*
X161131282Y-133527066D01*
X161131286Y-133527071D01*
X161283769Y-133692709D01*
X161301795Y-133706739D01*
X161461431Y-133830990D01*
X161659433Y-133938143D01*
X161659434Y-133938143D01*
X161659435Y-133938144D01*
X161746025Y-133967870D01*
X161872372Y-134011245D01*
X162094438Y-134048301D01*
X162094442Y-134048301D01*
X162319572Y-134048301D01*
X162319576Y-134048301D01*
X162541642Y-134011245D01*
X162754581Y-133938143D01*
X162952583Y-133830990D01*
X163130247Y-133692707D01*
X163282729Y-133527069D01*
X163371525Y-133391155D01*
X163425527Y-133345069D01*
X163495875Y-133335493D01*
X163560232Y-133365470D01*
X163582487Y-133391154D01*
X163601399Y-133420100D01*
X163671282Y-133527066D01*
X163671286Y-133527071D01*
X163823769Y-133692709D01*
X163841795Y-133706739D01*
X164001431Y-133830990D01*
X164199433Y-133938143D01*
X164199434Y-133938143D01*
X164199435Y-133938144D01*
X164286025Y-133967870D01*
X164412372Y-134011245D01*
X164634438Y-134048301D01*
X164634442Y-134048301D01*
X164859572Y-134048301D01*
X164859576Y-134048301D01*
X165081642Y-134011245D01*
X165294581Y-133938143D01*
X165492583Y-133830990D01*
X165670247Y-133692707D01*
X165731252Y-133626438D01*
X165792103Y-133589868D01*
X165863068Y-133592001D01*
X165921613Y-133632163D01*
X165942007Y-133667742D01*
X165986118Y-133786005D01*
X165986119Y-133786008D01*
X166073745Y-133903062D01*
X166190799Y-133990688D01*
X166190801Y-133990689D01*
X166190803Y-133990690D01*
X166245907Y-134011243D01*
X166327802Y-134041789D01*
X166327810Y-134041791D01*
X166388357Y-134048300D01*
X166388362Y-134048300D01*
X166388369Y-134048301D01*
X166388375Y-134048301D01*
X168185639Y-134048301D01*
X168185645Y-134048301D01*
X168185652Y-134048300D01*
X168185656Y-134048300D01*
X168246203Y-134041791D01*
X168246206Y-134041790D01*
X168246208Y-134041790D01*
X168383211Y-133990690D01*
X168453406Y-133938143D01*
X168500268Y-133903062D01*
X168587894Y-133786008D01*
X168587894Y-133786007D01*
X168587896Y-133786005D01*
X168638996Y-133649002D01*
X168640807Y-133632163D01*
X168645506Y-133588450D01*
X168645507Y-133588433D01*
X168645507Y-133020001D01*
X174080144Y-133020001D01*
X174098767Y-133256633D01*
X174154178Y-133487438D01*
X174245015Y-133706739D01*
X174359703Y-133893891D01*
X174359704Y-133893891D01*
X175108648Y-133144947D01*
X175126882Y-133212994D01*
X175192708Y-133327008D01*
X175285800Y-133420100D01*
X175399814Y-133485926D01*
X175467858Y-133504158D01*
X174718914Y-134253102D01*
X174718915Y-134253103D01*
X174906068Y-134367792D01*
X175125369Y-134458629D01*
X175356174Y-134514040D01*
X175592807Y-134532663D01*
X175829439Y-134514040D01*
X176060244Y-134458629D01*
X176279545Y-134367792D01*
X176466697Y-134253103D01*
X176466698Y-134253103D01*
X175717754Y-133504159D01*
X175785800Y-133485926D01*
X175899814Y-133420100D01*
X175992906Y-133327008D01*
X176058732Y-133212994D01*
X176076965Y-133144948D01*
X176825908Y-133893891D01*
X176847999Y-133891277D01*
X176877620Y-133891278D01*
X176899704Y-133893892D01*
X177648648Y-133144947D01*
X177666882Y-133212994D01*
X177732708Y-133327008D01*
X177825800Y-133420100D01*
X177939814Y-133485926D01*
X178007858Y-133504158D01*
X177258914Y-134253102D01*
X177258915Y-134253103D01*
X177446068Y-134367792D01*
X177665369Y-134458629D01*
X177896174Y-134514040D01*
X178132807Y-134532663D01*
X178369439Y-134514040D01*
X178600244Y-134458629D01*
X178819545Y-134367792D01*
X179006697Y-134253103D01*
X179006698Y-134253103D01*
X178257754Y-133504159D01*
X178325800Y-133485926D01*
X178439814Y-133420100D01*
X178532906Y-133327008D01*
X178598732Y-133212994D01*
X178616965Y-133144948D01*
X179365909Y-133893892D01*
X179365909Y-133893891D01*
X179480598Y-133706739D01*
X179571435Y-133487438D01*
X179626846Y-133256633D01*
X179645469Y-133020001D01*
X179626846Y-132783368D01*
X179571435Y-132552563D01*
X179480598Y-132333262D01*
X179365909Y-132146109D01*
X179365908Y-132146108D01*
X178616964Y-132895052D01*
X178598732Y-132827008D01*
X178532906Y-132712994D01*
X178439814Y-132619902D01*
X178325800Y-132554076D01*
X178257753Y-132535842D01*
X179006697Y-131786898D01*
X179006697Y-131786897D01*
X178819545Y-131672209D01*
X178600244Y-131581372D01*
X178369439Y-131525961D01*
X178132807Y-131507338D01*
X177896174Y-131525961D01*
X177665369Y-131581372D01*
X177446073Y-131672207D01*
X177258915Y-131786898D01*
X177258915Y-131786899D01*
X178007859Y-132535843D01*
X177939814Y-132554076D01*
X177825800Y-132619902D01*
X177732708Y-132712994D01*
X177666882Y-132827008D01*
X177648649Y-132895053D01*
X176899704Y-132146108D01*
X176877618Y-132148723D01*
X176848000Y-132148723D01*
X176825908Y-132146108D01*
X176076964Y-132895052D01*
X176058732Y-132827008D01*
X175992906Y-132712994D01*
X175899814Y-132619902D01*
X175785800Y-132554076D01*
X175717753Y-132535842D01*
X176466697Y-131786898D01*
X176466697Y-131786897D01*
X176279545Y-131672209D01*
X176060244Y-131581372D01*
X175829439Y-131525961D01*
X175592807Y-131507338D01*
X175356174Y-131525961D01*
X175125369Y-131581372D01*
X174906073Y-131672207D01*
X174718915Y-131786898D01*
X174718915Y-131786899D01*
X175467859Y-132535843D01*
X175399814Y-132554076D01*
X175285800Y-132619902D01*
X175192708Y-132712994D01*
X175126882Y-132827008D01*
X175108649Y-132895053D01*
X174359705Y-132146109D01*
X174359704Y-132146109D01*
X174245013Y-132333267D01*
X174154178Y-132552563D01*
X174098767Y-132783368D01*
X174080144Y-133020001D01*
X168645507Y-133020001D01*
X168645507Y-131791168D01*
X168645506Y-131791151D01*
X168638997Y-131730604D01*
X168638995Y-131730596D01*
X168592373Y-131605601D01*
X168587896Y-131593597D01*
X168587895Y-131593595D01*
X168587894Y-131593593D01*
X168500268Y-131476539D01*
X168383214Y-131388913D01*
X168383209Y-131388911D01*
X168246211Y-131337812D01*
X168246203Y-131337810D01*
X168185656Y-131331301D01*
X168185645Y-131331301D01*
X166388369Y-131331301D01*
X166388357Y-131331301D01*
X166327810Y-131337810D01*
X166327802Y-131337812D01*
X166190804Y-131388911D01*
X166190799Y-131388913D01*
X166073745Y-131476539D01*
X165986119Y-131593593D01*
X165986118Y-131593596D01*
X165942007Y-131711859D01*
X165899460Y-131768694D01*
X165832939Y-131793504D01*
X165763565Y-131778412D01*
X165731253Y-131753164D01*
X165670247Y-131686895D01*
X165670246Y-131686894D01*
X165670244Y-131686892D01*
X165588389Y-131623182D01*
X165492583Y-131548612D01*
X165294581Y-131441459D01*
X165294579Y-131441458D01*
X165294578Y-131441457D01*
X165081646Y-131368358D01*
X165081637Y-131368356D01*
X165037483Y-131360988D01*
X164859576Y-131331301D01*
X164634438Y-131331301D01*
X164486218Y-131356034D01*
X164412376Y-131368356D01*
X164412367Y-131368358D01*
X164199435Y-131441457D01*
X164199433Y-131441459D01*
X164001433Y-131548611D01*
X164001431Y-131548612D01*
X163823769Y-131686892D01*
X163671286Y-131852530D01*
X163582490Y-131988444D01*
X163528486Y-132034532D01*
X163458138Y-132044107D01*
X163393781Y-132014130D01*
X163371524Y-131988444D01*
X163282727Y-131852530D01*
X163130244Y-131686892D01*
X163048389Y-131623182D01*
X162952583Y-131548612D01*
X162754581Y-131441459D01*
X162754579Y-131441458D01*
X162754578Y-131441457D01*
X162541646Y-131368358D01*
X162541637Y-131368356D01*
X162497483Y-131360988D01*
X162319576Y-131331301D01*
X162094438Y-131331301D01*
X161946218Y-131356034D01*
X161872376Y-131368356D01*
X161872367Y-131368358D01*
X161659435Y-131441457D01*
X161659433Y-131441459D01*
X161461433Y-131548611D01*
X161461431Y-131548612D01*
X161283769Y-131686892D01*
X161131286Y-131852530D01*
X161042490Y-131988444D01*
X160988486Y-132034532D01*
X160918138Y-132044107D01*
X160853781Y-132014130D01*
X160831524Y-131988444D01*
X160742727Y-131852530D01*
X160590244Y-131686892D01*
X160508389Y-131623182D01*
X160412583Y-131548612D01*
X160214581Y-131441459D01*
X160214579Y-131441458D01*
X160214578Y-131441457D01*
X160001646Y-131368358D01*
X160001637Y-131368356D01*
X159957483Y-131360988D01*
X159779576Y-131331301D01*
X159554438Y-131331301D01*
X159406218Y-131356034D01*
X159332376Y-131368356D01*
X159332367Y-131368358D01*
X159119435Y-131441457D01*
X159119433Y-131441459D01*
X158921433Y-131548611D01*
X158921431Y-131548612D01*
X158743769Y-131686892D01*
X158591286Y-131852530D01*
X158502490Y-131988444D01*
X158448486Y-132034532D01*
X158378138Y-132044107D01*
X158313781Y-132014130D01*
X158291524Y-131988444D01*
X158202727Y-131852530D01*
X158050244Y-131686892D01*
X157968389Y-131623182D01*
X157872583Y-131548612D01*
X157674581Y-131441459D01*
X157674579Y-131441458D01*
X157674578Y-131441457D01*
X157461646Y-131368358D01*
X157461637Y-131368356D01*
X157417483Y-131360988D01*
X157239576Y-131331301D01*
X157014438Y-131331301D01*
X156866218Y-131356034D01*
X156792376Y-131368356D01*
X156792367Y-131368358D01*
X156579435Y-131441457D01*
X156579433Y-131441459D01*
X156381433Y-131548611D01*
X156381431Y-131548612D01*
X156203769Y-131686892D01*
X156051286Y-131852530D01*
X155962490Y-131988444D01*
X155908486Y-132034532D01*
X155838138Y-132044107D01*
X155773781Y-132014130D01*
X155751524Y-131988444D01*
X155662727Y-131852530D01*
X155510244Y-131686892D01*
X155428389Y-131623182D01*
X155332583Y-131548612D01*
X155134581Y-131441459D01*
X155134579Y-131441458D01*
X155134578Y-131441457D01*
X154921646Y-131368358D01*
X154921637Y-131368356D01*
X154877483Y-131360988D01*
X154699576Y-131331301D01*
X154474438Y-131331301D01*
X154326218Y-131356034D01*
X154252376Y-131368356D01*
X154252367Y-131368358D01*
X154039435Y-131441457D01*
X154039433Y-131441459D01*
X153841433Y-131548611D01*
X153841431Y-131548612D01*
X153663769Y-131686892D01*
X153511286Y-131852530D01*
X153511282Y-131852535D01*
X153388148Y-132041007D01*
X153297710Y-132247187D01*
X153297709Y-132247188D01*
X153242444Y-132465425D01*
X153242443Y-132465431D01*
X153242443Y-132465433D01*
X153223851Y-132689801D01*
X147707811Y-132689801D01*
X147703533Y-132674765D01*
X147611261Y-132489456D01*
X147546147Y-132403231D01*
X147486512Y-132324261D01*
X147333527Y-132184796D01*
X147157528Y-132075822D01*
X147157527Y-132075821D01*
X147157523Y-132075819D01*
X147134854Y-132067037D01*
X146964494Y-132001039D01*
X146964493Y-132001038D01*
X146964491Y-132001038D01*
X146761005Y-131963000D01*
X146553995Y-131963000D01*
X146350509Y-132001038D01*
X146350507Y-132001038D01*
X146350505Y-132001039D01*
X146157481Y-132075817D01*
X146157471Y-132075822D01*
X145981472Y-132184796D01*
X145828487Y-132324261D01*
X145703741Y-132489452D01*
X145611467Y-132674765D01*
X145611464Y-132674773D01*
X145554815Y-132873873D01*
X145554815Y-132873877D01*
X145535715Y-133079995D01*
X145535715Y-133080004D01*
X138081785Y-133080004D01*
X138081785Y-133079995D01*
X138065346Y-132902598D01*
X138062684Y-132873873D01*
X138006033Y-132674765D01*
X137913761Y-132489456D01*
X137848647Y-132403231D01*
X137789012Y-132324261D01*
X137636027Y-132184796D01*
X137460028Y-132075822D01*
X137460027Y-132075821D01*
X137460023Y-132075819D01*
X137437354Y-132067037D01*
X137266994Y-132001039D01*
X137266993Y-132001038D01*
X137266991Y-132001038D01*
X137063505Y-131963000D01*
X136856495Y-131963000D01*
X136653009Y-132001038D01*
X136653007Y-132001038D01*
X136653005Y-132001039D01*
X136459981Y-132075817D01*
X136459971Y-132075822D01*
X136283972Y-132184796D01*
X136130987Y-132324261D01*
X136006241Y-132489452D01*
X135913967Y-132674765D01*
X135913964Y-132674773D01*
X135857315Y-132873873D01*
X135857315Y-132873877D01*
X135838215Y-133079995D01*
X135838215Y-133080004D01*
X130584700Y-133080004D01*
X130584700Y-133031419D01*
X130604012Y-132964384D01*
X130687709Y-132831183D01*
X130744162Y-132669850D01*
X130763299Y-132500000D01*
X130744162Y-132330150D01*
X130687709Y-132168817D01*
X130623754Y-132067034D01*
X130604449Y-131998716D01*
X130623755Y-131932964D01*
X130687709Y-131831183D01*
X130744162Y-131669850D01*
X130763299Y-131500000D01*
X130744162Y-131330150D01*
X130687709Y-131168817D01*
X130604012Y-131035616D01*
X130584700Y-130968580D01*
X130584700Y-129923024D01*
X130560091Y-129831183D01*
X130550128Y-129794000D01*
X158805500Y-129794000D01*
X158805500Y-129913597D01*
X158812005Y-129974093D01*
X158863055Y-130110964D01*
X158863055Y-130110965D01*
X158950595Y-130227904D01*
X159067534Y-130315444D01*
X159204406Y-130366494D01*
X159264902Y-130372999D01*
X159264915Y-130373000D01*
X159822000Y-130373000D01*
X159822000Y-129794000D01*
X160330000Y-129794000D01*
X160330000Y-130373000D01*
X160887085Y-130373000D01*
X160887097Y-130372999D01*
X160947593Y-130366494D01*
X161084464Y-130315444D01*
X161084465Y-130315444D01*
X161201404Y-130227904D01*
X161288944Y-130110965D01*
X161288944Y-130110964D01*
X161339994Y-129974093D01*
X161346499Y-129913597D01*
X161346500Y-129913585D01*
X161346500Y-129794000D01*
X160330000Y-129794000D01*
X159822000Y-129794000D01*
X158805500Y-129794000D01*
X130550128Y-129794000D01*
X130544853Y-129774314D01*
X130484541Y-129669850D01*
X130467878Y-129640989D01*
X130467874Y-129640984D01*
X130418390Y-129591500D01*
X130359014Y-129532124D01*
X129775278Y-128948388D01*
X133830820Y-128948388D01*
X133920202Y-129003731D01*
X133920209Y-129003734D01*
X134113141Y-129078477D01*
X134113140Y-129078477D01*
X134316543Y-129116500D01*
X134523457Y-129116500D01*
X134726859Y-129078477D01*
X134919793Y-129003733D01*
X134919802Y-129003728D01*
X135009179Y-128948388D01*
X134420001Y-128359210D01*
X134420000Y-128359210D01*
X133830820Y-128948388D01*
X129775278Y-128948388D01*
X129759014Y-128932124D01*
X129759012Y-128932123D01*
X129759010Y-128932121D01*
X129625686Y-128855147D01*
X129611560Y-128851362D01*
X129476977Y-128815300D01*
X129476975Y-128815300D01*
X129034500Y-128815300D01*
X128966379Y-128795298D01*
X128919886Y-128741642D01*
X128908500Y-128689300D01*
X128908500Y-128451366D01*
X128908499Y-128451354D01*
X128904426Y-128413468D01*
X128904426Y-128386530D01*
X128908499Y-128348645D01*
X128908500Y-128348633D01*
X128908500Y-128051367D01*
X128908499Y-128051350D01*
X128902979Y-128000000D01*
X133298717Y-128000000D01*
X133317809Y-128206038D01*
X133374432Y-128405048D01*
X133466670Y-128590285D01*
X133468318Y-128592468D01*
X133468320Y-128592468D01*
X134014052Y-128046737D01*
X134065000Y-128046737D01*
X134089193Y-128137025D01*
X134135930Y-128217975D01*
X134202025Y-128284070D01*
X134282975Y-128330807D01*
X134373263Y-128355000D01*
X134466737Y-128355000D01*
X134557025Y-128330807D01*
X134637975Y-128284070D01*
X134704070Y-128217975D01*
X134750807Y-128137025D01*
X134775000Y-128046737D01*
X134775000Y-128000001D01*
X134779210Y-128000001D01*
X135371678Y-128592469D01*
X135371678Y-128592468D01*
X135373332Y-128590281D01*
X135465567Y-128405048D01*
X135522190Y-128206038D01*
X135541282Y-128000004D01*
X138378215Y-128000004D01*
X138397315Y-128206122D01*
X138397315Y-128206126D01*
X138453964Y-128405226D01*
X138453967Y-128405235D01*
X138546239Y-128590544D01*
X138546240Y-128590545D01*
X138546241Y-128590547D01*
X138670987Y-128755738D01*
X138670990Y-128755740D01*
X138670991Y-128755742D01*
X138686793Y-128770147D01*
X138823972Y-128895203D01*
X138883605Y-128932126D01*
X138999977Y-129004181D01*
X139193009Y-129078962D01*
X139396495Y-129117000D01*
X139396497Y-129117000D01*
X139603503Y-129117000D01*
X139603505Y-129117000D01*
X139806991Y-129078962D01*
X140000023Y-129004181D01*
X140090131Y-128948388D01*
X143528320Y-128948388D01*
X143617702Y-129003731D01*
X143617709Y-129003734D01*
X143810641Y-129078477D01*
X143810640Y-129078477D01*
X144014043Y-129116500D01*
X144220957Y-129116500D01*
X144424359Y-129078477D01*
X144617293Y-129003733D01*
X144617302Y-129003728D01*
X144706679Y-128948388D01*
X144117501Y-128359210D01*
X144117500Y-128359210D01*
X143528320Y-128948388D01*
X140090131Y-128948388D01*
X140176026Y-128895204D01*
X140329009Y-128755742D01*
X140453761Y-128590544D01*
X140546033Y-128405235D01*
X140602684Y-128206127D01*
X140617025Y-128051367D01*
X140621785Y-128000004D01*
X140621785Y-128000000D01*
X142996217Y-128000000D01*
X143015309Y-128206038D01*
X143071932Y-128405048D01*
X143164170Y-128590285D01*
X143165818Y-128592468D01*
X143165820Y-128592468D01*
X143711552Y-128046737D01*
X143762500Y-128046737D01*
X143786693Y-128137025D01*
X143833430Y-128217975D01*
X143899525Y-128284070D01*
X143980475Y-128330807D01*
X144070763Y-128355000D01*
X144164237Y-128355000D01*
X144254525Y-128330807D01*
X144335475Y-128284070D01*
X144401570Y-128217975D01*
X144448307Y-128137025D01*
X144472500Y-128046737D01*
X144472500Y-128000001D01*
X144476710Y-128000001D01*
X145069178Y-128592469D01*
X145069178Y-128592468D01*
X145070832Y-128590281D01*
X145163067Y-128405048D01*
X145219690Y-128206038D01*
X145238782Y-128000004D01*
X148075715Y-128000004D01*
X148094815Y-128206122D01*
X148094815Y-128206126D01*
X148151464Y-128405226D01*
X148151467Y-128405235D01*
X148243739Y-128590544D01*
X148243740Y-128590545D01*
X148243741Y-128590547D01*
X148368487Y-128755738D01*
X148368490Y-128755740D01*
X148368491Y-128755742D01*
X148384293Y-128770147D01*
X148521472Y-128895203D01*
X148581105Y-128932126D01*
X148697477Y-129004181D01*
X148890509Y-129078962D01*
X149093995Y-129117000D01*
X149093997Y-129117000D01*
X149301003Y-129117000D01*
X149301005Y-129117000D01*
X149504491Y-129078962D01*
X149697523Y-129004181D01*
X149873526Y-128895204D01*
X150026509Y-128755742D01*
X150151261Y-128590544D01*
X150243533Y-128405235D01*
X150300184Y-128206127D01*
X150314525Y-128051367D01*
X150319285Y-128000004D01*
X150319285Y-127999995D01*
X150304069Y-127835795D01*
X150300184Y-127793873D01*
X150243533Y-127594765D01*
X150151261Y-127409456D01*
X150124221Y-127373649D01*
X150026512Y-127244261D01*
X150014159Y-127233000D01*
X149873526Y-127104796D01*
X149873525Y-127104795D01*
X149873525Y-127104794D01*
X149841868Y-127085193D01*
X149794481Y-127032326D01*
X149782200Y-126978067D01*
X149782200Y-120500000D01*
X155736701Y-120500000D01*
X155755837Y-120669848D01*
X155812290Y-120831182D01*
X155903231Y-120975912D01*
X156024087Y-121096768D01*
X156024089Y-121096769D01*
X156024091Y-121096771D01*
X156168817Y-121187709D01*
X156330150Y-121244162D01*
X156330149Y-121244162D01*
X156347348Y-121246099D01*
X156500000Y-121263299D01*
X156669850Y-121244162D01*
X156831183Y-121187709D01*
X156975909Y-121096771D01*
X156987680Y-121085000D01*
X157001076Y-121071605D01*
X157063388Y-121037579D01*
X157090171Y-121034700D01*
X158723692Y-121034700D01*
X158791813Y-121054702D01*
X158838306Y-121108358D01*
X158848410Y-121178632D01*
X158841747Y-121204733D01*
X158811511Y-121285795D01*
X158811509Y-121285803D01*
X158805000Y-121346350D01*
X158805000Y-122093649D01*
X158811509Y-122154196D01*
X158811511Y-122154204D01*
X158862611Y-122291204D01*
X158864762Y-122295144D01*
X158865715Y-122299527D01*
X158865760Y-122299647D01*
X158865742Y-122299653D01*
X158879852Y-122364518D01*
X158864761Y-122415911D01*
X158863053Y-122419037D01*
X158812005Y-122555905D01*
X158805500Y-122616402D01*
X158805500Y-122736000D01*
X161346500Y-122736000D01*
X161346500Y-122616414D01*
X161346499Y-122616402D01*
X161339994Y-122555906D01*
X161288945Y-122419038D01*
X161287238Y-122415911D01*
X161286480Y-122412429D01*
X161285796Y-122410594D01*
X161286059Y-122410495D01*
X161272147Y-122346536D01*
X161287243Y-122295132D01*
X161289384Y-122291209D01*
X161289389Y-122291204D01*
X161340489Y-122154201D01*
X161347000Y-122093638D01*
X161347000Y-121346362D01*
X161346999Y-121346350D01*
X161340490Y-121285803D01*
X161340489Y-121285799D01*
X161289389Y-121148796D01*
X161289387Y-121148794D01*
X161289387Y-121148792D01*
X161287528Y-121145388D01*
X161286703Y-121141596D01*
X161286239Y-121140352D01*
X161286417Y-121140285D01*
X161272435Y-121076014D01*
X161287528Y-121024612D01*
X161289387Y-121021207D01*
X161289387Y-121021206D01*
X161289389Y-121021204D01*
X161340489Y-120884201D01*
X161347000Y-120823638D01*
X161347000Y-120076362D01*
X161346999Y-120076350D01*
X161340490Y-120015803D01*
X161340489Y-120015799D01*
X161289389Y-119878796D01*
X161289387Y-119878794D01*
X161289387Y-119878792D01*
X161287528Y-119875388D01*
X161286703Y-119871596D01*
X161286239Y-119870352D01*
X161286417Y-119870285D01*
X161272435Y-119806014D01*
X161287528Y-119754612D01*
X161289387Y-119751207D01*
X161289387Y-119751206D01*
X161289389Y-119751204D01*
X161340489Y-119614201D01*
X161342826Y-119592469D01*
X161346999Y-119553649D01*
X161347000Y-119553632D01*
X161347000Y-118806367D01*
X161346999Y-118806350D01*
X161340490Y-118745805D01*
X161339043Y-118739682D01*
X161342840Y-118668787D01*
X161384363Y-118611199D01*
X161450429Y-118585202D01*
X161461665Y-118584700D01*
X164114335Y-118584700D01*
X164182456Y-118604702D01*
X164228949Y-118658358D01*
X164239053Y-118728632D01*
X164236957Y-118739682D01*
X164235509Y-118745805D01*
X164229000Y-118806350D01*
X164229000Y-119553649D01*
X164235509Y-119614196D01*
X164235511Y-119614204D01*
X164286612Y-119751209D01*
X164288477Y-119754624D01*
X164289302Y-119758420D01*
X164289760Y-119759647D01*
X164289583Y-119759712D01*
X164303563Y-119823999D01*
X164288477Y-119875376D01*
X164286612Y-119878790D01*
X164235511Y-120015795D01*
X164235509Y-120015803D01*
X164229000Y-120076350D01*
X164229000Y-120823649D01*
X164235509Y-120884196D01*
X164235511Y-120884204D01*
X164286612Y-121021209D01*
X164288477Y-121024624D01*
X164289302Y-121028420D01*
X164289760Y-121029647D01*
X164289583Y-121029712D01*
X164303563Y-121093999D01*
X164288477Y-121145376D01*
X164286612Y-121148790D01*
X164235511Y-121285795D01*
X164235509Y-121285803D01*
X164229000Y-121346350D01*
X164229000Y-122093649D01*
X164235509Y-122154196D01*
X164235511Y-122154204D01*
X164286612Y-122291209D01*
X164288477Y-122294624D01*
X164289302Y-122298420D01*
X164289760Y-122299647D01*
X164289583Y-122299712D01*
X164303563Y-122363999D01*
X164288477Y-122415376D01*
X164286612Y-122418790D01*
X164235511Y-122555795D01*
X164235509Y-122555803D01*
X164229000Y-122616350D01*
X164229000Y-123363649D01*
X164235509Y-123424196D01*
X164235511Y-123424204D01*
X164286610Y-123561202D01*
X164286612Y-123561207D01*
X164374239Y-123678261D01*
X164387826Y-123688433D01*
X164430372Y-123745269D01*
X164435436Y-123816084D01*
X164401411Y-123878396D01*
X164339098Y-123912421D01*
X164312316Y-123915300D01*
X161262850Y-123915300D01*
X161194729Y-123895298D01*
X161148236Y-123841642D01*
X161138132Y-123771368D01*
X161167626Y-123706788D01*
X161187340Y-123688432D01*
X161201405Y-123677902D01*
X161288944Y-123560965D01*
X161288944Y-123560964D01*
X161339994Y-123424093D01*
X161346499Y-123363597D01*
X161346500Y-123363585D01*
X161346500Y-123244000D01*
X158805500Y-123244000D01*
X158805500Y-123363597D01*
X158812005Y-123424093D01*
X158863055Y-123560964D01*
X158863055Y-123560965D01*
X158950594Y-123677902D01*
X158964660Y-123688432D01*
X159007206Y-123745268D01*
X159012270Y-123816084D01*
X158978245Y-123878396D01*
X158915932Y-123912421D01*
X158889150Y-123915300D01*
X158031420Y-123915300D01*
X157964383Y-123895987D01*
X157877895Y-123841642D01*
X157831182Y-123812290D01*
X157714232Y-123771368D01*
X157669850Y-123755838D01*
X157669848Y-123755837D01*
X157669850Y-123755837D01*
X157500000Y-123736701D01*
X157330151Y-123755837D01*
X157168817Y-123812290D01*
X157024087Y-123903231D01*
X156903231Y-124024087D01*
X156812290Y-124168817D01*
X156755837Y-124330151D01*
X156736701Y-124500000D01*
X156755837Y-124669848D01*
X156812290Y-124831182D01*
X156871850Y-124925970D01*
X156902785Y-124975203D01*
X156903231Y-124975912D01*
X157024087Y-125096768D01*
X157024089Y-125096769D01*
X157024091Y-125096771D01*
X157168817Y-125187709D01*
X157330150Y-125244162D01*
X157330149Y-125244162D01*
X157349286Y-125246318D01*
X157500000Y-125263299D01*
X157609752Y-125250933D01*
X157679683Y-125263183D01*
X157731891Y-125311295D01*
X157749799Y-125379996D01*
X157749066Y-125390247D01*
X157736701Y-125499999D01*
X157755837Y-125669848D01*
X157812290Y-125831182D01*
X157903231Y-125975912D01*
X158024087Y-126096768D01*
X158024089Y-126096769D01*
X158024091Y-126096771D01*
X158140395Y-126169850D01*
X158160707Y-126182613D01*
X158207744Y-126235792D01*
X158218564Y-126305959D01*
X158189731Y-126370837D01*
X158130399Y-126409828D01*
X158093670Y-126415300D01*
X158031420Y-126415300D01*
X157964383Y-126395987D01*
X157862567Y-126332011D01*
X157831182Y-126312290D01*
X157725203Y-126275207D01*
X157669850Y-126255838D01*
X157669848Y-126255837D01*
X157669850Y-126255837D01*
X157500000Y-126236701D01*
X157330151Y-126255837D01*
X157168817Y-126312290D01*
X157024087Y-126403231D01*
X156903231Y-126524087D01*
X156812290Y-126668817D01*
X156755837Y-126830151D01*
X156736701Y-127000000D01*
X156755837Y-127169848D01*
X156812290Y-127331182D01*
X156903231Y-127475912D01*
X157024087Y-127596768D01*
X157024089Y-127596769D01*
X157024091Y-127596771D01*
X157168817Y-127687709D01*
X157330150Y-127744162D01*
X157330149Y-127744162D01*
X157347348Y-127746099D01*
X157500000Y-127763299D01*
X157669850Y-127744162D01*
X157831183Y-127687709D01*
X157964383Y-127604012D01*
X158031420Y-127584700D01*
X158723692Y-127584700D01*
X158791813Y-127604702D01*
X158838306Y-127658358D01*
X158848410Y-127728632D01*
X158841747Y-127754733D01*
X158811511Y-127835795D01*
X158811509Y-127835803D01*
X158805000Y-127896350D01*
X158805000Y-128643649D01*
X158811509Y-128704196D01*
X158811511Y-128704204D01*
X158862611Y-128841204D01*
X158864762Y-128845144D01*
X158865715Y-128849527D01*
X158865760Y-128849647D01*
X158865742Y-128849653D01*
X158879852Y-128914518D01*
X158864761Y-128965911D01*
X158863053Y-128969037D01*
X158812005Y-129105905D01*
X158805500Y-129166402D01*
X158805500Y-129286000D01*
X161346500Y-129286000D01*
X161346500Y-129166414D01*
X161346499Y-129166402D01*
X161339994Y-129105906D01*
X161288945Y-128969038D01*
X161287238Y-128965911D01*
X161286480Y-128962429D01*
X161285796Y-128960594D01*
X161286059Y-128960495D01*
X161272147Y-128896536D01*
X161287243Y-128845132D01*
X161289384Y-128841209D01*
X161289389Y-128841204D01*
X161340489Y-128704201D01*
X161347000Y-128643638D01*
X161347000Y-127896362D01*
X161343411Y-127862975D01*
X161340490Y-127835803D01*
X161340489Y-127835799D01*
X161289389Y-127698796D01*
X161289387Y-127698794D01*
X161289387Y-127698792D01*
X161287528Y-127695388D01*
X161286703Y-127691596D01*
X161286239Y-127690352D01*
X161286417Y-127690285D01*
X161272435Y-127626014D01*
X161287528Y-127574612D01*
X161289387Y-127571207D01*
X161289387Y-127571206D01*
X161289389Y-127571204D01*
X161340489Y-127434201D01*
X161343150Y-127409456D01*
X161346999Y-127373649D01*
X161347000Y-127373632D01*
X161347000Y-126626367D01*
X161346999Y-126626350D01*
X161340490Y-126565803D01*
X161340489Y-126565799D01*
X161289389Y-126428796D01*
X161289387Y-126428794D01*
X161289387Y-126428792D01*
X161287528Y-126425388D01*
X161286703Y-126421596D01*
X161286239Y-126420352D01*
X161286417Y-126420285D01*
X161272435Y-126356014D01*
X161287528Y-126304612D01*
X161289387Y-126301207D01*
X161289387Y-126301206D01*
X161289389Y-126301204D01*
X161340489Y-126164201D01*
X161347000Y-126103638D01*
X161347000Y-125356362D01*
X161344293Y-125331182D01*
X161340490Y-125295803D01*
X161340489Y-125295798D01*
X161328367Y-125263299D01*
X161325171Y-125254732D01*
X161320106Y-125183918D01*
X161354130Y-125121606D01*
X161416442Y-125087580D01*
X161443227Y-125084700D01*
X164132773Y-125084700D01*
X164200894Y-125104702D01*
X164247387Y-125158358D01*
X164257491Y-125228632D01*
X164250828Y-125254734D01*
X164235510Y-125295798D01*
X164235509Y-125295803D01*
X164229000Y-125356350D01*
X164229000Y-126103649D01*
X164235509Y-126164196D01*
X164235511Y-126164204D01*
X164286612Y-126301209D01*
X164288477Y-126304624D01*
X164289302Y-126308420D01*
X164289760Y-126309647D01*
X164289583Y-126309712D01*
X164303563Y-126373999D01*
X164288477Y-126425376D01*
X164286612Y-126428790D01*
X164235511Y-126565795D01*
X164235509Y-126565803D01*
X164229000Y-126626350D01*
X164229000Y-127373649D01*
X164235509Y-127434196D01*
X164235511Y-127434204D01*
X164286612Y-127571209D01*
X164288477Y-127574624D01*
X164289302Y-127578420D01*
X164289760Y-127579647D01*
X164289583Y-127579712D01*
X164303563Y-127643999D01*
X164288477Y-127695376D01*
X164286612Y-127698790D01*
X164235511Y-127835795D01*
X164235509Y-127835803D01*
X164229000Y-127896350D01*
X164229000Y-128643649D01*
X164235509Y-128704196D01*
X164235511Y-128704204D01*
X164286612Y-128841209D01*
X164288477Y-128844624D01*
X164289302Y-128848420D01*
X164289760Y-128849647D01*
X164289583Y-128849712D01*
X164303563Y-128913999D01*
X164288477Y-128965376D01*
X164286612Y-128968790D01*
X164235511Y-129105795D01*
X164235509Y-129105803D01*
X164229000Y-129166350D01*
X164229000Y-129913649D01*
X164235509Y-129974196D01*
X164235511Y-129974204D01*
X164286610Y-130111202D01*
X164286612Y-130111207D01*
X164374238Y-130228261D01*
X164491292Y-130315887D01*
X164491294Y-130315888D01*
X164491296Y-130315889D01*
X164550375Y-130337924D01*
X164628295Y-130366988D01*
X164628303Y-130366990D01*
X164688850Y-130373499D01*
X164688855Y-130373499D01*
X164688862Y-130373500D01*
X164688868Y-130373500D01*
X166311132Y-130373500D01*
X166311138Y-130373500D01*
X166311145Y-130373499D01*
X166311149Y-130373499D01*
X166371696Y-130366990D01*
X166371699Y-130366989D01*
X166371701Y-130366989D01*
X166508704Y-130315889D01*
X166622643Y-130230594D01*
X166689160Y-130205784D01*
X166739760Y-130212533D01*
X166830150Y-130244162D01*
X167000000Y-130263299D01*
X167169850Y-130244162D01*
X167331183Y-130187709D01*
X167475909Y-130096771D01*
X167596771Y-129975909D01*
X167687709Y-129831183D01*
X167744162Y-129669850D01*
X167763299Y-129500000D01*
X167744162Y-129330150D01*
X167687709Y-129168817D01*
X167611627Y-129047734D01*
X167592322Y-128979416D01*
X167613017Y-128911502D01*
X167667144Y-128865559D01*
X167718315Y-128854700D01*
X167806975Y-128854700D01*
X167806977Y-128854700D01*
X167955686Y-128814853D01*
X168033121Y-128770145D01*
X168082008Y-128754058D01*
X168169850Y-128744162D01*
X168331183Y-128687709D01*
X168475909Y-128596771D01*
X168596771Y-128475909D01*
X168687709Y-128331183D01*
X168744162Y-128169850D01*
X168763299Y-128000000D01*
X168750933Y-127890247D01*
X168763183Y-127820316D01*
X168811295Y-127768108D01*
X168879996Y-127750200D01*
X168890242Y-127750932D01*
X169000000Y-127763299D01*
X169169850Y-127744162D01*
X169331183Y-127687709D01*
X169475909Y-127596771D01*
X169596771Y-127475909D01*
X169687709Y-127331183D01*
X169744162Y-127169850D01*
X169763299Y-127000000D01*
X169744162Y-126830150D01*
X169687709Y-126668817D01*
X169596771Y-126524091D01*
X169596769Y-126524089D01*
X169596768Y-126524087D01*
X169592917Y-126519258D01*
X169566084Y-126453528D01*
X169579046Y-126383725D01*
X169627690Y-126332011D01*
X169691429Y-126314700D01*
X172965501Y-126314700D01*
X173033622Y-126334702D01*
X173080115Y-126388358D01*
X173091501Y-126440700D01*
X173091501Y-126525544D01*
X173102112Y-126629425D01*
X173157885Y-126797738D01*
X173250970Y-126948652D01*
X173250975Y-126948658D01*
X173376341Y-127074024D01*
X173376347Y-127074029D01*
X173376348Y-127074030D01*
X173527262Y-127167115D01*
X173695574Y-127222887D01*
X173799455Y-127233500D01*
X174400544Y-127233499D01*
X174504426Y-127222887D01*
X174672738Y-127167115D01*
X174823652Y-127074030D01*
X174949030Y-126948652D01*
X174949037Y-126948639D01*
X174951478Y-126945554D01*
X174953709Y-126943973D01*
X174954220Y-126943463D01*
X174954307Y-126943550D01*
X175009416Y-126904521D01*
X175080340Y-126901324D01*
X175141734Y-126936980D01*
X175149161Y-126945551D01*
X175151369Y-126948344D01*
X175276654Y-127073629D01*
X175276660Y-127073634D01*
X175427474Y-127166657D01*
X175595678Y-127222393D01*
X175595681Y-127222394D01*
X175699483Y-127232999D01*
X175699483Y-127233000D01*
X175746000Y-127233000D01*
X175746000Y-126254000D01*
X176254000Y-126254000D01*
X176254000Y-127233000D01*
X176300517Y-127233000D01*
X176300516Y-127232999D01*
X176404318Y-127222394D01*
X176404321Y-127222393D01*
X176572525Y-127166657D01*
X176723339Y-127073634D01*
X176723345Y-127073629D01*
X176848629Y-126948345D01*
X176848634Y-126948339D01*
X176941657Y-126797525D01*
X176997393Y-126629321D01*
X176997394Y-126629318D01*
X177007999Y-126525516D01*
X177008000Y-126525516D01*
X177008000Y-126254000D01*
X176254000Y-126254000D01*
X175746000Y-126254000D01*
X175746000Y-124767000D01*
X176254000Y-124767000D01*
X176254000Y-125746000D01*
X177008000Y-125746000D01*
X177008000Y-125474483D01*
X176997394Y-125370681D01*
X176997393Y-125370678D01*
X176941657Y-125202474D01*
X176848634Y-125051660D01*
X176848629Y-125051654D01*
X176723345Y-124926370D01*
X176723339Y-124926365D01*
X176572525Y-124833342D01*
X176404321Y-124777606D01*
X176404318Y-124777605D01*
X176300516Y-124767000D01*
X176254000Y-124767000D01*
X175746000Y-124767000D01*
X175699483Y-124767000D01*
X175595681Y-124777605D01*
X175595678Y-124777606D01*
X175427474Y-124833342D01*
X175276660Y-124926365D01*
X175276654Y-124926370D01*
X175151370Y-125051654D01*
X175149157Y-125054454D01*
X175147149Y-125055875D01*
X175146175Y-125056850D01*
X175146008Y-125056683D01*
X175091216Y-125095482D01*
X175020291Y-125098672D01*
X174958900Y-125063011D01*
X174951483Y-125054450D01*
X174949028Y-125051345D01*
X174823658Y-124925975D01*
X174823654Y-124925972D01*
X174823652Y-124925970D01*
X174823646Y-124925966D01*
X174744553Y-124877180D01*
X174697075Y-124824394D01*
X174684700Y-124769940D01*
X174684700Y-120730059D01*
X174704702Y-120661938D01*
X174744551Y-120622819D01*
X174823652Y-120574030D01*
X174949030Y-120448652D01*
X174949037Y-120448639D01*
X174951478Y-120445554D01*
X174953709Y-120443973D01*
X174954220Y-120443463D01*
X174954307Y-120443550D01*
X175009416Y-120404521D01*
X175080340Y-120401324D01*
X175141734Y-120436980D01*
X175149161Y-120445551D01*
X175151369Y-120448344D01*
X175276654Y-120573629D01*
X175276660Y-120573634D01*
X175427474Y-120666657D01*
X175595678Y-120722393D01*
X175595681Y-120722394D01*
X175699483Y-120732999D01*
X175699483Y-120733000D01*
X175746000Y-120733000D01*
X175746000Y-119754000D01*
X176254000Y-119754000D01*
X176254000Y-120733000D01*
X176300517Y-120733000D01*
X176300516Y-120732999D01*
X176404318Y-120722394D01*
X176404321Y-120722393D01*
X176572525Y-120666657D01*
X176723339Y-120573634D01*
X176723345Y-120573629D01*
X176848629Y-120448345D01*
X176848634Y-120448339D01*
X176941657Y-120297525D01*
X176997393Y-120129321D01*
X176997394Y-120129318D01*
X177007999Y-120025516D01*
X177008000Y-120025516D01*
X177008000Y-119754000D01*
X176254000Y-119754000D01*
X175746000Y-119754000D01*
X175746000Y-118267000D01*
X176254000Y-118267000D01*
X176254000Y-119246000D01*
X177008000Y-119246000D01*
X177008000Y-118974483D01*
X176997394Y-118870681D01*
X176997393Y-118870678D01*
X176941657Y-118702474D01*
X176848634Y-118551660D01*
X176848629Y-118551654D01*
X176723345Y-118426370D01*
X176723339Y-118426365D01*
X176572525Y-118333342D01*
X176404321Y-118277606D01*
X176404318Y-118277605D01*
X176300516Y-118267000D01*
X176254000Y-118267000D01*
X175746000Y-118267000D01*
X175699483Y-118267000D01*
X175595681Y-118277605D01*
X175595678Y-118277606D01*
X175427474Y-118333342D01*
X175276660Y-118426365D01*
X175276654Y-118426370D01*
X175151370Y-118551654D01*
X175149157Y-118554454D01*
X175147149Y-118555875D01*
X175146175Y-118556850D01*
X175146008Y-118556683D01*
X175091216Y-118595482D01*
X175020291Y-118598672D01*
X174958900Y-118563011D01*
X174951483Y-118554450D01*
X174949028Y-118551345D01*
X174823658Y-118425975D01*
X174823654Y-118425972D01*
X174823652Y-118425970D01*
X174823646Y-118425966D01*
X174744553Y-118377180D01*
X174697075Y-118324394D01*
X174684700Y-118269940D01*
X174684700Y-114230059D01*
X174704702Y-114161938D01*
X174744551Y-114122819D01*
X174823652Y-114074030D01*
X174949030Y-113948652D01*
X174949037Y-113948639D01*
X174951478Y-113945554D01*
X174953709Y-113943973D01*
X174954220Y-113943463D01*
X174954307Y-113943550D01*
X175009416Y-113904521D01*
X175080340Y-113901324D01*
X175141734Y-113936980D01*
X175149161Y-113945551D01*
X175151369Y-113948344D01*
X175276654Y-114073629D01*
X175276660Y-114073634D01*
X175427474Y-114166657D01*
X175595678Y-114222393D01*
X175595681Y-114222394D01*
X175699483Y-114232999D01*
X175699483Y-114233000D01*
X175746000Y-114233000D01*
X175746000Y-113254000D01*
X176254000Y-113254000D01*
X176254000Y-114233000D01*
X176300517Y-114233000D01*
X176300516Y-114232999D01*
X176404318Y-114222394D01*
X176404321Y-114222393D01*
X176572525Y-114166657D01*
X176723339Y-114073634D01*
X176723345Y-114073629D01*
X176848629Y-113948345D01*
X176848634Y-113948339D01*
X176941657Y-113797525D01*
X176997393Y-113629321D01*
X176997394Y-113629318D01*
X177007999Y-113525516D01*
X177008000Y-113525516D01*
X177008000Y-113254000D01*
X176254000Y-113254000D01*
X175746000Y-113254000D01*
X175746000Y-111767000D01*
X176254000Y-111767000D01*
X176254000Y-112746000D01*
X177008000Y-112746000D01*
X177008000Y-112474483D01*
X176997394Y-112370681D01*
X176997393Y-112370678D01*
X176941657Y-112202474D01*
X176848634Y-112051660D01*
X176848629Y-112051654D01*
X176723345Y-111926370D01*
X176723339Y-111926365D01*
X176572525Y-111833342D01*
X176404321Y-111777606D01*
X176404318Y-111777605D01*
X176300516Y-111767000D01*
X176254000Y-111767000D01*
X175746000Y-111767000D01*
X175699483Y-111767000D01*
X175595681Y-111777605D01*
X175595678Y-111777606D01*
X175427474Y-111833342D01*
X175276660Y-111926365D01*
X175276654Y-111926370D01*
X175151370Y-112051654D01*
X175149157Y-112054454D01*
X175147149Y-112055875D01*
X175146175Y-112056850D01*
X175146008Y-112056683D01*
X175091216Y-112095482D01*
X175020291Y-112098672D01*
X174958900Y-112063011D01*
X174951483Y-112054450D01*
X174949028Y-112051345D01*
X174823658Y-111925975D01*
X174823653Y-111925971D01*
X174823652Y-111925970D01*
X174823646Y-111925966D01*
X174744553Y-111877180D01*
X174697075Y-111824394D01*
X174684700Y-111769940D01*
X174684700Y-107730059D01*
X174704702Y-107661938D01*
X174744551Y-107622819D01*
X174823652Y-107574030D01*
X174949030Y-107448652D01*
X174949037Y-107448639D01*
X174951478Y-107445554D01*
X174953709Y-107443973D01*
X174954220Y-107443463D01*
X174954307Y-107443550D01*
X175009416Y-107404521D01*
X175080340Y-107401324D01*
X175141734Y-107436980D01*
X175149161Y-107445551D01*
X175151369Y-107448344D01*
X175276654Y-107573629D01*
X175276660Y-107573634D01*
X175427474Y-107666657D01*
X175595678Y-107722393D01*
X175595681Y-107722394D01*
X175699483Y-107732999D01*
X175699483Y-107733000D01*
X175746000Y-107733000D01*
X175746000Y-106754000D01*
X176254000Y-106754000D01*
X176254000Y-107733000D01*
X176300517Y-107733000D01*
X176300516Y-107732999D01*
X176404318Y-107722394D01*
X176404321Y-107722393D01*
X176572525Y-107666657D01*
X176723339Y-107573634D01*
X176723345Y-107573629D01*
X176848629Y-107448345D01*
X176848634Y-107448339D01*
X176941657Y-107297525D01*
X176997393Y-107129321D01*
X176997394Y-107129318D01*
X177007999Y-107025516D01*
X177008000Y-107025516D01*
X177008000Y-106754000D01*
X176254000Y-106754000D01*
X175746000Y-106754000D01*
X175746000Y-105267000D01*
X176254000Y-105267000D01*
X176254000Y-106246000D01*
X177008000Y-106246000D01*
X177008000Y-105974483D01*
X176997394Y-105870681D01*
X176997393Y-105870678D01*
X176941657Y-105702474D01*
X176848634Y-105551660D01*
X176848629Y-105551654D01*
X176723345Y-105426370D01*
X176723339Y-105426365D01*
X176572525Y-105333342D01*
X176404321Y-105277606D01*
X176404318Y-105277605D01*
X176300516Y-105267000D01*
X176254000Y-105267000D01*
X175746000Y-105267000D01*
X175699483Y-105267000D01*
X175595681Y-105277605D01*
X175595678Y-105277606D01*
X175427474Y-105333342D01*
X175276660Y-105426365D01*
X175276654Y-105426370D01*
X175151370Y-105551654D01*
X175149157Y-105554454D01*
X175147149Y-105555875D01*
X175146175Y-105556850D01*
X175146008Y-105556683D01*
X175091216Y-105595482D01*
X175020291Y-105598672D01*
X174958900Y-105563011D01*
X174951483Y-105554450D01*
X174949028Y-105551345D01*
X174823658Y-105425975D01*
X174823654Y-105425972D01*
X174823652Y-105425970D01*
X174823646Y-105425966D01*
X174744553Y-105377180D01*
X174697075Y-105324394D01*
X174684700Y-105269940D01*
X174684700Y-104031419D01*
X174704012Y-103964384D01*
X174787709Y-103831183D01*
X174844162Y-103669850D01*
X174863299Y-103500000D01*
X174844162Y-103330150D01*
X174787709Y-103168817D01*
X174704012Y-103035616D01*
X174684700Y-102968580D01*
X174684700Y-69210700D01*
X174704702Y-69142579D01*
X174758358Y-69096086D01*
X174810700Y-69084700D01*
X174895504Y-69084700D01*
X174918817Y-69087769D01*
X174918837Y-69087623D01*
X174927023Y-69088700D01*
X174927024Y-69088701D01*
X182259783Y-69088701D01*
X182327904Y-69108703D01*
X182365486Y-69149220D01*
X182366697Y-69148430D01*
X182492682Y-69341266D01*
X182492686Y-69341271D01*
X182645169Y-69506909D01*
X182699738Y-69549382D01*
X182822831Y-69645190D01*
X182856087Y-69663187D01*
X182906478Y-69713201D01*
X182921830Y-69782517D01*
X182897269Y-69849130D01*
X182856087Y-69884814D01*
X182822833Y-69902811D01*
X182822831Y-69902812D01*
X182645169Y-70041092D01*
X182492686Y-70206730D01*
X182492682Y-70206735D01*
X182369548Y-70395207D01*
X182279110Y-70601387D01*
X182279109Y-70601388D01*
X182223844Y-70819625D01*
X182223843Y-70819631D01*
X182223843Y-70819633D01*
X182205251Y-71044001D01*
X182222434Y-71251369D01*
X182223844Y-71268376D01*
X182279109Y-71486613D01*
X182279110Y-71486614D01*
X182279111Y-71486617D01*
X182352809Y-71654632D01*
X182369548Y-71692794D01*
X182492682Y-71881266D01*
X182492686Y-71881271D01*
X182645169Y-72046909D01*
X182699738Y-72089382D01*
X182822831Y-72185190D01*
X182856087Y-72203187D01*
X182906478Y-72253201D01*
X182921830Y-72322517D01*
X182897269Y-72389130D01*
X182856087Y-72424814D01*
X182822833Y-72442811D01*
X182822831Y-72442812D01*
X182645169Y-72581092D01*
X182492686Y-72746730D01*
X182492682Y-72746735D01*
X182369548Y-72935207D01*
X182279110Y-73141387D01*
X182279109Y-73141388D01*
X182223844Y-73359625D01*
X182223843Y-73359631D01*
X182223843Y-73359633D01*
X182205251Y-73584001D01*
X182222033Y-73786530D01*
X182223844Y-73808376D01*
X182279109Y-74026613D01*
X182279110Y-74026614D01*
X182279111Y-74026617D01*
X182355943Y-74201777D01*
X182369548Y-74232794D01*
X182492682Y-74421266D01*
X182492686Y-74421271D01*
X182645169Y-74586909D01*
X182699738Y-74629382D01*
X182822831Y-74725190D01*
X182856087Y-74743187D01*
X182906478Y-74793201D01*
X182921830Y-74862517D01*
X182897269Y-74929130D01*
X182856087Y-74964814D01*
X182822833Y-74982811D01*
X182822831Y-74982812D01*
X182645169Y-75121092D01*
X182492686Y-75286730D01*
X182492682Y-75286735D01*
X182369548Y-75475207D01*
X182279110Y-75681387D01*
X182279109Y-75681388D01*
X182223844Y-75899625D01*
X182223843Y-75899631D01*
X182223843Y-75899633D01*
X182205251Y-76124001D01*
X182218948Y-76289300D01*
X182223844Y-76348376D01*
X182279109Y-76566613D01*
X182279110Y-76566614D01*
X182279111Y-76566617D01*
X182330732Y-76684302D01*
X182369548Y-76772794D01*
X182492682Y-76961266D01*
X182492686Y-76961271D01*
X182645169Y-77126909D01*
X182699738Y-77169382D01*
X182822831Y-77265190D01*
X182856087Y-77283187D01*
X182906478Y-77333201D01*
X182921830Y-77402517D01*
X182897269Y-77469130D01*
X182856087Y-77504814D01*
X182822833Y-77522811D01*
X182822831Y-77522812D01*
X182645169Y-77661092D01*
X182492686Y-77826730D01*
X182492682Y-77826735D01*
X182369548Y-78015207D01*
X182279110Y-78221387D01*
X182279109Y-78221388D01*
X182223844Y-78439625D01*
X182223843Y-78439631D01*
X182223843Y-78439633D01*
X182215425Y-78541225D01*
X182205251Y-78664001D01*
X182223844Y-78888376D01*
X182279109Y-79106613D01*
X182279110Y-79106614D01*
X182279111Y-79106617D01*
X182323675Y-79208213D01*
X182369548Y-79312794D01*
X182492682Y-79501266D01*
X182492686Y-79501271D01*
X182645169Y-79666909D01*
X182657448Y-79676466D01*
X182822831Y-79805190D01*
X182856087Y-79823187D01*
X182906478Y-79873201D01*
X182921830Y-79942517D01*
X182897269Y-80009130D01*
X182856087Y-80044814D01*
X182822833Y-80062811D01*
X182822831Y-80062812D01*
X182645169Y-80201092D01*
X182492686Y-80366730D01*
X182492682Y-80366735D01*
X182369548Y-80555207D01*
X182279110Y-80761387D01*
X182279109Y-80761388D01*
X182223844Y-80979625D01*
X182223843Y-80979631D01*
X182223843Y-80979633D01*
X182205251Y-81204001D01*
X182223400Y-81423024D01*
X182223844Y-81428376D01*
X182279109Y-81646613D01*
X182279110Y-81646614D01*
X182369548Y-81852794D01*
X182492682Y-82041266D01*
X182492686Y-82041271D01*
X182645169Y-82206909D01*
X182699738Y-82249382D01*
X182822831Y-82345190D01*
X182856087Y-82363187D01*
X182906478Y-82413201D01*
X182921830Y-82482517D01*
X182897269Y-82549130D01*
X182856087Y-82584814D01*
X182822833Y-82602811D01*
X182822831Y-82602812D01*
X182645169Y-82741092D01*
X182492686Y-82906730D01*
X182492682Y-82906735D01*
X182369548Y-83095207D01*
X182279110Y-83301387D01*
X182279109Y-83301388D01*
X182223844Y-83519625D01*
X182205251Y-83744001D01*
X182223844Y-83968376D01*
X182279109Y-84186613D01*
X182279110Y-84186614D01*
X182369548Y-84392794D01*
X182492682Y-84581266D01*
X182492686Y-84581271D01*
X182645169Y-84746909D01*
X182699738Y-84789382D01*
X182822831Y-84885190D01*
X182856087Y-84903187D01*
X182906478Y-84953201D01*
X182921830Y-85022517D01*
X182897269Y-85089130D01*
X182856087Y-85124814D01*
X182822833Y-85142811D01*
X182822831Y-85142812D01*
X182645169Y-85281092D01*
X182492686Y-85446730D01*
X182492682Y-85446735D01*
X182369548Y-85635207D01*
X182279110Y-85841387D01*
X182279109Y-85841388D01*
X182223844Y-86059625D01*
X182223843Y-86059631D01*
X182223843Y-86059633D01*
X182220663Y-86098009D01*
X182205251Y-86284001D01*
X182223844Y-86508376D01*
X182279109Y-86726613D01*
X182279110Y-86726614D01*
X182279111Y-86726617D01*
X182358892Y-86908500D01*
X182369548Y-86932794D01*
X182492682Y-87121266D01*
X182492686Y-87121271D01*
X182645169Y-87286909D01*
X182699738Y-87329382D01*
X182822831Y-87425190D01*
X182856612Y-87443471D01*
X182907003Y-87493483D01*
X182922356Y-87562800D01*
X182897796Y-87629413D01*
X182856616Y-87665097D01*
X182823111Y-87683229D01*
X182823105Y-87683233D01*
X182645504Y-87821466D01*
X182493081Y-87987042D01*
X182369987Y-88175452D01*
X182279586Y-88381544D01*
X182279583Y-88381551D01*
X182231862Y-88570000D01*
X182231863Y-88570001D01*
X183137704Y-88570001D01*
X183102482Y-88631008D01*
X183068407Y-88758175D01*
X183068407Y-88889827D01*
X183102482Y-89016994D01*
X183137704Y-89078001D01*
X182231862Y-89078001D01*
X182279583Y-89266450D01*
X182279586Y-89266457D01*
X182369987Y-89472549D01*
X182493081Y-89660959D01*
X182645504Y-89826535D01*
X182823105Y-89964768D01*
X182823106Y-89964769D01*
X182857141Y-89983188D01*
X182907530Y-90033202D01*
X182922882Y-90102519D01*
X182898320Y-90169131D01*
X182857141Y-90204814D01*
X182823106Y-90223232D01*
X182823105Y-90223233D01*
X182645504Y-90361466D01*
X182493081Y-90527042D01*
X182369987Y-90715452D01*
X182279586Y-90921544D01*
X182279583Y-90921551D01*
X182231862Y-91110000D01*
X182231863Y-91110001D01*
X183137704Y-91110001D01*
X183102482Y-91171008D01*
X183068407Y-91298175D01*
X183068407Y-91429827D01*
X183102482Y-91556994D01*
X183137704Y-91618001D01*
X182231862Y-91618001D01*
X182279583Y-91806450D01*
X182279586Y-91806457D01*
X182369987Y-92012549D01*
X182493081Y-92200959D01*
X182645504Y-92366535D01*
X182823105Y-92504768D01*
X182823111Y-92504772D01*
X182856614Y-92522903D01*
X182907004Y-92572916D01*
X182922356Y-92642233D01*
X182897795Y-92708846D01*
X182856614Y-92744529D01*
X182822837Y-92762808D01*
X182822831Y-92762812D01*
X182645169Y-92901092D01*
X182492686Y-93066730D01*
X182492682Y-93066735D01*
X182369548Y-93255207D01*
X182279110Y-93461387D01*
X182279109Y-93461388D01*
X182223844Y-93679625D01*
X182223843Y-93679631D01*
X182223843Y-93679633D01*
X182205251Y-93904001D01*
X182221492Y-94100000D01*
X182223844Y-94128376D01*
X182279109Y-94346613D01*
X182279110Y-94346614D01*
X182279111Y-94346617D01*
X182369547Y-94552792D01*
X182369548Y-94552794D01*
X182492682Y-94741266D01*
X182492686Y-94741271D01*
X182645169Y-94906909D01*
X182666539Y-94923542D01*
X182822831Y-95045190D01*
X182856087Y-95063187D01*
X182906478Y-95113201D01*
X182921830Y-95182517D01*
X182897269Y-95249130D01*
X182856087Y-95284814D01*
X182822833Y-95302811D01*
X182822831Y-95302812D01*
X182645169Y-95441092D01*
X182492686Y-95606730D01*
X182492682Y-95606735D01*
X182369548Y-95795207D01*
X182279110Y-96001387D01*
X182279109Y-96001388D01*
X182223844Y-96219625D01*
X182205251Y-96444001D01*
X182223844Y-96668376D01*
X182279109Y-96886613D01*
X182279110Y-96886614D01*
X182279111Y-96886617D01*
X182369547Y-97092792D01*
X182369548Y-97092794D01*
X182492682Y-97281266D01*
X182492686Y-97281271D01*
X182645169Y-97446909D01*
X182699738Y-97489382D01*
X182822831Y-97585190D01*
X182856087Y-97603187D01*
X182906478Y-97653201D01*
X182921830Y-97722517D01*
X182897269Y-97789130D01*
X182856087Y-97824814D01*
X182822833Y-97842811D01*
X182822831Y-97842812D01*
X182645169Y-97981092D01*
X182492686Y-98146730D01*
X182492682Y-98146735D01*
X182369548Y-98335207D01*
X182279110Y-98541387D01*
X182279109Y-98541388D01*
X182223844Y-98759625D01*
X182205251Y-98984001D01*
X182223844Y-99208376D01*
X182279109Y-99426613D01*
X182279110Y-99426614D01*
X182369548Y-99632794D01*
X182492682Y-99821266D01*
X182492686Y-99821271D01*
X182645169Y-99986909D01*
X182699738Y-100029382D01*
X182822831Y-100125190D01*
X182856087Y-100143187D01*
X182906478Y-100193201D01*
X182921830Y-100262517D01*
X182897269Y-100329130D01*
X182856087Y-100364814D01*
X182822833Y-100382811D01*
X182822831Y-100382812D01*
X182645169Y-100521092D01*
X182492686Y-100686730D01*
X182492682Y-100686735D01*
X182369548Y-100875207D01*
X182279110Y-101081387D01*
X182279109Y-101081388D01*
X182223844Y-101299625D01*
X182205251Y-101524001D01*
X182223844Y-101748376D01*
X182279109Y-101966613D01*
X182279110Y-101966614D01*
X182369548Y-102172794D01*
X182492682Y-102361266D01*
X182492686Y-102361271D01*
X182645169Y-102526909D01*
X182699738Y-102569382D01*
X182822831Y-102665190D01*
X182856087Y-102683187D01*
X182906478Y-102733201D01*
X182921830Y-102802517D01*
X182897269Y-102869130D01*
X182856087Y-102904814D01*
X182822833Y-102922811D01*
X182822831Y-102922812D01*
X182645169Y-103061092D01*
X182492686Y-103226730D01*
X182492682Y-103226735D01*
X182369548Y-103415207D01*
X182279110Y-103621387D01*
X182279109Y-103621388D01*
X182223844Y-103839625D01*
X182223843Y-103839631D01*
X182223843Y-103839633D01*
X182207951Y-104031419D01*
X182205251Y-104064001D01*
X182223844Y-104288376D01*
X182279109Y-104506613D01*
X182279110Y-104506614D01*
X182369548Y-104712794D01*
X182492682Y-104901266D01*
X182492686Y-104901271D01*
X182645169Y-105066909D01*
X182699738Y-105109382D01*
X182822831Y-105205190D01*
X182856087Y-105223187D01*
X182906478Y-105273201D01*
X182921830Y-105342517D01*
X182897269Y-105409130D01*
X182856087Y-105444814D01*
X182822833Y-105462811D01*
X182822831Y-105462812D01*
X182645169Y-105601092D01*
X182492686Y-105766730D01*
X182492682Y-105766735D01*
X182369548Y-105955207D01*
X182279110Y-106161387D01*
X182279109Y-106161388D01*
X182223844Y-106379625D01*
X182223843Y-106379631D01*
X182223843Y-106379633D01*
X182205251Y-106604001D01*
X182219735Y-106778796D01*
X182223844Y-106828376D01*
X182279109Y-107046613D01*
X182279110Y-107046614D01*
X182279111Y-107046617D01*
X182369547Y-107252792D01*
X182369548Y-107252794D01*
X182492682Y-107441266D01*
X182492686Y-107441271D01*
X182645169Y-107606909D01*
X182665609Y-107622818D01*
X182822831Y-107745190D01*
X182856087Y-107763187D01*
X182906478Y-107813201D01*
X182921830Y-107882517D01*
X182897269Y-107949130D01*
X182856087Y-107984814D01*
X182822833Y-108002811D01*
X182822831Y-108002812D01*
X182645169Y-108141092D01*
X182492686Y-108306730D01*
X182492682Y-108306735D01*
X182369548Y-108495207D01*
X182279110Y-108701387D01*
X182279109Y-108701388D01*
X182223844Y-108919625D01*
X182223843Y-108919631D01*
X182223843Y-108919633D01*
X182205251Y-109144001D01*
X182219755Y-109319038D01*
X182223844Y-109368376D01*
X182279109Y-109586613D01*
X182279110Y-109586614D01*
X182369548Y-109792794D01*
X182492682Y-109981266D01*
X182492686Y-109981271D01*
X182645169Y-110146909D01*
X182674641Y-110169848D01*
X182822831Y-110285190D01*
X182856087Y-110303187D01*
X182906478Y-110353201D01*
X182921830Y-110422517D01*
X182897269Y-110489130D01*
X182856087Y-110524814D01*
X182822833Y-110542811D01*
X182822831Y-110542812D01*
X182645169Y-110681092D01*
X182492686Y-110846730D01*
X182492682Y-110846735D01*
X182369548Y-111035207D01*
X182279110Y-111241387D01*
X182279109Y-111241388D01*
X182223844Y-111459625D01*
X182223843Y-111459631D01*
X182223843Y-111459633D01*
X182205251Y-111684001D01*
X182218199Y-111840263D01*
X182223844Y-111908376D01*
X182279109Y-112126613D01*
X182279110Y-112126614D01*
X182279111Y-112126617D01*
X182369547Y-112332792D01*
X182369548Y-112332794D01*
X182492682Y-112521266D01*
X182492686Y-112521271D01*
X182645169Y-112686909D01*
X182699738Y-112729382D01*
X182822831Y-112825190D01*
X182856087Y-112843187D01*
X182906478Y-112893201D01*
X182921830Y-112962517D01*
X182897269Y-113029130D01*
X182856087Y-113064814D01*
X182822833Y-113082811D01*
X182822831Y-113082812D01*
X182645169Y-113221092D01*
X182492686Y-113386730D01*
X182492682Y-113386735D01*
X182369548Y-113575207D01*
X182279110Y-113781387D01*
X182279109Y-113781388D01*
X182223844Y-113999625D01*
X182223843Y-113999631D01*
X182223843Y-113999633D01*
X182205251Y-114224001D01*
X182214132Y-114331182D01*
X182223844Y-114448376D01*
X182279109Y-114666613D01*
X182279110Y-114666614D01*
X182279111Y-114666617D01*
X182323675Y-114768213D01*
X182369548Y-114872794D01*
X182492682Y-115061266D01*
X182492686Y-115061271D01*
X182645169Y-115226909D01*
X182699738Y-115269382D01*
X182822831Y-115365190D01*
X182856087Y-115383187D01*
X182906478Y-115433201D01*
X182921830Y-115502517D01*
X182897269Y-115569130D01*
X182856087Y-115604814D01*
X182822833Y-115622811D01*
X182822831Y-115622812D01*
X182645169Y-115761092D01*
X182492686Y-115926730D01*
X182492682Y-115926735D01*
X182369548Y-116115207D01*
X182279110Y-116321387D01*
X182279109Y-116321388D01*
X182223844Y-116539625D01*
X182205251Y-116764001D01*
X182223844Y-116988376D01*
X182279109Y-117206613D01*
X182279110Y-117206614D01*
X182279111Y-117206617D01*
X182362176Y-117395987D01*
X182369548Y-117412794D01*
X182492682Y-117601266D01*
X182492686Y-117601271D01*
X182645169Y-117766909D01*
X182654682Y-117774313D01*
X182822831Y-117905190D01*
X182856087Y-117923187D01*
X182906478Y-117973201D01*
X182921830Y-118042517D01*
X182897269Y-118109130D01*
X182856087Y-118144814D01*
X182822833Y-118162811D01*
X182822831Y-118162812D01*
X182645169Y-118301092D01*
X182492686Y-118466730D01*
X182492682Y-118466735D01*
X182369548Y-118655207D01*
X182279110Y-118861387D01*
X182279109Y-118861388D01*
X182223844Y-119079625D01*
X182223843Y-119079631D01*
X182223843Y-119079633D01*
X182205251Y-119304001D01*
X182221492Y-119500000D01*
X182223844Y-119528376D01*
X182279109Y-119746613D01*
X182279110Y-119746614D01*
X182279111Y-119746617D01*
X182335595Y-119875388D01*
X182369548Y-119952794D01*
X182492682Y-120141266D01*
X182492686Y-120141271D01*
X182645169Y-120306909D01*
X182699738Y-120349382D01*
X182822831Y-120445190D01*
X182856087Y-120463187D01*
X182906478Y-120513201D01*
X182921830Y-120582517D01*
X182897269Y-120649130D01*
X182856087Y-120684814D01*
X182822833Y-120702811D01*
X182822831Y-120702812D01*
X182645169Y-120841092D01*
X182492686Y-121006730D01*
X182492682Y-121006735D01*
X182369548Y-121195207D01*
X182279110Y-121401387D01*
X182279109Y-121401388D01*
X182223844Y-121619625D01*
X182223843Y-121619631D01*
X182223843Y-121619633D01*
X182215425Y-121721225D01*
X182205251Y-121844001D01*
X182223844Y-122068376D01*
X182279109Y-122286613D01*
X182279110Y-122286614D01*
X182279111Y-122286617D01*
X182362143Y-122475912D01*
X182369548Y-122492794D01*
X182492682Y-122681266D01*
X182492686Y-122681271D01*
X182645169Y-122846909D01*
X182699738Y-122889382D01*
X182822831Y-122985190D01*
X182856087Y-123003187D01*
X182906478Y-123053201D01*
X182921830Y-123122517D01*
X182897269Y-123189130D01*
X182856087Y-123224814D01*
X182822833Y-123242811D01*
X182822831Y-123242812D01*
X182645169Y-123381092D01*
X182492686Y-123546730D01*
X182492682Y-123546735D01*
X182369548Y-123735207D01*
X182279110Y-123941387D01*
X182279109Y-123941388D01*
X182223844Y-124159625D01*
X182223843Y-124159631D01*
X182223843Y-124159633D01*
X182205251Y-124384001D01*
X182216859Y-124524091D01*
X182223844Y-124608376D01*
X182279109Y-124826613D01*
X182279110Y-124826614D01*
X182279111Y-124826617D01*
X182369547Y-125032792D01*
X182369548Y-125032794D01*
X182492682Y-125221266D01*
X182492686Y-125221271D01*
X182645169Y-125386909D01*
X182649458Y-125390247D01*
X182822831Y-125525190D01*
X182856087Y-125543187D01*
X182906478Y-125593201D01*
X182921830Y-125662517D01*
X182897269Y-125729130D01*
X182856087Y-125764814D01*
X182822833Y-125782811D01*
X182822831Y-125782812D01*
X182645169Y-125921092D01*
X182492686Y-126086730D01*
X182492682Y-126086735D01*
X182369548Y-126275207D01*
X182279110Y-126481387D01*
X182279109Y-126481388D01*
X182223844Y-126699625D01*
X182223843Y-126699631D01*
X182223843Y-126699633D01*
X182205251Y-126924001D01*
X182220232Y-127104796D01*
X182223844Y-127148376D01*
X182279109Y-127366613D01*
X182279110Y-127366614D01*
X182279111Y-127366617D01*
X182369547Y-127572792D01*
X182369548Y-127572794D01*
X182492682Y-127761266D01*
X182492686Y-127761271D01*
X182645169Y-127926909D01*
X182679029Y-127953263D01*
X182822831Y-128065190D01*
X182856087Y-128083187D01*
X182906478Y-128133201D01*
X182921830Y-128202517D01*
X182897269Y-128269130D01*
X182856087Y-128304814D01*
X182822833Y-128322811D01*
X182822831Y-128322812D01*
X182645169Y-128461092D01*
X182492686Y-128626730D01*
X182492682Y-128626735D01*
X182369548Y-128815207D01*
X182279110Y-129021387D01*
X182279109Y-129021388D01*
X182223844Y-129239625D01*
X182223843Y-129239631D01*
X182223843Y-129239633D01*
X182205251Y-129464001D01*
X182222308Y-129669850D01*
X182223844Y-129688376D01*
X182279109Y-129906613D01*
X182279110Y-129906614D01*
X182279111Y-129906617D01*
X182368852Y-130111207D01*
X182369548Y-130112794D01*
X182492682Y-130301266D01*
X182492686Y-130301271D01*
X182586213Y-130402866D01*
X182601420Y-130419386D01*
X182636248Y-130457218D01*
X182667669Y-130520883D01*
X182659683Y-130591429D01*
X182614824Y-130646458D01*
X182587580Y-130660611D01*
X182472446Y-130703554D01*
X182472441Y-130703556D01*
X182355502Y-130791096D01*
X182267962Y-130908035D01*
X182267962Y-130908036D01*
X182216912Y-131044907D01*
X182210407Y-131105403D01*
X182210407Y-131750001D01*
X183137704Y-131750001D01*
X183102482Y-131811008D01*
X183068407Y-131938175D01*
X183068407Y-132069827D01*
X183102482Y-132196994D01*
X183137704Y-132258001D01*
X182210407Y-132258001D01*
X182210407Y-132902598D01*
X182216912Y-132963094D01*
X182267962Y-133099965D01*
X182267962Y-133099966D01*
X182355502Y-133216905D01*
X182472441Y-133304445D01*
X182609313Y-133355495D01*
X182669809Y-133362000D01*
X182669822Y-133362001D01*
X183314407Y-133362001D01*
X183314407Y-132434703D01*
X183375414Y-132469926D01*
X183502581Y-132504001D01*
X183634233Y-132504001D01*
X183761400Y-132469926D01*
X183822407Y-132434703D01*
X183822407Y-133362001D01*
X184466992Y-133362001D01*
X184467004Y-133362000D01*
X184527500Y-133355495D01*
X184664371Y-133304445D01*
X184664372Y-133304445D01*
X184781311Y-133216905D01*
X184868851Y-133099966D01*
X184868851Y-133099965D01*
X184919901Y-132963094D01*
X184926406Y-132902598D01*
X184926407Y-132902586D01*
X184926407Y-132258001D01*
X183999110Y-132258001D01*
X184034332Y-132196994D01*
X184068407Y-132069827D01*
X184068407Y-131938175D01*
X184034332Y-131811008D01*
X183999110Y-131750001D01*
X184926407Y-131750001D01*
X184926407Y-131105415D01*
X184926406Y-131105403D01*
X184919901Y-131044907D01*
X184868851Y-130908036D01*
X184868851Y-130908035D01*
X184781311Y-130791096D01*
X184664373Y-130703557D01*
X184549233Y-130660612D01*
X184492398Y-130618065D01*
X184467587Y-130551544D01*
X184482679Y-130482170D01*
X184500561Y-130457223D01*
X184644129Y-130301269D01*
X184767267Y-130112792D01*
X184857703Y-129906617D01*
X184912971Y-129688369D01*
X184931563Y-129464001D01*
X184912971Y-129239633D01*
X184889928Y-129148638D01*
X184857704Y-129021388D01*
X184857703Y-129021387D01*
X184857703Y-129021385D01*
X184767267Y-128815210D01*
X184728412Y-128755738D01*
X184644131Y-128626735D01*
X184644127Y-128626730D01*
X184491644Y-128461092D01*
X184375547Y-128370730D01*
X184313983Y-128322812D01*
X184280726Y-128304814D01*
X184230336Y-128254803D01*
X184214983Y-128185486D01*
X184239543Y-128118873D01*
X184280727Y-128083187D01*
X184313983Y-128065190D01*
X184491647Y-127926907D01*
X184644129Y-127761269D01*
X184767267Y-127572792D01*
X184857703Y-127366617D01*
X184912971Y-127148369D01*
X184931563Y-126924001D01*
X184912971Y-126699633D01*
X184895165Y-126629318D01*
X184857704Y-126481388D01*
X184857703Y-126481387D01*
X184857703Y-126481385D01*
X184767267Y-126275210D01*
X184741514Y-126235792D01*
X184644131Y-126086735D01*
X184644127Y-126086730D01*
X184491644Y-125921092D01*
X184375547Y-125830730D01*
X184313983Y-125782812D01*
X184280726Y-125764814D01*
X184230336Y-125714803D01*
X184214983Y-125645486D01*
X184239543Y-125578873D01*
X184280727Y-125543187D01*
X184313983Y-125525190D01*
X184491647Y-125386907D01*
X184644129Y-125221269D01*
X184767267Y-125032792D01*
X184857703Y-124826617D01*
X184912971Y-124608369D01*
X184931563Y-124384001D01*
X184912971Y-124159633D01*
X184889807Y-124068162D01*
X184857704Y-123941388D01*
X184857703Y-123941387D01*
X184857703Y-123941385D01*
X184767267Y-123735210D01*
X184736706Y-123688433D01*
X184644131Y-123546735D01*
X184644127Y-123546730D01*
X184491644Y-123381092D01*
X184375547Y-123290730D01*
X184313983Y-123242812D01*
X184280726Y-123224814D01*
X184230336Y-123174803D01*
X184214983Y-123105486D01*
X184239543Y-123038873D01*
X184280727Y-123003187D01*
X184313983Y-122985190D01*
X184491647Y-122846907D01*
X184644129Y-122681269D01*
X184767267Y-122492792D01*
X184857703Y-122286617D01*
X184912971Y-122068369D01*
X184931563Y-121844001D01*
X184912971Y-121619633D01*
X184912969Y-121619625D01*
X184857704Y-121401388D01*
X184857703Y-121401387D01*
X184857703Y-121401385D01*
X184767267Y-121195210D01*
X184701143Y-121093999D01*
X184644131Y-121006735D01*
X184644127Y-121006730D01*
X184491644Y-120841092D01*
X184352768Y-120733000D01*
X184313983Y-120702812D01*
X184280726Y-120684814D01*
X184230336Y-120634803D01*
X184214983Y-120565486D01*
X184239543Y-120498873D01*
X184280727Y-120463187D01*
X184313983Y-120445190D01*
X184491647Y-120306907D01*
X184644129Y-120141269D01*
X184767267Y-119952792D01*
X184857703Y-119746617D01*
X184912971Y-119528369D01*
X184931563Y-119304001D01*
X184912971Y-119079633D01*
X184892806Y-119000004D01*
X184857704Y-118861388D01*
X184857703Y-118861387D01*
X184857703Y-118861385D01*
X184767267Y-118655210D01*
X184727782Y-118594773D01*
X184644131Y-118466735D01*
X184644127Y-118466730D01*
X184491644Y-118301092D01*
X184357140Y-118196403D01*
X184313983Y-118162812D01*
X184280726Y-118144814D01*
X184230336Y-118094803D01*
X184214983Y-118025486D01*
X184239543Y-117958873D01*
X184280727Y-117923187D01*
X184313983Y-117905190D01*
X184491647Y-117766907D01*
X184644129Y-117601269D01*
X184767267Y-117412792D01*
X184857703Y-117206617D01*
X184912971Y-116988369D01*
X184931563Y-116764001D01*
X184912971Y-116539633D01*
X184902935Y-116500000D01*
X184857704Y-116321388D01*
X184857703Y-116321387D01*
X184857703Y-116321385D01*
X184767267Y-116115210D01*
X184710506Y-116028330D01*
X184644131Y-115926735D01*
X184644127Y-115926730D01*
X184524273Y-115796536D01*
X184491647Y-115761095D01*
X184491646Y-115761094D01*
X184491644Y-115761092D01*
X184375547Y-115670730D01*
X184313983Y-115622812D01*
X184280726Y-115604814D01*
X184230336Y-115554803D01*
X184214983Y-115485486D01*
X184239543Y-115418873D01*
X184280727Y-115383187D01*
X184313983Y-115365190D01*
X184491647Y-115226907D01*
X184644129Y-115061269D01*
X184767267Y-114872792D01*
X184857703Y-114666617D01*
X184912971Y-114448369D01*
X184931563Y-114224001D01*
X184912971Y-113999633D01*
X184888076Y-113901324D01*
X184857704Y-113781388D01*
X184857703Y-113781387D01*
X184857703Y-113781385D01*
X184767267Y-113575210D01*
X184695788Y-113465803D01*
X184644131Y-113386735D01*
X184644127Y-113386730D01*
X184527977Y-113260560D01*
X184491647Y-113221095D01*
X184491646Y-113221094D01*
X184491644Y-113221092D01*
X184331917Y-113096771D01*
X184313983Y-113082812D01*
X184280726Y-113064814D01*
X184230336Y-113014803D01*
X184214983Y-112945486D01*
X184239543Y-112878873D01*
X184280727Y-112843187D01*
X184313983Y-112825190D01*
X184491647Y-112686907D01*
X184644129Y-112521269D01*
X184767267Y-112332792D01*
X184857703Y-112126617D01*
X184912971Y-111908369D01*
X184931563Y-111684001D01*
X184912971Y-111459633D01*
X184912969Y-111459625D01*
X184857704Y-111241388D01*
X184857703Y-111241387D01*
X184857703Y-111241385D01*
X184767267Y-111035210D01*
X184678857Y-110899888D01*
X184644131Y-110846735D01*
X184644127Y-110846730D01*
X184515299Y-110706788D01*
X184491647Y-110681095D01*
X184491646Y-110681094D01*
X184491644Y-110681092D01*
X184409789Y-110617382D01*
X184313983Y-110542812D01*
X184280726Y-110524814D01*
X184230336Y-110474803D01*
X184214983Y-110405486D01*
X184239543Y-110338873D01*
X184280727Y-110303187D01*
X184313983Y-110285190D01*
X184491647Y-110146907D01*
X184644129Y-109981269D01*
X184767267Y-109792792D01*
X184857703Y-109586617D01*
X184912971Y-109368369D01*
X184931563Y-109144001D01*
X184912971Y-108919633D01*
X184890572Y-108831182D01*
X184857704Y-108701388D01*
X184857703Y-108701387D01*
X184857703Y-108701385D01*
X184767267Y-108495210D01*
X184698692Y-108390248D01*
X184644131Y-108306735D01*
X184644127Y-108306730D01*
X184491644Y-108141092D01*
X184375547Y-108050730D01*
X184313983Y-108002812D01*
X184280726Y-107984814D01*
X184230336Y-107934803D01*
X184214983Y-107865486D01*
X184239543Y-107798873D01*
X184280727Y-107763187D01*
X184313983Y-107745190D01*
X184491647Y-107606907D01*
X184644129Y-107441269D01*
X184767267Y-107252792D01*
X184857703Y-107046617D01*
X184912971Y-106828369D01*
X184931563Y-106604001D01*
X184912971Y-106379633D01*
X184900702Y-106331182D01*
X184857704Y-106161388D01*
X184857703Y-106161387D01*
X184857703Y-106161385D01*
X184767267Y-105955210D01*
X184685562Y-105830151D01*
X184644131Y-105766735D01*
X184644127Y-105766730D01*
X184491644Y-105601092D01*
X184375547Y-105510730D01*
X184313983Y-105462812D01*
X184280726Y-105444814D01*
X184230336Y-105394803D01*
X184214983Y-105325486D01*
X184239543Y-105258873D01*
X184280727Y-105223187D01*
X184313983Y-105205190D01*
X184491647Y-105066907D01*
X184644129Y-104901269D01*
X184767267Y-104712792D01*
X184857703Y-104506617D01*
X184912971Y-104288369D01*
X184931563Y-104064001D01*
X184912971Y-103839633D01*
X184910831Y-103831182D01*
X184857704Y-103621388D01*
X184857703Y-103621387D01*
X184857703Y-103621385D01*
X184767267Y-103415210D01*
X184760547Y-103404925D01*
X184644131Y-103226735D01*
X184644127Y-103226730D01*
X184491644Y-103061092D01*
X184357140Y-102956403D01*
X184313983Y-102922812D01*
X184280726Y-102904814D01*
X184230336Y-102854803D01*
X184214983Y-102785486D01*
X184239543Y-102718873D01*
X184280727Y-102683187D01*
X184313983Y-102665190D01*
X184491647Y-102526907D01*
X184644129Y-102361269D01*
X184767267Y-102172792D01*
X184857703Y-101966617D01*
X184912971Y-101748369D01*
X184931563Y-101524001D01*
X184912971Y-101299633D01*
X184912969Y-101299625D01*
X184857704Y-101081388D01*
X184857703Y-101081387D01*
X184857703Y-101081385D01*
X184767267Y-100875210D01*
X184710506Y-100788330D01*
X184644131Y-100686735D01*
X184644127Y-100686730D01*
X184491644Y-100521092D01*
X184357140Y-100416403D01*
X184313983Y-100382812D01*
X184280726Y-100364814D01*
X184230336Y-100314803D01*
X184214983Y-100245486D01*
X184239543Y-100178873D01*
X184280727Y-100143187D01*
X184313983Y-100125190D01*
X184491647Y-99986907D01*
X184644129Y-99821269D01*
X184767267Y-99632792D01*
X184857703Y-99426617D01*
X184912971Y-99208369D01*
X184931563Y-98984001D01*
X184912971Y-98759633D01*
X184912969Y-98759625D01*
X184857704Y-98541388D01*
X184857703Y-98541387D01*
X184857703Y-98541385D01*
X184767267Y-98335210D01*
X184710506Y-98248330D01*
X184644131Y-98146735D01*
X184644127Y-98146730D01*
X184491644Y-97981092D01*
X184357140Y-97876403D01*
X184313983Y-97842812D01*
X184280726Y-97824814D01*
X184230336Y-97774803D01*
X184214983Y-97705486D01*
X184239543Y-97638873D01*
X184280727Y-97603187D01*
X184313983Y-97585190D01*
X184491647Y-97446907D01*
X184644129Y-97281269D01*
X184767267Y-97092792D01*
X184857703Y-96886617D01*
X184912971Y-96668369D01*
X184931563Y-96444001D01*
X184912971Y-96219633D01*
X184912969Y-96219625D01*
X184857704Y-96001388D01*
X184857703Y-96001387D01*
X184857703Y-96001385D01*
X184767267Y-95795210D01*
X184710506Y-95708330D01*
X184644131Y-95606735D01*
X184644127Y-95606730D01*
X184491644Y-95441092D01*
X184357140Y-95336403D01*
X184313983Y-95302812D01*
X184280726Y-95284814D01*
X184230336Y-95234803D01*
X184214983Y-95165486D01*
X184239543Y-95098873D01*
X184280727Y-95063187D01*
X184313983Y-95045190D01*
X184491647Y-94906907D01*
X184644129Y-94741269D01*
X184767267Y-94552792D01*
X184857703Y-94346617D01*
X184912971Y-94128369D01*
X184931563Y-93904001D01*
X184912971Y-93679633D01*
X184909475Y-93665826D01*
X184857704Y-93461388D01*
X184857703Y-93461387D01*
X184857703Y-93461385D01*
X184767267Y-93255210D01*
X184710506Y-93168330D01*
X184644131Y-93066735D01*
X184644127Y-93066730D01*
X184491644Y-92901092D01*
X184357140Y-92796403D01*
X184313983Y-92762812D01*
X184280199Y-92744529D01*
X184229809Y-92694517D01*
X184214457Y-92625200D01*
X184239017Y-92558587D01*
X184280200Y-92522902D01*
X184313707Y-92504768D01*
X184313708Y-92504768D01*
X184491309Y-92366535D01*
X184643732Y-92200959D01*
X184766826Y-92012549D01*
X184857227Y-91806457D01*
X184857230Y-91806450D01*
X184904951Y-91618001D01*
X183999110Y-91618001D01*
X184034332Y-91556994D01*
X184068407Y-91429827D01*
X184068407Y-91298175D01*
X184034332Y-91171008D01*
X183999110Y-91110001D01*
X184904951Y-91110001D01*
X184904951Y-91110000D01*
X184857230Y-90921551D01*
X184857227Y-90921544D01*
X184766826Y-90715452D01*
X184643732Y-90527042D01*
X184491309Y-90361466D01*
X184313708Y-90223233D01*
X184313707Y-90223232D01*
X184279674Y-90204815D01*
X184229283Y-90154802D01*
X184213931Y-90085485D01*
X184238492Y-90018872D01*
X184279674Y-89983187D01*
X184313707Y-89964769D01*
X184313708Y-89964768D01*
X184491309Y-89826535D01*
X184643732Y-89660959D01*
X184766826Y-89472549D01*
X184857227Y-89266457D01*
X184857230Y-89266450D01*
X184904951Y-89078001D01*
X183999110Y-89078001D01*
X184034332Y-89016994D01*
X184068407Y-88889827D01*
X184068407Y-88758175D01*
X184034332Y-88631008D01*
X183999110Y-88570001D01*
X184904951Y-88570001D01*
X184904951Y-88570000D01*
X184857230Y-88381551D01*
X184857227Y-88381544D01*
X184766826Y-88175452D01*
X184643732Y-87987042D01*
X184491309Y-87821466D01*
X184313708Y-87683233D01*
X184313707Y-87683232D01*
X184280198Y-87665098D01*
X184229808Y-87615084D01*
X184214457Y-87545767D01*
X184239019Y-87479154D01*
X184280197Y-87443473D01*
X184313983Y-87425190D01*
X184491647Y-87286907D01*
X184644129Y-87121269D01*
X184767267Y-86932792D01*
X184857703Y-86726617D01*
X184912971Y-86508369D01*
X184931563Y-86284001D01*
X184912971Y-86059633D01*
X184888908Y-85964609D01*
X184857704Y-85841388D01*
X184857703Y-85841387D01*
X184857703Y-85841385D01*
X184767267Y-85635210D01*
X184712490Y-85551367D01*
X184644131Y-85446735D01*
X184644127Y-85446730D01*
X184491644Y-85281092D01*
X184357140Y-85176403D01*
X184313983Y-85142812D01*
X184280726Y-85124814D01*
X184230336Y-85074803D01*
X184214983Y-85005486D01*
X184239543Y-84938873D01*
X184280727Y-84903187D01*
X184313983Y-84885190D01*
X184491647Y-84746907D01*
X184644129Y-84581269D01*
X184767267Y-84392792D01*
X184857703Y-84186617D01*
X184912971Y-83968369D01*
X184931563Y-83744001D01*
X184912971Y-83519633D01*
X184884939Y-83408937D01*
X184857704Y-83301388D01*
X184857703Y-83301387D01*
X184857703Y-83301385D01*
X184767267Y-83095210D01*
X184710506Y-83008330D01*
X184644131Y-82906735D01*
X184644127Y-82906730D01*
X184491644Y-82741092D01*
X184357140Y-82636403D01*
X184313983Y-82602812D01*
X184280726Y-82584814D01*
X184230336Y-82534803D01*
X184214983Y-82465486D01*
X184239543Y-82398873D01*
X184280727Y-82363187D01*
X184313983Y-82345190D01*
X184491647Y-82206907D01*
X184644129Y-82041269D01*
X184767267Y-81852792D01*
X184857703Y-81646617D01*
X184912971Y-81428369D01*
X184931563Y-81204001D01*
X184912971Y-80979633D01*
X184912969Y-80979625D01*
X184857704Y-80761388D01*
X184857703Y-80761387D01*
X184857703Y-80761385D01*
X184767267Y-80555210D01*
X184710506Y-80468330D01*
X184644131Y-80366735D01*
X184644127Y-80366730D01*
X184491644Y-80201092D01*
X184409789Y-80137382D01*
X184313983Y-80062812D01*
X184280726Y-80044814D01*
X184230336Y-79994803D01*
X184214983Y-79925486D01*
X184239543Y-79858873D01*
X184280727Y-79823187D01*
X184313983Y-79805190D01*
X184491647Y-79666907D01*
X184644129Y-79501269D01*
X184767267Y-79312792D01*
X184857703Y-79106617D01*
X184912971Y-78888369D01*
X184931563Y-78664001D01*
X184912971Y-78439633D01*
X184912969Y-78439625D01*
X184857704Y-78221388D01*
X184857703Y-78221387D01*
X184857703Y-78221385D01*
X184767267Y-78015210D01*
X184710506Y-77928330D01*
X184644131Y-77826735D01*
X184644127Y-77826730D01*
X184491644Y-77661092D01*
X184375182Y-77570446D01*
X184313983Y-77522812D01*
X184280726Y-77504814D01*
X184230336Y-77454803D01*
X184214983Y-77385486D01*
X184239543Y-77318873D01*
X184280727Y-77283187D01*
X184313983Y-77265190D01*
X184491647Y-77126907D01*
X184644129Y-76961269D01*
X184767267Y-76772792D01*
X184857703Y-76566617D01*
X184912971Y-76348369D01*
X184931563Y-76124001D01*
X184912971Y-75899633D01*
X184912102Y-75896202D01*
X184857704Y-75681388D01*
X184857703Y-75681387D01*
X184857703Y-75681385D01*
X184767267Y-75475210D01*
X184760547Y-75464925D01*
X184644131Y-75286735D01*
X184644127Y-75286730D01*
X184491644Y-75121092D01*
X184345117Y-75007045D01*
X184313983Y-74982812D01*
X184280726Y-74964814D01*
X184230336Y-74914803D01*
X184214983Y-74845486D01*
X184239543Y-74778873D01*
X184280727Y-74743187D01*
X184313983Y-74725190D01*
X184491647Y-74586907D01*
X184644129Y-74421269D01*
X184767267Y-74232792D01*
X184857703Y-74026617D01*
X184912971Y-73808369D01*
X184931563Y-73584001D01*
X184912971Y-73359633D01*
X184905505Y-73330150D01*
X184857704Y-73141388D01*
X184857703Y-73141387D01*
X184857703Y-73141385D01*
X184767267Y-72935210D01*
X184706153Y-72841668D01*
X184644131Y-72746735D01*
X184644127Y-72746730D01*
X184491644Y-72581092D01*
X184370151Y-72486530D01*
X184313983Y-72442812D01*
X184280726Y-72424814D01*
X184230336Y-72374803D01*
X184214983Y-72305486D01*
X184239543Y-72238873D01*
X184280727Y-72203187D01*
X184313983Y-72185190D01*
X184491647Y-72046907D01*
X184644129Y-71881269D01*
X184767267Y-71692792D01*
X184857703Y-71486617D01*
X184912971Y-71268369D01*
X184931563Y-71044001D01*
X184912971Y-70819633D01*
X184889808Y-70728163D01*
X184857704Y-70601388D01*
X184857703Y-70601387D01*
X184857703Y-70601385D01*
X184767267Y-70395210D01*
X184669943Y-70246244D01*
X184644131Y-70206735D01*
X184644127Y-70206730D01*
X184491644Y-70041092D01*
X184375547Y-69950730D01*
X184313983Y-69902812D01*
X184280726Y-69884814D01*
X184230336Y-69834803D01*
X184214983Y-69765486D01*
X184239543Y-69698873D01*
X184280727Y-69663187D01*
X184313983Y-69645190D01*
X184491647Y-69506907D01*
X184644129Y-69341269D01*
X184767267Y-69152792D01*
X184857703Y-68946617D01*
X184912971Y-68728369D01*
X184931563Y-68504001D01*
X184912971Y-68279633D01*
X184884909Y-68168817D01*
X184857704Y-68061388D01*
X184857703Y-68061387D01*
X184857703Y-68061385D01*
X184767267Y-67855210D01*
X184702344Y-67755838D01*
X184644131Y-67666735D01*
X184644127Y-67666730D01*
X184491644Y-67501092D01*
X184357140Y-67396403D01*
X184313983Y-67362812D01*
X184280726Y-67344814D01*
X184230336Y-67294803D01*
X184214983Y-67225486D01*
X184239543Y-67158873D01*
X184280727Y-67123187D01*
X184313983Y-67105190D01*
X184491647Y-66966907D01*
X184644129Y-66801269D01*
X184767267Y-66612792D01*
X184857703Y-66406617D01*
X184912971Y-66188369D01*
X184931563Y-65964001D01*
X184912971Y-65739633D01*
X184912969Y-65739625D01*
X184857704Y-65521388D01*
X184857703Y-65521387D01*
X184857703Y-65521385D01*
X184767267Y-65315210D01*
X184710506Y-65228330D01*
X184644131Y-65126735D01*
X184644127Y-65126730D01*
X184491644Y-64961092D01*
X184384361Y-64877590D01*
X184313983Y-64822812D01*
X184280199Y-64804529D01*
X184229809Y-64754517D01*
X184214457Y-64685200D01*
X184239017Y-64618587D01*
X184280200Y-64582902D01*
X184313707Y-64564768D01*
X184313708Y-64564768D01*
X184491309Y-64426535D01*
X184643732Y-64260959D01*
X184766826Y-64072549D01*
X184857227Y-63866457D01*
X184857230Y-63866450D01*
X184904951Y-63678001D01*
X183999110Y-63678001D01*
X184034332Y-63616994D01*
X184068407Y-63489827D01*
X184068407Y-63358175D01*
X184034332Y-63231008D01*
X183999110Y-63170001D01*
X184904951Y-63170001D01*
X184904951Y-63170000D01*
X184857230Y-62981551D01*
X184857227Y-62981544D01*
X184766826Y-62775452D01*
X184643732Y-62587042D01*
X184491309Y-62421466D01*
X184313708Y-62283233D01*
X184313707Y-62283232D01*
X184115778Y-62176118D01*
X184115776Y-62176117D01*
X183902919Y-62103044D01*
X183902908Y-62103041D01*
X183822407Y-62089607D01*
X183822407Y-62993298D01*
X183761400Y-62958076D01*
X183634233Y-62924001D01*
X183502581Y-62924001D01*
X183375414Y-62958076D01*
X183314407Y-62993298D01*
X183314407Y-62089608D01*
X183314406Y-62089607D01*
X183233905Y-62103041D01*
X183233894Y-62103044D01*
X183021037Y-62176117D01*
X183021035Y-62176118D01*
X182823106Y-62283232D01*
X182823105Y-62283233D01*
X182645504Y-62421466D01*
X182493081Y-62587042D01*
X182369987Y-62775452D01*
X182279586Y-62981544D01*
X182279583Y-62981551D01*
X182231862Y-63170000D01*
X182231863Y-63170001D01*
X183137704Y-63170001D01*
X183102482Y-63231008D01*
X183068407Y-63358175D01*
X183068407Y-63489827D01*
X183102482Y-63616994D01*
X183137704Y-63678001D01*
X182231862Y-63678001D01*
X182279583Y-63866450D01*
X182279586Y-63866457D01*
X182369987Y-64072549D01*
X182493081Y-64260959D01*
X182645504Y-64426535D01*
X182823105Y-64564768D01*
X182823111Y-64564772D01*
X182856614Y-64582903D01*
X182907004Y-64632916D01*
X182922356Y-64702233D01*
X182897795Y-64768846D01*
X182856614Y-64804529D01*
X182822837Y-64822808D01*
X182822831Y-64822812D01*
X182645169Y-64961092D01*
X182492686Y-65126730D01*
X182492682Y-65126735D01*
X182369548Y-65315207D01*
X182279110Y-65521387D01*
X182279109Y-65521388D01*
X182223844Y-65739625D01*
X182223843Y-65739631D01*
X182223843Y-65739633D01*
X182215425Y-65841225D01*
X182205251Y-65964001D01*
X182223844Y-66188376D01*
X182279109Y-66406613D01*
X182279110Y-66406614D01*
X182369548Y-66612794D01*
X182492682Y-66801266D01*
X182492686Y-66801271D01*
X182645169Y-66966909D01*
X182672241Y-66987980D01*
X182822831Y-67105190D01*
X182856087Y-67123187D01*
X182906478Y-67173201D01*
X182921830Y-67242517D01*
X182897269Y-67309130D01*
X182856087Y-67344814D01*
X182822833Y-67362811D01*
X182822831Y-67362812D01*
X182645169Y-67501092D01*
X182492686Y-67666730D01*
X182492682Y-67666735D01*
X182366697Y-67859572D01*
X182365269Y-67858639D01*
X182320579Y-67903663D01*
X182259783Y-67919301D01*
X175108497Y-67919301D01*
X175085183Y-67916231D01*
X175085164Y-67916378D01*
X175076977Y-67915300D01*
X174423023Y-67915300D01*
X174274314Y-67955147D01*
X174240257Y-67974810D01*
X174240256Y-67974809D01*
X174140988Y-68032121D01*
X174140982Y-68032126D01*
X173740986Y-68432124D01*
X173740985Y-68432124D01*
X173632129Y-68540979D01*
X173632121Y-68540989D01*
X173555147Y-68674313D01*
X173515300Y-68823024D01*
X173515300Y-102968580D01*
X173495987Y-103035617D01*
X173412290Y-103168817D01*
X173355837Y-103330151D01*
X173336701Y-103500000D01*
X173355837Y-103669848D01*
X173412290Y-103831182D01*
X173435931Y-103868806D01*
X173495987Y-103964384D01*
X173515300Y-104031419D01*
X173515300Y-105269940D01*
X173495298Y-105338061D01*
X173455447Y-105377180D01*
X173376353Y-105425966D01*
X173376347Y-105425970D01*
X173366717Y-105435601D01*
X173343922Y-105458395D01*
X173281613Y-105492420D01*
X173254828Y-105495300D01*
X166766357Y-105495300D01*
X166698236Y-105475298D01*
X166665489Y-105444809D01*
X166625761Y-105391738D01*
X166508707Y-105304112D01*
X166508702Y-105304110D01*
X166371704Y-105253011D01*
X166371696Y-105253009D01*
X166311149Y-105246500D01*
X166311138Y-105246500D01*
X164688862Y-105246500D01*
X164688850Y-105246500D01*
X164628303Y-105253009D01*
X164628295Y-105253011D01*
X164491297Y-105304110D01*
X164491292Y-105304112D01*
X164374238Y-105391738D01*
X164286612Y-105508792D01*
X164286610Y-105508797D01*
X164235511Y-105645795D01*
X164235509Y-105645803D01*
X164229000Y-105706350D01*
X164229000Y-106453649D01*
X164235509Y-106514196D01*
X164235511Y-106514204D01*
X164286612Y-106651209D01*
X164288477Y-106654624D01*
X164289302Y-106658420D01*
X164289760Y-106659647D01*
X164289583Y-106659712D01*
X164303563Y-106723999D01*
X164288477Y-106775376D01*
X164286612Y-106778790D01*
X164235511Y-106915795D01*
X164235509Y-106915803D01*
X164229000Y-106976350D01*
X164229000Y-107723649D01*
X164235509Y-107784196D01*
X164235511Y-107784204D01*
X164286612Y-107921209D01*
X164288477Y-107924624D01*
X164289302Y-107928420D01*
X164289760Y-107929647D01*
X164289583Y-107929712D01*
X164303563Y-107993999D01*
X164288477Y-108045376D01*
X164286612Y-108048790D01*
X164235511Y-108185795D01*
X164235509Y-108185803D01*
X164229000Y-108246350D01*
X164229000Y-108993649D01*
X164235509Y-109054196D01*
X164235511Y-109054204D01*
X164286612Y-109191209D01*
X164288477Y-109194624D01*
X164289302Y-109198420D01*
X164289760Y-109199647D01*
X164289583Y-109199712D01*
X164303563Y-109263999D01*
X164288477Y-109315376D01*
X164286612Y-109318790D01*
X164235511Y-109455795D01*
X164235509Y-109455803D01*
X164229000Y-109516350D01*
X164229000Y-110263649D01*
X164235509Y-110324196D01*
X164235511Y-110324204D01*
X164286610Y-110461202D01*
X164286612Y-110461207D01*
X164374238Y-110578261D01*
X164491292Y-110665887D01*
X164491294Y-110665887D01*
X164491296Y-110665889D01*
X164505653Y-110671244D01*
X164505656Y-110671245D01*
X164562491Y-110713792D01*
X164587301Y-110780313D01*
X164572209Y-110849687D01*
X164522006Y-110899888D01*
X164461622Y-110915300D01*
X161112947Y-110915300D01*
X161044826Y-110895298D01*
X160998333Y-110841642D01*
X160988229Y-110771368D01*
X161017723Y-110706788D01*
X161068915Y-110671244D01*
X161084465Y-110665444D01*
X161201404Y-110577904D01*
X161288944Y-110460965D01*
X161288944Y-110460964D01*
X161339994Y-110324093D01*
X161346499Y-110263597D01*
X161346500Y-110263585D01*
X161346500Y-110144000D01*
X158805500Y-110144000D01*
X158805500Y-110263597D01*
X158812005Y-110324093D01*
X158863055Y-110460964D01*
X158863055Y-110460965D01*
X158950595Y-110577904D01*
X159067534Y-110665444D01*
X159083085Y-110671244D01*
X159139921Y-110713790D01*
X159164732Y-110780310D01*
X159149641Y-110849685D01*
X159099439Y-110899887D01*
X159039053Y-110915300D01*
X157031420Y-110915300D01*
X156964383Y-110895987D01*
X156877895Y-110841642D01*
X156831182Y-110812290D01*
X156691172Y-110763299D01*
X156669850Y-110755838D01*
X156669848Y-110755837D01*
X156669850Y-110755837D01*
X156500000Y-110736701D01*
X156330151Y-110755837D01*
X156168817Y-110812290D01*
X156024087Y-110903231D01*
X155903231Y-111024087D01*
X155812290Y-111168817D01*
X155755837Y-111330151D01*
X155736701Y-111500000D01*
X155755837Y-111669848D01*
X155812290Y-111831182D01*
X155903231Y-111975912D01*
X156024087Y-112096768D01*
X156024089Y-112096769D01*
X156024091Y-112096771D01*
X156168817Y-112187709D01*
X156330150Y-112244162D01*
X156330149Y-112244162D01*
X156347348Y-112246099D01*
X156500000Y-112263299D01*
X156669850Y-112244162D01*
X156831183Y-112187709D01*
X156964383Y-112104012D01*
X157031420Y-112084700D01*
X157664145Y-112084700D01*
X157732266Y-112104702D01*
X157778759Y-112158358D01*
X157788863Y-112228632D01*
X157783075Y-112252309D01*
X157755838Y-112330150D01*
X157755837Y-112330153D01*
X157736701Y-112500000D01*
X157755837Y-112669848D01*
X157812290Y-112831182D01*
X157903231Y-112975912D01*
X158027524Y-113100205D01*
X158061550Y-113162517D01*
X158056485Y-113233332D01*
X158013938Y-113290168D01*
X157947418Y-113314979D01*
X157938429Y-113315300D01*
X157861190Y-113315300D01*
X157819575Y-113308229D01*
X157767959Y-113290168D01*
X157669850Y-113255838D01*
X157669848Y-113255837D01*
X157669850Y-113255837D01*
X157500000Y-113236701D01*
X157330151Y-113255837D01*
X157168817Y-113312290D01*
X157024087Y-113403231D01*
X156903231Y-113524087D01*
X156812290Y-113668817D01*
X156755837Y-113830151D01*
X156736701Y-114000000D01*
X156755837Y-114169848D01*
X156812290Y-114331182D01*
X156903231Y-114475912D01*
X157024087Y-114596768D01*
X157024089Y-114596769D01*
X157024091Y-114596771D01*
X157168817Y-114687709D01*
X157330150Y-114744162D01*
X157330149Y-114744162D01*
X157347348Y-114746099D01*
X157500000Y-114763299D01*
X157669850Y-114744162D01*
X157831183Y-114687709D01*
X157975909Y-114596771D01*
X158051076Y-114521603D01*
X158113386Y-114487580D01*
X158140170Y-114484700D01*
X158723692Y-114484700D01*
X158791813Y-114504702D01*
X158838306Y-114558358D01*
X158848410Y-114628632D01*
X158841747Y-114654733D01*
X158811511Y-114735795D01*
X158811509Y-114735803D01*
X158805000Y-114796350D01*
X158805000Y-115543649D01*
X158811509Y-115604196D01*
X158811511Y-115604204D01*
X158862611Y-115741204D01*
X158864762Y-115745144D01*
X158865715Y-115749527D01*
X158865760Y-115749647D01*
X158865742Y-115749653D01*
X158879852Y-115814518D01*
X158864761Y-115865911D01*
X158863053Y-115869037D01*
X158812005Y-116005905D01*
X158805500Y-116066402D01*
X158805500Y-116186000D01*
X161346500Y-116186000D01*
X161346500Y-116066414D01*
X161346499Y-116066402D01*
X161339994Y-116005906D01*
X161288945Y-115869038D01*
X161287238Y-115865911D01*
X161286480Y-115862429D01*
X161285796Y-115860594D01*
X161286059Y-115860495D01*
X161272147Y-115796536D01*
X161287243Y-115745132D01*
X161289384Y-115741209D01*
X161289389Y-115741204D01*
X161340489Y-115604201D01*
X161344260Y-115569130D01*
X161346999Y-115543649D01*
X161347000Y-115543632D01*
X161347000Y-114796367D01*
X161346999Y-114796350D01*
X161340490Y-114735803D01*
X161340489Y-114735799D01*
X161289389Y-114598796D01*
X161289387Y-114598794D01*
X161289387Y-114598792D01*
X161287528Y-114595388D01*
X161286703Y-114591596D01*
X161286239Y-114590352D01*
X161286417Y-114590285D01*
X161272435Y-114526014D01*
X161287528Y-114474612D01*
X161289387Y-114471207D01*
X161289387Y-114471206D01*
X161289389Y-114471204D01*
X161340489Y-114334201D01*
X161340814Y-114331183D01*
X161346999Y-114273649D01*
X161347000Y-114273632D01*
X161347000Y-113526367D01*
X161346999Y-113526350D01*
X161340490Y-113465803D01*
X161340489Y-113465799D01*
X161289389Y-113328796D01*
X161289387Y-113328794D01*
X161289387Y-113328792D01*
X161287528Y-113325388D01*
X161286703Y-113321596D01*
X161286239Y-113320352D01*
X161286417Y-113320285D01*
X161272435Y-113256014D01*
X161287528Y-113204612D01*
X161289387Y-113201207D01*
X161289387Y-113201206D01*
X161289389Y-113201204D01*
X161340489Y-113064201D01*
X161344260Y-113029130D01*
X161346999Y-113003649D01*
X161347000Y-113003632D01*
X161347000Y-112256367D01*
X161346999Y-112256352D01*
X161343539Y-112224169D01*
X161356144Y-112154301D01*
X161404523Y-112102338D01*
X161468817Y-112084700D01*
X164107183Y-112084700D01*
X164175304Y-112104702D01*
X164221797Y-112158358D01*
X164232461Y-112224169D01*
X164229000Y-112256352D01*
X164229000Y-113003649D01*
X164235509Y-113064196D01*
X164235511Y-113064204D01*
X164286612Y-113201209D01*
X164288477Y-113204624D01*
X164289302Y-113208420D01*
X164289760Y-113209647D01*
X164289583Y-113209712D01*
X164303563Y-113273999D01*
X164288477Y-113325376D01*
X164286612Y-113328790D01*
X164235511Y-113465795D01*
X164235509Y-113465803D01*
X164229000Y-113526350D01*
X164229000Y-114273649D01*
X164235509Y-114334196D01*
X164235511Y-114334204D01*
X164286612Y-114471209D01*
X164288477Y-114474624D01*
X164289302Y-114478420D01*
X164289760Y-114479647D01*
X164289583Y-114479712D01*
X164303563Y-114543999D01*
X164288477Y-114595376D01*
X164286612Y-114598790D01*
X164235511Y-114735795D01*
X164235509Y-114735803D01*
X164229000Y-114796350D01*
X164229000Y-115543649D01*
X164235509Y-115604196D01*
X164235511Y-115604204D01*
X164286612Y-115741209D01*
X164288477Y-115744624D01*
X164289302Y-115748420D01*
X164289760Y-115749647D01*
X164289583Y-115749712D01*
X164303563Y-115813999D01*
X164288477Y-115865376D01*
X164286612Y-115868790D01*
X164235511Y-116005795D01*
X164235509Y-116005803D01*
X164229000Y-116066350D01*
X164229000Y-116813649D01*
X164235509Y-116874196D01*
X164235511Y-116874204D01*
X164286610Y-117011202D01*
X164286612Y-117011207D01*
X164374238Y-117128261D01*
X164454617Y-117188432D01*
X164497164Y-117245268D01*
X164502228Y-117316084D01*
X164468203Y-117378396D01*
X164405891Y-117412421D01*
X164379108Y-117415300D01*
X161196058Y-117415300D01*
X161127937Y-117395298D01*
X161081444Y-117341642D01*
X161071340Y-117271368D01*
X161100834Y-117206788D01*
X161120549Y-117188432D01*
X161201404Y-117127904D01*
X161288944Y-117010965D01*
X161288944Y-117010964D01*
X161339994Y-116874093D01*
X161346499Y-116813597D01*
X161346500Y-116813585D01*
X161346500Y-116694000D01*
X158805500Y-116694000D01*
X158805500Y-116813597D01*
X158812005Y-116874093D01*
X158863055Y-117010964D01*
X158863055Y-117010965D01*
X158950595Y-117127904D01*
X159031451Y-117188432D01*
X159073998Y-117245268D01*
X159079062Y-117316084D01*
X159045037Y-117378396D01*
X158982725Y-117412421D01*
X158955942Y-117415300D01*
X158576977Y-117415300D01*
X158423023Y-117415300D01*
X158323883Y-117441864D01*
X158274313Y-117455147D01*
X158140989Y-117532121D01*
X158140979Y-117532129D01*
X158032129Y-117640979D01*
X158032121Y-117640989D01*
X157955147Y-117774313D01*
X157955147Y-117774314D01*
X157920079Y-117905190D01*
X157915300Y-117923024D01*
X157915300Y-118968580D01*
X157895987Y-119035616D01*
X157875902Y-119067581D01*
X157812290Y-119168817D01*
X157755837Y-119330151D01*
X157736701Y-119500000D01*
X157755837Y-119669848D01*
X157765578Y-119697685D01*
X157769198Y-119768589D01*
X157733909Y-119830194D01*
X157670915Y-119862941D01*
X157646649Y-119865300D01*
X156951846Y-119865300D01*
X156884810Y-119845987D01*
X156849816Y-119823999D01*
X156831182Y-119812290D01*
X156696093Y-119765021D01*
X156669850Y-119755838D01*
X156669848Y-119755837D01*
X156669850Y-119755837D01*
X156500000Y-119736701D01*
X156330151Y-119755837D01*
X156168817Y-119812290D01*
X156024087Y-119903231D01*
X155903231Y-120024087D01*
X155812290Y-120168817D01*
X155755837Y-120330151D01*
X155736701Y-120500000D01*
X149782200Y-120500000D01*
X149782200Y-120021932D01*
X149802202Y-119953811D01*
X149841869Y-119914804D01*
X149873526Y-119895204D01*
X150026509Y-119755742D01*
X150151261Y-119590544D01*
X150243533Y-119405235D01*
X150300184Y-119206127D01*
X150311906Y-119079633D01*
X150319285Y-119000004D01*
X150319285Y-118999995D01*
X150308673Y-118885485D01*
X150300184Y-118793873D01*
X150243533Y-118594765D01*
X150151261Y-118409456D01*
X150097346Y-118338061D01*
X150026512Y-118244261D01*
X149873527Y-118104796D01*
X149697528Y-117995822D01*
X149697527Y-117995821D01*
X149697523Y-117995819D01*
X149639139Y-117973201D01*
X149504494Y-117921039D01*
X149504493Y-117921038D01*
X149504491Y-117921038D01*
X149301005Y-117883000D01*
X149093995Y-117883000D01*
X148890509Y-117921038D01*
X148890507Y-117921038D01*
X148890505Y-117921039D01*
X148697481Y-117995817D01*
X148697471Y-117995822D01*
X148521472Y-118104796D01*
X148368487Y-118244261D01*
X148243741Y-118409452D01*
X148151467Y-118594765D01*
X148151464Y-118594773D01*
X148094815Y-118793873D01*
X148094815Y-118793877D01*
X148075715Y-118999995D01*
X148075715Y-119000004D01*
X148094815Y-119206122D01*
X148094815Y-119206126D01*
X148151464Y-119405226D01*
X148151467Y-119405235D01*
X148243739Y-119590544D01*
X148243740Y-119590545D01*
X148243741Y-119590547D01*
X148368488Y-119755739D01*
X148368491Y-119755742D01*
X148521468Y-119895199D01*
X148521474Y-119895204D01*
X148553130Y-119914804D01*
X148600518Y-119967671D01*
X148612800Y-120021932D01*
X148612800Y-126978067D01*
X148592798Y-127046188D01*
X148553132Y-127085193D01*
X148521474Y-127104794D01*
X148521474Y-127104795D01*
X148368487Y-127244261D01*
X148243741Y-127409452D01*
X148151467Y-127594765D01*
X148151464Y-127594773D01*
X148094815Y-127793873D01*
X148094815Y-127793877D01*
X148075715Y-127999995D01*
X148075715Y-128000004D01*
X145238782Y-128000004D01*
X145238782Y-128000000D01*
X145219690Y-127793961D01*
X145163067Y-127594951D01*
X145070832Y-127409718D01*
X145069178Y-127407530D01*
X144476710Y-127999999D01*
X144476710Y-128000001D01*
X144472500Y-128000001D01*
X144472500Y-127953263D01*
X144448307Y-127862975D01*
X144401570Y-127782025D01*
X144335475Y-127715930D01*
X144254525Y-127669193D01*
X144164237Y-127645000D01*
X144070763Y-127645000D01*
X143980475Y-127669193D01*
X143899525Y-127715930D01*
X143833430Y-127782025D01*
X143786693Y-127862975D01*
X143762500Y-127953263D01*
X143762500Y-128046737D01*
X143711552Y-128046737D01*
X143758290Y-127999999D01*
X143165821Y-127407530D01*
X143165820Y-127407530D01*
X143164167Y-127409720D01*
X143071932Y-127594951D01*
X143015309Y-127793961D01*
X142996217Y-128000000D01*
X140621785Y-128000000D01*
X140621785Y-127999995D01*
X140606569Y-127835795D01*
X140602684Y-127793873D01*
X140546033Y-127594765D01*
X140453761Y-127409456D01*
X140426721Y-127373649D01*
X140329012Y-127244261D01*
X140316659Y-127233000D01*
X140176026Y-127104796D01*
X140176025Y-127104795D01*
X140176025Y-127104794D01*
X140144368Y-127085193D01*
X140114266Y-127051610D01*
X143528319Y-127051610D01*
X144117499Y-127640790D01*
X144117500Y-127640790D01*
X144706678Y-127051610D01*
X144617297Y-126996268D01*
X144617290Y-126996265D01*
X144424358Y-126921522D01*
X144424359Y-126921522D01*
X144220957Y-126883500D01*
X144014043Y-126883500D01*
X143810640Y-126921522D01*
X143617707Y-126996266D01*
X143617695Y-126996272D01*
X143528319Y-127051610D01*
X140114266Y-127051610D01*
X140096981Y-127032326D01*
X140084700Y-126978067D01*
X140084700Y-124080004D01*
X145535715Y-124080004D01*
X145554815Y-124286122D01*
X145554815Y-124286126D01*
X145608814Y-124475912D01*
X145611467Y-124485235D01*
X145703739Y-124670544D01*
X145703740Y-124670545D01*
X145703741Y-124670547D01*
X145828487Y-124835738D01*
X145828490Y-124835740D01*
X145828491Y-124835742D01*
X145834963Y-124841642D01*
X145981472Y-124975203D01*
X145982617Y-124975912D01*
X146157477Y-125084181D01*
X146350509Y-125158962D01*
X146553995Y-125197000D01*
X146553997Y-125197000D01*
X146761003Y-125197000D01*
X146761005Y-125197000D01*
X146964491Y-125158962D01*
X147157523Y-125084181D01*
X147333526Y-124975204D01*
X147486509Y-124835742D01*
X147611261Y-124670544D01*
X147703533Y-124485235D01*
X147760184Y-124286127D01*
X147771906Y-124159633D01*
X147779285Y-124080004D01*
X147779285Y-124079995D01*
X147760184Y-123873877D01*
X147760184Y-123873873D01*
X147703533Y-123674765D01*
X147611261Y-123489456D01*
X147546147Y-123403231D01*
X147486512Y-123324261D01*
X147333527Y-123184796D01*
X147157528Y-123075822D01*
X147157527Y-123075821D01*
X147157523Y-123075819D01*
X147099139Y-123053201D01*
X146964494Y-123001039D01*
X146964493Y-123001038D01*
X146964491Y-123001038D01*
X146761005Y-122963000D01*
X146553995Y-122963000D01*
X146350509Y-123001038D01*
X146350507Y-123001038D01*
X146350505Y-123001039D01*
X146157481Y-123075817D01*
X146157471Y-123075822D01*
X145981472Y-123184796D01*
X145828487Y-123324261D01*
X145703741Y-123489452D01*
X145611467Y-123674765D01*
X145611464Y-123674773D01*
X145554815Y-123873873D01*
X145554815Y-123873877D01*
X145535715Y-124079995D01*
X145535715Y-124080004D01*
X140084700Y-124080004D01*
X140084700Y-120021932D01*
X140104702Y-119953811D01*
X140110217Y-119948388D01*
X143528320Y-119948388D01*
X143617702Y-120003731D01*
X143617709Y-120003734D01*
X143810641Y-120078477D01*
X143810640Y-120078477D01*
X144014043Y-120116500D01*
X144220957Y-120116500D01*
X144424359Y-120078477D01*
X144617293Y-120003733D01*
X144617302Y-120003728D01*
X144706679Y-119948388D01*
X144117501Y-119359210D01*
X144117500Y-119359210D01*
X143528320Y-119948388D01*
X140110217Y-119948388D01*
X140144369Y-119914804D01*
X140176026Y-119895204D01*
X140329009Y-119755742D01*
X140453761Y-119590544D01*
X140546033Y-119405235D01*
X140602684Y-119206127D01*
X140614406Y-119079633D01*
X140621785Y-119000004D01*
X140621785Y-119000000D01*
X142996217Y-119000000D01*
X143015309Y-119206038D01*
X143071932Y-119405048D01*
X143164170Y-119590285D01*
X143165818Y-119592468D01*
X143165820Y-119592468D01*
X143711552Y-119046737D01*
X143762500Y-119046737D01*
X143786693Y-119137025D01*
X143833430Y-119217975D01*
X143899525Y-119284070D01*
X143980475Y-119330807D01*
X144070763Y-119355000D01*
X144164237Y-119355000D01*
X144254525Y-119330807D01*
X144335475Y-119284070D01*
X144401570Y-119217975D01*
X144448307Y-119137025D01*
X144472500Y-119046737D01*
X144472500Y-119000001D01*
X144476710Y-119000001D01*
X145069178Y-119592469D01*
X145069178Y-119592468D01*
X145070832Y-119590281D01*
X145163067Y-119405048D01*
X145219690Y-119206038D01*
X145238782Y-119000000D01*
X145219690Y-118793961D01*
X145163067Y-118594951D01*
X145070832Y-118409718D01*
X145069178Y-118407530D01*
X144476710Y-118999999D01*
X144476710Y-119000001D01*
X144472500Y-119000001D01*
X144472500Y-118953263D01*
X144448307Y-118862975D01*
X144401570Y-118782025D01*
X144335475Y-118715930D01*
X144254525Y-118669193D01*
X144164237Y-118645000D01*
X144070763Y-118645000D01*
X143980475Y-118669193D01*
X143899525Y-118715930D01*
X143833430Y-118782025D01*
X143786693Y-118862975D01*
X143762500Y-118953263D01*
X143762500Y-119046737D01*
X143711552Y-119046737D01*
X143758290Y-118999999D01*
X143165821Y-118407530D01*
X143165820Y-118407530D01*
X143164167Y-118409720D01*
X143071932Y-118594951D01*
X143015309Y-118793961D01*
X142996217Y-119000000D01*
X140621785Y-119000000D01*
X140621785Y-118999995D01*
X140611173Y-118885485D01*
X140602684Y-118793873D01*
X140546033Y-118594765D01*
X140453761Y-118409456D01*
X140399846Y-118338061D01*
X140329012Y-118244261D01*
X140176027Y-118104796D01*
X140090129Y-118051610D01*
X143528319Y-118051610D01*
X144117499Y-118640790D01*
X144117500Y-118640790D01*
X144706678Y-118051610D01*
X144617297Y-117996268D01*
X144617290Y-117996265D01*
X144424358Y-117921522D01*
X144424359Y-117921522D01*
X144220957Y-117883500D01*
X144014043Y-117883500D01*
X143810640Y-117921522D01*
X143617707Y-117996266D01*
X143617695Y-117996272D01*
X143528319Y-118051610D01*
X140090129Y-118051610D01*
X140000028Y-117995822D01*
X140000027Y-117995821D01*
X140000023Y-117995819D01*
X139941639Y-117973201D01*
X139806994Y-117921039D01*
X139806993Y-117921038D01*
X139806991Y-117921038D01*
X139603505Y-117883000D01*
X139396495Y-117883000D01*
X139193009Y-117921038D01*
X139193007Y-117921038D01*
X139193005Y-117921039D01*
X138999981Y-117995817D01*
X138999971Y-117995822D01*
X138823972Y-118104796D01*
X138670987Y-118244261D01*
X138546241Y-118409452D01*
X138453967Y-118594765D01*
X138453964Y-118594773D01*
X138397315Y-118793873D01*
X138397315Y-118793877D01*
X138378215Y-118999995D01*
X138378215Y-119000004D01*
X138397315Y-119206122D01*
X138397315Y-119206126D01*
X138453964Y-119405226D01*
X138453967Y-119405235D01*
X138546239Y-119590544D01*
X138546240Y-119590545D01*
X138546241Y-119590547D01*
X138670988Y-119755739D01*
X138670991Y-119755742D01*
X138823968Y-119895199D01*
X138823974Y-119895204D01*
X138855630Y-119914804D01*
X138903018Y-119967671D01*
X138915300Y-120021932D01*
X138915300Y-126978067D01*
X138895298Y-127046188D01*
X138855632Y-127085193D01*
X138823974Y-127104794D01*
X138823974Y-127104795D01*
X138670987Y-127244261D01*
X138546241Y-127409452D01*
X138453967Y-127594765D01*
X138453964Y-127594773D01*
X138397315Y-127793873D01*
X138397315Y-127793877D01*
X138378215Y-127999995D01*
X138378215Y-128000004D01*
X135541282Y-128000004D01*
X135541282Y-128000000D01*
X135522190Y-127793961D01*
X135465567Y-127594951D01*
X135373332Y-127409718D01*
X135371678Y-127407530D01*
X134779210Y-127999999D01*
X134779210Y-128000001D01*
X134775000Y-128000001D01*
X134775000Y-127953263D01*
X134750807Y-127862975D01*
X134704070Y-127782025D01*
X134637975Y-127715930D01*
X134557025Y-127669193D01*
X134466737Y-127645000D01*
X134373263Y-127645000D01*
X134282975Y-127669193D01*
X134202025Y-127715930D01*
X134135930Y-127782025D01*
X134089193Y-127862975D01*
X134065000Y-127953263D01*
X134065000Y-128046737D01*
X134014052Y-128046737D01*
X134060790Y-127999999D01*
X133468321Y-127407530D01*
X133468320Y-127407530D01*
X133466667Y-127409720D01*
X133374432Y-127594951D01*
X133317809Y-127793961D01*
X133298717Y-128000000D01*
X128902979Y-128000000D01*
X128901990Y-127990803D01*
X128901988Y-127990795D01*
X128864485Y-127890248D01*
X128850889Y-127853796D01*
X128850888Y-127853794D01*
X128850887Y-127853792D01*
X128763261Y-127736738D01*
X128646207Y-127649112D01*
X128646202Y-127649110D01*
X128509204Y-127598011D01*
X128509196Y-127598009D01*
X128448649Y-127591500D01*
X128448638Y-127591500D01*
X128034500Y-127591500D01*
X127966379Y-127571498D01*
X127919886Y-127517842D01*
X127908500Y-127465500D01*
X127908500Y-127051610D01*
X133830819Y-127051610D01*
X134419999Y-127640790D01*
X134420000Y-127640790D01*
X135009178Y-127051610D01*
X134919797Y-126996268D01*
X134919790Y-126996265D01*
X134726858Y-126921522D01*
X134726859Y-126921522D01*
X134523457Y-126883500D01*
X134316543Y-126883500D01*
X134113140Y-126921522D01*
X133920207Y-126996266D01*
X133920195Y-126996272D01*
X133830819Y-127051610D01*
X127908500Y-127051610D01*
X127908500Y-127051367D01*
X127908499Y-127051350D01*
X127901990Y-126990803D01*
X127901988Y-126990795D01*
X127850889Y-126853797D01*
X127850887Y-126853792D01*
X127763261Y-126736738D01*
X127646203Y-126649109D01*
X127645938Y-126648965D01*
X127645724Y-126648751D01*
X127638990Y-126643710D01*
X127639714Y-126642741D01*
X127595737Y-126598762D01*
X127580647Y-126529388D01*
X127599637Y-126471347D01*
X127687709Y-126331183D01*
X127744162Y-126169850D01*
X127744430Y-126169085D01*
X127785808Y-126111393D01*
X127851809Y-126085231D01*
X127863359Y-126084700D01*
X128968580Y-126084700D01*
X129035616Y-126104012D01*
X129168817Y-126187709D01*
X129330150Y-126244162D01*
X129330149Y-126244162D01*
X129347348Y-126246099D01*
X129500000Y-126263299D01*
X129669850Y-126244162D01*
X129831183Y-126187709D01*
X129975909Y-126096771D01*
X130096771Y-125975909D01*
X130187709Y-125831183D01*
X130244162Y-125669850D01*
X130263299Y-125500000D01*
X130244162Y-125330150D01*
X130187709Y-125168817D01*
X130096771Y-125024091D01*
X130096769Y-125024089D01*
X130096768Y-125024087D01*
X129975912Y-124903231D01*
X129964383Y-124895987D01*
X129934453Y-124877180D01*
X129831182Y-124812290D01*
X129701749Y-124767000D01*
X129669850Y-124755838D01*
X129669848Y-124755837D01*
X129669850Y-124755837D01*
X129500000Y-124736701D01*
X129330151Y-124755837D01*
X129168817Y-124812290D01*
X129067581Y-124875902D01*
X129035616Y-124895987D01*
X128968580Y-124915300D01*
X126906330Y-124915300D01*
X126838209Y-124895298D01*
X126791716Y-124841642D01*
X126781612Y-124771368D01*
X126811106Y-124706788D01*
X126839293Y-124682613D01*
X126858496Y-124670547D01*
X126975909Y-124596771D01*
X127096771Y-124475909D01*
X127187709Y-124331183D01*
X127244162Y-124169850D01*
X127254285Y-124080004D01*
X135838215Y-124080004D01*
X135857315Y-124286122D01*
X135857315Y-124286126D01*
X135911314Y-124475912D01*
X135913967Y-124485235D01*
X136006239Y-124670544D01*
X136006240Y-124670545D01*
X136006241Y-124670547D01*
X136130987Y-124835738D01*
X136130990Y-124835740D01*
X136130991Y-124835742D01*
X136137463Y-124841642D01*
X136283972Y-124975203D01*
X136285117Y-124975912D01*
X136459977Y-125084181D01*
X136653009Y-125158962D01*
X136856495Y-125197000D01*
X136856497Y-125197000D01*
X137063503Y-125197000D01*
X137063505Y-125197000D01*
X137266991Y-125158962D01*
X137460023Y-125084181D01*
X137636026Y-124975204D01*
X137789009Y-124835742D01*
X137913761Y-124670544D01*
X138006033Y-124485235D01*
X138062684Y-124286127D01*
X138074406Y-124159633D01*
X138081785Y-124080004D01*
X138081785Y-124079995D01*
X138062684Y-123873877D01*
X138062684Y-123873873D01*
X138006033Y-123674765D01*
X137913761Y-123489456D01*
X137848647Y-123403231D01*
X137789012Y-123324261D01*
X137636027Y-123184796D01*
X137460028Y-123075822D01*
X137460027Y-123075821D01*
X137460023Y-123075819D01*
X137401639Y-123053201D01*
X137266994Y-123001039D01*
X137266993Y-123001038D01*
X137266991Y-123001038D01*
X137063505Y-122963000D01*
X136856495Y-122963000D01*
X136653009Y-123001038D01*
X136653007Y-123001038D01*
X136653005Y-123001039D01*
X136459981Y-123075817D01*
X136459971Y-123075822D01*
X136283972Y-123184796D01*
X136130987Y-123324261D01*
X136006241Y-123489452D01*
X135913967Y-123674765D01*
X135913964Y-123674773D01*
X135857315Y-123873873D01*
X135857315Y-123873877D01*
X135838215Y-124079995D01*
X135838215Y-124080004D01*
X127254285Y-124080004D01*
X127263299Y-124000000D01*
X127244162Y-123830150D01*
X127187709Y-123668817D01*
X127096771Y-123524091D01*
X127096769Y-123524089D01*
X127096768Y-123524087D01*
X126975912Y-123403231D01*
X126831182Y-123312290D01*
X126731270Y-123277330D01*
X126669850Y-123255838D01*
X126669848Y-123255837D01*
X126669850Y-123255837D01*
X126500000Y-123236701D01*
X126330151Y-123255837D01*
X126168817Y-123312290D01*
X126024087Y-123403231D01*
X125903231Y-123524087D01*
X125812290Y-123668817D01*
X125755838Y-123830147D01*
X125755837Y-123830154D01*
X125749710Y-123884526D01*
X125722206Y-123949978D01*
X125713598Y-123959511D01*
X125632129Y-124040979D01*
X125632121Y-124040989D01*
X125552263Y-124179309D01*
X125500881Y-124228302D01*
X125457251Y-124241517D01*
X125330151Y-124255837D01*
X125168817Y-124312290D01*
X125024087Y-124403231D01*
X124903231Y-124524087D01*
X124812290Y-124668817D01*
X124755837Y-124830151D01*
X124736701Y-125000000D01*
X124755837Y-125169848D01*
X124812290Y-125331182D01*
X124828112Y-125356362D01*
X124895987Y-125464384D01*
X124915300Y-125531419D01*
X124915300Y-126076975D01*
X124915299Y-126076975D01*
X124943605Y-126182613D01*
X124955147Y-126225686D01*
X125006539Y-126314700D01*
X125016055Y-126331181D01*
X125016055Y-126331182D01*
X125032121Y-126359010D01*
X125032123Y-126359013D01*
X125032124Y-126359014D01*
X125078396Y-126405286D01*
X125112420Y-126467596D01*
X125115300Y-126494380D01*
X125115300Y-126921712D01*
X125107356Y-126965743D01*
X125098011Y-126990797D01*
X125098009Y-126990804D01*
X125091500Y-127051350D01*
X125091500Y-127465500D01*
X125071498Y-127533621D01*
X125017842Y-127580114D01*
X124965500Y-127591500D01*
X124551350Y-127591500D01*
X124490803Y-127598009D01*
X124490799Y-127598010D01*
X124474707Y-127604013D01*
X124465746Y-127607355D01*
X124421714Y-127615300D01*
X117625586Y-127615300D01*
X117557465Y-127595298D01*
X117536491Y-127578395D01*
X112412728Y-122454632D01*
X112378702Y-122392320D01*
X112379679Y-122334605D01*
X112387252Y-122304700D01*
X112421371Y-122169969D01*
X112439963Y-121945601D01*
X112421371Y-121721233D01*
X112421369Y-121721225D01*
X112366104Y-121502988D01*
X112366103Y-121502987D01*
X112366103Y-121502985D01*
X112275667Y-121296810D01*
X112248899Y-121255838D01*
X112152531Y-121108335D01*
X112152527Y-121108330D01*
X112000044Y-120942692D01*
X111918189Y-120878982D01*
X111822383Y-120804412D01*
X111789126Y-120786414D01*
X111738736Y-120736403D01*
X111723383Y-120667086D01*
X111747943Y-120600473D01*
X111789127Y-120564787D01*
X111822383Y-120546790D01*
X112000047Y-120408507D01*
X112152529Y-120242869D01*
X112275667Y-120054392D01*
X112322164Y-119948388D01*
X133830820Y-119948388D01*
X133920202Y-120003731D01*
X133920209Y-120003734D01*
X134113141Y-120078477D01*
X134113140Y-120078477D01*
X134316543Y-120116500D01*
X134523457Y-120116500D01*
X134726859Y-120078477D01*
X134919793Y-120003733D01*
X134919802Y-120003728D01*
X135009179Y-119948388D01*
X134420001Y-119359210D01*
X134420000Y-119359210D01*
X133830820Y-119948388D01*
X112322164Y-119948388D01*
X112366103Y-119848217D01*
X112421371Y-119629969D01*
X112439963Y-119405601D01*
X112421371Y-119181233D01*
X112381577Y-119024091D01*
X112375476Y-119000000D01*
X133298717Y-119000000D01*
X133317809Y-119206038D01*
X133374432Y-119405048D01*
X133466670Y-119590285D01*
X133468318Y-119592468D01*
X133468320Y-119592468D01*
X134014052Y-119046737D01*
X134065000Y-119046737D01*
X134089193Y-119137025D01*
X134135930Y-119217975D01*
X134202025Y-119284070D01*
X134282975Y-119330807D01*
X134373263Y-119355000D01*
X134466737Y-119355000D01*
X134557025Y-119330807D01*
X134637975Y-119284070D01*
X134704070Y-119217975D01*
X134750807Y-119137025D01*
X134775000Y-119046737D01*
X134775000Y-119000001D01*
X134779210Y-119000001D01*
X135371678Y-119592469D01*
X135371678Y-119592468D01*
X135373332Y-119590281D01*
X135465567Y-119405048D01*
X135522190Y-119206038D01*
X135541282Y-119000000D01*
X135522190Y-118793961D01*
X135465567Y-118594951D01*
X135373332Y-118409718D01*
X135371678Y-118407530D01*
X134779210Y-118999999D01*
X134779210Y-119000001D01*
X134775000Y-119000001D01*
X134775000Y-118953263D01*
X134750807Y-118862975D01*
X134704070Y-118782025D01*
X134637975Y-118715930D01*
X134557025Y-118669193D01*
X134466737Y-118645000D01*
X134373263Y-118645000D01*
X134282975Y-118669193D01*
X134202025Y-118715930D01*
X134135930Y-118782025D01*
X134089193Y-118862975D01*
X134065000Y-118953263D01*
X134065000Y-119046737D01*
X134014052Y-119046737D01*
X134060790Y-118999999D01*
X133468321Y-118407530D01*
X133468320Y-118407530D01*
X133466667Y-118409720D01*
X133374432Y-118594951D01*
X133317809Y-118793961D01*
X133298717Y-119000000D01*
X112375476Y-119000000D01*
X112366104Y-118962988D01*
X112366103Y-118962987D01*
X112366103Y-118962985D01*
X112275667Y-118756810D01*
X112218159Y-118668787D01*
X112152531Y-118568335D01*
X112152527Y-118568330D01*
X112036377Y-118442160D01*
X112000047Y-118402695D01*
X112000046Y-118402694D01*
X112000044Y-118402692D01*
X111899447Y-118324394D01*
X111822383Y-118264412D01*
X111789126Y-118246414D01*
X111738736Y-118196403D01*
X111723383Y-118127086D01*
X111747943Y-118060473D01*
X111758171Y-118051610D01*
X133830819Y-118051610D01*
X134419999Y-118640790D01*
X134420000Y-118640790D01*
X135009178Y-118051610D01*
X134919797Y-117996268D01*
X134919790Y-117996265D01*
X134726858Y-117921522D01*
X134726859Y-117921522D01*
X134523457Y-117883500D01*
X134316543Y-117883500D01*
X134113140Y-117921522D01*
X133920207Y-117996266D01*
X133920195Y-117996272D01*
X133830819Y-118051610D01*
X111758171Y-118051610D01*
X111789127Y-118024787D01*
X111822383Y-118006790D01*
X112000047Y-117868507D01*
X112152529Y-117702869D01*
X112275667Y-117514392D01*
X112366103Y-117308217D01*
X112421371Y-117089969D01*
X112439963Y-116865601D01*
X112421371Y-116641233D01*
X112366103Y-116422985D01*
X112275667Y-116216810D01*
X112255538Y-116186000D01*
X112152531Y-116028335D01*
X112152527Y-116028330D01*
X112005658Y-115868790D01*
X112000047Y-115862695D01*
X112000046Y-115862694D01*
X112000044Y-115862692D01*
X111915047Y-115796536D01*
X111822383Y-115724412D01*
X111789126Y-115706414D01*
X111738736Y-115656403D01*
X111723383Y-115587086D01*
X111747943Y-115520473D01*
X111789127Y-115484787D01*
X111822383Y-115466790D01*
X112000047Y-115328507D01*
X112152529Y-115162869D01*
X112275667Y-114974392D01*
X112366103Y-114768217D01*
X112421371Y-114549969D01*
X112439963Y-114325601D01*
X112421371Y-114101233D01*
X112382732Y-113948652D01*
X112366104Y-113882988D01*
X112366103Y-113882987D01*
X112366103Y-113882985D01*
X112275667Y-113676810D01*
X112244639Y-113629318D01*
X112152531Y-113488335D01*
X112152527Y-113488330D01*
X112000044Y-113322692D01*
X111886995Y-113234702D01*
X111822383Y-113184412D01*
X111789126Y-113166414D01*
X111738736Y-113116403D01*
X111723383Y-113047086D01*
X111747943Y-112980473D01*
X111789127Y-112944787D01*
X111822383Y-112926790D01*
X112000047Y-112788507D01*
X112152529Y-112622869D01*
X112275667Y-112434392D01*
X112366103Y-112228217D01*
X112421371Y-112009969D01*
X112439963Y-111785601D01*
X112421371Y-111561233D01*
X112366103Y-111342985D01*
X112275667Y-111136810D01*
X112268947Y-111126525D01*
X112152531Y-110948335D01*
X112152527Y-110948330D01*
X112000044Y-110782692D01*
X111871463Y-110682613D01*
X111822383Y-110644412D01*
X111789126Y-110626414D01*
X111738736Y-110576403D01*
X111723383Y-110507086D01*
X111747943Y-110440473D01*
X111789127Y-110404787D01*
X111822383Y-110386790D01*
X112000047Y-110248507D01*
X112152529Y-110082869D01*
X112275667Y-109894392D01*
X112366103Y-109688217D01*
X112421371Y-109469969D01*
X112439963Y-109245601D01*
X112421371Y-109021233D01*
X112414383Y-108993638D01*
X112366104Y-108802988D01*
X112366103Y-108802987D01*
X112366103Y-108802985D01*
X112275667Y-108596810D01*
X112212418Y-108500000D01*
X112152531Y-108408335D01*
X112152527Y-108408330D01*
X112036377Y-108282160D01*
X112000047Y-108242695D01*
X112000046Y-108242694D01*
X112000044Y-108242692D01*
X111918189Y-108178982D01*
X111822383Y-108104412D01*
X111789126Y-108086414D01*
X111738736Y-108036403D01*
X111723383Y-107967086D01*
X111747943Y-107900473D01*
X111789127Y-107864787D01*
X111822383Y-107846790D01*
X112000047Y-107708507D01*
X112152529Y-107542869D01*
X112180537Y-107500000D01*
X155736701Y-107500000D01*
X155755837Y-107669848D01*
X155812290Y-107831182D01*
X155852804Y-107895659D01*
X155903035Y-107975601D01*
X155903231Y-107975912D01*
X156024087Y-108096768D01*
X156024089Y-108096769D01*
X156024091Y-108096771D01*
X156168817Y-108187709D01*
X156330150Y-108244162D01*
X156330149Y-108244162D01*
X156347348Y-108246099D01*
X156500000Y-108263299D01*
X156669850Y-108244162D01*
X156831183Y-108187709D01*
X156975909Y-108096771D01*
X157037380Y-108035300D01*
X157101076Y-107971605D01*
X157163388Y-107937579D01*
X157190171Y-107934700D01*
X158723692Y-107934700D01*
X158791813Y-107954702D01*
X158838306Y-108008358D01*
X158848410Y-108078632D01*
X158841747Y-108104733D01*
X158811511Y-108185795D01*
X158811509Y-108185803D01*
X158805000Y-108246350D01*
X158805000Y-108993649D01*
X158811509Y-109054196D01*
X158811511Y-109054204D01*
X158862611Y-109191204D01*
X158864762Y-109195144D01*
X158865715Y-109199527D01*
X158865760Y-109199647D01*
X158865742Y-109199653D01*
X158879852Y-109264518D01*
X158864761Y-109315911D01*
X158863053Y-109319037D01*
X158812005Y-109455905D01*
X158805500Y-109516402D01*
X158805500Y-109636000D01*
X161346500Y-109636000D01*
X161346500Y-109516414D01*
X161346499Y-109516402D01*
X161339994Y-109455906D01*
X161288945Y-109319038D01*
X161287238Y-109315911D01*
X161286480Y-109312429D01*
X161285796Y-109310594D01*
X161286059Y-109310495D01*
X161272147Y-109246536D01*
X161287243Y-109195132D01*
X161289384Y-109191209D01*
X161289389Y-109191204D01*
X161340489Y-109054201D01*
X161344034Y-109021233D01*
X161346999Y-108993649D01*
X161347000Y-108993632D01*
X161347000Y-108246367D01*
X161346999Y-108246350D01*
X161340490Y-108185803D01*
X161340489Y-108185799D01*
X161289389Y-108048796D01*
X161289387Y-108048794D01*
X161289387Y-108048792D01*
X161287528Y-108045388D01*
X161286703Y-108041596D01*
X161286239Y-108040352D01*
X161286417Y-108040285D01*
X161272435Y-107976014D01*
X161287528Y-107924612D01*
X161289387Y-107921207D01*
X161289387Y-107921206D01*
X161289389Y-107921204D01*
X161340489Y-107784201D01*
X161342749Y-107763187D01*
X161346999Y-107723649D01*
X161347000Y-107723632D01*
X161347000Y-106976367D01*
X161346999Y-106976350D01*
X161340490Y-106915803D01*
X161340489Y-106915799D01*
X161289389Y-106778796D01*
X161289387Y-106778794D01*
X161289387Y-106778792D01*
X161287528Y-106775388D01*
X161286703Y-106771596D01*
X161286239Y-106770352D01*
X161286417Y-106770285D01*
X161272435Y-106706014D01*
X161287528Y-106654612D01*
X161289387Y-106651207D01*
X161289387Y-106651206D01*
X161289389Y-106651204D01*
X161340489Y-106514201D01*
X161344034Y-106481233D01*
X161346999Y-106453649D01*
X161347000Y-106453632D01*
X161347000Y-105706367D01*
X161346999Y-105706350D01*
X161340490Y-105645803D01*
X161340488Y-105645795D01*
X161289389Y-105508797D01*
X161289387Y-105508792D01*
X161201761Y-105391738D01*
X161084707Y-105304112D01*
X161084702Y-105304110D01*
X160947704Y-105253011D01*
X160947696Y-105253009D01*
X160887149Y-105246500D01*
X160887138Y-105246500D01*
X159264862Y-105246500D01*
X159264850Y-105246500D01*
X159204303Y-105253009D01*
X159204295Y-105253011D01*
X159067297Y-105304110D01*
X159022880Y-105337359D01*
X158956359Y-105362168D01*
X158886985Y-105347075D01*
X158880337Y-105343176D01*
X158831185Y-105312292D01*
X158831183Y-105312291D01*
X158719470Y-105273201D01*
X158669850Y-105255838D01*
X158669848Y-105255837D01*
X158669850Y-105255837D01*
X158500000Y-105236701D01*
X158330151Y-105255837D01*
X158168817Y-105312290D01*
X158024087Y-105403231D01*
X157903231Y-105524087D01*
X157812290Y-105668817D01*
X157755837Y-105830151D01*
X157736701Y-106000000D01*
X157755837Y-106169848D01*
X157812290Y-106331182D01*
X157903231Y-106475912D01*
X157977524Y-106550205D01*
X158011550Y-106612517D01*
X158006485Y-106683332D01*
X157963938Y-106740168D01*
X157897418Y-106764979D01*
X157888429Y-106765300D01*
X156718298Y-106765300D01*
X156676683Y-106758229D01*
X156669847Y-106755837D01*
X156669850Y-106755837D01*
X156500000Y-106736701D01*
X156330151Y-106755837D01*
X156168817Y-106812290D01*
X156024087Y-106903231D01*
X155903231Y-107024087D01*
X155812290Y-107168817D01*
X155755837Y-107330151D01*
X155736701Y-107500000D01*
X112180537Y-107500000D01*
X112275667Y-107354392D01*
X112366103Y-107148217D01*
X112421371Y-106929969D01*
X112439963Y-106705601D01*
X112421371Y-106481233D01*
X112414383Y-106453638D01*
X112366104Y-106262988D01*
X112366103Y-106262987D01*
X112366103Y-106262985D01*
X112275667Y-106056810D01*
X112221863Y-105974456D01*
X112152531Y-105868335D01*
X112152527Y-105868330D01*
X112003423Y-105706362D01*
X112000047Y-105702695D01*
X112000046Y-105702694D01*
X112000044Y-105702692D01*
X111918189Y-105638982D01*
X111822383Y-105564412D01*
X111819794Y-105563011D01*
X111789127Y-105546415D01*
X111738736Y-105496403D01*
X111723383Y-105427086D01*
X111747943Y-105360473D01*
X111789127Y-105324787D01*
X111822383Y-105306790D01*
X112000047Y-105168507D01*
X112152529Y-105002869D01*
X112275667Y-104814392D01*
X112366103Y-104608217D01*
X112421371Y-104389969D01*
X112439963Y-104165601D01*
X112421371Y-103941233D01*
X112366103Y-103722985D01*
X112275667Y-103516810D01*
X112268947Y-103506525D01*
X112152531Y-103328335D01*
X112152527Y-103328330D01*
X112000044Y-103162692D01*
X111918189Y-103098982D01*
X111822383Y-103024412D01*
X111789126Y-103006414D01*
X111738736Y-102956403D01*
X111723383Y-102887086D01*
X111747943Y-102820473D01*
X111789127Y-102784787D01*
X111822383Y-102766790D01*
X112000047Y-102628507D01*
X112152529Y-102462869D01*
X112275667Y-102274392D01*
X112366103Y-102068217D01*
X112421371Y-101849969D01*
X112439963Y-101625601D01*
X112421371Y-101401233D01*
X112366103Y-101182985D01*
X112275667Y-100976810D01*
X112268947Y-100966525D01*
X112152531Y-100788335D01*
X112152527Y-100788330D01*
X112000044Y-100622692D01*
X111918189Y-100558982D01*
X111822383Y-100484412D01*
X111789126Y-100466414D01*
X111738736Y-100416403D01*
X111723383Y-100347086D01*
X111747943Y-100280473D01*
X111789127Y-100244787D01*
X111822383Y-100226790D01*
X112000047Y-100088507D01*
X112152529Y-99922869D01*
X112275667Y-99734392D01*
X112366103Y-99528217D01*
X112421371Y-99309969D01*
X112439963Y-99085601D01*
X112421371Y-98861233D01*
X112366103Y-98642985D01*
X112275667Y-98436810D01*
X112268947Y-98426525D01*
X112152531Y-98248335D01*
X112152527Y-98248330D01*
X112000044Y-98082692D01*
X111918189Y-98018982D01*
X111822383Y-97944412D01*
X111789126Y-97926414D01*
X111738736Y-97876403D01*
X111723383Y-97807086D01*
X111747943Y-97740473D01*
X111789127Y-97704787D01*
X111822383Y-97686790D01*
X112000047Y-97548507D01*
X112152529Y-97382869D01*
X112218908Y-97281269D01*
X112278517Y-97190030D01*
X112279944Y-97190962D01*
X112324635Y-97145939D01*
X112385431Y-97130301D01*
X118531374Y-97130301D01*
X118531376Y-97130301D01*
X118680085Y-97090454D01*
X118813413Y-97013477D01*
X118922275Y-96904615D01*
X125521605Y-90305285D01*
X125583917Y-90271259D01*
X125654732Y-90276324D01*
X125711568Y-90318871D01*
X125736379Y-90385391D01*
X125736700Y-90394380D01*
X125736700Y-91398375D01*
X125736699Y-91398375D01*
X125776546Y-91547084D01*
X125776549Y-91547091D01*
X125793803Y-91576974D01*
X125793805Y-91576977D01*
X125853521Y-91680410D01*
X125853523Y-91680413D01*
X125853524Y-91680414D01*
X125878395Y-91705285D01*
X125912420Y-91767595D01*
X125915300Y-91794380D01*
X125915300Y-93468580D01*
X125895987Y-93535617D01*
X125812290Y-93668817D01*
X125755837Y-93830151D01*
X125736701Y-94000000D01*
X125755837Y-94169848D01*
X125812290Y-94331182D01*
X125903231Y-94475912D01*
X126024087Y-94596768D01*
X126024089Y-94596769D01*
X126024091Y-94596771D01*
X126168817Y-94687709D01*
X126330150Y-94744162D01*
X126330149Y-94744162D01*
X126347348Y-94746099D01*
X126500000Y-94763299D01*
X126669850Y-94744162D01*
X126831183Y-94687709D01*
X126975909Y-94596771D01*
X127096771Y-94475909D01*
X127187709Y-94331183D01*
X127244162Y-94169850D01*
X127263299Y-94000000D01*
X127246772Y-93853318D01*
X143238000Y-93853318D01*
X143269076Y-94049523D01*
X143330457Y-94238435D01*
X143330460Y-94238441D01*
X143420643Y-94415435D01*
X143537402Y-94576140D01*
X143677859Y-94716597D01*
X143838564Y-94833356D01*
X144015558Y-94923539D01*
X144015564Y-94923542D01*
X144204474Y-94984923D01*
X144246000Y-94991500D01*
X144246000Y-94030702D01*
X144307007Y-94065925D01*
X144434174Y-94100000D01*
X144565826Y-94100000D01*
X144692993Y-94065925D01*
X144754000Y-94030702D01*
X144754000Y-94991500D01*
X144795525Y-94984923D01*
X144984435Y-94923542D01*
X144984441Y-94923539D01*
X145161435Y-94833356D01*
X145322140Y-94716597D01*
X145462597Y-94576140D01*
X145579356Y-94415435D01*
X145669539Y-94238441D01*
X145669542Y-94238435D01*
X145730923Y-94049523D01*
X145762000Y-93853318D01*
X161238000Y-93853318D01*
X161269076Y-94049523D01*
X161330457Y-94238435D01*
X161330460Y-94238441D01*
X161420643Y-94415435D01*
X161537402Y-94576140D01*
X161677859Y-94716597D01*
X161838564Y-94833356D01*
X162015558Y-94923539D01*
X162015564Y-94923542D01*
X162204474Y-94984923D01*
X162246000Y-94991500D01*
X162246000Y-94030702D01*
X162307007Y-94065925D01*
X162434174Y-94100000D01*
X162565826Y-94100000D01*
X162692993Y-94065925D01*
X162754000Y-94030702D01*
X162754000Y-94991500D01*
X162795525Y-94984923D01*
X162984435Y-94923542D01*
X162984441Y-94923539D01*
X163161435Y-94833356D01*
X163322140Y-94716597D01*
X163462597Y-94576140D01*
X163579356Y-94415435D01*
X163669539Y-94238441D01*
X163669542Y-94238435D01*
X163730923Y-94049523D01*
X163762000Y-93853318D01*
X163762000Y-93254000D01*
X163000000Y-93254000D01*
X163000000Y-92746000D01*
X163762000Y-92746000D01*
X163762000Y-92146681D01*
X163730923Y-91950476D01*
X163669542Y-91761564D01*
X163669539Y-91761558D01*
X163579356Y-91584564D01*
X163462597Y-91423859D01*
X163322140Y-91283402D01*
X163161435Y-91166643D01*
X162984441Y-91076460D01*
X162984439Y-91076459D01*
X162795522Y-91015075D01*
X162795513Y-91015073D01*
X162754000Y-91008497D01*
X162754000Y-91969297D01*
X162692993Y-91934075D01*
X162565826Y-91900000D01*
X162434174Y-91900000D01*
X162307007Y-91934075D01*
X162246000Y-91969297D01*
X162246000Y-91008497D01*
X162245999Y-91008497D01*
X162204486Y-91015073D01*
X162204477Y-91015075D01*
X162015560Y-91076459D01*
X162015558Y-91076460D01*
X161838564Y-91166643D01*
X161677859Y-91283402D01*
X161537402Y-91423859D01*
X161420643Y-91584564D01*
X161330460Y-91761558D01*
X161330457Y-91761564D01*
X161269076Y-91950476D01*
X161238000Y-92146681D01*
X161238000Y-92746000D01*
X162000000Y-92746000D01*
X162000000Y-93254000D01*
X161238000Y-93254000D01*
X161238000Y-93853318D01*
X145762000Y-93853318D01*
X145762000Y-93254000D01*
X145000000Y-93254000D01*
X145000000Y-92746000D01*
X145762000Y-92746000D01*
X145762000Y-92146681D01*
X145730923Y-91950476D01*
X145669542Y-91761564D01*
X145669539Y-91761558D01*
X145579356Y-91584564D01*
X145462597Y-91423859D01*
X145322140Y-91283402D01*
X145161435Y-91166643D01*
X144984441Y-91076460D01*
X144984439Y-91076459D01*
X144795522Y-91015075D01*
X144795513Y-91015073D01*
X144754000Y-91008497D01*
X144754000Y-91969297D01*
X144692993Y-91934075D01*
X144565826Y-91900000D01*
X144434174Y-91900000D01*
X144307007Y-91934075D01*
X144246000Y-91969297D01*
X144246000Y-91008497D01*
X144245999Y-91008497D01*
X144204486Y-91015073D01*
X144204477Y-91015075D01*
X144015560Y-91076459D01*
X144015558Y-91076460D01*
X143838564Y-91166643D01*
X143677859Y-91283402D01*
X143537402Y-91423859D01*
X143420643Y-91584564D01*
X143330460Y-91761558D01*
X143330457Y-91761564D01*
X143269076Y-91950476D01*
X143238000Y-92146681D01*
X143238000Y-92746000D01*
X144000000Y-92746000D01*
X144000000Y-93254000D01*
X143238000Y-93254000D01*
X143238000Y-93853318D01*
X127246772Y-93853318D01*
X127244162Y-93830150D01*
X127187709Y-93668817D01*
X127104012Y-93535616D01*
X127084700Y-93468580D01*
X127084700Y-92210700D01*
X127104702Y-92142579D01*
X127158358Y-92096086D01*
X127210700Y-92084700D01*
X131576975Y-92084700D01*
X131576977Y-92084700D01*
X131725686Y-92044853D01*
X131859014Y-91967876D01*
X131967876Y-91859014D01*
X132040489Y-91786399D01*
X132102799Y-91752375D01*
X132115468Y-91750288D01*
X132169850Y-91744162D01*
X132331183Y-91687709D01*
X132475909Y-91596771D01*
X132596771Y-91475909D01*
X132687709Y-91331183D01*
X132744162Y-91169850D01*
X132763299Y-91000000D01*
X132744162Y-90830150D01*
X132687709Y-90668817D01*
X132596771Y-90524091D01*
X132596769Y-90524089D01*
X132596768Y-90524087D01*
X132475912Y-90403231D01*
X132331182Y-90312290D01*
X132228395Y-90276324D01*
X132169850Y-90255838D01*
X132169848Y-90255837D01*
X132169850Y-90255837D01*
X132000000Y-90236701D01*
X131830151Y-90255837D01*
X131668817Y-90312290D01*
X131524087Y-90403231D01*
X131403231Y-90524087D01*
X131312290Y-90668817D01*
X131255570Y-90830915D01*
X131214192Y-90888607D01*
X131148191Y-90914769D01*
X131136641Y-90915300D01*
X130653617Y-90915300D01*
X130585496Y-90895298D01*
X130539003Y-90841642D01*
X130528899Y-90771368D01*
X130542024Y-90733449D01*
X130541694Y-90733313D01*
X130543989Y-90727770D01*
X130544500Y-90726297D01*
X130544853Y-90725686D01*
X130584700Y-90576977D01*
X130584700Y-89710700D01*
X130604702Y-89642579D01*
X130658358Y-89596086D01*
X130710700Y-89584700D01*
X132968580Y-89584700D01*
X133035616Y-89604012D01*
X133168817Y-89687709D01*
X133330150Y-89744162D01*
X133330149Y-89744162D01*
X133347348Y-89746099D01*
X133500000Y-89763299D01*
X133669850Y-89744162D01*
X133831183Y-89687709D01*
X133975909Y-89596771D01*
X134096771Y-89475909D01*
X134187709Y-89331183D01*
X134244162Y-89169850D01*
X134263299Y-89000000D01*
X134244162Y-88830150D01*
X134216925Y-88752313D01*
X134213306Y-88681411D01*
X134248595Y-88619806D01*
X134311588Y-88587059D01*
X134335855Y-88584700D01*
X134908985Y-88584700D01*
X134925431Y-88585778D01*
X134999999Y-88595595D01*
X134999999Y-88595594D01*
X135000000Y-88595595D01*
X135154151Y-88575301D01*
X135202436Y-88555300D01*
X135273021Y-88547710D01*
X135298871Y-88555300D01*
X135345982Y-88574814D01*
X135500000Y-88595091D01*
X135654019Y-88574814D01*
X135797544Y-88515364D01*
X135797552Y-88515359D01*
X135920793Y-88420793D01*
X136015359Y-88297552D01*
X136015364Y-88297544D01*
X136071309Y-88162482D01*
X136115857Y-88107201D01*
X136183221Y-88084780D01*
X136187718Y-88084700D01*
X147076975Y-88084700D01*
X147076977Y-88084700D01*
X147225686Y-88044853D01*
X147359014Y-87967876D01*
X147467876Y-87859014D01*
X147544853Y-87725686D01*
X147584700Y-87576977D01*
X147584700Y-80050230D01*
X147604702Y-79982109D01*
X147653499Y-79937962D01*
X147661694Y-79933787D01*
X147822464Y-79816981D01*
X147962981Y-79676464D01*
X148079787Y-79515694D01*
X148170005Y-79338632D01*
X148231413Y-79149636D01*
X148262500Y-78953361D01*
X163737500Y-78953361D01*
X163768587Y-79149636D01*
X163768588Y-79149641D01*
X163829993Y-79338627D01*
X163829995Y-79338632D01*
X163920213Y-79515694D01*
X164037019Y-79676464D01*
X164037021Y-79676466D01*
X164037023Y-79676469D01*
X164177530Y-79816976D01*
X164177533Y-79816978D01*
X164177536Y-79816981D01*
X164338306Y-79933787D01*
X164515368Y-80024005D01*
X164704358Y-80085411D01*
X164704359Y-80085411D01*
X164704364Y-80085413D01*
X164900639Y-80116500D01*
X164900642Y-80116500D01*
X165099358Y-80116500D01*
X165099361Y-80116500D01*
X165295636Y-80085413D01*
X165484632Y-80024005D01*
X165661694Y-79933787D01*
X165822464Y-79816981D01*
X165962981Y-79676464D01*
X166079787Y-79515694D01*
X166170005Y-79338632D01*
X166231413Y-79149636D01*
X166262500Y-78953361D01*
X166262500Y-77246639D01*
X166231413Y-77050364D01*
X166170005Y-76861368D01*
X166079787Y-76684306D01*
X165962981Y-76523536D01*
X165962978Y-76523533D01*
X165962976Y-76523530D01*
X165822469Y-76383023D01*
X165822466Y-76383021D01*
X165822464Y-76383019D01*
X165661694Y-76266213D01*
X165656598Y-76263616D01*
X165653491Y-76262033D01*
X165601878Y-76213282D01*
X165584700Y-76149769D01*
X165584700Y-69031419D01*
X165604012Y-68964384D01*
X165687709Y-68831183D01*
X165744162Y-68669850D01*
X165763299Y-68500000D01*
X165744162Y-68330150D01*
X165687709Y-68168817D01*
X165596771Y-68024091D01*
X165596769Y-68024089D01*
X165596768Y-68024087D01*
X165475912Y-67903231D01*
X165331182Y-67812290D01*
X165205564Y-67768335D01*
X165169850Y-67755838D01*
X165169848Y-67755837D01*
X165169850Y-67755837D01*
X165000000Y-67736701D01*
X164830151Y-67755837D01*
X164668817Y-67812290D01*
X164524087Y-67903231D01*
X164403231Y-68024087D01*
X164312290Y-68168817D01*
X164255837Y-68330151D01*
X164236701Y-68500000D01*
X164255837Y-68669848D01*
X164312290Y-68831182D01*
X164335931Y-68868806D01*
X164395987Y-68964384D01*
X164415300Y-69031419D01*
X164415300Y-76149769D01*
X164395298Y-76217890D01*
X164346509Y-76262033D01*
X164338304Y-76266214D01*
X164177533Y-76383021D01*
X164177530Y-76383023D01*
X164037023Y-76523530D01*
X164037021Y-76523533D01*
X163920215Y-76684302D01*
X163829996Y-76861366D01*
X163829993Y-76861372D01*
X163768588Y-77050358D01*
X163768587Y-77050363D01*
X163768587Y-77050364D01*
X163737500Y-77246639D01*
X163737500Y-78953361D01*
X148262500Y-78953361D01*
X148262500Y-77246639D01*
X148231413Y-77050364D01*
X148170005Y-76861368D01*
X148079787Y-76684306D01*
X147962981Y-76523536D01*
X147962978Y-76523533D01*
X147962976Y-76523530D01*
X147822469Y-76383023D01*
X147822466Y-76383021D01*
X147822464Y-76383019D01*
X147661694Y-76266213D01*
X147484632Y-76175995D01*
X147484629Y-76175994D01*
X147484627Y-76175993D01*
X147295639Y-76114588D01*
X147295643Y-76114588D01*
X147259100Y-76108800D01*
X147099361Y-76083500D01*
X146900639Y-76083500D01*
X146704364Y-76114587D01*
X146704358Y-76114588D01*
X146515372Y-76175993D01*
X146515366Y-76175996D01*
X146338302Y-76266215D01*
X146177533Y-76383021D01*
X146177530Y-76383023D01*
X146037023Y-76523530D01*
X146037021Y-76523533D01*
X145920215Y-76684302D01*
X145829996Y-76861366D01*
X145829993Y-76861372D01*
X145768588Y-77050358D01*
X145768587Y-77050363D01*
X145768587Y-77050364D01*
X145737500Y-77246639D01*
X145737500Y-78953361D01*
X145768587Y-79149636D01*
X145768588Y-79149641D01*
X145829993Y-79338627D01*
X145829995Y-79338632D01*
X145920213Y-79515694D01*
X146037019Y-79676464D01*
X146037021Y-79676466D01*
X146037023Y-79676469D01*
X146177530Y-79816976D01*
X146177533Y-79816978D01*
X146177536Y-79816981D01*
X146281103Y-79892227D01*
X146338304Y-79933786D01*
X146338306Y-79933787D01*
X146346500Y-79937962D01*
X146398116Y-79986707D01*
X146415300Y-80050230D01*
X146415300Y-86789300D01*
X146395298Y-86857421D01*
X146341642Y-86903914D01*
X146289300Y-86915300D01*
X135591015Y-86915300D01*
X135574569Y-86914222D01*
X135500000Y-86904405D01*
X135345848Y-86924699D01*
X135298217Y-86944428D01*
X135227627Y-86952017D01*
X135201783Y-86944428D01*
X135154151Y-86924699D01*
X135000000Y-86904405D01*
X134925431Y-86914222D01*
X134908985Y-86915300D01*
X134031420Y-86915300D01*
X133964383Y-86895987D01*
X133856529Y-86828217D01*
X133831182Y-86812290D01*
X133731270Y-86777330D01*
X133669850Y-86755838D01*
X133669848Y-86755837D01*
X133669850Y-86755837D01*
X133500000Y-86736701D01*
X133330151Y-86755837D01*
X133168817Y-86812290D01*
X133024087Y-86903231D01*
X133024086Y-86903232D01*
X132950317Y-86977002D01*
X132888005Y-87011028D01*
X132817190Y-87005963D01*
X132798222Y-86997026D01*
X132725686Y-86955147D01*
X132711560Y-86951362D01*
X132576977Y-86915300D01*
X132576975Y-86915300D01*
X131210700Y-86915300D01*
X131142579Y-86895298D01*
X131096086Y-86841642D01*
X131084700Y-86789300D01*
X131084700Y-81423024D01*
X131084700Y-81423023D01*
X131073863Y-81382578D01*
X131044854Y-81274315D01*
X131004258Y-81204001D01*
X130967879Y-81140989D01*
X130967878Y-81140988D01*
X130967877Y-81140986D01*
X130664615Y-80837725D01*
X130647592Y-80827897D01*
X130647592Y-80827896D01*
X130647590Y-80827896D01*
X130531287Y-80760748D01*
X130382578Y-80720901D01*
X130382576Y-80720901D01*
X112385431Y-80720901D01*
X112317310Y-80700899D01*
X112279727Y-80660381D01*
X112278517Y-80661172D01*
X112152531Y-80468335D01*
X112152527Y-80468330D01*
X112000044Y-80302692D01*
X111918189Y-80238982D01*
X111822383Y-80164412D01*
X111789126Y-80146414D01*
X111738736Y-80096403D01*
X111723383Y-80027086D01*
X111747943Y-79960473D01*
X111789127Y-79924787D01*
X111822383Y-79906790D01*
X112000047Y-79768507D01*
X112152529Y-79602869D01*
X112275667Y-79414392D01*
X112366103Y-79208217D01*
X112421371Y-78989969D01*
X112439963Y-78765601D01*
X112421371Y-78541233D01*
X112366103Y-78322985D01*
X112275667Y-78116810D01*
X112268947Y-78106525D01*
X112152531Y-77928335D01*
X112152527Y-77928330D01*
X112000044Y-77762692D01*
X111918189Y-77698982D01*
X111822383Y-77624412D01*
X111788599Y-77606129D01*
X111738209Y-77556117D01*
X111722857Y-77486800D01*
X111747417Y-77420187D01*
X111788600Y-77384502D01*
X111822107Y-77366368D01*
X111822108Y-77366368D01*
X111999709Y-77228135D01*
X112152132Y-77062559D01*
X112275226Y-76874149D01*
X112365627Y-76668057D01*
X112365630Y-76668050D01*
X112413351Y-76479601D01*
X111507510Y-76479601D01*
X111542732Y-76418594D01*
X111576807Y-76291427D01*
X111576807Y-76159775D01*
X111542732Y-76032608D01*
X111507510Y-75971601D01*
X112413351Y-75971601D01*
X112413351Y-75971600D01*
X112365630Y-75783151D01*
X112365627Y-75783144D01*
X112275226Y-75577052D01*
X112152132Y-75388642D01*
X111999709Y-75223066D01*
X111822108Y-75084833D01*
X111822107Y-75084832D01*
X111788598Y-75066698D01*
X111738208Y-75016684D01*
X111722857Y-74947367D01*
X111747419Y-74880754D01*
X111788597Y-74845073D01*
X111822383Y-74826790D01*
X112000047Y-74688507D01*
X112152529Y-74522869D01*
X112275667Y-74334392D01*
X112363090Y-74135085D01*
X112408770Y-74080738D01*
X112476583Y-74059714D01*
X112478477Y-74059700D01*
X113360816Y-74059700D01*
X113428937Y-74079702D01*
X113475430Y-74133358D01*
X113485534Y-74203632D01*
X113469936Y-74248698D01*
X113455147Y-74274314D01*
X113415770Y-74421271D01*
X113415300Y-74423024D01*
X113415300Y-78468580D01*
X113395987Y-78535617D01*
X113312290Y-78668817D01*
X113255837Y-78830151D01*
X113236701Y-79000000D01*
X113255837Y-79169848D01*
X113312290Y-79331182D01*
X113403231Y-79475912D01*
X113524087Y-79596768D01*
X113524089Y-79596769D01*
X113524091Y-79596771D01*
X113668817Y-79687709D01*
X113830150Y-79744162D01*
X113830149Y-79744162D01*
X113847348Y-79746099D01*
X114000000Y-79763299D01*
X114169850Y-79744162D01*
X114331183Y-79687709D01*
X114475909Y-79596771D01*
X114596771Y-79475909D01*
X114687709Y-79331183D01*
X114744162Y-79169850D01*
X114763299Y-79000000D01*
X114744162Y-78830150D01*
X114687709Y-78668817D01*
X114604012Y-78535616D01*
X114584700Y-78468580D01*
X114584700Y-74835700D01*
X114604702Y-74767579D01*
X114658358Y-74721086D01*
X114710700Y-74709700D01*
X121289300Y-74709700D01*
X121357421Y-74729702D01*
X121403914Y-74783358D01*
X121415300Y-74835700D01*
X121415300Y-77076975D01*
X121415299Y-77076975D01*
X121455147Y-77225686D01*
X121532121Y-77359010D01*
X121532129Y-77359020D01*
X121640979Y-77467870D01*
X121640984Y-77467874D01*
X121640986Y-77467876D01*
X121774314Y-77544853D01*
X121923023Y-77584700D01*
X121923025Y-77584700D01*
X131576975Y-77584700D01*
X131576977Y-77584700D01*
X131725686Y-77544853D01*
X131859014Y-77467876D01*
X131967876Y-77359014D01*
X132044853Y-77225686D01*
X132084700Y-77076977D01*
X132084700Y-74423023D01*
X132044853Y-74274314D01*
X132002974Y-74201777D01*
X131986236Y-74132781D01*
X132009457Y-74065689D01*
X132022992Y-74049687D01*
X132096771Y-73975909D01*
X132187709Y-73831183D01*
X132244162Y-73669850D01*
X132263299Y-73500000D01*
X132244162Y-73330150D01*
X132187709Y-73168817D01*
X132096771Y-73024091D01*
X132096769Y-73024089D01*
X132096768Y-73024087D01*
X132047476Y-72974795D01*
X132013450Y-72912483D01*
X132018515Y-72841668D01*
X132061062Y-72784832D01*
X132127582Y-72760021D01*
X132136571Y-72759700D01*
X132401975Y-72759700D01*
X132401977Y-72759700D01*
X132550686Y-72719853D01*
X132684014Y-72642876D01*
X132792876Y-72534014D01*
X132852402Y-72474488D01*
X132852402Y-72474486D01*
X132967876Y-72359015D01*
X133013410Y-72280147D01*
X133044853Y-72225686D01*
X133084700Y-72076977D01*
X133084700Y-67031419D01*
X133104012Y-66964384D01*
X133187709Y-66831183D01*
X133244162Y-66669850D01*
X133263299Y-66500000D01*
X133244162Y-66330150D01*
X133187709Y-66168817D01*
X133096771Y-66024091D01*
X133096769Y-66024089D01*
X133096768Y-66024087D01*
X132975912Y-65903231D01*
X132831182Y-65812290D01*
X132669085Y-65755570D01*
X132611393Y-65714192D01*
X132585231Y-65648191D01*
X132584700Y-65636641D01*
X132584700Y-64531419D01*
X132604012Y-64464384D01*
X132687709Y-64331183D01*
X132744162Y-64169850D01*
X132763299Y-64000000D01*
X132744162Y-63830150D01*
X132687709Y-63668817D01*
X132596771Y-63524091D01*
X132596769Y-63524089D01*
X132596768Y-63524087D01*
X132475912Y-63403231D01*
X132331182Y-63312290D01*
X132231270Y-63277330D01*
X132169850Y-63255838D01*
X132169848Y-63255837D01*
X132169850Y-63255837D01*
X132000000Y-63236701D01*
X131830151Y-63255837D01*
X131668817Y-63312290D01*
X131524087Y-63403231D01*
X131403231Y-63524087D01*
X131312290Y-63668817D01*
X131255837Y-63830151D01*
X131236701Y-64000000D01*
X131255837Y-64169848D01*
X131312290Y-64331182D01*
X131312291Y-64331183D01*
X131395987Y-64464384D01*
X131415300Y-64531419D01*
X131415300Y-69180024D01*
X131395298Y-69248145D01*
X131341642Y-69294638D01*
X131271368Y-69304742D01*
X131206788Y-69275248D01*
X131171245Y-69224057D01*
X131126389Y-69103797D01*
X131126387Y-69103792D01*
X131038761Y-68986738D01*
X130921707Y-68899112D01*
X130921703Y-68899110D01*
X130809368Y-68857211D01*
X130752532Y-68814664D01*
X130727722Y-68748144D01*
X130734471Y-68697543D01*
X130744162Y-68669850D01*
X130763299Y-68500000D01*
X130744162Y-68330150D01*
X130687709Y-68168817D01*
X130596771Y-68024091D01*
X130596769Y-68024089D01*
X130596768Y-68024087D01*
X130475912Y-67903231D01*
X130331182Y-67812290D01*
X130205564Y-67768335D01*
X130169850Y-67755838D01*
X130169848Y-67755837D01*
X130169850Y-67755837D01*
X130000000Y-67736701D01*
X129830151Y-67755837D01*
X129668817Y-67812290D01*
X129524087Y-67903231D01*
X129403231Y-68024087D01*
X129312290Y-68168817D01*
X129255837Y-68330151D01*
X129236701Y-68500000D01*
X129255837Y-68669850D01*
X129255838Y-68669852D01*
X129257498Y-68674597D01*
X129261112Y-68745502D01*
X129225819Y-68807104D01*
X129162823Y-68839846D01*
X129152034Y-68841481D01*
X129091303Y-68848009D01*
X129091295Y-68848011D01*
X128954297Y-68899110D01*
X128954292Y-68899112D01*
X128837238Y-68986738D01*
X128749612Y-69103792D01*
X128749610Y-69103797D01*
X128698511Y-69240795D01*
X128698509Y-69240803D01*
X128692000Y-69301350D01*
X128692000Y-69848630D01*
X128692001Y-69848654D01*
X128696073Y-69886534D01*
X128696073Y-69913466D01*
X128692001Y-69951345D01*
X128692000Y-69951369D01*
X128692000Y-70498630D01*
X128692001Y-70498654D01*
X128696073Y-70536534D01*
X128696073Y-70563466D01*
X128692001Y-70601345D01*
X128692000Y-70601369D01*
X128692000Y-71148630D01*
X128692001Y-71148654D01*
X128696073Y-71186534D01*
X128696073Y-71213466D01*
X128692001Y-71251345D01*
X128692000Y-71251369D01*
X128692000Y-71798630D01*
X128692001Y-71798654D01*
X128696073Y-71836534D01*
X128696073Y-71863466D01*
X128692001Y-71901345D01*
X128692000Y-71901369D01*
X128692000Y-72448630D01*
X128692001Y-72448654D01*
X128696073Y-72486534D01*
X128696073Y-72513466D01*
X128692001Y-72551345D01*
X128692000Y-72551369D01*
X128692000Y-73098630D01*
X128692001Y-73098654D01*
X128696073Y-73136534D01*
X128696073Y-73163466D01*
X128692001Y-73201345D01*
X128692000Y-73201369D01*
X128692000Y-73748630D01*
X128692001Y-73748654D01*
X128696073Y-73786534D01*
X128696073Y-73813466D01*
X128692001Y-73851345D01*
X128692000Y-73851369D01*
X128692000Y-74398630D01*
X128692001Y-74398654D01*
X128696073Y-74436534D01*
X128696073Y-74463466D01*
X128692001Y-74501345D01*
X128692000Y-74501369D01*
X128692000Y-75048630D01*
X128692001Y-75048654D01*
X128696073Y-75086534D01*
X128696073Y-75113466D01*
X128692001Y-75151345D01*
X128692000Y-75151369D01*
X128692000Y-75698649D01*
X128698509Y-75759196D01*
X128698511Y-75759204D01*
X128749610Y-75896202D01*
X128749612Y-75896207D01*
X128837238Y-76013261D01*
X128954292Y-76100887D01*
X128954294Y-76100888D01*
X128954296Y-76100889D01*
X128991024Y-76114588D01*
X129091295Y-76151988D01*
X129091303Y-76151990D01*
X129151850Y-76158499D01*
X129151855Y-76158499D01*
X129151862Y-76158500D01*
X129151868Y-76158500D01*
X130724132Y-76158500D01*
X130724138Y-76158500D01*
X130724145Y-76158499D01*
X130724149Y-76158499D01*
X130775832Y-76152943D01*
X130845701Y-76165549D01*
X130897662Y-76213928D01*
X130915300Y-76278221D01*
X130915300Y-76289300D01*
X130895298Y-76357421D01*
X130841642Y-76403914D01*
X130789300Y-76415300D01*
X122710700Y-76415300D01*
X122642579Y-76395298D01*
X122596086Y-76341642D01*
X122584700Y-76289300D01*
X122584700Y-75819975D01*
X122604702Y-75751854D01*
X122658358Y-75705361D01*
X122728632Y-75695257D01*
X122793212Y-75724751D01*
X122828754Y-75775939D01*
X122873611Y-75896204D01*
X122873612Y-75896205D01*
X122873613Y-75896208D01*
X122961238Y-76013261D01*
X123078292Y-76100887D01*
X123078294Y-76100888D01*
X123078296Y-76100889D01*
X123115024Y-76114588D01*
X123215295Y-76151988D01*
X123215303Y-76151990D01*
X123275850Y-76158499D01*
X123275855Y-76158499D01*
X123275862Y-76158500D01*
X123275868Y-76158500D01*
X124848132Y-76158500D01*
X124848138Y-76158500D01*
X124848145Y-76158499D01*
X124848149Y-76158499D01*
X124908696Y-76151990D01*
X124908699Y-76151989D01*
X124908701Y-76151989D01*
X125045704Y-76100889D01*
X125162761Y-76013261D01*
X125250389Y-75896204D01*
X125301489Y-75759201D01*
X125305102Y-75725601D01*
X125307999Y-75698649D01*
X125308000Y-75698632D01*
X125308000Y-75151366D01*
X125307999Y-75151354D01*
X125304746Y-75121095D01*
X125303926Y-75113466D01*
X125303926Y-75086530D01*
X125308000Y-75048638D01*
X125308000Y-74501362D01*
X125303926Y-74463466D01*
X125303926Y-74436530D01*
X125305378Y-74423023D01*
X125308000Y-74398638D01*
X125308000Y-73851362D01*
X125303926Y-73813466D01*
X125303926Y-73786530D01*
X125307999Y-73748645D01*
X125308000Y-73748633D01*
X125308000Y-73201366D01*
X125307999Y-73201354D01*
X125303926Y-73163470D01*
X125303926Y-73136530D01*
X125307999Y-73098645D01*
X125308000Y-73098633D01*
X125308000Y-72551366D01*
X125307999Y-72551354D01*
X125303926Y-72513470D01*
X125303926Y-72486530D01*
X125305221Y-72474488D01*
X125308000Y-72448638D01*
X125308000Y-71901362D01*
X125303926Y-71863466D01*
X125303926Y-71836530D01*
X125307999Y-71798645D01*
X125308000Y-71798633D01*
X125308000Y-71251366D01*
X125307999Y-71251356D01*
X125307998Y-71251345D01*
X125303673Y-71211113D01*
X125303673Y-71184177D01*
X125307499Y-71148593D01*
X125307500Y-71148586D01*
X125307500Y-71099999D01*
X125290646Y-71083145D01*
X125279927Y-71079998D01*
X125247180Y-71049509D01*
X125173069Y-70950509D01*
X125148258Y-70883989D01*
X125163349Y-70814615D01*
X125173069Y-70799491D01*
X125247180Y-70700491D01*
X125286279Y-70671221D01*
X125307500Y-70650001D01*
X125307500Y-70601413D01*
X125307499Y-70601406D01*
X125303673Y-70565821D01*
X125303673Y-70538886D01*
X125308000Y-70498638D01*
X125308000Y-69951362D01*
X125303926Y-69913466D01*
X125303926Y-69886530D01*
X125308000Y-69848638D01*
X125308000Y-69301362D01*
X125302951Y-69254394D01*
X125301490Y-69240803D01*
X125301488Y-69240795D01*
X125250389Y-69103797D01*
X125250387Y-69103792D01*
X125162761Y-68986738D01*
X125045707Y-68899112D01*
X125045702Y-68899110D01*
X124908704Y-68848011D01*
X124908696Y-68848009D01*
X124848149Y-68841500D01*
X124848138Y-68841500D01*
X123275862Y-68841500D01*
X123275850Y-68841500D01*
X123215303Y-68848009D01*
X123215295Y-68848011D01*
X123078297Y-68899110D01*
X123078292Y-68899112D01*
X122961238Y-68986738D01*
X122873612Y-69103792D01*
X122873610Y-69103797D01*
X122822511Y-69240795D01*
X122822509Y-69240803D01*
X122816000Y-69301350D01*
X122816000Y-69848630D01*
X122816001Y-69848654D01*
X122820073Y-69886534D01*
X122820073Y-69913466D01*
X122816001Y-69951345D01*
X122816000Y-69951369D01*
X122816000Y-70498649D01*
X122820326Y-70538881D01*
X122820326Y-70565817D01*
X122816500Y-70601398D01*
X122816500Y-70650001D01*
X122833353Y-70666854D01*
X122844073Y-70670002D01*
X122876820Y-70700491D01*
X122905491Y-70738791D01*
X122930302Y-70805311D01*
X122915211Y-70874685D01*
X122865008Y-70924888D01*
X122804623Y-70940300D01*
X114290587Y-70940300D01*
X114222466Y-70920298D01*
X114201492Y-70903395D01*
X112412728Y-69114631D01*
X112378702Y-69052319D01*
X112379678Y-68994606D01*
X112421371Y-68829969D01*
X112439963Y-68605601D01*
X112421371Y-68381233D01*
X112366103Y-68162985D01*
X112275667Y-67956810D01*
X112251161Y-67919301D01*
X112152531Y-67768335D01*
X112152527Y-67768330D01*
X112000044Y-67602692D01*
X111918189Y-67538982D01*
X111822383Y-67464412D01*
X111789126Y-67446414D01*
X111738736Y-67396403D01*
X111723383Y-67327086D01*
X111747943Y-67260473D01*
X111789127Y-67224787D01*
X111822383Y-67206790D01*
X112000047Y-67068507D01*
X112152529Y-66902869D01*
X112275667Y-66714392D01*
X112366103Y-66508217D01*
X112421371Y-66289969D01*
X112439963Y-66065601D01*
X112421371Y-65841233D01*
X112399678Y-65755570D01*
X112366104Y-65622988D01*
X112366103Y-65622987D01*
X112366103Y-65622985D01*
X112275667Y-65416810D01*
X112268947Y-65406525D01*
X112152531Y-65228335D01*
X112152526Y-65228330D01*
X112059000Y-65126735D01*
X112009331Y-65072780D01*
X111977910Y-65009115D01*
X111985897Y-64938569D01*
X112030755Y-64883540D01*
X112057990Y-64869390D01*
X112173011Y-64826490D01*
X112177925Y-64822812D01*
X112290068Y-64738862D01*
X112377694Y-64621808D01*
X112377694Y-64621807D01*
X112377696Y-64621805D01*
X112428796Y-64484802D01*
X112430992Y-64464382D01*
X112435306Y-64424250D01*
X112435307Y-64424233D01*
X112435307Y-62626968D01*
X112435306Y-62626951D01*
X112428797Y-62566404D01*
X112428795Y-62566396D01*
X112377696Y-62429398D01*
X112377694Y-62429393D01*
X112290068Y-62312339D01*
X112173014Y-62224713D01*
X112173009Y-62224711D01*
X112036011Y-62173612D01*
X112036003Y-62173610D01*
X111975456Y-62167101D01*
X111975445Y-62167101D01*
X110178169Y-62167101D01*
X110178157Y-62167101D01*
X110117610Y-62173610D01*
X110117602Y-62173612D01*
X109980604Y-62224711D01*
X109980599Y-62224713D01*
X109863545Y-62312339D01*
X109775919Y-62429393D01*
X109775917Y-62429398D01*
X109724818Y-62566396D01*
X109724816Y-62566404D01*
X109718307Y-62626951D01*
X109718307Y-64424250D01*
X109724816Y-64484797D01*
X109724818Y-64484805D01*
X109775917Y-64621803D01*
X109775919Y-64621808D01*
X109863545Y-64738862D01*
X109980598Y-64826487D01*
X109980599Y-64826487D01*
X109980603Y-64826490D01*
X110095617Y-64869388D01*
X110152449Y-64911933D01*
X110177260Y-64978453D01*
X110162169Y-65047827D01*
X110144282Y-65072780D01*
X110001087Y-65228330D01*
X110001082Y-65228335D01*
X109877948Y-65416807D01*
X109787510Y-65622987D01*
X109787509Y-65622988D01*
X109732244Y-65841225D01*
X109713651Y-66065601D01*
X109732244Y-66289976D01*
X109787509Y-66508213D01*
X109787510Y-66508214D01*
X109787511Y-66508217D01*
X109858409Y-66669850D01*
X109877948Y-66714394D01*
X110001082Y-66902866D01*
X110001086Y-66902871D01*
X110153569Y-67068509D01*
X110200697Y-67105190D01*
X110331231Y-67206790D01*
X110364487Y-67224787D01*
X110414878Y-67274801D01*
X110430230Y-67344117D01*
X110405669Y-67410730D01*
X110364487Y-67446414D01*
X110331233Y-67464411D01*
X110331231Y-67464412D01*
X110153569Y-67602692D01*
X110001086Y-67768330D01*
X110001082Y-67768335D01*
X109877948Y-67956807D01*
X109787510Y-68162987D01*
X109787509Y-68162988D01*
X109732244Y-68381225D01*
X109732243Y-68381231D01*
X109732243Y-68381233D01*
X109713651Y-68605601D01*
X109731667Y-68823023D01*
X109732244Y-68829976D01*
X109787509Y-69048213D01*
X109787510Y-69048214D01*
X109787511Y-69048217D01*
X109858782Y-69210700D01*
X109877948Y-69254394D01*
X110001082Y-69442866D01*
X110001086Y-69442871D01*
X110153569Y-69608509D01*
X110200697Y-69645190D01*
X110331231Y-69746790D01*
X110364487Y-69764787D01*
X110414878Y-69814801D01*
X110430230Y-69884117D01*
X110405669Y-69950730D01*
X110364487Y-69986415D01*
X110331233Y-70004411D01*
X110331231Y-70004412D01*
X110153569Y-70142692D01*
X110001086Y-70308330D01*
X110001082Y-70308335D01*
X109877948Y-70496807D01*
X109787510Y-70702987D01*
X109787509Y-70702988D01*
X109732244Y-70921225D01*
X109732243Y-70921231D01*
X109732243Y-70921233D01*
X109713651Y-71145601D01*
X109722415Y-71251369D01*
X109732244Y-71369976D01*
X109787509Y-71588213D01*
X109787510Y-71588214D01*
X109787511Y-71588217D01*
X109877947Y-71794392D01*
X109877948Y-71794394D01*
X110001082Y-71982866D01*
X110001086Y-71982871D01*
X110153569Y-72148509D01*
X110200697Y-72185190D01*
X110331231Y-72286790D01*
X110364487Y-72304787D01*
X110414878Y-72354801D01*
X110430230Y-72424117D01*
X110405669Y-72490730D01*
X110364487Y-72526415D01*
X110331233Y-72544411D01*
X110331231Y-72544412D01*
X110153569Y-72682692D01*
X110001086Y-72848330D01*
X110001082Y-72848335D01*
X109877948Y-73036807D01*
X109787510Y-73242987D01*
X109787509Y-73242988D01*
X109732244Y-73461225D01*
X109732243Y-73461231D01*
X109732243Y-73461233D01*
X109713651Y-73685601D01*
X109725714Y-73831183D01*
X109732244Y-73909976D01*
X109787509Y-74128213D01*
X109787510Y-74128214D01*
X109787511Y-74128217D01*
X109840359Y-74248699D01*
X109877948Y-74334394D01*
X110001082Y-74522866D01*
X110001086Y-74522871D01*
X110153569Y-74688509D01*
X110200697Y-74725190D01*
X110331231Y-74826790D01*
X110365012Y-74845071D01*
X110415403Y-74895083D01*
X110430756Y-74964400D01*
X110406196Y-75031013D01*
X110365016Y-75066697D01*
X110331511Y-75084829D01*
X110331505Y-75084833D01*
X110153904Y-75223066D01*
X110001481Y-75388642D01*
X109878387Y-75577052D01*
X109787986Y-75783144D01*
X109787983Y-75783151D01*
X109740262Y-75971600D01*
X109740263Y-75971601D01*
X110646104Y-75971601D01*
X110610882Y-76032608D01*
X110576807Y-76159775D01*
X110576807Y-76291427D01*
X110610882Y-76418594D01*
X110646104Y-76479601D01*
X109740262Y-76479601D01*
X109787983Y-76668050D01*
X109787986Y-76668057D01*
X109878387Y-76874149D01*
X110001481Y-77062559D01*
X110153904Y-77228135D01*
X110331505Y-77366368D01*
X110331511Y-77366372D01*
X110365014Y-77384503D01*
X110415404Y-77434516D01*
X110430756Y-77503833D01*
X110406195Y-77570446D01*
X110365014Y-77606129D01*
X110331237Y-77624408D01*
X110331231Y-77624412D01*
X110153569Y-77762692D01*
X110001086Y-77928330D01*
X110001082Y-77928335D01*
X109877948Y-78116807D01*
X109787510Y-78322987D01*
X109787509Y-78322988D01*
X109732244Y-78541225D01*
X109732243Y-78541231D01*
X109732243Y-78541233D01*
X109713651Y-78765601D01*
X109729209Y-78953357D01*
X109732244Y-78989976D01*
X109787509Y-79208213D01*
X109787510Y-79208214D01*
X109787511Y-79208217D01*
X109844714Y-79338627D01*
X109877948Y-79414394D01*
X110001082Y-79602866D01*
X110001086Y-79602871D01*
X110153569Y-79768509D01*
X110200697Y-79805190D01*
X110331231Y-79906790D01*
X110364487Y-79924787D01*
X110414878Y-79974801D01*
X110430230Y-80044117D01*
X110405669Y-80110730D01*
X110364487Y-80146414D01*
X110331233Y-80164411D01*
X110331231Y-80164412D01*
X110153569Y-80302692D01*
X110001086Y-80468330D01*
X110001082Y-80468335D01*
X109877948Y-80656807D01*
X109787510Y-80862987D01*
X109787509Y-80862988D01*
X109732244Y-81081225D01*
X109732243Y-81081231D01*
X109732243Y-81081233D01*
X109713651Y-81305601D01*
X109732244Y-81529976D01*
X109787509Y-81748213D01*
X109787510Y-81748214D01*
X109787511Y-81748217D01*
X109877947Y-81954392D01*
X109877948Y-81954394D01*
X110001082Y-82142866D01*
X110001086Y-82142871D01*
X110153569Y-82308509D01*
X110200697Y-82345190D01*
X110331231Y-82446790D01*
X110364487Y-82464787D01*
X110414878Y-82514801D01*
X110430230Y-82584117D01*
X110405669Y-82650730D01*
X110364487Y-82686414D01*
X110331233Y-82704411D01*
X110331231Y-82704412D01*
X110153569Y-82842692D01*
X110001086Y-83008330D01*
X110001082Y-83008335D01*
X109877948Y-83196807D01*
X109787510Y-83402987D01*
X109787509Y-83402988D01*
X109732244Y-83621225D01*
X109713651Y-83845601D01*
X109732244Y-84069976D01*
X109787509Y-84288213D01*
X109787510Y-84288214D01*
X109787511Y-84288217D01*
X109877947Y-84494392D01*
X109877948Y-84494394D01*
X110001082Y-84682866D01*
X110001086Y-84682871D01*
X110153569Y-84848509D01*
X110200697Y-84885190D01*
X110331231Y-84986790D01*
X110364487Y-85004787D01*
X110414878Y-85054801D01*
X110430230Y-85124117D01*
X110405669Y-85190730D01*
X110364487Y-85226414D01*
X110331233Y-85244411D01*
X110331231Y-85244412D01*
X110153569Y-85382692D01*
X110001086Y-85548330D01*
X110001082Y-85548335D01*
X109877948Y-85736807D01*
X109787510Y-85942987D01*
X109787509Y-85942988D01*
X109732244Y-86161225D01*
X109713651Y-86385601D01*
X109732244Y-86609976D01*
X109787509Y-86828213D01*
X109787510Y-86828214D01*
X109787511Y-86828217D01*
X109852774Y-86977002D01*
X109877948Y-87034394D01*
X110001082Y-87222866D01*
X110001086Y-87222871D01*
X110153569Y-87388509D01*
X110200697Y-87425190D01*
X110331231Y-87526790D01*
X110364487Y-87544787D01*
X110414878Y-87594801D01*
X110430230Y-87664117D01*
X110405669Y-87730730D01*
X110364487Y-87766415D01*
X110331233Y-87784411D01*
X110331231Y-87784412D01*
X110153569Y-87922692D01*
X110001086Y-88088330D01*
X110001082Y-88088335D01*
X109877948Y-88276807D01*
X109787510Y-88482987D01*
X109787509Y-88482988D01*
X109732244Y-88701225D01*
X109732243Y-88701231D01*
X109732243Y-88701233D01*
X109713651Y-88925601D01*
X109730540Y-89129420D01*
X109732244Y-89149976D01*
X109787509Y-89368213D01*
X109787510Y-89368214D01*
X109787511Y-89368217D01*
X109855883Y-89524091D01*
X109877948Y-89574394D01*
X110001082Y-89762866D01*
X110001086Y-89762871D01*
X110153569Y-89928509D01*
X110200155Y-89964768D01*
X110331231Y-90066790D01*
X110364487Y-90084787D01*
X110414878Y-90134801D01*
X110430230Y-90204117D01*
X110405669Y-90270730D01*
X110364487Y-90306414D01*
X110331233Y-90324411D01*
X110331231Y-90324412D01*
X110153569Y-90462692D01*
X110001086Y-90628330D01*
X110001082Y-90628335D01*
X109877948Y-90816807D01*
X109787510Y-91022987D01*
X109787509Y-91022988D01*
X109732244Y-91241225D01*
X109732243Y-91241231D01*
X109732243Y-91241233D01*
X109713651Y-91465601D01*
X109731451Y-91680415D01*
X109732244Y-91689976D01*
X109787509Y-91908213D01*
X109787510Y-91908214D01*
X109787511Y-91908217D01*
X109877947Y-92114392D01*
X109877948Y-92114394D01*
X110001082Y-92302866D01*
X110001086Y-92302871D01*
X110153569Y-92468509D01*
X110200155Y-92504768D01*
X110331231Y-92606790D01*
X110364487Y-92624787D01*
X110414878Y-92674801D01*
X110430230Y-92744117D01*
X110405669Y-92810730D01*
X110364487Y-92846414D01*
X110331233Y-92864411D01*
X110331231Y-92864412D01*
X110153569Y-93002692D01*
X110001086Y-93168330D01*
X110001082Y-93168335D01*
X109877948Y-93356807D01*
X109787510Y-93562987D01*
X109787509Y-93562988D01*
X109732244Y-93781225D01*
X109732243Y-93781231D01*
X109732243Y-93781233D01*
X109713651Y-94005601D01*
X109727261Y-94169850D01*
X109732244Y-94229976D01*
X109787509Y-94448213D01*
X109787510Y-94448214D01*
X109787511Y-94448217D01*
X109877947Y-94654392D01*
X109877948Y-94654394D01*
X110001082Y-94842866D01*
X110001086Y-94842871D01*
X110153569Y-95008509D01*
X110200697Y-95045190D01*
X110331231Y-95146790D01*
X110364487Y-95164787D01*
X110414878Y-95214801D01*
X110430230Y-95284117D01*
X110405669Y-95350730D01*
X110364487Y-95386414D01*
X110331233Y-95404411D01*
X110331231Y-95404412D01*
X110153569Y-95542692D01*
X110001086Y-95708330D01*
X110001082Y-95708335D01*
X109877948Y-95896807D01*
X109787510Y-96102987D01*
X109787509Y-96102988D01*
X109732244Y-96321225D01*
X109713651Y-96545601D01*
X109732244Y-96769976D01*
X109787509Y-96988213D01*
X109787510Y-96988214D01*
X109787511Y-96988217D01*
X109877947Y-97194392D01*
X109877948Y-97194394D01*
X110001082Y-97382866D01*
X110001086Y-97382871D01*
X110153569Y-97548509D01*
X110200697Y-97585190D01*
X110331231Y-97686790D01*
X110364487Y-97704787D01*
X110414878Y-97754801D01*
X110430230Y-97824117D01*
X110405669Y-97890730D01*
X110364487Y-97926414D01*
X110331233Y-97944411D01*
X110331231Y-97944412D01*
X110153569Y-98082692D01*
X110001086Y-98248330D01*
X110001082Y-98248335D01*
X109877948Y-98436807D01*
X109787510Y-98642987D01*
X109787509Y-98642988D01*
X109732244Y-98861225D01*
X109713651Y-99085601D01*
X109732244Y-99309976D01*
X109787509Y-99528213D01*
X109787510Y-99528214D01*
X109787511Y-99528217D01*
X109877947Y-99734392D01*
X109877948Y-99734394D01*
X110001082Y-99922866D01*
X110001086Y-99922871D01*
X110153569Y-100088509D01*
X110200697Y-100125190D01*
X110331231Y-100226790D01*
X110364487Y-100244787D01*
X110414878Y-100294801D01*
X110430230Y-100364117D01*
X110405669Y-100430730D01*
X110364487Y-100466414D01*
X110331233Y-100484411D01*
X110331231Y-100484412D01*
X110153569Y-100622692D01*
X110001086Y-100788330D01*
X110001082Y-100788335D01*
X109877948Y-100976807D01*
X109787510Y-101182987D01*
X109787509Y-101182988D01*
X109732244Y-101401225D01*
X109713651Y-101625601D01*
X109732244Y-101849976D01*
X109787509Y-102068213D01*
X109787510Y-102068214D01*
X109787511Y-102068217D01*
X109877947Y-102274392D01*
X109877948Y-102274394D01*
X110001082Y-102462866D01*
X110001086Y-102462871D01*
X110153569Y-102628509D01*
X110200697Y-102665190D01*
X110331231Y-102766790D01*
X110364487Y-102784787D01*
X110414878Y-102834801D01*
X110430230Y-102904117D01*
X110405669Y-102970730D01*
X110364487Y-103006414D01*
X110331233Y-103024411D01*
X110331231Y-103024412D01*
X110153569Y-103162692D01*
X110001086Y-103328330D01*
X110001082Y-103328335D01*
X109877948Y-103516807D01*
X109787510Y-103722987D01*
X109787509Y-103722988D01*
X109732244Y-103941225D01*
X109732243Y-103941231D01*
X109732243Y-103941233D01*
X109724770Y-104031419D01*
X109713651Y-104165601D01*
X109732244Y-104389976D01*
X109787509Y-104608213D01*
X109787510Y-104608214D01*
X109787511Y-104608217D01*
X109877947Y-104814392D01*
X109877948Y-104814394D01*
X110001082Y-105002866D01*
X110001086Y-105002871D01*
X110153569Y-105168509D01*
X110200697Y-105205190D01*
X110331231Y-105306790D01*
X110364487Y-105324787D01*
X110414878Y-105374801D01*
X110430230Y-105444117D01*
X110405669Y-105510730D01*
X110364487Y-105546414D01*
X110331233Y-105564411D01*
X110331231Y-105564412D01*
X110153569Y-105702692D01*
X110001086Y-105868330D01*
X110001082Y-105868335D01*
X109877948Y-106056807D01*
X109787510Y-106262987D01*
X109787509Y-106262988D01*
X109732244Y-106481225D01*
X109732243Y-106481231D01*
X109732243Y-106481233D01*
X109713651Y-106705601D01*
X109731069Y-106915803D01*
X109732244Y-106929976D01*
X109787509Y-107148213D01*
X109787510Y-107148214D01*
X109787511Y-107148217D01*
X109867314Y-107330150D01*
X109877948Y-107354394D01*
X110001082Y-107542866D01*
X110001086Y-107542871D01*
X110153569Y-107708509D01*
X110200697Y-107745190D01*
X110331231Y-107846790D01*
X110364487Y-107864787D01*
X110414878Y-107914801D01*
X110430230Y-107984117D01*
X110405669Y-108050730D01*
X110364487Y-108086414D01*
X110331233Y-108104411D01*
X110331231Y-108104412D01*
X110153569Y-108242692D01*
X110001086Y-108408330D01*
X110001082Y-108408335D01*
X109877948Y-108596807D01*
X109787510Y-108802987D01*
X109787509Y-108802988D01*
X109732244Y-109021225D01*
X109732243Y-109021231D01*
X109732243Y-109021233D01*
X109713651Y-109245601D01*
X109731069Y-109455803D01*
X109732244Y-109469976D01*
X109787509Y-109688213D01*
X109787510Y-109688214D01*
X109787511Y-109688217D01*
X109849768Y-109830150D01*
X109877948Y-109894394D01*
X110001082Y-110082866D01*
X110001086Y-110082871D01*
X110153569Y-110248509D01*
X110200697Y-110285190D01*
X110331231Y-110386790D01*
X110364487Y-110404787D01*
X110414878Y-110454801D01*
X110430230Y-110524117D01*
X110405669Y-110590730D01*
X110364487Y-110626414D01*
X110331233Y-110644411D01*
X110331231Y-110644412D01*
X110153569Y-110782692D01*
X110001086Y-110948330D01*
X110001082Y-110948335D01*
X109877948Y-111136807D01*
X109787510Y-111342987D01*
X109787509Y-111342988D01*
X109732244Y-111561225D01*
X109732243Y-111561231D01*
X109732243Y-111561233D01*
X109713651Y-111785601D01*
X109725315Y-111926365D01*
X109732244Y-112009976D01*
X109787509Y-112228213D01*
X109787510Y-112228214D01*
X109787511Y-112228217D01*
X109849954Y-112370574D01*
X109877948Y-112434394D01*
X110001082Y-112622866D01*
X110001086Y-112622871D01*
X110153569Y-112788509D01*
X110200697Y-112825190D01*
X110331231Y-112926790D01*
X110364487Y-112944787D01*
X110414878Y-112994801D01*
X110430230Y-113064117D01*
X110405669Y-113130730D01*
X110364487Y-113166414D01*
X110331233Y-113184411D01*
X110331231Y-113184412D01*
X110153569Y-113322692D01*
X110001086Y-113488330D01*
X110001082Y-113488335D01*
X109877948Y-113676807D01*
X109787510Y-113882987D01*
X109787509Y-113882988D01*
X109732244Y-114101225D01*
X109732243Y-114101231D01*
X109732243Y-114101233D01*
X109713651Y-114325601D01*
X109731748Y-114543999D01*
X109732244Y-114549976D01*
X109787509Y-114768213D01*
X109787510Y-114768214D01*
X109787511Y-114768217D01*
X109846732Y-114903229D01*
X109877948Y-114974394D01*
X110001082Y-115162866D01*
X110001086Y-115162871D01*
X110153569Y-115328509D01*
X110200697Y-115365190D01*
X110331231Y-115466790D01*
X110364487Y-115484787D01*
X110414878Y-115534801D01*
X110430230Y-115604117D01*
X110405669Y-115670730D01*
X110364487Y-115706414D01*
X110331233Y-115724411D01*
X110331231Y-115724412D01*
X110153569Y-115862692D01*
X110001086Y-116028330D01*
X110001082Y-116028335D01*
X109877948Y-116216807D01*
X109787510Y-116422987D01*
X109787509Y-116422988D01*
X109732244Y-116641225D01*
X109732243Y-116641231D01*
X109732243Y-116641233D01*
X109713651Y-116865601D01*
X109725716Y-117011207D01*
X109732244Y-117089976D01*
X109787509Y-117308213D01*
X109787510Y-117308214D01*
X109787511Y-117308217D01*
X109834482Y-117415300D01*
X109877948Y-117514394D01*
X110001082Y-117702866D01*
X110001086Y-117702871D01*
X110153569Y-117868509D01*
X110200697Y-117905190D01*
X110331231Y-118006790D01*
X110364487Y-118024787D01*
X110414878Y-118074801D01*
X110430230Y-118144117D01*
X110405669Y-118210730D01*
X110364487Y-118246414D01*
X110331233Y-118264411D01*
X110331231Y-118264412D01*
X110153569Y-118402692D01*
X110001086Y-118568330D01*
X110001082Y-118568335D01*
X109877948Y-118756807D01*
X109787510Y-118962987D01*
X109787509Y-118962988D01*
X109732244Y-119181225D01*
X109732243Y-119181231D01*
X109732243Y-119181233D01*
X109713651Y-119405601D01*
X109730936Y-119614201D01*
X109732244Y-119629976D01*
X109787509Y-119848213D01*
X109787510Y-119848214D01*
X109787511Y-119848217D01*
X109863709Y-120021932D01*
X109877948Y-120054394D01*
X110001082Y-120242866D01*
X110001086Y-120242871D01*
X110153569Y-120408509D01*
X110200697Y-120445190D01*
X110331231Y-120546790D01*
X110364487Y-120564787D01*
X110414878Y-120614801D01*
X110430230Y-120684117D01*
X110405669Y-120750730D01*
X110364487Y-120786414D01*
X110331233Y-120804411D01*
X110331231Y-120804412D01*
X110153569Y-120942692D01*
X110001086Y-121108330D01*
X110001082Y-121108335D01*
X109877948Y-121296807D01*
X109787510Y-121502987D01*
X109787509Y-121502988D01*
X109732244Y-121721225D01*
X109732243Y-121721231D01*
X109732243Y-121721233D01*
X109713651Y-121945601D01*
X109732233Y-122169850D01*
X109732244Y-122169976D01*
X109787509Y-122388213D01*
X109787510Y-122388214D01*
X109787511Y-122388217D01*
X109861065Y-122555905D01*
X109877948Y-122594394D01*
X110001082Y-122782866D01*
X110001086Y-122782871D01*
X110153569Y-122948509D01*
X110200697Y-122985190D01*
X110331231Y-123086790D01*
X110364487Y-123104787D01*
X110414878Y-123154801D01*
X110430230Y-123224117D01*
X110405669Y-123290730D01*
X110364487Y-123326415D01*
X110331233Y-123344411D01*
X110331231Y-123344412D01*
X110153569Y-123482692D01*
X110001086Y-123648330D01*
X110001082Y-123648335D01*
X109877948Y-123836807D01*
X109787510Y-124042987D01*
X109787509Y-124042988D01*
X109732244Y-124261225D01*
X109732243Y-124261231D01*
X109732243Y-124261233D01*
X109713651Y-124485601D01*
X109731979Y-124706788D01*
X109732244Y-124709976D01*
X109787509Y-124928213D01*
X109787510Y-124928214D01*
X109787511Y-124928217D01*
X109842883Y-125054454D01*
X109877948Y-125134394D01*
X110001082Y-125322866D01*
X110001086Y-125322871D01*
X110153569Y-125488509D01*
X110200697Y-125525190D01*
X110331231Y-125626790D01*
X110364487Y-125644787D01*
X110414878Y-125694801D01*
X110430230Y-125764117D01*
X110405669Y-125830730D01*
X110364487Y-125866415D01*
X110331233Y-125884411D01*
X110331231Y-125884412D01*
X110153569Y-126022692D01*
X110001086Y-126188330D01*
X110001082Y-126188335D01*
X109877948Y-126376807D01*
X109787510Y-126582987D01*
X109787509Y-126582988D01*
X109732244Y-126801225D01*
X109732243Y-126801231D01*
X109732243Y-126801233D01*
X109713651Y-127025601D01*
X109730878Y-127233500D01*
X109732244Y-127249976D01*
X109787509Y-127468213D01*
X109787510Y-127468214D01*
X109787511Y-127468217D01*
X109866858Y-127649111D01*
X109877948Y-127674394D01*
X110001082Y-127862866D01*
X110001086Y-127862871D01*
X110065951Y-127933332D01*
X110141113Y-128014979D01*
X110153569Y-128028509D01*
X110200697Y-128065190D01*
X110331231Y-128166790D01*
X110364487Y-128184787D01*
X110414878Y-128234801D01*
X110430230Y-128304117D01*
X110405669Y-128370730D01*
X110364487Y-128406415D01*
X110331233Y-128424411D01*
X110331231Y-128424412D01*
X110153569Y-128562692D01*
X110001086Y-128728330D01*
X110001082Y-128728335D01*
X109877948Y-128916807D01*
X109787510Y-129122987D01*
X109787509Y-129122988D01*
X109732244Y-129341225D01*
X109732243Y-129341231D01*
X109732243Y-129341233D01*
X109713651Y-129565601D01*
X109273307Y-129565601D01*
X109273307Y-61396501D01*
X109293309Y-61328380D01*
X109346965Y-61281887D01*
X109399307Y-61270501D01*
X185245807Y-61270501D01*
X185313928Y-61290503D01*
G37*
%TD.AperFunction*%
M02*
