%TF.GenerationSoftware,KiCad,Pcbnew,8.0.0*%
%TF.CreationDate,2024-04-16T18:42:12-05:00*%
%TF.ProjectId,BreakoutBoardPCB,42726561-6b6f-4757-9442-6f6172645043,rev?*%
%TF.SameCoordinates,Original*%
%TF.FileFunction,Legend,Top*%
%TF.FilePolarity,Positive*%
%FSLAX46Y46*%
G04 Gerber Fmt 4.6, Leading zero omitted, Abs format (unit mm)*
G04 Created by KiCad (PCBNEW 8.0.0) date 2024-04-16 18:42:12*
%MOMM*%
%LPD*%
G01*
G04 APERTURE LIST*
G04 Aperture macros list*
%AMRoundRect*
0 Rectangle with rounded corners*
0 $1 Rounding radius*
0 $2 $3 $4 $5 $6 $7 $8 $9 X,Y pos of 4 corners*
0 Add a 4 corners polygon primitive as box body*
4,1,4,$2,$3,$4,$5,$6,$7,$8,$9,$2,$3,0*
0 Add four circle primitives for the rounded corners*
1,1,$1+$1,$2,$3*
1,1,$1+$1,$4,$5*
1,1,$1+$1,$6,$7*
1,1,$1+$1,$8,$9*
0 Add four rect primitives between the rounded corners*
20,1,$1+$1,$2,$3,$4,$5,0*
20,1,$1+$1,$4,$5,$6,$7,0*
20,1,$1+$1,$6,$7,$8,$9,0*
20,1,$1+$1,$8,$9,$2,$3,0*%
G04 Aperture macros list end*
%ADD10C,0.150000*%
%ADD11C,0.254000*%
%ADD12C,0.100000*%
%ADD13C,0.200000*%
%ADD14C,0.127000*%
%ADD15C,0.120000*%
%ADD16C,1.217000*%
%ADD17O,1.712000X3.220000*%
%ADD18C,0.164000*%
%ADD19R,0.800000X0.200000*%
%ADD20R,0.200000X0.800000*%
%ADD21R,1.800000X1.800000*%
%ADD22R,1.525000X0.650000*%
%ADD23C,2.000000*%
%ADD24R,1.475000X0.450000*%
%ADD25R,1.700000X1.700000*%
%ADD26O,1.700000X1.700000*%
%ADD27RoundRect,0.250000X-0.250000X-0.475000X0.250000X-0.475000X0.250000X0.475000X-0.250000X0.475000X0*%
G04 APERTURE END LIST*
D10*
X139836779Y-102369819D02*
X139836779Y-101369819D01*
X139836779Y-101846009D02*
X140408207Y-101846009D01*
X140408207Y-102369819D02*
X140408207Y-101369819D01*
X141312969Y-102369819D02*
X141312969Y-101846009D01*
X141312969Y-101846009D02*
X141265350Y-101750771D01*
X141265350Y-101750771D02*
X141170112Y-101703152D01*
X141170112Y-101703152D02*
X140979636Y-101703152D01*
X140979636Y-101703152D02*
X140884398Y-101750771D01*
X141312969Y-102322200D02*
X141217731Y-102369819D01*
X141217731Y-102369819D02*
X140979636Y-102369819D01*
X140979636Y-102369819D02*
X140884398Y-102322200D01*
X140884398Y-102322200D02*
X140836779Y-102226961D01*
X140836779Y-102226961D02*
X140836779Y-102131723D01*
X140836779Y-102131723D02*
X140884398Y-102036485D01*
X140884398Y-102036485D02*
X140979636Y-101988866D01*
X140979636Y-101988866D02*
X141217731Y-101988866D01*
X141217731Y-101988866D02*
X141312969Y-101941247D01*
X141789160Y-102369819D02*
X141789160Y-101703152D01*
X141789160Y-101893628D02*
X141836779Y-101798390D01*
X141836779Y-101798390D02*
X141884398Y-101750771D01*
X141884398Y-101750771D02*
X141979636Y-101703152D01*
X141979636Y-101703152D02*
X142074874Y-101703152D01*
X142408208Y-102369819D02*
X142408208Y-101703152D01*
X142408208Y-101369819D02*
X142360589Y-101417438D01*
X142360589Y-101417438D02*
X142408208Y-101465057D01*
X142408208Y-101465057D02*
X142455827Y-101417438D01*
X142455827Y-101417438D02*
X142408208Y-101369819D01*
X142408208Y-101369819D02*
X142408208Y-101465057D01*
X142836779Y-102322200D02*
X142932017Y-102369819D01*
X142932017Y-102369819D02*
X143122493Y-102369819D01*
X143122493Y-102369819D02*
X143217731Y-102322200D01*
X143217731Y-102322200D02*
X143265350Y-102226961D01*
X143265350Y-102226961D02*
X143265350Y-102179342D01*
X143265350Y-102179342D02*
X143217731Y-102084104D01*
X143217731Y-102084104D02*
X143122493Y-102036485D01*
X143122493Y-102036485D02*
X142979636Y-102036485D01*
X142979636Y-102036485D02*
X142884398Y-101988866D01*
X142884398Y-101988866D02*
X142836779Y-101893628D01*
X142836779Y-101893628D02*
X142836779Y-101846009D01*
X142836779Y-101846009D02*
X142884398Y-101750771D01*
X142884398Y-101750771D02*
X142979636Y-101703152D01*
X142979636Y-101703152D02*
X143122493Y-101703152D01*
X143122493Y-101703152D02*
X143217731Y-101750771D01*
X144455827Y-102369819D02*
X144455827Y-101369819D01*
X145027255Y-102369819D02*
X144598684Y-101798390D01*
X145027255Y-101369819D02*
X144455827Y-101941247D01*
X145455827Y-102369819D02*
X145455827Y-101369819D01*
X145884398Y-102369819D02*
X145884398Y-101846009D01*
X145884398Y-101846009D02*
X145836779Y-101750771D01*
X145836779Y-101750771D02*
X145741541Y-101703152D01*
X145741541Y-101703152D02*
X145598684Y-101703152D01*
X145598684Y-101703152D02*
X145503446Y-101750771D01*
X145503446Y-101750771D02*
X145455827Y-101798390D01*
X146789160Y-102369819D02*
X146789160Y-101846009D01*
X146789160Y-101846009D02*
X146741541Y-101750771D01*
X146741541Y-101750771D02*
X146646303Y-101703152D01*
X146646303Y-101703152D02*
X146455827Y-101703152D01*
X146455827Y-101703152D02*
X146360589Y-101750771D01*
X146789160Y-102322200D02*
X146693922Y-102369819D01*
X146693922Y-102369819D02*
X146455827Y-102369819D01*
X146455827Y-102369819D02*
X146360589Y-102322200D01*
X146360589Y-102322200D02*
X146312970Y-102226961D01*
X146312970Y-102226961D02*
X146312970Y-102131723D01*
X146312970Y-102131723D02*
X146360589Y-102036485D01*
X146360589Y-102036485D02*
X146455827Y-101988866D01*
X146455827Y-101988866D02*
X146693922Y-101988866D01*
X146693922Y-101988866D02*
X146789160Y-101941247D01*
X147265351Y-101703152D02*
X147265351Y-102369819D01*
X147265351Y-101798390D02*
X147312970Y-101750771D01*
X147312970Y-101750771D02*
X147408208Y-101703152D01*
X147408208Y-101703152D02*
X147551065Y-101703152D01*
X147551065Y-101703152D02*
X147646303Y-101750771D01*
X147646303Y-101750771D02*
X147693922Y-101846009D01*
X147693922Y-101846009D02*
X147693922Y-102369819D01*
X148217732Y-102322200D02*
X148217732Y-102369819D01*
X148217732Y-102369819D02*
X148170113Y-102465057D01*
X148170113Y-102465057D02*
X148122494Y-102512676D01*
X149693922Y-101369819D02*
X149693922Y-102084104D01*
X149693922Y-102084104D02*
X149646303Y-102226961D01*
X149646303Y-102226961D02*
X149551065Y-102322200D01*
X149551065Y-102322200D02*
X149408208Y-102369819D01*
X149408208Y-102369819D02*
X149312970Y-102369819D01*
X150312970Y-102369819D02*
X150217732Y-102322200D01*
X150217732Y-102322200D02*
X150170113Y-102274580D01*
X150170113Y-102274580D02*
X150122494Y-102179342D01*
X150122494Y-102179342D02*
X150122494Y-101893628D01*
X150122494Y-101893628D02*
X150170113Y-101798390D01*
X150170113Y-101798390D02*
X150217732Y-101750771D01*
X150217732Y-101750771D02*
X150312970Y-101703152D01*
X150312970Y-101703152D02*
X150455827Y-101703152D01*
X150455827Y-101703152D02*
X150551065Y-101750771D01*
X150551065Y-101750771D02*
X150598684Y-101798390D01*
X150598684Y-101798390D02*
X150646303Y-101893628D01*
X150646303Y-101893628D02*
X150646303Y-102179342D01*
X150646303Y-102179342D02*
X150598684Y-102274580D01*
X150598684Y-102274580D02*
X150551065Y-102322200D01*
X150551065Y-102322200D02*
X150455827Y-102369819D01*
X150455827Y-102369819D02*
X150312970Y-102369819D01*
X151074875Y-101703152D02*
X151074875Y-102369819D01*
X151074875Y-101798390D02*
X151122494Y-101750771D01*
X151122494Y-101750771D02*
X151217732Y-101703152D01*
X151217732Y-101703152D02*
X151360589Y-101703152D01*
X151360589Y-101703152D02*
X151455827Y-101750771D01*
X151455827Y-101750771D02*
X151503446Y-101846009D01*
X151503446Y-101846009D02*
X151503446Y-102369819D01*
X152408208Y-102369819D02*
X152408208Y-101846009D01*
X152408208Y-101846009D02*
X152360589Y-101750771D01*
X152360589Y-101750771D02*
X152265351Y-101703152D01*
X152265351Y-101703152D02*
X152074875Y-101703152D01*
X152074875Y-101703152D02*
X151979637Y-101750771D01*
X152408208Y-102322200D02*
X152312970Y-102369819D01*
X152312970Y-102369819D02*
X152074875Y-102369819D01*
X152074875Y-102369819D02*
X151979637Y-102322200D01*
X151979637Y-102322200D02*
X151932018Y-102226961D01*
X151932018Y-102226961D02*
X151932018Y-102131723D01*
X151932018Y-102131723D02*
X151979637Y-102036485D01*
X151979637Y-102036485D02*
X152074875Y-101988866D01*
X152074875Y-101988866D02*
X152312970Y-101988866D01*
X152312970Y-101988866D02*
X152408208Y-101941247D01*
X152741542Y-101703152D02*
X153122494Y-101703152D01*
X152884399Y-101369819D02*
X152884399Y-102226961D01*
X152884399Y-102226961D02*
X152932018Y-102322200D01*
X152932018Y-102322200D02*
X153027256Y-102369819D01*
X153027256Y-102369819D02*
X153122494Y-102369819D01*
X153455828Y-102369819D02*
X153455828Y-101369819D01*
X153884399Y-102369819D02*
X153884399Y-101846009D01*
X153884399Y-101846009D02*
X153836780Y-101750771D01*
X153836780Y-101750771D02*
X153741542Y-101703152D01*
X153741542Y-101703152D02*
X153598685Y-101703152D01*
X153598685Y-101703152D02*
X153503447Y-101750771D01*
X153503447Y-101750771D02*
X153455828Y-101798390D01*
X154789161Y-102369819D02*
X154789161Y-101846009D01*
X154789161Y-101846009D02*
X154741542Y-101750771D01*
X154741542Y-101750771D02*
X154646304Y-101703152D01*
X154646304Y-101703152D02*
X154455828Y-101703152D01*
X154455828Y-101703152D02*
X154360590Y-101750771D01*
X154789161Y-102322200D02*
X154693923Y-102369819D01*
X154693923Y-102369819D02*
X154455828Y-102369819D01*
X154455828Y-102369819D02*
X154360590Y-102322200D01*
X154360590Y-102322200D02*
X154312971Y-102226961D01*
X154312971Y-102226961D02*
X154312971Y-102131723D01*
X154312971Y-102131723D02*
X154360590Y-102036485D01*
X154360590Y-102036485D02*
X154455828Y-101988866D01*
X154455828Y-101988866D02*
X154693923Y-101988866D01*
X154693923Y-101988866D02*
X154789161Y-101941247D01*
X155265352Y-101703152D02*
X155265352Y-102369819D01*
X155265352Y-101798390D02*
X155312971Y-101750771D01*
X155312971Y-101750771D02*
X155408209Y-101703152D01*
X155408209Y-101703152D02*
X155551066Y-101703152D01*
X155551066Y-101703152D02*
X155646304Y-101750771D01*
X155646304Y-101750771D02*
X155693923Y-101846009D01*
X155693923Y-101846009D02*
X155693923Y-102369819D01*
X156932019Y-102369819D02*
X156932019Y-101369819D01*
X156932019Y-101846009D02*
X157503447Y-101846009D01*
X157503447Y-102369819D02*
X157503447Y-101369819D01*
X158360590Y-102322200D02*
X158265352Y-102369819D01*
X158265352Y-102369819D02*
X158074876Y-102369819D01*
X158074876Y-102369819D02*
X157979638Y-102322200D01*
X157979638Y-102322200D02*
X157932019Y-102226961D01*
X157932019Y-102226961D02*
X157932019Y-101846009D01*
X157932019Y-101846009D02*
X157979638Y-101750771D01*
X157979638Y-101750771D02*
X158074876Y-101703152D01*
X158074876Y-101703152D02*
X158265352Y-101703152D01*
X158265352Y-101703152D02*
X158360590Y-101750771D01*
X158360590Y-101750771D02*
X158408209Y-101846009D01*
X158408209Y-101846009D02*
X158408209Y-101941247D01*
X158408209Y-101941247D02*
X157932019Y-102036485D01*
X158789162Y-102322200D02*
X158884400Y-102369819D01*
X158884400Y-102369819D02*
X159074876Y-102369819D01*
X159074876Y-102369819D02*
X159170114Y-102322200D01*
X159170114Y-102322200D02*
X159217733Y-102226961D01*
X159217733Y-102226961D02*
X159217733Y-102179342D01*
X159217733Y-102179342D02*
X159170114Y-102084104D01*
X159170114Y-102084104D02*
X159074876Y-102036485D01*
X159074876Y-102036485D02*
X158932019Y-102036485D01*
X158932019Y-102036485D02*
X158836781Y-101988866D01*
X158836781Y-101988866D02*
X158789162Y-101893628D01*
X158789162Y-101893628D02*
X158789162Y-101846009D01*
X158789162Y-101846009D02*
X158836781Y-101750771D01*
X158836781Y-101750771D02*
X158932019Y-101703152D01*
X158932019Y-101703152D02*
X159074876Y-101703152D01*
X159074876Y-101703152D02*
X159170114Y-101750771D01*
X159598686Y-102322200D02*
X159693924Y-102369819D01*
X159693924Y-102369819D02*
X159884400Y-102369819D01*
X159884400Y-102369819D02*
X159979638Y-102322200D01*
X159979638Y-102322200D02*
X160027257Y-102226961D01*
X160027257Y-102226961D02*
X160027257Y-102179342D01*
X160027257Y-102179342D02*
X159979638Y-102084104D01*
X159979638Y-102084104D02*
X159884400Y-102036485D01*
X159884400Y-102036485D02*
X159741543Y-102036485D01*
X159741543Y-102036485D02*
X159646305Y-101988866D01*
X159646305Y-101988866D02*
X159598686Y-101893628D01*
X159598686Y-101893628D02*
X159598686Y-101846009D01*
X159598686Y-101846009D02*
X159646305Y-101750771D01*
X159646305Y-101750771D02*
X159741543Y-101703152D01*
X159741543Y-101703152D02*
X159884400Y-101703152D01*
X159884400Y-101703152D02*
X159979638Y-101750771D01*
X141027255Y-99893628D02*
X141027255Y-100369819D01*
X140693922Y-99369819D02*
X141027255Y-99893628D01*
X141027255Y-99893628D02*
X141360588Y-99369819D01*
X142122493Y-99703152D02*
X142122493Y-100369819D01*
X141693922Y-99703152D02*
X141693922Y-100226961D01*
X141693922Y-100226961D02*
X141741541Y-100322200D01*
X141741541Y-100322200D02*
X141836779Y-100369819D01*
X141836779Y-100369819D02*
X141979636Y-100369819D01*
X141979636Y-100369819D02*
X142074874Y-100322200D01*
X142074874Y-100322200D02*
X142122493Y-100274580D01*
X142503446Y-99703152D02*
X142693922Y-100369819D01*
X142693922Y-100369819D02*
X142884398Y-99893628D01*
X142884398Y-99893628D02*
X143074874Y-100369819D01*
X143074874Y-100369819D02*
X143265350Y-99703152D01*
X144027255Y-100322200D02*
X143932017Y-100369819D01*
X143932017Y-100369819D02*
X143741541Y-100369819D01*
X143741541Y-100369819D02*
X143646303Y-100322200D01*
X143646303Y-100322200D02*
X143598684Y-100226961D01*
X143598684Y-100226961D02*
X143598684Y-99846009D01*
X143598684Y-99846009D02*
X143646303Y-99750771D01*
X143646303Y-99750771D02*
X143741541Y-99703152D01*
X143741541Y-99703152D02*
X143932017Y-99703152D01*
X143932017Y-99703152D02*
X144027255Y-99750771D01*
X144027255Y-99750771D02*
X144074874Y-99846009D01*
X144074874Y-99846009D02*
X144074874Y-99941247D01*
X144074874Y-99941247D02*
X143598684Y-100036485D01*
X144503446Y-100369819D02*
X144503446Y-99703152D01*
X144503446Y-99369819D02*
X144455827Y-99417438D01*
X144455827Y-99417438D02*
X144503446Y-99465057D01*
X144503446Y-99465057D02*
X144551065Y-99417438D01*
X144551065Y-99417438D02*
X144503446Y-99369819D01*
X144503446Y-99369819D02*
X144503446Y-99465057D01*
X145598684Y-99369819D02*
X146170112Y-99369819D01*
X145884398Y-100369819D02*
X145884398Y-99369819D01*
X146932017Y-100369819D02*
X146932017Y-99846009D01*
X146932017Y-99846009D02*
X146884398Y-99750771D01*
X146884398Y-99750771D02*
X146789160Y-99703152D01*
X146789160Y-99703152D02*
X146598684Y-99703152D01*
X146598684Y-99703152D02*
X146503446Y-99750771D01*
X146932017Y-100322200D02*
X146836779Y-100369819D01*
X146836779Y-100369819D02*
X146598684Y-100369819D01*
X146598684Y-100369819D02*
X146503446Y-100322200D01*
X146503446Y-100322200D02*
X146455827Y-100226961D01*
X146455827Y-100226961D02*
X146455827Y-100131723D01*
X146455827Y-100131723D02*
X146503446Y-100036485D01*
X146503446Y-100036485D02*
X146598684Y-99988866D01*
X146598684Y-99988866D02*
X146836779Y-99988866D01*
X146836779Y-99988866D02*
X146932017Y-99941247D01*
X147408208Y-99703152D02*
X147408208Y-100369819D01*
X147408208Y-99798390D02*
X147455827Y-99750771D01*
X147455827Y-99750771D02*
X147551065Y-99703152D01*
X147551065Y-99703152D02*
X147693922Y-99703152D01*
X147693922Y-99703152D02*
X147789160Y-99750771D01*
X147789160Y-99750771D02*
X147836779Y-99846009D01*
X147836779Y-99846009D02*
X147836779Y-100369819D01*
X148360589Y-100322200D02*
X148360589Y-100369819D01*
X148360589Y-100369819D02*
X148312970Y-100465057D01*
X148312970Y-100465057D02*
X148265351Y-100512676D01*
X149503446Y-100322200D02*
X149646303Y-100369819D01*
X149646303Y-100369819D02*
X149884398Y-100369819D01*
X149884398Y-100369819D02*
X149979636Y-100322200D01*
X149979636Y-100322200D02*
X150027255Y-100274580D01*
X150027255Y-100274580D02*
X150074874Y-100179342D01*
X150074874Y-100179342D02*
X150074874Y-100084104D01*
X150074874Y-100084104D02*
X150027255Y-99988866D01*
X150027255Y-99988866D02*
X149979636Y-99941247D01*
X149979636Y-99941247D02*
X149884398Y-99893628D01*
X149884398Y-99893628D02*
X149693922Y-99846009D01*
X149693922Y-99846009D02*
X149598684Y-99798390D01*
X149598684Y-99798390D02*
X149551065Y-99750771D01*
X149551065Y-99750771D02*
X149503446Y-99655533D01*
X149503446Y-99655533D02*
X149503446Y-99560295D01*
X149503446Y-99560295D02*
X149551065Y-99465057D01*
X149551065Y-99465057D02*
X149598684Y-99417438D01*
X149598684Y-99417438D02*
X149693922Y-99369819D01*
X149693922Y-99369819D02*
X149932017Y-99369819D01*
X149932017Y-99369819D02*
X150074874Y-99417438D01*
X150932017Y-100369819D02*
X150932017Y-99846009D01*
X150932017Y-99846009D02*
X150884398Y-99750771D01*
X150884398Y-99750771D02*
X150789160Y-99703152D01*
X150789160Y-99703152D02*
X150598684Y-99703152D01*
X150598684Y-99703152D02*
X150503446Y-99750771D01*
X150932017Y-100322200D02*
X150836779Y-100369819D01*
X150836779Y-100369819D02*
X150598684Y-100369819D01*
X150598684Y-100369819D02*
X150503446Y-100322200D01*
X150503446Y-100322200D02*
X150455827Y-100226961D01*
X150455827Y-100226961D02*
X150455827Y-100131723D01*
X150455827Y-100131723D02*
X150503446Y-100036485D01*
X150503446Y-100036485D02*
X150598684Y-99988866D01*
X150598684Y-99988866D02*
X150836779Y-99988866D01*
X150836779Y-99988866D02*
X150932017Y-99941247D01*
X151408208Y-100369819D02*
X151408208Y-99703152D01*
X151408208Y-99798390D02*
X151455827Y-99750771D01*
X151455827Y-99750771D02*
X151551065Y-99703152D01*
X151551065Y-99703152D02*
X151693922Y-99703152D01*
X151693922Y-99703152D02*
X151789160Y-99750771D01*
X151789160Y-99750771D02*
X151836779Y-99846009D01*
X151836779Y-99846009D02*
X151836779Y-100369819D01*
X151836779Y-99846009D02*
X151884398Y-99750771D01*
X151884398Y-99750771D02*
X151979636Y-99703152D01*
X151979636Y-99703152D02*
X152122493Y-99703152D01*
X152122493Y-99703152D02*
X152217732Y-99750771D01*
X152217732Y-99750771D02*
X152265351Y-99846009D01*
X152265351Y-99846009D02*
X152265351Y-100369819D01*
X153503446Y-100369819D02*
X153503446Y-99369819D01*
X153503446Y-99846009D02*
X154074874Y-99846009D01*
X154074874Y-100369819D02*
X154074874Y-99369819D01*
X154932017Y-100322200D02*
X154836779Y-100369819D01*
X154836779Y-100369819D02*
X154646303Y-100369819D01*
X154646303Y-100369819D02*
X154551065Y-100322200D01*
X154551065Y-100322200D02*
X154503446Y-100226961D01*
X154503446Y-100226961D02*
X154503446Y-99846009D01*
X154503446Y-99846009D02*
X154551065Y-99750771D01*
X154551065Y-99750771D02*
X154646303Y-99703152D01*
X154646303Y-99703152D02*
X154836779Y-99703152D01*
X154836779Y-99703152D02*
X154932017Y-99750771D01*
X154932017Y-99750771D02*
X154979636Y-99846009D01*
X154979636Y-99846009D02*
X154979636Y-99941247D01*
X154979636Y-99941247D02*
X154503446Y-100036485D01*
X155408208Y-100369819D02*
X155408208Y-99703152D01*
X155408208Y-99369819D02*
X155360589Y-99417438D01*
X155360589Y-99417438D02*
X155408208Y-99465057D01*
X155408208Y-99465057D02*
X155455827Y-99417438D01*
X155455827Y-99417438D02*
X155408208Y-99369819D01*
X155408208Y-99369819D02*
X155408208Y-99465057D01*
X155884398Y-100369819D02*
X155884398Y-99369819D01*
X155979636Y-99988866D02*
X156265350Y-100369819D01*
X156265350Y-99703152D02*
X155884398Y-100084104D01*
X157074874Y-100322200D02*
X156979636Y-100369819D01*
X156979636Y-100369819D02*
X156789160Y-100369819D01*
X156789160Y-100369819D02*
X156693922Y-100322200D01*
X156693922Y-100322200D02*
X156646303Y-100226961D01*
X156646303Y-100226961D02*
X156646303Y-99846009D01*
X156646303Y-99846009D02*
X156693922Y-99750771D01*
X156693922Y-99750771D02*
X156789160Y-99703152D01*
X156789160Y-99703152D02*
X156979636Y-99703152D01*
X156979636Y-99703152D02*
X157074874Y-99750771D01*
X157074874Y-99750771D02*
X157122493Y-99846009D01*
X157122493Y-99846009D02*
X157122493Y-99941247D01*
X157122493Y-99941247D02*
X156646303Y-100036485D01*
X157551065Y-99703152D02*
X157551065Y-100369819D01*
X157551065Y-99798390D02*
X157598684Y-99750771D01*
X157598684Y-99750771D02*
X157693922Y-99703152D01*
X157693922Y-99703152D02*
X157836779Y-99703152D01*
X157836779Y-99703152D02*
X157932017Y-99750771D01*
X157932017Y-99750771D02*
X157979636Y-99846009D01*
X157979636Y-99846009D02*
X157979636Y-100369819D01*
X158408208Y-100322200D02*
X158503446Y-100369819D01*
X158503446Y-100369819D02*
X158693922Y-100369819D01*
X158693922Y-100369819D02*
X158789160Y-100322200D01*
X158789160Y-100322200D02*
X158836779Y-100226961D01*
X158836779Y-100226961D02*
X158836779Y-100179342D01*
X158836779Y-100179342D02*
X158789160Y-100084104D01*
X158789160Y-100084104D02*
X158693922Y-100036485D01*
X158693922Y-100036485D02*
X158551065Y-100036485D01*
X158551065Y-100036485D02*
X158455827Y-99988866D01*
X158455827Y-99988866D02*
X158408208Y-99893628D01*
X158408208Y-99893628D02*
X158408208Y-99846009D01*
X158408208Y-99846009D02*
X158455827Y-99750771D01*
X158455827Y-99750771D02*
X158551065Y-99703152D01*
X158551065Y-99703152D02*
X158693922Y-99703152D01*
X158693922Y-99703152D02*
X158789160Y-99750771D01*
X144289160Y-98322200D02*
X144384398Y-98369819D01*
X144384398Y-98369819D02*
X144574874Y-98369819D01*
X144574874Y-98369819D02*
X144670112Y-98322200D01*
X144670112Y-98322200D02*
X144717731Y-98226961D01*
X144717731Y-98226961D02*
X144717731Y-98179342D01*
X144717731Y-98179342D02*
X144670112Y-98084104D01*
X144670112Y-98084104D02*
X144574874Y-98036485D01*
X144574874Y-98036485D02*
X144432017Y-98036485D01*
X144432017Y-98036485D02*
X144336779Y-97988866D01*
X144336779Y-97988866D02*
X144289160Y-97893628D01*
X144289160Y-97893628D02*
X144289160Y-97846009D01*
X144289160Y-97846009D02*
X144336779Y-97750771D01*
X144336779Y-97750771D02*
X144432017Y-97703152D01*
X144432017Y-97703152D02*
X144574874Y-97703152D01*
X144574874Y-97703152D02*
X144670112Y-97750771D01*
X145574874Y-98369819D02*
X145574874Y-97369819D01*
X145574874Y-98322200D02*
X145479636Y-98369819D01*
X145479636Y-98369819D02*
X145289160Y-98369819D01*
X145289160Y-98369819D02*
X145193922Y-98322200D01*
X145193922Y-98322200D02*
X145146303Y-98274580D01*
X145146303Y-98274580D02*
X145098684Y-98179342D01*
X145098684Y-98179342D02*
X145098684Y-97893628D01*
X145098684Y-97893628D02*
X145146303Y-97798390D01*
X145146303Y-97798390D02*
X145193922Y-97750771D01*
X145193922Y-97750771D02*
X145289160Y-97703152D01*
X145289160Y-97703152D02*
X145479636Y-97703152D01*
X145479636Y-97703152D02*
X145574874Y-97750771D01*
X146051065Y-98369819D02*
X146051065Y-97703152D01*
X146051065Y-97798390D02*
X146098684Y-97750771D01*
X146098684Y-97750771D02*
X146193922Y-97703152D01*
X146193922Y-97703152D02*
X146336779Y-97703152D01*
X146336779Y-97703152D02*
X146432017Y-97750771D01*
X146432017Y-97750771D02*
X146479636Y-97846009D01*
X146479636Y-97846009D02*
X146479636Y-98369819D01*
X146479636Y-97846009D02*
X146527255Y-97750771D01*
X146527255Y-97750771D02*
X146622493Y-97703152D01*
X146622493Y-97703152D02*
X146765350Y-97703152D01*
X146765350Y-97703152D02*
X146860589Y-97750771D01*
X146860589Y-97750771D02*
X146908208Y-97846009D01*
X146908208Y-97846009D02*
X146908208Y-98369819D01*
X147812969Y-98369819D02*
X147812969Y-97846009D01*
X147812969Y-97846009D02*
X147765350Y-97750771D01*
X147765350Y-97750771D02*
X147670112Y-97703152D01*
X147670112Y-97703152D02*
X147479636Y-97703152D01*
X147479636Y-97703152D02*
X147384398Y-97750771D01*
X147812969Y-98322200D02*
X147717731Y-98369819D01*
X147717731Y-98369819D02*
X147479636Y-98369819D01*
X147479636Y-98369819D02*
X147384398Y-98322200D01*
X147384398Y-98322200D02*
X147336779Y-98226961D01*
X147336779Y-98226961D02*
X147336779Y-98131723D01*
X147336779Y-98131723D02*
X147384398Y-98036485D01*
X147384398Y-98036485D02*
X147479636Y-97988866D01*
X147479636Y-97988866D02*
X147717731Y-97988866D01*
X147717731Y-97988866D02*
X147812969Y-97941247D01*
X148193922Y-97703152D02*
X148432017Y-98369819D01*
X148670112Y-97703152D02*
X148432017Y-98369819D01*
X148432017Y-98369819D02*
X148336779Y-98607914D01*
X148336779Y-98607914D02*
X148289160Y-98655533D01*
X148289160Y-98655533D02*
X148193922Y-98703152D01*
X149003446Y-97465057D02*
X149051065Y-97417438D01*
X149051065Y-97417438D02*
X149146303Y-97369819D01*
X149146303Y-97369819D02*
X149384398Y-97369819D01*
X149384398Y-97369819D02*
X149479636Y-97417438D01*
X149479636Y-97417438D02*
X149527255Y-97465057D01*
X149527255Y-97465057D02*
X149574874Y-97560295D01*
X149574874Y-97560295D02*
X149574874Y-97655533D01*
X149574874Y-97655533D02*
X149527255Y-97798390D01*
X149527255Y-97798390D02*
X148955827Y-98369819D01*
X148955827Y-98369819D02*
X149574874Y-98369819D01*
X150432017Y-97703152D02*
X150432017Y-98369819D01*
X150193922Y-97322200D02*
X149955827Y-98036485D01*
X149955827Y-98036485D02*
X150574874Y-98036485D01*
X150955827Y-97988866D02*
X151717732Y-97988866D01*
X152146303Y-97465057D02*
X152193922Y-97417438D01*
X152193922Y-97417438D02*
X152289160Y-97369819D01*
X152289160Y-97369819D02*
X152527255Y-97369819D01*
X152527255Y-97369819D02*
X152622493Y-97417438D01*
X152622493Y-97417438D02*
X152670112Y-97465057D01*
X152670112Y-97465057D02*
X152717731Y-97560295D01*
X152717731Y-97560295D02*
X152717731Y-97655533D01*
X152717731Y-97655533D02*
X152670112Y-97798390D01*
X152670112Y-97798390D02*
X152098684Y-98369819D01*
X152098684Y-98369819D02*
X152717731Y-98369819D01*
X153670112Y-98369819D02*
X153098684Y-98369819D01*
X153384398Y-98369819D02*
X153384398Y-97369819D01*
X153384398Y-97369819D02*
X153289160Y-97512676D01*
X153289160Y-97512676D02*
X153193922Y-97607914D01*
X153193922Y-97607914D02*
X153098684Y-97655533D01*
X177505997Y-73321353D02*
X177744092Y-73988020D01*
X177744092Y-73988020D02*
X177982187Y-73321353D01*
X178791711Y-73940401D02*
X178696473Y-73988020D01*
X178696473Y-73988020D02*
X178505997Y-73988020D01*
X178505997Y-73988020D02*
X178410759Y-73940401D01*
X178410759Y-73940401D02*
X178363140Y-73892781D01*
X178363140Y-73892781D02*
X178315521Y-73797543D01*
X178315521Y-73797543D02*
X178315521Y-73511829D01*
X178315521Y-73511829D02*
X178363140Y-73416591D01*
X178363140Y-73416591D02*
X178410759Y-73368972D01*
X178410759Y-73368972D02*
X178505997Y-73321353D01*
X178505997Y-73321353D02*
X178696473Y-73321353D01*
X178696473Y-73321353D02*
X178791711Y-73368972D01*
X179648854Y-73940401D02*
X179553616Y-73988020D01*
X179553616Y-73988020D02*
X179363140Y-73988020D01*
X179363140Y-73988020D02*
X179267902Y-73940401D01*
X179267902Y-73940401D02*
X179220283Y-73892781D01*
X179220283Y-73892781D02*
X179172664Y-73797543D01*
X179172664Y-73797543D02*
X179172664Y-73511829D01*
X179172664Y-73511829D02*
X179220283Y-73416591D01*
X179220283Y-73416591D02*
X179267902Y-73368972D01*
X179267902Y-73368972D02*
X179363140Y-73321353D01*
X179363140Y-73321353D02*
X179553616Y-73321353D01*
X179553616Y-73321353D02*
X179648854Y-73368972D01*
X180505997Y-73988020D02*
X180505997Y-72988020D01*
X180505997Y-73940401D02*
X180410759Y-73988020D01*
X180410759Y-73988020D02*
X180220283Y-73988020D01*
X180220283Y-73988020D02*
X180125045Y-73940401D01*
X180125045Y-73940401D02*
X180077426Y-73892781D01*
X180077426Y-73892781D02*
X180029807Y-73797543D01*
X180029807Y-73797543D02*
X180029807Y-73511829D01*
X180029807Y-73511829D02*
X180077426Y-73416591D01*
X180077426Y-73416591D02*
X180125045Y-73368972D01*
X180125045Y-73368972D02*
X180220283Y-73321353D01*
X180220283Y-73321353D02*
X180410759Y-73321353D01*
X180410759Y-73321353D02*
X180505997Y-73368972D01*
X181505997Y-73988020D02*
X180934569Y-73988020D01*
X181220283Y-73988020D02*
X181220283Y-72988020D01*
X181220283Y-72988020D02*
X181125045Y-73130877D01*
X181125045Y-73130877D02*
X181029807Y-73226115D01*
X181029807Y-73226115D02*
X180934569Y-73273734D01*
X113353550Y-89431220D02*
X113353550Y-88431220D01*
X114020216Y-88431220D02*
X114210692Y-88431220D01*
X114210692Y-88431220D02*
X114305930Y-88478839D01*
X114305930Y-88478839D02*
X114401168Y-88574077D01*
X114401168Y-88574077D02*
X114448787Y-88764553D01*
X114448787Y-88764553D02*
X114448787Y-89097886D01*
X114448787Y-89097886D02*
X114401168Y-89288362D01*
X114401168Y-89288362D02*
X114305930Y-89383601D01*
X114305930Y-89383601D02*
X114210692Y-89431220D01*
X114210692Y-89431220D02*
X114020216Y-89431220D01*
X114020216Y-89431220D02*
X113924978Y-89383601D01*
X113924978Y-89383601D02*
X113829740Y-89288362D01*
X113829740Y-89288362D02*
X113782121Y-89097886D01*
X113782121Y-89097886D02*
X113782121Y-88764553D01*
X113782121Y-88764553D02*
X113829740Y-88574077D01*
X113829740Y-88574077D02*
X113924978Y-88478839D01*
X113924978Y-88478839D02*
X114020216Y-88431220D01*
X115163073Y-89764553D02*
X114924978Y-89764553D01*
X114924978Y-89764553D02*
X114924978Y-88335981D01*
X114924978Y-88335981D02*
X115163073Y-88335981D01*
X115448788Y-88431220D02*
X116067835Y-88431220D01*
X116067835Y-88431220D02*
X115734502Y-88812172D01*
X115734502Y-88812172D02*
X115877359Y-88812172D01*
X115877359Y-88812172D02*
X115972597Y-88859791D01*
X115972597Y-88859791D02*
X116020216Y-88907410D01*
X116020216Y-88907410D02*
X116067835Y-89002648D01*
X116067835Y-89002648D02*
X116067835Y-89240743D01*
X116067835Y-89240743D02*
X116020216Y-89335981D01*
X116020216Y-89335981D02*
X115972597Y-89383601D01*
X115972597Y-89383601D02*
X115877359Y-89431220D01*
X115877359Y-89431220D02*
X115591645Y-89431220D01*
X115591645Y-89431220D02*
X115496407Y-89383601D01*
X115496407Y-89383601D02*
X115448788Y-89335981D01*
X116686883Y-88431220D02*
X116782121Y-88431220D01*
X116782121Y-88431220D02*
X116877359Y-88478839D01*
X116877359Y-88478839D02*
X116924978Y-88526458D01*
X116924978Y-88526458D02*
X116972597Y-88621696D01*
X116972597Y-88621696D02*
X117020216Y-88812172D01*
X117020216Y-88812172D02*
X117020216Y-89050267D01*
X117020216Y-89050267D02*
X116972597Y-89240743D01*
X116972597Y-89240743D02*
X116924978Y-89335981D01*
X116924978Y-89335981D02*
X116877359Y-89383601D01*
X116877359Y-89383601D02*
X116782121Y-89431220D01*
X116782121Y-89431220D02*
X116686883Y-89431220D01*
X116686883Y-89431220D02*
X116591645Y-89383601D01*
X116591645Y-89383601D02*
X116544026Y-89335981D01*
X116544026Y-89335981D02*
X116496407Y-89240743D01*
X116496407Y-89240743D02*
X116448788Y-89050267D01*
X116448788Y-89050267D02*
X116448788Y-88812172D01*
X116448788Y-88812172D02*
X116496407Y-88621696D01*
X116496407Y-88621696D02*
X116544026Y-88526458D01*
X116544026Y-88526458D02*
X116591645Y-88478839D01*
X116591645Y-88478839D02*
X116686883Y-88431220D01*
X117353550Y-89764553D02*
X117591645Y-89764553D01*
X117591645Y-89764553D02*
X117591645Y-88335981D01*
X117591645Y-88335981D02*
X117353550Y-88335981D01*
X113404350Y-129995020D02*
X113404350Y-128995020D01*
X114071016Y-128995020D02*
X114261492Y-128995020D01*
X114261492Y-128995020D02*
X114356730Y-129042639D01*
X114356730Y-129042639D02*
X114451968Y-129137877D01*
X114451968Y-129137877D02*
X114499587Y-129328353D01*
X114499587Y-129328353D02*
X114499587Y-129661686D01*
X114499587Y-129661686D02*
X114451968Y-129852162D01*
X114451968Y-129852162D02*
X114356730Y-129947401D01*
X114356730Y-129947401D02*
X114261492Y-129995020D01*
X114261492Y-129995020D02*
X114071016Y-129995020D01*
X114071016Y-129995020D02*
X113975778Y-129947401D01*
X113975778Y-129947401D02*
X113880540Y-129852162D01*
X113880540Y-129852162D02*
X113832921Y-129661686D01*
X113832921Y-129661686D02*
X113832921Y-129328353D01*
X113832921Y-129328353D02*
X113880540Y-129137877D01*
X113880540Y-129137877D02*
X113975778Y-129042639D01*
X113975778Y-129042639D02*
X114071016Y-128995020D01*
X115213873Y-130328353D02*
X114975778Y-130328353D01*
X114975778Y-130328353D02*
X114975778Y-128899781D01*
X114975778Y-128899781D02*
X115213873Y-128899781D01*
X116118635Y-129995020D02*
X115547207Y-129995020D01*
X115832921Y-129995020D02*
X115832921Y-128995020D01*
X115832921Y-128995020D02*
X115737683Y-129137877D01*
X115737683Y-129137877D02*
X115642445Y-129233115D01*
X115642445Y-129233115D02*
X115547207Y-129280734D01*
X116975778Y-129328353D02*
X116975778Y-129995020D01*
X116737683Y-128947401D02*
X116499588Y-129661686D01*
X116499588Y-129661686D02*
X117118635Y-129661686D01*
X117404350Y-130328353D02*
X117642445Y-130328353D01*
X117642445Y-130328353D02*
X117642445Y-128899781D01*
X117642445Y-128899781D02*
X117404350Y-128899781D01*
X178142540Y-112240420D02*
X178142540Y-111240420D01*
X178809206Y-111240420D02*
X178999682Y-111240420D01*
X178999682Y-111240420D02*
X179094920Y-111288039D01*
X179094920Y-111288039D02*
X179190158Y-111383277D01*
X179190158Y-111383277D02*
X179237777Y-111573753D01*
X179237777Y-111573753D02*
X179237777Y-111907086D01*
X179237777Y-111907086D02*
X179190158Y-112097562D01*
X179190158Y-112097562D02*
X179094920Y-112192801D01*
X179094920Y-112192801D02*
X178999682Y-112240420D01*
X178999682Y-112240420D02*
X178809206Y-112240420D01*
X178809206Y-112240420D02*
X178713968Y-112192801D01*
X178713968Y-112192801D02*
X178618730Y-112097562D01*
X178618730Y-112097562D02*
X178571111Y-111907086D01*
X178571111Y-111907086D02*
X178571111Y-111573753D01*
X178571111Y-111573753D02*
X178618730Y-111383277D01*
X178618730Y-111383277D02*
X178713968Y-111288039D01*
X178713968Y-111288039D02*
X178809206Y-111240420D01*
X179952063Y-112573753D02*
X179713968Y-112573753D01*
X179713968Y-112573753D02*
X179713968Y-111145181D01*
X179713968Y-111145181D02*
X179952063Y-111145181D01*
X180761587Y-111240420D02*
X180571111Y-111240420D01*
X180571111Y-111240420D02*
X180475873Y-111288039D01*
X180475873Y-111288039D02*
X180428254Y-111335658D01*
X180428254Y-111335658D02*
X180333016Y-111478515D01*
X180333016Y-111478515D02*
X180285397Y-111668991D01*
X180285397Y-111668991D02*
X180285397Y-112049943D01*
X180285397Y-112049943D02*
X180333016Y-112145181D01*
X180333016Y-112145181D02*
X180380635Y-112192801D01*
X180380635Y-112192801D02*
X180475873Y-112240420D01*
X180475873Y-112240420D02*
X180666349Y-112240420D01*
X180666349Y-112240420D02*
X180761587Y-112192801D01*
X180761587Y-112192801D02*
X180809206Y-112145181D01*
X180809206Y-112145181D02*
X180856825Y-112049943D01*
X180856825Y-112049943D02*
X180856825Y-111811848D01*
X180856825Y-111811848D02*
X180809206Y-111716610D01*
X180809206Y-111716610D02*
X180761587Y-111668991D01*
X180761587Y-111668991D02*
X180666349Y-111621372D01*
X180666349Y-111621372D02*
X180475873Y-111621372D01*
X180475873Y-111621372D02*
X180380635Y-111668991D01*
X180380635Y-111668991D02*
X180333016Y-111716610D01*
X180333016Y-111716610D02*
X180285397Y-111811848D01*
X181190159Y-112573753D02*
X181428254Y-112573753D01*
X181428254Y-112573753D02*
X181428254Y-111145181D01*
X181428254Y-111145181D02*
X181190159Y-111145181D01*
X179545759Y-79118820D02*
X178974331Y-79118820D01*
X179260045Y-79118820D02*
X179260045Y-78118820D01*
X179260045Y-78118820D02*
X179164807Y-78261677D01*
X179164807Y-78261677D02*
X179069569Y-78356915D01*
X179069569Y-78356915D02*
X178974331Y-78404534D01*
X179831474Y-78118820D02*
X180164807Y-79118820D01*
X180164807Y-79118820D02*
X180498140Y-78118820D01*
X180974331Y-78547391D02*
X180879093Y-78499772D01*
X180879093Y-78499772D02*
X180831474Y-78452153D01*
X180831474Y-78452153D02*
X180783855Y-78356915D01*
X180783855Y-78356915D02*
X180783855Y-78309296D01*
X180783855Y-78309296D02*
X180831474Y-78214058D01*
X180831474Y-78214058D02*
X180879093Y-78166439D01*
X180879093Y-78166439D02*
X180974331Y-78118820D01*
X180974331Y-78118820D02*
X181164807Y-78118820D01*
X181164807Y-78118820D02*
X181260045Y-78166439D01*
X181260045Y-78166439D02*
X181307664Y-78214058D01*
X181307664Y-78214058D02*
X181355283Y-78309296D01*
X181355283Y-78309296D02*
X181355283Y-78356915D01*
X181355283Y-78356915D02*
X181307664Y-78452153D01*
X181307664Y-78452153D02*
X181260045Y-78499772D01*
X181260045Y-78499772D02*
X181164807Y-78547391D01*
X181164807Y-78547391D02*
X180974331Y-78547391D01*
X180974331Y-78547391D02*
X180879093Y-78595010D01*
X180879093Y-78595010D02*
X180831474Y-78642629D01*
X180831474Y-78642629D02*
X180783855Y-78737867D01*
X180783855Y-78737867D02*
X180783855Y-78928343D01*
X180783855Y-78928343D02*
X180831474Y-79023581D01*
X180831474Y-79023581D02*
X180879093Y-79071201D01*
X180879093Y-79071201D02*
X180974331Y-79118820D01*
X180974331Y-79118820D02*
X181164807Y-79118820D01*
X181164807Y-79118820D02*
X181260045Y-79071201D01*
X181260045Y-79071201D02*
X181307664Y-79023581D01*
X181307664Y-79023581D02*
X181355283Y-78928343D01*
X181355283Y-78928343D02*
X181355283Y-78737867D01*
X181355283Y-78737867D02*
X181307664Y-78642629D01*
X181307664Y-78642629D02*
X181260045Y-78595010D01*
X181260045Y-78595010D02*
X181164807Y-78547391D01*
X178825112Y-65596620D02*
X179444159Y-65596620D01*
X179444159Y-65596620D02*
X179110826Y-65977572D01*
X179110826Y-65977572D02*
X179253683Y-65977572D01*
X179253683Y-65977572D02*
X179348921Y-66025191D01*
X179348921Y-66025191D02*
X179396540Y-66072810D01*
X179396540Y-66072810D02*
X179444159Y-66168048D01*
X179444159Y-66168048D02*
X179444159Y-66406143D01*
X179444159Y-66406143D02*
X179396540Y-66501381D01*
X179396540Y-66501381D02*
X179348921Y-66549001D01*
X179348921Y-66549001D02*
X179253683Y-66596620D01*
X179253683Y-66596620D02*
X178967969Y-66596620D01*
X178967969Y-66596620D02*
X178872731Y-66549001D01*
X178872731Y-66549001D02*
X178825112Y-66501381D01*
X179729874Y-65596620D02*
X180063207Y-66596620D01*
X180063207Y-66596620D02*
X180396540Y-65596620D01*
X180634636Y-65596620D02*
X181253683Y-65596620D01*
X181253683Y-65596620D02*
X180920350Y-65977572D01*
X180920350Y-65977572D02*
X181063207Y-65977572D01*
X181063207Y-65977572D02*
X181158445Y-66025191D01*
X181158445Y-66025191D02*
X181206064Y-66072810D01*
X181206064Y-66072810D02*
X181253683Y-66168048D01*
X181253683Y-66168048D02*
X181253683Y-66406143D01*
X181253683Y-66406143D02*
X181206064Y-66501381D01*
X181206064Y-66501381D02*
X181158445Y-66549001D01*
X181158445Y-66549001D02*
X181063207Y-66596620D01*
X181063207Y-66596620D02*
X180777493Y-66596620D01*
X180777493Y-66596620D02*
X180682255Y-66549001D01*
X180682255Y-66549001D02*
X180634636Y-66501381D01*
X178193340Y-119809620D02*
X178193340Y-118809620D01*
X178860006Y-118809620D02*
X179050482Y-118809620D01*
X179050482Y-118809620D02*
X179145720Y-118857239D01*
X179145720Y-118857239D02*
X179240958Y-118952477D01*
X179240958Y-118952477D02*
X179288577Y-119142953D01*
X179288577Y-119142953D02*
X179288577Y-119476286D01*
X179288577Y-119476286D02*
X179240958Y-119666762D01*
X179240958Y-119666762D02*
X179145720Y-119762001D01*
X179145720Y-119762001D02*
X179050482Y-119809620D01*
X179050482Y-119809620D02*
X178860006Y-119809620D01*
X178860006Y-119809620D02*
X178764768Y-119762001D01*
X178764768Y-119762001D02*
X178669530Y-119666762D01*
X178669530Y-119666762D02*
X178621911Y-119476286D01*
X178621911Y-119476286D02*
X178621911Y-119142953D01*
X178621911Y-119142953D02*
X178669530Y-118952477D01*
X178669530Y-118952477D02*
X178764768Y-118857239D01*
X178764768Y-118857239D02*
X178860006Y-118809620D01*
X180002863Y-120142953D02*
X179764768Y-120142953D01*
X179764768Y-120142953D02*
X179764768Y-118714381D01*
X179764768Y-118714381D02*
X180002863Y-118714381D01*
X180431435Y-119809620D02*
X180621911Y-119809620D01*
X180621911Y-119809620D02*
X180717149Y-119762001D01*
X180717149Y-119762001D02*
X180764768Y-119714381D01*
X180764768Y-119714381D02*
X180860006Y-119571524D01*
X180860006Y-119571524D02*
X180907625Y-119381048D01*
X180907625Y-119381048D02*
X180907625Y-119000096D01*
X180907625Y-119000096D02*
X180860006Y-118904858D01*
X180860006Y-118904858D02*
X180812387Y-118857239D01*
X180812387Y-118857239D02*
X180717149Y-118809620D01*
X180717149Y-118809620D02*
X180526673Y-118809620D01*
X180526673Y-118809620D02*
X180431435Y-118857239D01*
X180431435Y-118857239D02*
X180383816Y-118904858D01*
X180383816Y-118904858D02*
X180336197Y-119000096D01*
X180336197Y-119000096D02*
X180336197Y-119238191D01*
X180336197Y-119238191D02*
X180383816Y-119333429D01*
X180383816Y-119333429D02*
X180431435Y-119381048D01*
X180431435Y-119381048D02*
X180526673Y-119428667D01*
X180526673Y-119428667D02*
X180717149Y-119428667D01*
X180717149Y-119428667D02*
X180812387Y-119381048D01*
X180812387Y-119381048D02*
X180860006Y-119333429D01*
X180860006Y-119333429D02*
X180907625Y-119238191D01*
X181240959Y-120142953D02*
X181479054Y-120142953D01*
X181479054Y-120142953D02*
X181479054Y-118714381D01*
X181479054Y-118714381D02*
X181240959Y-118714381D01*
X179545759Y-76578820D02*
X178974331Y-76578820D01*
X179260045Y-76578820D02*
X179260045Y-75578820D01*
X179260045Y-75578820D02*
X179164807Y-75721677D01*
X179164807Y-75721677D02*
X179069569Y-75816915D01*
X179069569Y-75816915D02*
X178974331Y-75864534D01*
X179831474Y-75578820D02*
X180164807Y-76578820D01*
X180164807Y-76578820D02*
X180498140Y-75578820D01*
X180974331Y-76007391D02*
X180879093Y-75959772D01*
X180879093Y-75959772D02*
X180831474Y-75912153D01*
X180831474Y-75912153D02*
X180783855Y-75816915D01*
X180783855Y-75816915D02*
X180783855Y-75769296D01*
X180783855Y-75769296D02*
X180831474Y-75674058D01*
X180831474Y-75674058D02*
X180879093Y-75626439D01*
X180879093Y-75626439D02*
X180974331Y-75578820D01*
X180974331Y-75578820D02*
X181164807Y-75578820D01*
X181164807Y-75578820D02*
X181260045Y-75626439D01*
X181260045Y-75626439D02*
X181307664Y-75674058D01*
X181307664Y-75674058D02*
X181355283Y-75769296D01*
X181355283Y-75769296D02*
X181355283Y-75816915D01*
X181355283Y-75816915D02*
X181307664Y-75912153D01*
X181307664Y-75912153D02*
X181260045Y-75959772D01*
X181260045Y-75959772D02*
X181164807Y-76007391D01*
X181164807Y-76007391D02*
X180974331Y-76007391D01*
X180974331Y-76007391D02*
X180879093Y-76055010D01*
X180879093Y-76055010D02*
X180831474Y-76102629D01*
X180831474Y-76102629D02*
X180783855Y-76197867D01*
X180783855Y-76197867D02*
X180783855Y-76388343D01*
X180783855Y-76388343D02*
X180831474Y-76483581D01*
X180831474Y-76483581D02*
X180879093Y-76531201D01*
X180879093Y-76531201D02*
X180974331Y-76578820D01*
X180974331Y-76578820D02*
X181164807Y-76578820D01*
X181164807Y-76578820D02*
X181260045Y-76531201D01*
X181260045Y-76531201D02*
X181307664Y-76483581D01*
X181307664Y-76483581D02*
X181355283Y-76388343D01*
X181355283Y-76388343D02*
X181355283Y-76197867D01*
X181355283Y-76197867D02*
X181307664Y-76102629D01*
X181307664Y-76102629D02*
X181260045Y-76055010D01*
X181260045Y-76055010D02*
X181164807Y-76007391D01*
X177229778Y-93692153D02*
X177467873Y-94358820D01*
X177467873Y-94358820D02*
X177705968Y-93692153D01*
X178515492Y-94358820D02*
X178515492Y-93358820D01*
X178515492Y-94311201D02*
X178420254Y-94358820D01*
X178420254Y-94358820D02*
X178229778Y-94358820D01*
X178229778Y-94358820D02*
X178134540Y-94311201D01*
X178134540Y-94311201D02*
X178086921Y-94263581D01*
X178086921Y-94263581D02*
X178039302Y-94168343D01*
X178039302Y-94168343D02*
X178039302Y-93882629D01*
X178039302Y-93882629D02*
X178086921Y-93787391D01*
X178086921Y-93787391D02*
X178134540Y-93739772D01*
X178134540Y-93739772D02*
X178229778Y-93692153D01*
X178229778Y-93692153D02*
X178420254Y-93692153D01*
X178420254Y-93692153D02*
X178515492Y-93739772D01*
X179420254Y-94358820D02*
X179420254Y-93358820D01*
X179420254Y-94311201D02*
X179325016Y-94358820D01*
X179325016Y-94358820D02*
X179134540Y-94358820D01*
X179134540Y-94358820D02*
X179039302Y-94311201D01*
X179039302Y-94311201D02*
X178991683Y-94263581D01*
X178991683Y-94263581D02*
X178944064Y-94168343D01*
X178944064Y-94168343D02*
X178944064Y-93882629D01*
X178944064Y-93882629D02*
X178991683Y-93787391D01*
X178991683Y-93787391D02*
X179039302Y-93739772D01*
X179039302Y-93739772D02*
X179134540Y-93692153D01*
X179134540Y-93692153D02*
X179325016Y-93692153D01*
X179325016Y-93692153D02*
X179420254Y-93739772D01*
X180325016Y-94358820D02*
X180325016Y-93835010D01*
X180325016Y-93835010D02*
X180277397Y-93739772D01*
X180277397Y-93739772D02*
X180182159Y-93692153D01*
X180182159Y-93692153D02*
X179991683Y-93692153D01*
X179991683Y-93692153D02*
X179896445Y-93739772D01*
X180325016Y-94311201D02*
X180229778Y-94358820D01*
X180229778Y-94358820D02*
X179991683Y-94358820D01*
X179991683Y-94358820D02*
X179896445Y-94311201D01*
X179896445Y-94311201D02*
X179848826Y-94215962D01*
X179848826Y-94215962D02*
X179848826Y-94120724D01*
X179848826Y-94120724D02*
X179896445Y-94025486D01*
X179896445Y-94025486D02*
X179991683Y-93977867D01*
X179991683Y-93977867D02*
X180229778Y-93977867D01*
X180229778Y-93977867D02*
X180325016Y-93930248D01*
X181325016Y-94358820D02*
X180753588Y-94358820D01*
X181039302Y-94358820D02*
X181039302Y-93358820D01*
X181039302Y-93358820D02*
X180944064Y-93501677D01*
X180944064Y-93501677D02*
X180848826Y-93596915D01*
X180848826Y-93596915D02*
X180753588Y-93644534D01*
X114034387Y-74445220D02*
X113701054Y-73969029D01*
X113462959Y-74445220D02*
X113462959Y-73445220D01*
X113462959Y-73445220D02*
X113843911Y-73445220D01*
X113843911Y-73445220D02*
X113939149Y-73492839D01*
X113939149Y-73492839D02*
X113986768Y-73540458D01*
X113986768Y-73540458D02*
X114034387Y-73635696D01*
X114034387Y-73635696D02*
X114034387Y-73778553D01*
X114034387Y-73778553D02*
X113986768Y-73873791D01*
X113986768Y-73873791D02*
X113939149Y-73921410D01*
X113939149Y-73921410D02*
X113843911Y-73969029D01*
X113843911Y-73969029D02*
X113462959Y-73969029D01*
X114415340Y-74397601D02*
X114558197Y-74445220D01*
X114558197Y-74445220D02*
X114796292Y-74445220D01*
X114796292Y-74445220D02*
X114891530Y-74397601D01*
X114891530Y-74397601D02*
X114939149Y-74349981D01*
X114939149Y-74349981D02*
X114986768Y-74254743D01*
X114986768Y-74254743D02*
X114986768Y-74159505D01*
X114986768Y-74159505D02*
X114939149Y-74064267D01*
X114939149Y-74064267D02*
X114891530Y-74016648D01*
X114891530Y-74016648D02*
X114796292Y-73969029D01*
X114796292Y-73969029D02*
X114605816Y-73921410D01*
X114605816Y-73921410D02*
X114510578Y-73873791D01*
X114510578Y-73873791D02*
X114462959Y-73826172D01*
X114462959Y-73826172D02*
X114415340Y-73730934D01*
X114415340Y-73730934D02*
X114415340Y-73635696D01*
X114415340Y-73635696D02*
X114462959Y-73540458D01*
X114462959Y-73540458D02*
X114510578Y-73492839D01*
X114510578Y-73492839D02*
X114605816Y-73445220D01*
X114605816Y-73445220D02*
X114843911Y-73445220D01*
X114843911Y-73445220D02*
X114986768Y-73492839D01*
X115272483Y-73445220D02*
X115843911Y-73445220D01*
X115558197Y-74445220D02*
X115558197Y-73445220D01*
X113324864Y-73167601D02*
X115839150Y-73167601D01*
X178091740Y-97051220D02*
X178091740Y-96051220D01*
X178758406Y-96051220D02*
X178948882Y-96051220D01*
X178948882Y-96051220D02*
X179044120Y-96098839D01*
X179044120Y-96098839D02*
X179139358Y-96194077D01*
X179139358Y-96194077D02*
X179186977Y-96384553D01*
X179186977Y-96384553D02*
X179186977Y-96717886D01*
X179186977Y-96717886D02*
X179139358Y-96908362D01*
X179139358Y-96908362D02*
X179044120Y-97003601D01*
X179044120Y-97003601D02*
X178948882Y-97051220D01*
X178948882Y-97051220D02*
X178758406Y-97051220D01*
X178758406Y-97051220D02*
X178663168Y-97003601D01*
X178663168Y-97003601D02*
X178567930Y-96908362D01*
X178567930Y-96908362D02*
X178520311Y-96717886D01*
X178520311Y-96717886D02*
X178520311Y-96384553D01*
X178520311Y-96384553D02*
X178567930Y-96194077D01*
X178567930Y-96194077D02*
X178663168Y-96098839D01*
X178663168Y-96098839D02*
X178758406Y-96051220D01*
X179901263Y-97384553D02*
X179663168Y-97384553D01*
X179663168Y-97384553D02*
X179663168Y-95955981D01*
X179663168Y-95955981D02*
X179901263Y-95955981D01*
X180472692Y-96051220D02*
X180567930Y-96051220D01*
X180567930Y-96051220D02*
X180663168Y-96098839D01*
X180663168Y-96098839D02*
X180710787Y-96146458D01*
X180710787Y-96146458D02*
X180758406Y-96241696D01*
X180758406Y-96241696D02*
X180806025Y-96432172D01*
X180806025Y-96432172D02*
X180806025Y-96670267D01*
X180806025Y-96670267D02*
X180758406Y-96860743D01*
X180758406Y-96860743D02*
X180710787Y-96955981D01*
X180710787Y-96955981D02*
X180663168Y-97003601D01*
X180663168Y-97003601D02*
X180567930Y-97051220D01*
X180567930Y-97051220D02*
X180472692Y-97051220D01*
X180472692Y-97051220D02*
X180377454Y-97003601D01*
X180377454Y-97003601D02*
X180329835Y-96955981D01*
X180329835Y-96955981D02*
X180282216Y-96860743D01*
X180282216Y-96860743D02*
X180234597Y-96670267D01*
X180234597Y-96670267D02*
X180234597Y-96432172D01*
X180234597Y-96432172D02*
X180282216Y-96241696D01*
X180282216Y-96241696D02*
X180329835Y-96146458D01*
X180329835Y-96146458D02*
X180377454Y-96098839D01*
X180377454Y-96098839D02*
X180472692Y-96051220D01*
X181139359Y-97384553D02*
X181377454Y-97384553D01*
X181377454Y-97384553D02*
X181377454Y-95955981D01*
X181377454Y-95955981D02*
X181139359Y-95955981D01*
X113378950Y-122298820D02*
X113378950Y-121298820D01*
X114045616Y-121298820D02*
X114236092Y-121298820D01*
X114236092Y-121298820D02*
X114331330Y-121346439D01*
X114331330Y-121346439D02*
X114426568Y-121441677D01*
X114426568Y-121441677D02*
X114474187Y-121632153D01*
X114474187Y-121632153D02*
X114474187Y-121965486D01*
X114474187Y-121965486D02*
X114426568Y-122155962D01*
X114426568Y-122155962D02*
X114331330Y-122251201D01*
X114331330Y-122251201D02*
X114236092Y-122298820D01*
X114236092Y-122298820D02*
X114045616Y-122298820D01*
X114045616Y-122298820D02*
X113950378Y-122251201D01*
X113950378Y-122251201D02*
X113855140Y-122155962D01*
X113855140Y-122155962D02*
X113807521Y-121965486D01*
X113807521Y-121965486D02*
X113807521Y-121632153D01*
X113807521Y-121632153D02*
X113855140Y-121441677D01*
X113855140Y-121441677D02*
X113950378Y-121346439D01*
X113950378Y-121346439D02*
X114045616Y-121298820D01*
X115188473Y-122632153D02*
X114950378Y-122632153D01*
X114950378Y-122632153D02*
X114950378Y-121203581D01*
X114950378Y-121203581D02*
X115188473Y-121203581D01*
X116093235Y-122298820D02*
X115521807Y-122298820D01*
X115807521Y-122298820D02*
X115807521Y-121298820D01*
X115807521Y-121298820D02*
X115712283Y-121441677D01*
X115712283Y-121441677D02*
X115617045Y-121536915D01*
X115617045Y-121536915D02*
X115521807Y-121584534D01*
X116426569Y-121298820D02*
X117093235Y-121298820D01*
X117093235Y-121298820D02*
X116664664Y-122298820D01*
X117378950Y-122632153D02*
X117617045Y-122632153D01*
X117617045Y-122632153D02*
X117617045Y-121203581D01*
X117617045Y-121203581D02*
X117378950Y-121203581D01*
X113378950Y-104518820D02*
X113378950Y-103518820D01*
X114045616Y-103518820D02*
X114236092Y-103518820D01*
X114236092Y-103518820D02*
X114331330Y-103566439D01*
X114331330Y-103566439D02*
X114426568Y-103661677D01*
X114426568Y-103661677D02*
X114474187Y-103852153D01*
X114474187Y-103852153D02*
X114474187Y-104185486D01*
X114474187Y-104185486D02*
X114426568Y-104375962D01*
X114426568Y-104375962D02*
X114331330Y-104471201D01*
X114331330Y-104471201D02*
X114236092Y-104518820D01*
X114236092Y-104518820D02*
X114045616Y-104518820D01*
X114045616Y-104518820D02*
X113950378Y-104471201D01*
X113950378Y-104471201D02*
X113855140Y-104375962D01*
X113855140Y-104375962D02*
X113807521Y-104185486D01*
X113807521Y-104185486D02*
X113807521Y-103852153D01*
X113807521Y-103852153D02*
X113855140Y-103661677D01*
X113855140Y-103661677D02*
X113950378Y-103566439D01*
X113950378Y-103566439D02*
X114045616Y-103518820D01*
X115188473Y-104852153D02*
X114950378Y-104852153D01*
X114950378Y-104852153D02*
X114950378Y-103423581D01*
X114950378Y-103423581D02*
X115188473Y-103423581D01*
X115521807Y-103614058D02*
X115569426Y-103566439D01*
X115569426Y-103566439D02*
X115664664Y-103518820D01*
X115664664Y-103518820D02*
X115902759Y-103518820D01*
X115902759Y-103518820D02*
X115997997Y-103566439D01*
X115997997Y-103566439D02*
X116045616Y-103614058D01*
X116045616Y-103614058D02*
X116093235Y-103709296D01*
X116093235Y-103709296D02*
X116093235Y-103804534D01*
X116093235Y-103804534D02*
X116045616Y-103947391D01*
X116045616Y-103947391D02*
X115474188Y-104518820D01*
X115474188Y-104518820D02*
X116093235Y-104518820D01*
X116950378Y-103852153D02*
X116950378Y-104518820D01*
X116712283Y-103471201D02*
X116474188Y-104185486D01*
X116474188Y-104185486D02*
X117093235Y-104185486D01*
X117378950Y-104852153D02*
X117617045Y-104852153D01*
X117617045Y-104852153D02*
X117617045Y-103423581D01*
X117617045Y-103423581D02*
X117378950Y-103423581D01*
X113322445Y-132943705D02*
X113274826Y-133038943D01*
X113274826Y-133038943D02*
X113274826Y-133181800D01*
X113274826Y-133181800D02*
X113322445Y-133324657D01*
X113322445Y-133324657D02*
X113417683Y-133419895D01*
X113417683Y-133419895D02*
X113512921Y-133467514D01*
X113512921Y-133467514D02*
X113703397Y-133515133D01*
X113703397Y-133515133D02*
X113846254Y-133515133D01*
X113846254Y-133515133D02*
X114036730Y-133467514D01*
X114036730Y-133467514D02*
X114131968Y-133419895D01*
X114131968Y-133419895D02*
X114227207Y-133324657D01*
X114227207Y-133324657D02*
X114274826Y-133181800D01*
X114274826Y-133181800D02*
X114274826Y-133086562D01*
X114274826Y-133086562D02*
X114227207Y-132943705D01*
X114227207Y-132943705D02*
X114179587Y-132896086D01*
X114179587Y-132896086D02*
X113846254Y-132896086D01*
X113846254Y-132896086D02*
X113846254Y-133086562D01*
X114274826Y-132467514D02*
X113274826Y-132467514D01*
X113274826Y-132467514D02*
X114274826Y-131896086D01*
X114274826Y-131896086D02*
X113274826Y-131896086D01*
X114274826Y-131419895D02*
X113274826Y-131419895D01*
X113274826Y-131419895D02*
X113274826Y-131181800D01*
X113274826Y-131181800D02*
X113322445Y-131038943D01*
X113322445Y-131038943D02*
X113417683Y-130943705D01*
X113417683Y-130943705D02*
X113512921Y-130896086D01*
X113512921Y-130896086D02*
X113703397Y-130848467D01*
X113703397Y-130848467D02*
X113846254Y-130848467D01*
X113846254Y-130848467D02*
X114036730Y-130896086D01*
X114036730Y-130896086D02*
X114131968Y-130943705D01*
X114131968Y-130943705D02*
X114227207Y-131038943D01*
X114227207Y-131038943D02*
X114274826Y-131181800D01*
X114274826Y-131181800D02*
X114274826Y-131419895D01*
X177209150Y-127531220D02*
X177209150Y-126531220D01*
X177875816Y-126531220D02*
X178066292Y-126531220D01*
X178066292Y-126531220D02*
X178161530Y-126578839D01*
X178161530Y-126578839D02*
X178256768Y-126674077D01*
X178256768Y-126674077D02*
X178304387Y-126864553D01*
X178304387Y-126864553D02*
X178304387Y-127197886D01*
X178304387Y-127197886D02*
X178256768Y-127388362D01*
X178256768Y-127388362D02*
X178161530Y-127483601D01*
X178161530Y-127483601D02*
X178066292Y-127531220D01*
X178066292Y-127531220D02*
X177875816Y-127531220D01*
X177875816Y-127531220D02*
X177780578Y-127483601D01*
X177780578Y-127483601D02*
X177685340Y-127388362D01*
X177685340Y-127388362D02*
X177637721Y-127197886D01*
X177637721Y-127197886D02*
X177637721Y-126864553D01*
X177637721Y-126864553D02*
X177685340Y-126674077D01*
X177685340Y-126674077D02*
X177780578Y-126578839D01*
X177780578Y-126578839D02*
X177875816Y-126531220D01*
X179018673Y-127864553D02*
X178780578Y-127864553D01*
X178780578Y-127864553D02*
X178780578Y-126435981D01*
X178780578Y-126435981D02*
X179018673Y-126435981D01*
X179923435Y-127531220D02*
X179352007Y-127531220D01*
X179637721Y-127531220D02*
X179637721Y-126531220D01*
X179637721Y-126531220D02*
X179542483Y-126674077D01*
X179542483Y-126674077D02*
X179447245Y-126769315D01*
X179447245Y-126769315D02*
X179352007Y-126816934D01*
X180304388Y-126626458D02*
X180352007Y-126578839D01*
X180352007Y-126578839D02*
X180447245Y-126531220D01*
X180447245Y-126531220D02*
X180685340Y-126531220D01*
X180685340Y-126531220D02*
X180780578Y-126578839D01*
X180780578Y-126578839D02*
X180828197Y-126626458D01*
X180828197Y-126626458D02*
X180875816Y-126721696D01*
X180875816Y-126721696D02*
X180875816Y-126816934D01*
X180875816Y-126816934D02*
X180828197Y-126959791D01*
X180828197Y-126959791D02*
X180256769Y-127531220D01*
X180256769Y-127531220D02*
X180875816Y-127531220D01*
X181209150Y-127864553D02*
X181447245Y-127864553D01*
X181447245Y-127864553D02*
X181447245Y-126435981D01*
X181447245Y-126435981D02*
X181209150Y-126435981D01*
X178117140Y-107211220D02*
X178117140Y-106211220D01*
X178783806Y-106211220D02*
X178974282Y-106211220D01*
X178974282Y-106211220D02*
X179069520Y-106258839D01*
X179069520Y-106258839D02*
X179164758Y-106354077D01*
X179164758Y-106354077D02*
X179212377Y-106544553D01*
X179212377Y-106544553D02*
X179212377Y-106877886D01*
X179212377Y-106877886D02*
X179164758Y-107068362D01*
X179164758Y-107068362D02*
X179069520Y-107163601D01*
X179069520Y-107163601D02*
X178974282Y-107211220D01*
X178974282Y-107211220D02*
X178783806Y-107211220D01*
X178783806Y-107211220D02*
X178688568Y-107163601D01*
X178688568Y-107163601D02*
X178593330Y-107068362D01*
X178593330Y-107068362D02*
X178545711Y-106877886D01*
X178545711Y-106877886D02*
X178545711Y-106544553D01*
X178545711Y-106544553D02*
X178593330Y-106354077D01*
X178593330Y-106354077D02*
X178688568Y-106258839D01*
X178688568Y-106258839D02*
X178783806Y-106211220D01*
X179926663Y-107544553D02*
X179688568Y-107544553D01*
X179688568Y-107544553D02*
X179688568Y-106115981D01*
X179688568Y-106115981D02*
X179926663Y-106115981D01*
X180736187Y-106544553D02*
X180736187Y-107211220D01*
X180498092Y-106163601D02*
X180259997Y-106877886D01*
X180259997Y-106877886D02*
X180879044Y-106877886D01*
X181164759Y-107544553D02*
X181402854Y-107544553D01*
X181402854Y-107544553D02*
X181402854Y-106115981D01*
X181402854Y-106115981D02*
X181164759Y-106115981D01*
X179275902Y-90764839D02*
X179180664Y-90717220D01*
X179180664Y-90717220D02*
X179037807Y-90717220D01*
X179037807Y-90717220D02*
X178894950Y-90764839D01*
X178894950Y-90764839D02*
X178799712Y-90860077D01*
X178799712Y-90860077D02*
X178752093Y-90955315D01*
X178752093Y-90955315D02*
X178704474Y-91145791D01*
X178704474Y-91145791D02*
X178704474Y-91288648D01*
X178704474Y-91288648D02*
X178752093Y-91479124D01*
X178752093Y-91479124D02*
X178799712Y-91574362D01*
X178799712Y-91574362D02*
X178894950Y-91669601D01*
X178894950Y-91669601D02*
X179037807Y-91717220D01*
X179037807Y-91717220D02*
X179133045Y-91717220D01*
X179133045Y-91717220D02*
X179275902Y-91669601D01*
X179275902Y-91669601D02*
X179323521Y-91621981D01*
X179323521Y-91621981D02*
X179323521Y-91288648D01*
X179323521Y-91288648D02*
X179133045Y-91288648D01*
X179752093Y-91717220D02*
X179752093Y-90717220D01*
X179752093Y-90717220D02*
X180323521Y-91717220D01*
X180323521Y-91717220D02*
X180323521Y-90717220D01*
X180799712Y-91717220D02*
X180799712Y-90717220D01*
X180799712Y-90717220D02*
X181037807Y-90717220D01*
X181037807Y-90717220D02*
X181180664Y-90764839D01*
X181180664Y-90764839D02*
X181275902Y-90860077D01*
X181275902Y-90860077D02*
X181323521Y-90955315D01*
X181323521Y-90955315D02*
X181371140Y-91145791D01*
X181371140Y-91145791D02*
X181371140Y-91288648D01*
X181371140Y-91288648D02*
X181323521Y-91479124D01*
X181323521Y-91479124D02*
X181275902Y-91574362D01*
X181275902Y-91574362D02*
X181180664Y-91669601D01*
X181180664Y-91669601D02*
X181037807Y-91717220D01*
X181037807Y-91717220D02*
X180799712Y-91717220D01*
X177259950Y-122349620D02*
X177259950Y-121349620D01*
X177926616Y-121349620D02*
X178117092Y-121349620D01*
X178117092Y-121349620D02*
X178212330Y-121397239D01*
X178212330Y-121397239D02*
X178307568Y-121492477D01*
X178307568Y-121492477D02*
X178355187Y-121682953D01*
X178355187Y-121682953D02*
X178355187Y-122016286D01*
X178355187Y-122016286D02*
X178307568Y-122206762D01*
X178307568Y-122206762D02*
X178212330Y-122302001D01*
X178212330Y-122302001D02*
X178117092Y-122349620D01*
X178117092Y-122349620D02*
X177926616Y-122349620D01*
X177926616Y-122349620D02*
X177831378Y-122302001D01*
X177831378Y-122302001D02*
X177736140Y-122206762D01*
X177736140Y-122206762D02*
X177688521Y-122016286D01*
X177688521Y-122016286D02*
X177688521Y-121682953D01*
X177688521Y-121682953D02*
X177736140Y-121492477D01*
X177736140Y-121492477D02*
X177831378Y-121397239D01*
X177831378Y-121397239D02*
X177926616Y-121349620D01*
X179069473Y-122682953D02*
X178831378Y-122682953D01*
X178831378Y-122682953D02*
X178831378Y-121254381D01*
X178831378Y-121254381D02*
X179069473Y-121254381D01*
X179974235Y-122349620D02*
X179402807Y-122349620D01*
X179688521Y-122349620D02*
X179688521Y-121349620D01*
X179688521Y-121349620D02*
X179593283Y-121492477D01*
X179593283Y-121492477D02*
X179498045Y-121587715D01*
X179498045Y-121587715D02*
X179402807Y-121635334D01*
X180593283Y-121349620D02*
X180688521Y-121349620D01*
X180688521Y-121349620D02*
X180783759Y-121397239D01*
X180783759Y-121397239D02*
X180831378Y-121444858D01*
X180831378Y-121444858D02*
X180878997Y-121540096D01*
X180878997Y-121540096D02*
X180926616Y-121730572D01*
X180926616Y-121730572D02*
X180926616Y-121968667D01*
X180926616Y-121968667D02*
X180878997Y-122159143D01*
X180878997Y-122159143D02*
X180831378Y-122254381D01*
X180831378Y-122254381D02*
X180783759Y-122302001D01*
X180783759Y-122302001D02*
X180688521Y-122349620D01*
X180688521Y-122349620D02*
X180593283Y-122349620D01*
X180593283Y-122349620D02*
X180498045Y-122302001D01*
X180498045Y-122302001D02*
X180450426Y-122254381D01*
X180450426Y-122254381D02*
X180402807Y-122159143D01*
X180402807Y-122159143D02*
X180355188Y-121968667D01*
X180355188Y-121968667D02*
X180355188Y-121730572D01*
X180355188Y-121730572D02*
X180402807Y-121540096D01*
X180402807Y-121540096D02*
X180450426Y-121444858D01*
X180450426Y-121444858D02*
X180498045Y-121397239D01*
X180498045Y-121397239D02*
X180593283Y-121349620D01*
X181259950Y-122682953D02*
X181498045Y-122682953D01*
X181498045Y-122682953D02*
X181498045Y-121254381D01*
X181498045Y-121254381D02*
X181259950Y-121254381D01*
X113353550Y-94460420D02*
X113353550Y-93460420D01*
X114020216Y-93460420D02*
X114210692Y-93460420D01*
X114210692Y-93460420D02*
X114305930Y-93508039D01*
X114305930Y-93508039D02*
X114401168Y-93603277D01*
X114401168Y-93603277D02*
X114448787Y-93793753D01*
X114448787Y-93793753D02*
X114448787Y-94127086D01*
X114448787Y-94127086D02*
X114401168Y-94317562D01*
X114401168Y-94317562D02*
X114305930Y-94412801D01*
X114305930Y-94412801D02*
X114210692Y-94460420D01*
X114210692Y-94460420D02*
X114020216Y-94460420D01*
X114020216Y-94460420D02*
X113924978Y-94412801D01*
X113924978Y-94412801D02*
X113829740Y-94317562D01*
X113829740Y-94317562D02*
X113782121Y-94127086D01*
X113782121Y-94127086D02*
X113782121Y-93793753D01*
X113782121Y-93793753D02*
X113829740Y-93603277D01*
X113829740Y-93603277D02*
X113924978Y-93508039D01*
X113924978Y-93508039D02*
X114020216Y-93460420D01*
X115163073Y-94793753D02*
X114924978Y-94793753D01*
X114924978Y-94793753D02*
X114924978Y-93365181D01*
X114924978Y-93365181D02*
X115163073Y-93365181D01*
X115496407Y-93555658D02*
X115544026Y-93508039D01*
X115544026Y-93508039D02*
X115639264Y-93460420D01*
X115639264Y-93460420D02*
X115877359Y-93460420D01*
X115877359Y-93460420D02*
X115972597Y-93508039D01*
X115972597Y-93508039D02*
X116020216Y-93555658D01*
X116020216Y-93555658D02*
X116067835Y-93650896D01*
X116067835Y-93650896D02*
X116067835Y-93746134D01*
X116067835Y-93746134D02*
X116020216Y-93888991D01*
X116020216Y-93888991D02*
X115448788Y-94460420D01*
X115448788Y-94460420D02*
X116067835Y-94460420D01*
X116639264Y-93888991D02*
X116544026Y-93841372D01*
X116544026Y-93841372D02*
X116496407Y-93793753D01*
X116496407Y-93793753D02*
X116448788Y-93698515D01*
X116448788Y-93698515D02*
X116448788Y-93650896D01*
X116448788Y-93650896D02*
X116496407Y-93555658D01*
X116496407Y-93555658D02*
X116544026Y-93508039D01*
X116544026Y-93508039D02*
X116639264Y-93460420D01*
X116639264Y-93460420D02*
X116829740Y-93460420D01*
X116829740Y-93460420D02*
X116924978Y-93508039D01*
X116924978Y-93508039D02*
X116972597Y-93555658D01*
X116972597Y-93555658D02*
X117020216Y-93650896D01*
X117020216Y-93650896D02*
X117020216Y-93698515D01*
X117020216Y-93698515D02*
X116972597Y-93793753D01*
X116972597Y-93793753D02*
X116924978Y-93841372D01*
X116924978Y-93841372D02*
X116829740Y-93888991D01*
X116829740Y-93888991D02*
X116639264Y-93888991D01*
X116639264Y-93888991D02*
X116544026Y-93936610D01*
X116544026Y-93936610D02*
X116496407Y-93984229D01*
X116496407Y-93984229D02*
X116448788Y-94079467D01*
X116448788Y-94079467D02*
X116448788Y-94269943D01*
X116448788Y-94269943D02*
X116496407Y-94365181D01*
X116496407Y-94365181D02*
X116544026Y-94412801D01*
X116544026Y-94412801D02*
X116639264Y-94460420D01*
X116639264Y-94460420D02*
X116829740Y-94460420D01*
X116829740Y-94460420D02*
X116924978Y-94412801D01*
X116924978Y-94412801D02*
X116972597Y-94365181D01*
X116972597Y-94365181D02*
X117020216Y-94269943D01*
X117020216Y-94269943D02*
X117020216Y-94079467D01*
X117020216Y-94079467D02*
X116972597Y-93984229D01*
X116972597Y-93984229D02*
X116924978Y-93936610D01*
X116924978Y-93936610D02*
X116829740Y-93888991D01*
X117353550Y-94793753D02*
X117591645Y-94793753D01*
X117591645Y-94793753D02*
X117591645Y-93365181D01*
X117591645Y-93365181D02*
X117353550Y-93365181D01*
X113378950Y-101978820D02*
X113378950Y-100978820D01*
X114045616Y-100978820D02*
X114236092Y-100978820D01*
X114236092Y-100978820D02*
X114331330Y-101026439D01*
X114331330Y-101026439D02*
X114426568Y-101121677D01*
X114426568Y-101121677D02*
X114474187Y-101312153D01*
X114474187Y-101312153D02*
X114474187Y-101645486D01*
X114474187Y-101645486D02*
X114426568Y-101835962D01*
X114426568Y-101835962D02*
X114331330Y-101931201D01*
X114331330Y-101931201D02*
X114236092Y-101978820D01*
X114236092Y-101978820D02*
X114045616Y-101978820D01*
X114045616Y-101978820D02*
X113950378Y-101931201D01*
X113950378Y-101931201D02*
X113855140Y-101835962D01*
X113855140Y-101835962D02*
X113807521Y-101645486D01*
X113807521Y-101645486D02*
X113807521Y-101312153D01*
X113807521Y-101312153D02*
X113855140Y-101121677D01*
X113855140Y-101121677D02*
X113950378Y-101026439D01*
X113950378Y-101026439D02*
X114045616Y-100978820D01*
X115188473Y-102312153D02*
X114950378Y-102312153D01*
X114950378Y-102312153D02*
X114950378Y-100883581D01*
X114950378Y-100883581D02*
X115188473Y-100883581D01*
X115521807Y-101074058D02*
X115569426Y-101026439D01*
X115569426Y-101026439D02*
X115664664Y-100978820D01*
X115664664Y-100978820D02*
X115902759Y-100978820D01*
X115902759Y-100978820D02*
X115997997Y-101026439D01*
X115997997Y-101026439D02*
X116045616Y-101074058D01*
X116045616Y-101074058D02*
X116093235Y-101169296D01*
X116093235Y-101169296D02*
X116093235Y-101264534D01*
X116093235Y-101264534D02*
X116045616Y-101407391D01*
X116045616Y-101407391D02*
X115474188Y-101978820D01*
X115474188Y-101978820D02*
X116093235Y-101978820D01*
X116997997Y-100978820D02*
X116521807Y-100978820D01*
X116521807Y-100978820D02*
X116474188Y-101455010D01*
X116474188Y-101455010D02*
X116521807Y-101407391D01*
X116521807Y-101407391D02*
X116617045Y-101359772D01*
X116617045Y-101359772D02*
X116855140Y-101359772D01*
X116855140Y-101359772D02*
X116950378Y-101407391D01*
X116950378Y-101407391D02*
X116997997Y-101455010D01*
X116997997Y-101455010D02*
X117045616Y-101550248D01*
X117045616Y-101550248D02*
X117045616Y-101788343D01*
X117045616Y-101788343D02*
X116997997Y-101883581D01*
X116997997Y-101883581D02*
X116950378Y-101931201D01*
X116950378Y-101931201D02*
X116855140Y-101978820D01*
X116855140Y-101978820D02*
X116617045Y-101978820D01*
X116617045Y-101978820D02*
X116521807Y-101931201D01*
X116521807Y-101931201D02*
X116474188Y-101883581D01*
X117378950Y-102312153D02*
X117617045Y-102312153D01*
X117617045Y-102312153D02*
X117617045Y-100883581D01*
X117617045Y-100883581D02*
X117378950Y-100883581D01*
X113378950Y-119758820D02*
X113378950Y-118758820D01*
X114045616Y-118758820D02*
X114236092Y-118758820D01*
X114236092Y-118758820D02*
X114331330Y-118806439D01*
X114331330Y-118806439D02*
X114426568Y-118901677D01*
X114426568Y-118901677D02*
X114474187Y-119092153D01*
X114474187Y-119092153D02*
X114474187Y-119425486D01*
X114474187Y-119425486D02*
X114426568Y-119615962D01*
X114426568Y-119615962D02*
X114331330Y-119711201D01*
X114331330Y-119711201D02*
X114236092Y-119758820D01*
X114236092Y-119758820D02*
X114045616Y-119758820D01*
X114045616Y-119758820D02*
X113950378Y-119711201D01*
X113950378Y-119711201D02*
X113855140Y-119615962D01*
X113855140Y-119615962D02*
X113807521Y-119425486D01*
X113807521Y-119425486D02*
X113807521Y-119092153D01*
X113807521Y-119092153D02*
X113855140Y-118901677D01*
X113855140Y-118901677D02*
X113950378Y-118806439D01*
X113950378Y-118806439D02*
X114045616Y-118758820D01*
X115188473Y-120092153D02*
X114950378Y-120092153D01*
X114950378Y-120092153D02*
X114950378Y-118663581D01*
X114950378Y-118663581D02*
X115188473Y-118663581D01*
X116093235Y-119758820D02*
X115521807Y-119758820D01*
X115807521Y-119758820D02*
X115807521Y-118758820D01*
X115807521Y-118758820D02*
X115712283Y-118901677D01*
X115712283Y-118901677D02*
X115617045Y-118996915D01*
X115617045Y-118996915D02*
X115521807Y-119044534D01*
X116664664Y-119187391D02*
X116569426Y-119139772D01*
X116569426Y-119139772D02*
X116521807Y-119092153D01*
X116521807Y-119092153D02*
X116474188Y-118996915D01*
X116474188Y-118996915D02*
X116474188Y-118949296D01*
X116474188Y-118949296D02*
X116521807Y-118854058D01*
X116521807Y-118854058D02*
X116569426Y-118806439D01*
X116569426Y-118806439D02*
X116664664Y-118758820D01*
X116664664Y-118758820D02*
X116855140Y-118758820D01*
X116855140Y-118758820D02*
X116950378Y-118806439D01*
X116950378Y-118806439D02*
X116997997Y-118854058D01*
X116997997Y-118854058D02*
X117045616Y-118949296D01*
X117045616Y-118949296D02*
X117045616Y-118996915D01*
X117045616Y-118996915D02*
X116997997Y-119092153D01*
X116997997Y-119092153D02*
X116950378Y-119139772D01*
X116950378Y-119139772D02*
X116855140Y-119187391D01*
X116855140Y-119187391D02*
X116664664Y-119187391D01*
X116664664Y-119187391D02*
X116569426Y-119235010D01*
X116569426Y-119235010D02*
X116521807Y-119282629D01*
X116521807Y-119282629D02*
X116474188Y-119377867D01*
X116474188Y-119377867D02*
X116474188Y-119568343D01*
X116474188Y-119568343D02*
X116521807Y-119663581D01*
X116521807Y-119663581D02*
X116569426Y-119711201D01*
X116569426Y-119711201D02*
X116664664Y-119758820D01*
X116664664Y-119758820D02*
X116855140Y-119758820D01*
X116855140Y-119758820D02*
X116950378Y-119711201D01*
X116950378Y-119711201D02*
X116997997Y-119663581D01*
X116997997Y-119663581D02*
X117045616Y-119568343D01*
X117045616Y-119568343D02*
X117045616Y-119377867D01*
X117045616Y-119377867D02*
X116997997Y-119282629D01*
X116997997Y-119282629D02*
X116950378Y-119235010D01*
X116950378Y-119235010D02*
X116855140Y-119187391D01*
X117378950Y-120092153D02*
X117617045Y-120092153D01*
X117617045Y-120092153D02*
X117617045Y-118663581D01*
X117617045Y-118663581D02*
X117378950Y-118663581D01*
X113353550Y-81760420D02*
X113353550Y-80760420D01*
X114020216Y-80760420D02*
X114210692Y-80760420D01*
X114210692Y-80760420D02*
X114305930Y-80808039D01*
X114305930Y-80808039D02*
X114401168Y-80903277D01*
X114401168Y-80903277D02*
X114448787Y-81093753D01*
X114448787Y-81093753D02*
X114448787Y-81427086D01*
X114448787Y-81427086D02*
X114401168Y-81617562D01*
X114401168Y-81617562D02*
X114305930Y-81712801D01*
X114305930Y-81712801D02*
X114210692Y-81760420D01*
X114210692Y-81760420D02*
X114020216Y-81760420D01*
X114020216Y-81760420D02*
X113924978Y-81712801D01*
X113924978Y-81712801D02*
X113829740Y-81617562D01*
X113829740Y-81617562D02*
X113782121Y-81427086D01*
X113782121Y-81427086D02*
X113782121Y-81093753D01*
X113782121Y-81093753D02*
X113829740Y-80903277D01*
X113829740Y-80903277D02*
X113924978Y-80808039D01*
X113924978Y-80808039D02*
X114020216Y-80760420D01*
X115163073Y-82093753D02*
X114924978Y-82093753D01*
X114924978Y-82093753D02*
X114924978Y-80665181D01*
X114924978Y-80665181D02*
X115163073Y-80665181D01*
X115448788Y-80760420D02*
X116067835Y-80760420D01*
X116067835Y-80760420D02*
X115734502Y-81141372D01*
X115734502Y-81141372D02*
X115877359Y-81141372D01*
X115877359Y-81141372D02*
X115972597Y-81188991D01*
X115972597Y-81188991D02*
X116020216Y-81236610D01*
X116020216Y-81236610D02*
X116067835Y-81331848D01*
X116067835Y-81331848D02*
X116067835Y-81569943D01*
X116067835Y-81569943D02*
X116020216Y-81665181D01*
X116020216Y-81665181D02*
X115972597Y-81712801D01*
X115972597Y-81712801D02*
X115877359Y-81760420D01*
X115877359Y-81760420D02*
X115591645Y-81760420D01*
X115591645Y-81760420D02*
X115496407Y-81712801D01*
X115496407Y-81712801D02*
X115448788Y-81665181D01*
X116401169Y-80760420D02*
X117020216Y-80760420D01*
X117020216Y-80760420D02*
X116686883Y-81141372D01*
X116686883Y-81141372D02*
X116829740Y-81141372D01*
X116829740Y-81141372D02*
X116924978Y-81188991D01*
X116924978Y-81188991D02*
X116972597Y-81236610D01*
X116972597Y-81236610D02*
X117020216Y-81331848D01*
X117020216Y-81331848D02*
X117020216Y-81569943D01*
X117020216Y-81569943D02*
X116972597Y-81665181D01*
X116972597Y-81665181D02*
X116924978Y-81712801D01*
X116924978Y-81712801D02*
X116829740Y-81760420D01*
X116829740Y-81760420D02*
X116544026Y-81760420D01*
X116544026Y-81760420D02*
X116448788Y-81712801D01*
X116448788Y-81712801D02*
X116401169Y-81665181D01*
X117353550Y-82093753D02*
X117591645Y-82093753D01*
X117591645Y-82093753D02*
X117591645Y-80665181D01*
X117591645Y-80665181D02*
X117353550Y-80665181D01*
X113256674Y-78604553D02*
X113494769Y-79271220D01*
X113494769Y-79271220D02*
X113732864Y-78604553D01*
X114542388Y-79271220D02*
X114542388Y-78271220D01*
X114542388Y-79223601D02*
X114447150Y-79271220D01*
X114447150Y-79271220D02*
X114256674Y-79271220D01*
X114256674Y-79271220D02*
X114161436Y-79223601D01*
X114161436Y-79223601D02*
X114113817Y-79175981D01*
X114113817Y-79175981D02*
X114066198Y-79080743D01*
X114066198Y-79080743D02*
X114066198Y-78795029D01*
X114066198Y-78795029D02*
X114113817Y-78699791D01*
X114113817Y-78699791D02*
X114161436Y-78652172D01*
X114161436Y-78652172D02*
X114256674Y-78604553D01*
X114256674Y-78604553D02*
X114447150Y-78604553D01*
X114447150Y-78604553D02*
X114542388Y-78652172D01*
X115447150Y-79271220D02*
X115447150Y-78271220D01*
X115447150Y-79223601D02*
X115351912Y-79271220D01*
X115351912Y-79271220D02*
X115161436Y-79271220D01*
X115161436Y-79271220D02*
X115066198Y-79223601D01*
X115066198Y-79223601D02*
X115018579Y-79175981D01*
X115018579Y-79175981D02*
X114970960Y-79080743D01*
X114970960Y-79080743D02*
X114970960Y-78795029D01*
X114970960Y-78795029D02*
X115018579Y-78699791D01*
X115018579Y-78699791D02*
X115066198Y-78652172D01*
X115066198Y-78652172D02*
X115161436Y-78604553D01*
X115161436Y-78604553D02*
X115351912Y-78604553D01*
X115351912Y-78604553D02*
X115447150Y-78652172D01*
X115923341Y-79271220D02*
X115923341Y-78604553D01*
X115923341Y-78271220D02*
X115875722Y-78318839D01*
X115875722Y-78318839D02*
X115923341Y-78366458D01*
X115923341Y-78366458D02*
X115970960Y-78318839D01*
X115970960Y-78318839D02*
X115923341Y-78271220D01*
X115923341Y-78271220D02*
X115923341Y-78366458D01*
X116542388Y-79271220D02*
X116447150Y-79223601D01*
X116447150Y-79223601D02*
X116399531Y-79175981D01*
X116399531Y-79175981D02*
X116351912Y-79080743D01*
X116351912Y-79080743D02*
X116351912Y-78795029D01*
X116351912Y-78795029D02*
X116399531Y-78699791D01*
X116399531Y-78699791D02*
X116447150Y-78652172D01*
X116447150Y-78652172D02*
X116542388Y-78604553D01*
X116542388Y-78604553D02*
X116685245Y-78604553D01*
X116685245Y-78604553D02*
X116780483Y-78652172D01*
X116780483Y-78652172D02*
X116828102Y-78699791D01*
X116828102Y-78699791D02*
X116875721Y-78795029D01*
X116875721Y-78795029D02*
X116875721Y-79080743D01*
X116875721Y-79080743D02*
X116828102Y-79175981D01*
X116828102Y-79175981D02*
X116780483Y-79223601D01*
X116780483Y-79223601D02*
X116685245Y-79271220D01*
X116685245Y-79271220D02*
X116542388Y-79271220D01*
X113353550Y-99591220D02*
X113353550Y-98591220D01*
X114020216Y-98591220D02*
X114210692Y-98591220D01*
X114210692Y-98591220D02*
X114305930Y-98638839D01*
X114305930Y-98638839D02*
X114401168Y-98734077D01*
X114401168Y-98734077D02*
X114448787Y-98924553D01*
X114448787Y-98924553D02*
X114448787Y-99257886D01*
X114448787Y-99257886D02*
X114401168Y-99448362D01*
X114401168Y-99448362D02*
X114305930Y-99543601D01*
X114305930Y-99543601D02*
X114210692Y-99591220D01*
X114210692Y-99591220D02*
X114020216Y-99591220D01*
X114020216Y-99591220D02*
X113924978Y-99543601D01*
X113924978Y-99543601D02*
X113829740Y-99448362D01*
X113829740Y-99448362D02*
X113782121Y-99257886D01*
X113782121Y-99257886D02*
X113782121Y-98924553D01*
X113782121Y-98924553D02*
X113829740Y-98734077D01*
X113829740Y-98734077D02*
X113924978Y-98638839D01*
X113924978Y-98638839D02*
X114020216Y-98591220D01*
X115163073Y-99924553D02*
X114924978Y-99924553D01*
X114924978Y-99924553D02*
X114924978Y-98495981D01*
X114924978Y-98495981D02*
X115163073Y-98495981D01*
X115496407Y-98686458D02*
X115544026Y-98638839D01*
X115544026Y-98638839D02*
X115639264Y-98591220D01*
X115639264Y-98591220D02*
X115877359Y-98591220D01*
X115877359Y-98591220D02*
X115972597Y-98638839D01*
X115972597Y-98638839D02*
X116020216Y-98686458D01*
X116020216Y-98686458D02*
X116067835Y-98781696D01*
X116067835Y-98781696D02*
X116067835Y-98876934D01*
X116067835Y-98876934D02*
X116020216Y-99019791D01*
X116020216Y-99019791D02*
X115448788Y-99591220D01*
X115448788Y-99591220D02*
X116067835Y-99591220D01*
X116924978Y-98591220D02*
X116734502Y-98591220D01*
X116734502Y-98591220D02*
X116639264Y-98638839D01*
X116639264Y-98638839D02*
X116591645Y-98686458D01*
X116591645Y-98686458D02*
X116496407Y-98829315D01*
X116496407Y-98829315D02*
X116448788Y-99019791D01*
X116448788Y-99019791D02*
X116448788Y-99400743D01*
X116448788Y-99400743D02*
X116496407Y-99495981D01*
X116496407Y-99495981D02*
X116544026Y-99543601D01*
X116544026Y-99543601D02*
X116639264Y-99591220D01*
X116639264Y-99591220D02*
X116829740Y-99591220D01*
X116829740Y-99591220D02*
X116924978Y-99543601D01*
X116924978Y-99543601D02*
X116972597Y-99495981D01*
X116972597Y-99495981D02*
X117020216Y-99400743D01*
X117020216Y-99400743D02*
X117020216Y-99162648D01*
X117020216Y-99162648D02*
X116972597Y-99067410D01*
X116972597Y-99067410D02*
X116924978Y-99019791D01*
X116924978Y-99019791D02*
X116829740Y-98972172D01*
X116829740Y-98972172D02*
X116639264Y-98972172D01*
X116639264Y-98972172D02*
X116544026Y-99019791D01*
X116544026Y-99019791D02*
X116496407Y-99067410D01*
X116496407Y-99067410D02*
X116448788Y-99162648D01*
X117353550Y-99924553D02*
X117591645Y-99924553D01*
X117591645Y-99924553D02*
X117591645Y-98495981D01*
X117591645Y-98495981D02*
X117353550Y-98495981D01*
X113353550Y-84351220D02*
X113353550Y-83351220D01*
X114020216Y-83351220D02*
X114210692Y-83351220D01*
X114210692Y-83351220D02*
X114305930Y-83398839D01*
X114305930Y-83398839D02*
X114401168Y-83494077D01*
X114401168Y-83494077D02*
X114448787Y-83684553D01*
X114448787Y-83684553D02*
X114448787Y-84017886D01*
X114448787Y-84017886D02*
X114401168Y-84208362D01*
X114401168Y-84208362D02*
X114305930Y-84303601D01*
X114305930Y-84303601D02*
X114210692Y-84351220D01*
X114210692Y-84351220D02*
X114020216Y-84351220D01*
X114020216Y-84351220D02*
X113924978Y-84303601D01*
X113924978Y-84303601D02*
X113829740Y-84208362D01*
X113829740Y-84208362D02*
X113782121Y-84017886D01*
X113782121Y-84017886D02*
X113782121Y-83684553D01*
X113782121Y-83684553D02*
X113829740Y-83494077D01*
X113829740Y-83494077D02*
X113924978Y-83398839D01*
X113924978Y-83398839D02*
X114020216Y-83351220D01*
X115163073Y-84684553D02*
X114924978Y-84684553D01*
X114924978Y-84684553D02*
X114924978Y-83255981D01*
X114924978Y-83255981D02*
X115163073Y-83255981D01*
X115448788Y-83351220D02*
X116067835Y-83351220D01*
X116067835Y-83351220D02*
X115734502Y-83732172D01*
X115734502Y-83732172D02*
X115877359Y-83732172D01*
X115877359Y-83732172D02*
X115972597Y-83779791D01*
X115972597Y-83779791D02*
X116020216Y-83827410D01*
X116020216Y-83827410D02*
X116067835Y-83922648D01*
X116067835Y-83922648D02*
X116067835Y-84160743D01*
X116067835Y-84160743D02*
X116020216Y-84255981D01*
X116020216Y-84255981D02*
X115972597Y-84303601D01*
X115972597Y-84303601D02*
X115877359Y-84351220D01*
X115877359Y-84351220D02*
X115591645Y-84351220D01*
X115591645Y-84351220D02*
X115496407Y-84303601D01*
X115496407Y-84303601D02*
X115448788Y-84255981D01*
X116448788Y-83446458D02*
X116496407Y-83398839D01*
X116496407Y-83398839D02*
X116591645Y-83351220D01*
X116591645Y-83351220D02*
X116829740Y-83351220D01*
X116829740Y-83351220D02*
X116924978Y-83398839D01*
X116924978Y-83398839D02*
X116972597Y-83446458D01*
X116972597Y-83446458D02*
X117020216Y-83541696D01*
X117020216Y-83541696D02*
X117020216Y-83636934D01*
X117020216Y-83636934D02*
X116972597Y-83779791D01*
X116972597Y-83779791D02*
X116401169Y-84351220D01*
X116401169Y-84351220D02*
X117020216Y-84351220D01*
X117353550Y-84684553D02*
X117591645Y-84684553D01*
X117591645Y-84684553D02*
X117591645Y-83255981D01*
X117591645Y-83255981D02*
X117353550Y-83255981D01*
X178193340Y-114831220D02*
X178193340Y-113831220D01*
X178860006Y-113831220D02*
X179050482Y-113831220D01*
X179050482Y-113831220D02*
X179145720Y-113878839D01*
X179145720Y-113878839D02*
X179240958Y-113974077D01*
X179240958Y-113974077D02*
X179288577Y-114164553D01*
X179288577Y-114164553D02*
X179288577Y-114497886D01*
X179288577Y-114497886D02*
X179240958Y-114688362D01*
X179240958Y-114688362D02*
X179145720Y-114783601D01*
X179145720Y-114783601D02*
X179050482Y-114831220D01*
X179050482Y-114831220D02*
X178860006Y-114831220D01*
X178860006Y-114831220D02*
X178764768Y-114783601D01*
X178764768Y-114783601D02*
X178669530Y-114688362D01*
X178669530Y-114688362D02*
X178621911Y-114497886D01*
X178621911Y-114497886D02*
X178621911Y-114164553D01*
X178621911Y-114164553D02*
X178669530Y-113974077D01*
X178669530Y-113974077D02*
X178764768Y-113878839D01*
X178764768Y-113878839D02*
X178860006Y-113831220D01*
X180002863Y-115164553D02*
X179764768Y-115164553D01*
X179764768Y-115164553D02*
X179764768Y-113735981D01*
X179764768Y-113735981D02*
X180002863Y-113735981D01*
X180288578Y-113831220D02*
X180955244Y-113831220D01*
X180955244Y-113831220D02*
X180526673Y-114831220D01*
X181240959Y-115164553D02*
X181479054Y-115164553D01*
X181479054Y-115164553D02*
X181479054Y-113735981D01*
X181479054Y-113735981D02*
X181240959Y-113735981D01*
X113378950Y-107058820D02*
X113378950Y-106058820D01*
X114045616Y-106058820D02*
X114236092Y-106058820D01*
X114236092Y-106058820D02*
X114331330Y-106106439D01*
X114331330Y-106106439D02*
X114426568Y-106201677D01*
X114426568Y-106201677D02*
X114474187Y-106392153D01*
X114474187Y-106392153D02*
X114474187Y-106725486D01*
X114474187Y-106725486D02*
X114426568Y-106915962D01*
X114426568Y-106915962D02*
X114331330Y-107011201D01*
X114331330Y-107011201D02*
X114236092Y-107058820D01*
X114236092Y-107058820D02*
X114045616Y-107058820D01*
X114045616Y-107058820D02*
X113950378Y-107011201D01*
X113950378Y-107011201D02*
X113855140Y-106915962D01*
X113855140Y-106915962D02*
X113807521Y-106725486D01*
X113807521Y-106725486D02*
X113807521Y-106392153D01*
X113807521Y-106392153D02*
X113855140Y-106201677D01*
X113855140Y-106201677D02*
X113950378Y-106106439D01*
X113950378Y-106106439D02*
X114045616Y-106058820D01*
X115188473Y-107392153D02*
X114950378Y-107392153D01*
X114950378Y-107392153D02*
X114950378Y-105963581D01*
X114950378Y-105963581D02*
X115188473Y-105963581D01*
X115521807Y-106154058D02*
X115569426Y-106106439D01*
X115569426Y-106106439D02*
X115664664Y-106058820D01*
X115664664Y-106058820D02*
X115902759Y-106058820D01*
X115902759Y-106058820D02*
X115997997Y-106106439D01*
X115997997Y-106106439D02*
X116045616Y-106154058D01*
X116045616Y-106154058D02*
X116093235Y-106249296D01*
X116093235Y-106249296D02*
X116093235Y-106344534D01*
X116093235Y-106344534D02*
X116045616Y-106487391D01*
X116045616Y-106487391D02*
X115474188Y-107058820D01*
X115474188Y-107058820D02*
X116093235Y-107058820D01*
X116426569Y-106058820D02*
X117045616Y-106058820D01*
X117045616Y-106058820D02*
X116712283Y-106439772D01*
X116712283Y-106439772D02*
X116855140Y-106439772D01*
X116855140Y-106439772D02*
X116950378Y-106487391D01*
X116950378Y-106487391D02*
X116997997Y-106535010D01*
X116997997Y-106535010D02*
X117045616Y-106630248D01*
X117045616Y-106630248D02*
X117045616Y-106868343D01*
X117045616Y-106868343D02*
X116997997Y-106963581D01*
X116997997Y-106963581D02*
X116950378Y-107011201D01*
X116950378Y-107011201D02*
X116855140Y-107058820D01*
X116855140Y-107058820D02*
X116569426Y-107058820D01*
X116569426Y-107058820D02*
X116474188Y-107011201D01*
X116474188Y-107011201D02*
X116426569Y-106963581D01*
X117378950Y-107392153D02*
X117617045Y-107392153D01*
X117617045Y-107392153D02*
X117617045Y-105963581D01*
X117617045Y-105963581D02*
X117378950Y-105963581D01*
X178193340Y-117371220D02*
X178193340Y-116371220D01*
X178860006Y-116371220D02*
X179050482Y-116371220D01*
X179050482Y-116371220D02*
X179145720Y-116418839D01*
X179145720Y-116418839D02*
X179240958Y-116514077D01*
X179240958Y-116514077D02*
X179288577Y-116704553D01*
X179288577Y-116704553D02*
X179288577Y-117037886D01*
X179288577Y-117037886D02*
X179240958Y-117228362D01*
X179240958Y-117228362D02*
X179145720Y-117323601D01*
X179145720Y-117323601D02*
X179050482Y-117371220D01*
X179050482Y-117371220D02*
X178860006Y-117371220D01*
X178860006Y-117371220D02*
X178764768Y-117323601D01*
X178764768Y-117323601D02*
X178669530Y-117228362D01*
X178669530Y-117228362D02*
X178621911Y-117037886D01*
X178621911Y-117037886D02*
X178621911Y-116704553D01*
X178621911Y-116704553D02*
X178669530Y-116514077D01*
X178669530Y-116514077D02*
X178764768Y-116418839D01*
X178764768Y-116418839D02*
X178860006Y-116371220D01*
X180002863Y-117704553D02*
X179764768Y-117704553D01*
X179764768Y-117704553D02*
X179764768Y-116275981D01*
X179764768Y-116275981D02*
X180002863Y-116275981D01*
X180526673Y-116799791D02*
X180431435Y-116752172D01*
X180431435Y-116752172D02*
X180383816Y-116704553D01*
X180383816Y-116704553D02*
X180336197Y-116609315D01*
X180336197Y-116609315D02*
X180336197Y-116561696D01*
X180336197Y-116561696D02*
X180383816Y-116466458D01*
X180383816Y-116466458D02*
X180431435Y-116418839D01*
X180431435Y-116418839D02*
X180526673Y-116371220D01*
X180526673Y-116371220D02*
X180717149Y-116371220D01*
X180717149Y-116371220D02*
X180812387Y-116418839D01*
X180812387Y-116418839D02*
X180860006Y-116466458D01*
X180860006Y-116466458D02*
X180907625Y-116561696D01*
X180907625Y-116561696D02*
X180907625Y-116609315D01*
X180907625Y-116609315D02*
X180860006Y-116704553D01*
X180860006Y-116704553D02*
X180812387Y-116752172D01*
X180812387Y-116752172D02*
X180717149Y-116799791D01*
X180717149Y-116799791D02*
X180526673Y-116799791D01*
X180526673Y-116799791D02*
X180431435Y-116847410D01*
X180431435Y-116847410D02*
X180383816Y-116895029D01*
X180383816Y-116895029D02*
X180336197Y-116990267D01*
X180336197Y-116990267D02*
X180336197Y-117180743D01*
X180336197Y-117180743D02*
X180383816Y-117275981D01*
X180383816Y-117275981D02*
X180431435Y-117323601D01*
X180431435Y-117323601D02*
X180526673Y-117371220D01*
X180526673Y-117371220D02*
X180717149Y-117371220D01*
X180717149Y-117371220D02*
X180812387Y-117323601D01*
X180812387Y-117323601D02*
X180860006Y-117275981D01*
X180860006Y-117275981D02*
X180907625Y-117180743D01*
X180907625Y-117180743D02*
X180907625Y-116990267D01*
X180907625Y-116990267D02*
X180860006Y-116895029D01*
X180860006Y-116895029D02*
X180812387Y-116847410D01*
X180812387Y-116847410D02*
X180717149Y-116799791D01*
X181240959Y-117704553D02*
X181479054Y-117704553D01*
X181479054Y-117704553D02*
X181479054Y-116275981D01*
X181479054Y-116275981D02*
X181240959Y-116275981D01*
X178926712Y-68009620D02*
X179545759Y-68009620D01*
X179545759Y-68009620D02*
X179212426Y-68390572D01*
X179212426Y-68390572D02*
X179355283Y-68390572D01*
X179355283Y-68390572D02*
X179450521Y-68438191D01*
X179450521Y-68438191D02*
X179498140Y-68485810D01*
X179498140Y-68485810D02*
X179545759Y-68581048D01*
X179545759Y-68581048D02*
X179545759Y-68819143D01*
X179545759Y-68819143D02*
X179498140Y-68914381D01*
X179498140Y-68914381D02*
X179450521Y-68962001D01*
X179450521Y-68962001D02*
X179355283Y-69009620D01*
X179355283Y-69009620D02*
X179069569Y-69009620D01*
X179069569Y-69009620D02*
X178974331Y-68962001D01*
X178974331Y-68962001D02*
X178926712Y-68914381D01*
X179831474Y-68009620D02*
X180164807Y-69009620D01*
X180164807Y-69009620D02*
X180498140Y-68009620D01*
X180736236Y-68009620D02*
X181355283Y-68009620D01*
X181355283Y-68009620D02*
X181021950Y-68390572D01*
X181021950Y-68390572D02*
X181164807Y-68390572D01*
X181164807Y-68390572D02*
X181260045Y-68438191D01*
X181260045Y-68438191D02*
X181307664Y-68485810D01*
X181307664Y-68485810D02*
X181355283Y-68581048D01*
X181355283Y-68581048D02*
X181355283Y-68819143D01*
X181355283Y-68819143D02*
X181307664Y-68914381D01*
X181307664Y-68914381D02*
X181260045Y-68962001D01*
X181260045Y-68962001D02*
X181164807Y-69009620D01*
X181164807Y-69009620D02*
X180879093Y-69009620D01*
X180879093Y-69009620D02*
X180783855Y-68962001D01*
X180783855Y-68962001D02*
X180736236Y-68914381D01*
X113378950Y-109598820D02*
X113378950Y-108598820D01*
X114045616Y-108598820D02*
X114236092Y-108598820D01*
X114236092Y-108598820D02*
X114331330Y-108646439D01*
X114331330Y-108646439D02*
X114426568Y-108741677D01*
X114426568Y-108741677D02*
X114474187Y-108932153D01*
X114474187Y-108932153D02*
X114474187Y-109265486D01*
X114474187Y-109265486D02*
X114426568Y-109455962D01*
X114426568Y-109455962D02*
X114331330Y-109551201D01*
X114331330Y-109551201D02*
X114236092Y-109598820D01*
X114236092Y-109598820D02*
X114045616Y-109598820D01*
X114045616Y-109598820D02*
X113950378Y-109551201D01*
X113950378Y-109551201D02*
X113855140Y-109455962D01*
X113855140Y-109455962D02*
X113807521Y-109265486D01*
X113807521Y-109265486D02*
X113807521Y-108932153D01*
X113807521Y-108932153D02*
X113855140Y-108741677D01*
X113855140Y-108741677D02*
X113950378Y-108646439D01*
X113950378Y-108646439D02*
X114045616Y-108598820D01*
X115188473Y-109932153D02*
X114950378Y-109932153D01*
X114950378Y-109932153D02*
X114950378Y-108503581D01*
X114950378Y-108503581D02*
X115188473Y-108503581D01*
X115521807Y-108694058D02*
X115569426Y-108646439D01*
X115569426Y-108646439D02*
X115664664Y-108598820D01*
X115664664Y-108598820D02*
X115902759Y-108598820D01*
X115902759Y-108598820D02*
X115997997Y-108646439D01*
X115997997Y-108646439D02*
X116045616Y-108694058D01*
X116045616Y-108694058D02*
X116093235Y-108789296D01*
X116093235Y-108789296D02*
X116093235Y-108884534D01*
X116093235Y-108884534D02*
X116045616Y-109027391D01*
X116045616Y-109027391D02*
X115474188Y-109598820D01*
X115474188Y-109598820D02*
X116093235Y-109598820D01*
X116474188Y-108694058D02*
X116521807Y-108646439D01*
X116521807Y-108646439D02*
X116617045Y-108598820D01*
X116617045Y-108598820D02*
X116855140Y-108598820D01*
X116855140Y-108598820D02*
X116950378Y-108646439D01*
X116950378Y-108646439D02*
X116997997Y-108694058D01*
X116997997Y-108694058D02*
X117045616Y-108789296D01*
X117045616Y-108789296D02*
X117045616Y-108884534D01*
X117045616Y-108884534D02*
X116997997Y-109027391D01*
X116997997Y-109027391D02*
X116426569Y-109598820D01*
X116426569Y-109598820D02*
X117045616Y-109598820D01*
X117378950Y-109932153D02*
X117617045Y-109932153D01*
X117617045Y-109932153D02*
X117617045Y-108503581D01*
X117617045Y-108503581D02*
X117378950Y-108503581D01*
X177531397Y-80890553D02*
X177769492Y-81557220D01*
X177769492Y-81557220D02*
X178007587Y-80890553D01*
X178817111Y-81509601D02*
X178721873Y-81557220D01*
X178721873Y-81557220D02*
X178531397Y-81557220D01*
X178531397Y-81557220D02*
X178436159Y-81509601D01*
X178436159Y-81509601D02*
X178388540Y-81461981D01*
X178388540Y-81461981D02*
X178340921Y-81366743D01*
X178340921Y-81366743D02*
X178340921Y-81081029D01*
X178340921Y-81081029D02*
X178388540Y-80985791D01*
X178388540Y-80985791D02*
X178436159Y-80938172D01*
X178436159Y-80938172D02*
X178531397Y-80890553D01*
X178531397Y-80890553D02*
X178721873Y-80890553D01*
X178721873Y-80890553D02*
X178817111Y-80938172D01*
X179674254Y-81509601D02*
X179579016Y-81557220D01*
X179579016Y-81557220D02*
X179388540Y-81557220D01*
X179388540Y-81557220D02*
X179293302Y-81509601D01*
X179293302Y-81509601D02*
X179245683Y-81461981D01*
X179245683Y-81461981D02*
X179198064Y-81366743D01*
X179198064Y-81366743D02*
X179198064Y-81081029D01*
X179198064Y-81081029D02*
X179245683Y-80985791D01*
X179245683Y-80985791D02*
X179293302Y-80938172D01*
X179293302Y-80938172D02*
X179388540Y-80890553D01*
X179388540Y-80890553D02*
X179579016Y-80890553D01*
X179579016Y-80890553D02*
X179674254Y-80938172D01*
X180531397Y-81557220D02*
X180531397Y-80557220D01*
X180531397Y-81509601D02*
X180436159Y-81557220D01*
X180436159Y-81557220D02*
X180245683Y-81557220D01*
X180245683Y-81557220D02*
X180150445Y-81509601D01*
X180150445Y-81509601D02*
X180102826Y-81461981D01*
X180102826Y-81461981D02*
X180055207Y-81366743D01*
X180055207Y-81366743D02*
X180055207Y-81081029D01*
X180055207Y-81081029D02*
X180102826Y-80985791D01*
X180102826Y-80985791D02*
X180150445Y-80938172D01*
X180150445Y-80938172D02*
X180245683Y-80890553D01*
X180245683Y-80890553D02*
X180436159Y-80890553D01*
X180436159Y-80890553D02*
X180531397Y-80938172D01*
X180959969Y-80652458D02*
X181007588Y-80604839D01*
X181007588Y-80604839D02*
X181102826Y-80557220D01*
X181102826Y-80557220D02*
X181340921Y-80557220D01*
X181340921Y-80557220D02*
X181436159Y-80604839D01*
X181436159Y-80604839D02*
X181483778Y-80652458D01*
X181483778Y-80652458D02*
X181531397Y-80747696D01*
X181531397Y-80747696D02*
X181531397Y-80842934D01*
X181531397Y-80842934D02*
X181483778Y-80985791D01*
X181483778Y-80985791D02*
X180912350Y-81557220D01*
X180912350Y-81557220D02*
X181531397Y-81557220D01*
X113378950Y-127378820D02*
X113378950Y-126378820D01*
X114045616Y-126378820D02*
X114236092Y-126378820D01*
X114236092Y-126378820D02*
X114331330Y-126426439D01*
X114331330Y-126426439D02*
X114426568Y-126521677D01*
X114426568Y-126521677D02*
X114474187Y-126712153D01*
X114474187Y-126712153D02*
X114474187Y-127045486D01*
X114474187Y-127045486D02*
X114426568Y-127235962D01*
X114426568Y-127235962D02*
X114331330Y-127331201D01*
X114331330Y-127331201D02*
X114236092Y-127378820D01*
X114236092Y-127378820D02*
X114045616Y-127378820D01*
X114045616Y-127378820D02*
X113950378Y-127331201D01*
X113950378Y-127331201D02*
X113855140Y-127235962D01*
X113855140Y-127235962D02*
X113807521Y-127045486D01*
X113807521Y-127045486D02*
X113807521Y-126712153D01*
X113807521Y-126712153D02*
X113855140Y-126521677D01*
X113855140Y-126521677D02*
X113950378Y-126426439D01*
X113950378Y-126426439D02*
X114045616Y-126378820D01*
X115188473Y-127712153D02*
X114950378Y-127712153D01*
X114950378Y-127712153D02*
X114950378Y-126283581D01*
X114950378Y-126283581D02*
X115188473Y-126283581D01*
X116093235Y-127378820D02*
X115521807Y-127378820D01*
X115807521Y-127378820D02*
X115807521Y-126378820D01*
X115807521Y-126378820D02*
X115712283Y-126521677D01*
X115712283Y-126521677D02*
X115617045Y-126616915D01*
X115617045Y-126616915D02*
X115521807Y-126664534D01*
X116997997Y-126378820D02*
X116521807Y-126378820D01*
X116521807Y-126378820D02*
X116474188Y-126855010D01*
X116474188Y-126855010D02*
X116521807Y-126807391D01*
X116521807Y-126807391D02*
X116617045Y-126759772D01*
X116617045Y-126759772D02*
X116855140Y-126759772D01*
X116855140Y-126759772D02*
X116950378Y-126807391D01*
X116950378Y-126807391D02*
X116997997Y-126855010D01*
X116997997Y-126855010D02*
X117045616Y-126950248D01*
X117045616Y-126950248D02*
X117045616Y-127188343D01*
X117045616Y-127188343D02*
X116997997Y-127283581D01*
X116997997Y-127283581D02*
X116950378Y-127331201D01*
X116950378Y-127331201D02*
X116855140Y-127378820D01*
X116855140Y-127378820D02*
X116617045Y-127378820D01*
X116617045Y-127378820D02*
X116521807Y-127331201D01*
X116521807Y-127331201D02*
X116474188Y-127283581D01*
X117378950Y-127712153D02*
X117617045Y-127712153D01*
X117617045Y-127712153D02*
X117617045Y-126283581D01*
X117617045Y-126283581D02*
X117378950Y-126283581D01*
X178680664Y-86611820D02*
X179204473Y-85945153D01*
X178680664Y-85945153D02*
X179204473Y-86611820D01*
X180013997Y-86564201D02*
X179918759Y-86611820D01*
X179918759Y-86611820D02*
X179728283Y-86611820D01*
X179728283Y-86611820D02*
X179633045Y-86564201D01*
X179633045Y-86564201D02*
X179585426Y-86516581D01*
X179585426Y-86516581D02*
X179537807Y-86421343D01*
X179537807Y-86421343D02*
X179537807Y-86135629D01*
X179537807Y-86135629D02*
X179585426Y-86040391D01*
X179585426Y-86040391D02*
X179633045Y-85992772D01*
X179633045Y-85992772D02*
X179728283Y-85945153D01*
X179728283Y-85945153D02*
X179918759Y-85945153D01*
X179918759Y-85945153D02*
X180013997Y-85992772D01*
X180585426Y-86611820D02*
X180490188Y-86564201D01*
X180490188Y-86564201D02*
X180442569Y-86468962D01*
X180442569Y-86468962D02*
X180442569Y-85611820D01*
X180966379Y-86611820D02*
X180966379Y-85611820D01*
X181061617Y-86230867D02*
X181347331Y-86611820D01*
X181347331Y-85945153D02*
X180966379Y-86326105D01*
X177209150Y-129969620D02*
X177209150Y-128969620D01*
X177875816Y-128969620D02*
X178066292Y-128969620D01*
X178066292Y-128969620D02*
X178161530Y-129017239D01*
X178161530Y-129017239D02*
X178256768Y-129112477D01*
X178256768Y-129112477D02*
X178304387Y-129302953D01*
X178304387Y-129302953D02*
X178304387Y-129636286D01*
X178304387Y-129636286D02*
X178256768Y-129826762D01*
X178256768Y-129826762D02*
X178161530Y-129922001D01*
X178161530Y-129922001D02*
X178066292Y-129969620D01*
X178066292Y-129969620D02*
X177875816Y-129969620D01*
X177875816Y-129969620D02*
X177780578Y-129922001D01*
X177780578Y-129922001D02*
X177685340Y-129826762D01*
X177685340Y-129826762D02*
X177637721Y-129636286D01*
X177637721Y-129636286D02*
X177637721Y-129302953D01*
X177637721Y-129302953D02*
X177685340Y-129112477D01*
X177685340Y-129112477D02*
X177780578Y-129017239D01*
X177780578Y-129017239D02*
X177875816Y-128969620D01*
X179018673Y-130302953D02*
X178780578Y-130302953D01*
X178780578Y-130302953D02*
X178780578Y-128874381D01*
X178780578Y-128874381D02*
X179018673Y-128874381D01*
X179923435Y-129969620D02*
X179352007Y-129969620D01*
X179637721Y-129969620D02*
X179637721Y-128969620D01*
X179637721Y-128969620D02*
X179542483Y-129112477D01*
X179542483Y-129112477D02*
X179447245Y-129207715D01*
X179447245Y-129207715D02*
X179352007Y-129255334D01*
X180256769Y-128969620D02*
X180875816Y-128969620D01*
X180875816Y-128969620D02*
X180542483Y-129350572D01*
X180542483Y-129350572D02*
X180685340Y-129350572D01*
X180685340Y-129350572D02*
X180780578Y-129398191D01*
X180780578Y-129398191D02*
X180828197Y-129445810D01*
X180828197Y-129445810D02*
X180875816Y-129541048D01*
X180875816Y-129541048D02*
X180875816Y-129779143D01*
X180875816Y-129779143D02*
X180828197Y-129874381D01*
X180828197Y-129874381D02*
X180780578Y-129922001D01*
X180780578Y-129922001D02*
X180685340Y-129969620D01*
X180685340Y-129969620D02*
X180399626Y-129969620D01*
X180399626Y-129969620D02*
X180304388Y-129922001D01*
X180304388Y-129922001D02*
X180256769Y-129874381D01*
X181209150Y-130302953D02*
X181447245Y-130302953D01*
X181447245Y-130302953D02*
X181447245Y-128874381D01*
X181447245Y-128874381D02*
X181209150Y-128874381D01*
X179326702Y-88250239D02*
X179231464Y-88202620D01*
X179231464Y-88202620D02*
X179088607Y-88202620D01*
X179088607Y-88202620D02*
X178945750Y-88250239D01*
X178945750Y-88250239D02*
X178850512Y-88345477D01*
X178850512Y-88345477D02*
X178802893Y-88440715D01*
X178802893Y-88440715D02*
X178755274Y-88631191D01*
X178755274Y-88631191D02*
X178755274Y-88774048D01*
X178755274Y-88774048D02*
X178802893Y-88964524D01*
X178802893Y-88964524D02*
X178850512Y-89059762D01*
X178850512Y-89059762D02*
X178945750Y-89155001D01*
X178945750Y-89155001D02*
X179088607Y-89202620D01*
X179088607Y-89202620D02*
X179183845Y-89202620D01*
X179183845Y-89202620D02*
X179326702Y-89155001D01*
X179326702Y-89155001D02*
X179374321Y-89107381D01*
X179374321Y-89107381D02*
X179374321Y-88774048D01*
X179374321Y-88774048D02*
X179183845Y-88774048D01*
X179802893Y-89202620D02*
X179802893Y-88202620D01*
X179802893Y-88202620D02*
X180374321Y-89202620D01*
X180374321Y-89202620D02*
X180374321Y-88202620D01*
X180850512Y-89202620D02*
X180850512Y-88202620D01*
X180850512Y-88202620D02*
X181088607Y-88202620D01*
X181088607Y-88202620D02*
X181231464Y-88250239D01*
X181231464Y-88250239D02*
X181326702Y-88345477D01*
X181326702Y-88345477D02*
X181374321Y-88440715D01*
X181374321Y-88440715D02*
X181421940Y-88631191D01*
X181421940Y-88631191D02*
X181421940Y-88774048D01*
X181421940Y-88774048D02*
X181374321Y-88964524D01*
X181374321Y-88964524D02*
X181326702Y-89059762D01*
X181326702Y-89059762D02*
X181231464Y-89155001D01*
X181231464Y-89155001D02*
X181088607Y-89202620D01*
X181088607Y-89202620D02*
X180850512Y-89202620D01*
X113378950Y-117218820D02*
X113378950Y-116218820D01*
X114045616Y-116218820D02*
X114236092Y-116218820D01*
X114236092Y-116218820D02*
X114331330Y-116266439D01*
X114331330Y-116266439D02*
X114426568Y-116361677D01*
X114426568Y-116361677D02*
X114474187Y-116552153D01*
X114474187Y-116552153D02*
X114474187Y-116885486D01*
X114474187Y-116885486D02*
X114426568Y-117075962D01*
X114426568Y-117075962D02*
X114331330Y-117171201D01*
X114331330Y-117171201D02*
X114236092Y-117218820D01*
X114236092Y-117218820D02*
X114045616Y-117218820D01*
X114045616Y-117218820D02*
X113950378Y-117171201D01*
X113950378Y-117171201D02*
X113855140Y-117075962D01*
X113855140Y-117075962D02*
X113807521Y-116885486D01*
X113807521Y-116885486D02*
X113807521Y-116552153D01*
X113807521Y-116552153D02*
X113855140Y-116361677D01*
X113855140Y-116361677D02*
X113950378Y-116266439D01*
X113950378Y-116266439D02*
X114045616Y-116218820D01*
X115188473Y-117552153D02*
X114950378Y-117552153D01*
X114950378Y-117552153D02*
X114950378Y-116123581D01*
X114950378Y-116123581D02*
X115188473Y-116123581D01*
X116093235Y-117218820D02*
X115521807Y-117218820D01*
X115807521Y-117218820D02*
X115807521Y-116218820D01*
X115807521Y-116218820D02*
X115712283Y-116361677D01*
X115712283Y-116361677D02*
X115617045Y-116456915D01*
X115617045Y-116456915D02*
X115521807Y-116504534D01*
X116569426Y-117218820D02*
X116759902Y-117218820D01*
X116759902Y-117218820D02*
X116855140Y-117171201D01*
X116855140Y-117171201D02*
X116902759Y-117123581D01*
X116902759Y-117123581D02*
X116997997Y-116980724D01*
X116997997Y-116980724D02*
X117045616Y-116790248D01*
X117045616Y-116790248D02*
X117045616Y-116409296D01*
X117045616Y-116409296D02*
X116997997Y-116314058D01*
X116997997Y-116314058D02*
X116950378Y-116266439D01*
X116950378Y-116266439D02*
X116855140Y-116218820D01*
X116855140Y-116218820D02*
X116664664Y-116218820D01*
X116664664Y-116218820D02*
X116569426Y-116266439D01*
X116569426Y-116266439D02*
X116521807Y-116314058D01*
X116521807Y-116314058D02*
X116474188Y-116409296D01*
X116474188Y-116409296D02*
X116474188Y-116647391D01*
X116474188Y-116647391D02*
X116521807Y-116742629D01*
X116521807Y-116742629D02*
X116569426Y-116790248D01*
X116569426Y-116790248D02*
X116664664Y-116837867D01*
X116664664Y-116837867D02*
X116855140Y-116837867D01*
X116855140Y-116837867D02*
X116950378Y-116790248D01*
X116950378Y-116790248D02*
X116997997Y-116742629D01*
X116997997Y-116742629D02*
X117045616Y-116647391D01*
X117378950Y-117552153D02*
X117617045Y-117552153D01*
X117617045Y-117552153D02*
X117617045Y-116123581D01*
X117617045Y-116123581D02*
X117378950Y-116123581D01*
X177259950Y-124889620D02*
X177259950Y-123889620D01*
X177926616Y-123889620D02*
X178117092Y-123889620D01*
X178117092Y-123889620D02*
X178212330Y-123937239D01*
X178212330Y-123937239D02*
X178307568Y-124032477D01*
X178307568Y-124032477D02*
X178355187Y-124222953D01*
X178355187Y-124222953D02*
X178355187Y-124556286D01*
X178355187Y-124556286D02*
X178307568Y-124746762D01*
X178307568Y-124746762D02*
X178212330Y-124842001D01*
X178212330Y-124842001D02*
X178117092Y-124889620D01*
X178117092Y-124889620D02*
X177926616Y-124889620D01*
X177926616Y-124889620D02*
X177831378Y-124842001D01*
X177831378Y-124842001D02*
X177736140Y-124746762D01*
X177736140Y-124746762D02*
X177688521Y-124556286D01*
X177688521Y-124556286D02*
X177688521Y-124222953D01*
X177688521Y-124222953D02*
X177736140Y-124032477D01*
X177736140Y-124032477D02*
X177831378Y-123937239D01*
X177831378Y-123937239D02*
X177926616Y-123889620D01*
X179069473Y-125222953D02*
X178831378Y-125222953D01*
X178831378Y-125222953D02*
X178831378Y-123794381D01*
X178831378Y-123794381D02*
X179069473Y-123794381D01*
X179974235Y-124889620D02*
X179402807Y-124889620D01*
X179688521Y-124889620D02*
X179688521Y-123889620D01*
X179688521Y-123889620D02*
X179593283Y-124032477D01*
X179593283Y-124032477D02*
X179498045Y-124127715D01*
X179498045Y-124127715D02*
X179402807Y-124175334D01*
X180926616Y-124889620D02*
X180355188Y-124889620D01*
X180640902Y-124889620D02*
X180640902Y-123889620D01*
X180640902Y-123889620D02*
X180545664Y-124032477D01*
X180545664Y-124032477D02*
X180450426Y-124127715D01*
X180450426Y-124127715D02*
X180355188Y-124175334D01*
X181259950Y-125222953D02*
X181498045Y-125222953D01*
X181498045Y-125222953D02*
X181498045Y-123794381D01*
X181498045Y-123794381D02*
X181259950Y-123794381D01*
X178117140Y-104620420D02*
X178117140Y-103620420D01*
X178783806Y-103620420D02*
X178974282Y-103620420D01*
X178974282Y-103620420D02*
X179069520Y-103668039D01*
X179069520Y-103668039D02*
X179164758Y-103763277D01*
X179164758Y-103763277D02*
X179212377Y-103953753D01*
X179212377Y-103953753D02*
X179212377Y-104287086D01*
X179212377Y-104287086D02*
X179164758Y-104477562D01*
X179164758Y-104477562D02*
X179069520Y-104572801D01*
X179069520Y-104572801D02*
X178974282Y-104620420D01*
X178974282Y-104620420D02*
X178783806Y-104620420D01*
X178783806Y-104620420D02*
X178688568Y-104572801D01*
X178688568Y-104572801D02*
X178593330Y-104477562D01*
X178593330Y-104477562D02*
X178545711Y-104287086D01*
X178545711Y-104287086D02*
X178545711Y-103953753D01*
X178545711Y-103953753D02*
X178593330Y-103763277D01*
X178593330Y-103763277D02*
X178688568Y-103668039D01*
X178688568Y-103668039D02*
X178783806Y-103620420D01*
X179926663Y-104953753D02*
X179688568Y-104953753D01*
X179688568Y-104953753D02*
X179688568Y-103525181D01*
X179688568Y-103525181D02*
X179926663Y-103525181D01*
X180212378Y-103620420D02*
X180831425Y-103620420D01*
X180831425Y-103620420D02*
X180498092Y-104001372D01*
X180498092Y-104001372D02*
X180640949Y-104001372D01*
X180640949Y-104001372D02*
X180736187Y-104048991D01*
X180736187Y-104048991D02*
X180783806Y-104096610D01*
X180783806Y-104096610D02*
X180831425Y-104191848D01*
X180831425Y-104191848D02*
X180831425Y-104429943D01*
X180831425Y-104429943D02*
X180783806Y-104525181D01*
X180783806Y-104525181D02*
X180736187Y-104572801D01*
X180736187Y-104572801D02*
X180640949Y-104620420D01*
X180640949Y-104620420D02*
X180355235Y-104620420D01*
X180355235Y-104620420D02*
X180259997Y-104572801D01*
X180259997Y-104572801D02*
X180212378Y-104525181D01*
X181164759Y-104953753D02*
X181402854Y-104953753D01*
X181402854Y-104953753D02*
X181402854Y-103525181D01*
X181402854Y-103525181D02*
X181164759Y-103525181D01*
X113378950Y-112138820D02*
X113378950Y-111138820D01*
X114045616Y-111138820D02*
X114236092Y-111138820D01*
X114236092Y-111138820D02*
X114331330Y-111186439D01*
X114331330Y-111186439D02*
X114426568Y-111281677D01*
X114426568Y-111281677D02*
X114474187Y-111472153D01*
X114474187Y-111472153D02*
X114474187Y-111805486D01*
X114474187Y-111805486D02*
X114426568Y-111995962D01*
X114426568Y-111995962D02*
X114331330Y-112091201D01*
X114331330Y-112091201D02*
X114236092Y-112138820D01*
X114236092Y-112138820D02*
X114045616Y-112138820D01*
X114045616Y-112138820D02*
X113950378Y-112091201D01*
X113950378Y-112091201D02*
X113855140Y-111995962D01*
X113855140Y-111995962D02*
X113807521Y-111805486D01*
X113807521Y-111805486D02*
X113807521Y-111472153D01*
X113807521Y-111472153D02*
X113855140Y-111281677D01*
X113855140Y-111281677D02*
X113950378Y-111186439D01*
X113950378Y-111186439D02*
X114045616Y-111138820D01*
X115188473Y-112472153D02*
X114950378Y-112472153D01*
X114950378Y-112472153D02*
X114950378Y-111043581D01*
X114950378Y-111043581D02*
X115188473Y-111043581D01*
X115521807Y-111234058D02*
X115569426Y-111186439D01*
X115569426Y-111186439D02*
X115664664Y-111138820D01*
X115664664Y-111138820D02*
X115902759Y-111138820D01*
X115902759Y-111138820D02*
X115997997Y-111186439D01*
X115997997Y-111186439D02*
X116045616Y-111234058D01*
X116045616Y-111234058D02*
X116093235Y-111329296D01*
X116093235Y-111329296D02*
X116093235Y-111424534D01*
X116093235Y-111424534D02*
X116045616Y-111567391D01*
X116045616Y-111567391D02*
X115474188Y-112138820D01*
X115474188Y-112138820D02*
X116093235Y-112138820D01*
X117045616Y-112138820D02*
X116474188Y-112138820D01*
X116759902Y-112138820D02*
X116759902Y-111138820D01*
X116759902Y-111138820D02*
X116664664Y-111281677D01*
X116664664Y-111281677D02*
X116569426Y-111376915D01*
X116569426Y-111376915D02*
X116474188Y-111424534D01*
X117378950Y-112472153D02*
X117617045Y-112472153D01*
X117617045Y-112472153D02*
X117617045Y-111043581D01*
X117617045Y-111043581D02*
X117378950Y-111043581D01*
X180353045Y-64033505D02*
X180305426Y-64128743D01*
X180305426Y-64128743D02*
X180305426Y-64271600D01*
X180305426Y-64271600D02*
X180353045Y-64414457D01*
X180353045Y-64414457D02*
X180448283Y-64509695D01*
X180448283Y-64509695D02*
X180543521Y-64557314D01*
X180543521Y-64557314D02*
X180733997Y-64604933D01*
X180733997Y-64604933D02*
X180876854Y-64604933D01*
X180876854Y-64604933D02*
X181067330Y-64557314D01*
X181067330Y-64557314D02*
X181162568Y-64509695D01*
X181162568Y-64509695D02*
X181257807Y-64414457D01*
X181257807Y-64414457D02*
X181305426Y-64271600D01*
X181305426Y-64271600D02*
X181305426Y-64176362D01*
X181305426Y-64176362D02*
X181257807Y-64033505D01*
X181257807Y-64033505D02*
X181210187Y-63985886D01*
X181210187Y-63985886D02*
X180876854Y-63985886D01*
X180876854Y-63985886D02*
X180876854Y-64176362D01*
X181305426Y-63557314D02*
X180305426Y-63557314D01*
X180305426Y-63557314D02*
X181305426Y-62985886D01*
X181305426Y-62985886D02*
X180305426Y-62985886D01*
X181305426Y-62509695D02*
X180305426Y-62509695D01*
X180305426Y-62509695D02*
X180305426Y-62271600D01*
X180305426Y-62271600D02*
X180353045Y-62128743D01*
X180353045Y-62128743D02*
X180448283Y-62033505D01*
X180448283Y-62033505D02*
X180543521Y-61985886D01*
X180543521Y-61985886D02*
X180733997Y-61938267D01*
X180733997Y-61938267D02*
X180876854Y-61938267D01*
X180876854Y-61938267D02*
X181067330Y-61985886D01*
X181067330Y-61985886D02*
X181162568Y-62033505D01*
X181162568Y-62033505D02*
X181257807Y-62128743D01*
X181257807Y-62128743D02*
X181305426Y-62271600D01*
X181305426Y-62271600D02*
X181305426Y-62509695D01*
X113353550Y-86891220D02*
X113353550Y-85891220D01*
X114020216Y-85891220D02*
X114210692Y-85891220D01*
X114210692Y-85891220D02*
X114305930Y-85938839D01*
X114305930Y-85938839D02*
X114401168Y-86034077D01*
X114401168Y-86034077D02*
X114448787Y-86224553D01*
X114448787Y-86224553D02*
X114448787Y-86557886D01*
X114448787Y-86557886D02*
X114401168Y-86748362D01*
X114401168Y-86748362D02*
X114305930Y-86843601D01*
X114305930Y-86843601D02*
X114210692Y-86891220D01*
X114210692Y-86891220D02*
X114020216Y-86891220D01*
X114020216Y-86891220D02*
X113924978Y-86843601D01*
X113924978Y-86843601D02*
X113829740Y-86748362D01*
X113829740Y-86748362D02*
X113782121Y-86557886D01*
X113782121Y-86557886D02*
X113782121Y-86224553D01*
X113782121Y-86224553D02*
X113829740Y-86034077D01*
X113829740Y-86034077D02*
X113924978Y-85938839D01*
X113924978Y-85938839D02*
X114020216Y-85891220D01*
X115163073Y-87224553D02*
X114924978Y-87224553D01*
X114924978Y-87224553D02*
X114924978Y-85795981D01*
X114924978Y-85795981D02*
X115163073Y-85795981D01*
X115448788Y-85891220D02*
X116067835Y-85891220D01*
X116067835Y-85891220D02*
X115734502Y-86272172D01*
X115734502Y-86272172D02*
X115877359Y-86272172D01*
X115877359Y-86272172D02*
X115972597Y-86319791D01*
X115972597Y-86319791D02*
X116020216Y-86367410D01*
X116020216Y-86367410D02*
X116067835Y-86462648D01*
X116067835Y-86462648D02*
X116067835Y-86700743D01*
X116067835Y-86700743D02*
X116020216Y-86795981D01*
X116020216Y-86795981D02*
X115972597Y-86843601D01*
X115972597Y-86843601D02*
X115877359Y-86891220D01*
X115877359Y-86891220D02*
X115591645Y-86891220D01*
X115591645Y-86891220D02*
X115496407Y-86843601D01*
X115496407Y-86843601D02*
X115448788Y-86795981D01*
X117020216Y-86891220D02*
X116448788Y-86891220D01*
X116734502Y-86891220D02*
X116734502Y-85891220D01*
X116734502Y-85891220D02*
X116639264Y-86034077D01*
X116639264Y-86034077D02*
X116544026Y-86129315D01*
X116544026Y-86129315D02*
X116448788Y-86176934D01*
X117353550Y-87224553D02*
X117591645Y-87224553D01*
X117591645Y-87224553D02*
X117591645Y-85795981D01*
X117591645Y-85795981D02*
X117353550Y-85795981D01*
X113378950Y-114678820D02*
X113378950Y-113678820D01*
X114045616Y-113678820D02*
X114236092Y-113678820D01*
X114236092Y-113678820D02*
X114331330Y-113726439D01*
X114331330Y-113726439D02*
X114426568Y-113821677D01*
X114426568Y-113821677D02*
X114474187Y-114012153D01*
X114474187Y-114012153D02*
X114474187Y-114345486D01*
X114474187Y-114345486D02*
X114426568Y-114535962D01*
X114426568Y-114535962D02*
X114331330Y-114631201D01*
X114331330Y-114631201D02*
X114236092Y-114678820D01*
X114236092Y-114678820D02*
X114045616Y-114678820D01*
X114045616Y-114678820D02*
X113950378Y-114631201D01*
X113950378Y-114631201D02*
X113855140Y-114535962D01*
X113855140Y-114535962D02*
X113807521Y-114345486D01*
X113807521Y-114345486D02*
X113807521Y-114012153D01*
X113807521Y-114012153D02*
X113855140Y-113821677D01*
X113855140Y-113821677D02*
X113950378Y-113726439D01*
X113950378Y-113726439D02*
X114045616Y-113678820D01*
X115188473Y-115012153D02*
X114950378Y-115012153D01*
X114950378Y-115012153D02*
X114950378Y-113583581D01*
X114950378Y-113583581D02*
X115188473Y-113583581D01*
X115521807Y-113774058D02*
X115569426Y-113726439D01*
X115569426Y-113726439D02*
X115664664Y-113678820D01*
X115664664Y-113678820D02*
X115902759Y-113678820D01*
X115902759Y-113678820D02*
X115997997Y-113726439D01*
X115997997Y-113726439D02*
X116045616Y-113774058D01*
X116045616Y-113774058D02*
X116093235Y-113869296D01*
X116093235Y-113869296D02*
X116093235Y-113964534D01*
X116093235Y-113964534D02*
X116045616Y-114107391D01*
X116045616Y-114107391D02*
X115474188Y-114678820D01*
X115474188Y-114678820D02*
X116093235Y-114678820D01*
X116712283Y-113678820D02*
X116807521Y-113678820D01*
X116807521Y-113678820D02*
X116902759Y-113726439D01*
X116902759Y-113726439D02*
X116950378Y-113774058D01*
X116950378Y-113774058D02*
X116997997Y-113869296D01*
X116997997Y-113869296D02*
X117045616Y-114059772D01*
X117045616Y-114059772D02*
X117045616Y-114297867D01*
X117045616Y-114297867D02*
X116997997Y-114488343D01*
X116997997Y-114488343D02*
X116950378Y-114583581D01*
X116950378Y-114583581D02*
X116902759Y-114631201D01*
X116902759Y-114631201D02*
X116807521Y-114678820D01*
X116807521Y-114678820D02*
X116712283Y-114678820D01*
X116712283Y-114678820D02*
X116617045Y-114631201D01*
X116617045Y-114631201D02*
X116569426Y-114583581D01*
X116569426Y-114583581D02*
X116521807Y-114488343D01*
X116521807Y-114488343D02*
X116474188Y-114297867D01*
X116474188Y-114297867D02*
X116474188Y-114059772D01*
X116474188Y-114059772D02*
X116521807Y-113869296D01*
X116521807Y-113869296D02*
X116569426Y-113774058D01*
X116569426Y-113774058D02*
X116617045Y-113726439D01*
X116617045Y-113726439D02*
X116712283Y-113678820D01*
X117378950Y-115012153D02*
X117617045Y-115012153D01*
X117617045Y-115012153D02*
X117617045Y-113583581D01*
X117617045Y-113583581D02*
X117378950Y-113583581D01*
X178091740Y-102029620D02*
X178091740Y-101029620D01*
X178758406Y-101029620D02*
X178948882Y-101029620D01*
X178948882Y-101029620D02*
X179044120Y-101077239D01*
X179044120Y-101077239D02*
X179139358Y-101172477D01*
X179139358Y-101172477D02*
X179186977Y-101362953D01*
X179186977Y-101362953D02*
X179186977Y-101696286D01*
X179186977Y-101696286D02*
X179139358Y-101886762D01*
X179139358Y-101886762D02*
X179044120Y-101982001D01*
X179044120Y-101982001D02*
X178948882Y-102029620D01*
X178948882Y-102029620D02*
X178758406Y-102029620D01*
X178758406Y-102029620D02*
X178663168Y-101982001D01*
X178663168Y-101982001D02*
X178567930Y-101886762D01*
X178567930Y-101886762D02*
X178520311Y-101696286D01*
X178520311Y-101696286D02*
X178520311Y-101362953D01*
X178520311Y-101362953D02*
X178567930Y-101172477D01*
X178567930Y-101172477D02*
X178663168Y-101077239D01*
X178663168Y-101077239D02*
X178758406Y-101029620D01*
X179901263Y-102362953D02*
X179663168Y-102362953D01*
X179663168Y-102362953D02*
X179663168Y-100934381D01*
X179663168Y-100934381D02*
X179901263Y-100934381D01*
X180234597Y-101124858D02*
X180282216Y-101077239D01*
X180282216Y-101077239D02*
X180377454Y-101029620D01*
X180377454Y-101029620D02*
X180615549Y-101029620D01*
X180615549Y-101029620D02*
X180710787Y-101077239D01*
X180710787Y-101077239D02*
X180758406Y-101124858D01*
X180758406Y-101124858D02*
X180806025Y-101220096D01*
X180806025Y-101220096D02*
X180806025Y-101315334D01*
X180806025Y-101315334D02*
X180758406Y-101458191D01*
X180758406Y-101458191D02*
X180186978Y-102029620D01*
X180186978Y-102029620D02*
X180806025Y-102029620D01*
X181139359Y-102362953D02*
X181377454Y-102362953D01*
X181377454Y-102362953D02*
X181377454Y-100934381D01*
X181377454Y-100934381D02*
X181139359Y-100934381D01*
X178117140Y-99591220D02*
X178117140Y-98591220D01*
X178783806Y-98591220D02*
X178974282Y-98591220D01*
X178974282Y-98591220D02*
X179069520Y-98638839D01*
X179069520Y-98638839D02*
X179164758Y-98734077D01*
X179164758Y-98734077D02*
X179212377Y-98924553D01*
X179212377Y-98924553D02*
X179212377Y-99257886D01*
X179212377Y-99257886D02*
X179164758Y-99448362D01*
X179164758Y-99448362D02*
X179069520Y-99543601D01*
X179069520Y-99543601D02*
X178974282Y-99591220D01*
X178974282Y-99591220D02*
X178783806Y-99591220D01*
X178783806Y-99591220D02*
X178688568Y-99543601D01*
X178688568Y-99543601D02*
X178593330Y-99448362D01*
X178593330Y-99448362D02*
X178545711Y-99257886D01*
X178545711Y-99257886D02*
X178545711Y-98924553D01*
X178545711Y-98924553D02*
X178593330Y-98734077D01*
X178593330Y-98734077D02*
X178688568Y-98638839D01*
X178688568Y-98638839D02*
X178783806Y-98591220D01*
X179926663Y-99924553D02*
X179688568Y-99924553D01*
X179688568Y-99924553D02*
X179688568Y-98495981D01*
X179688568Y-98495981D02*
X179926663Y-98495981D01*
X180831425Y-99591220D02*
X180259997Y-99591220D01*
X180545711Y-99591220D02*
X180545711Y-98591220D01*
X180545711Y-98591220D02*
X180450473Y-98734077D01*
X180450473Y-98734077D02*
X180355235Y-98829315D01*
X180355235Y-98829315D02*
X180259997Y-98876934D01*
X181164759Y-99924553D02*
X181402854Y-99924553D01*
X181402854Y-99924553D02*
X181402854Y-98495981D01*
X181402854Y-98495981D02*
X181164759Y-98495981D01*
X113302750Y-69111220D02*
X113302750Y-68111220D01*
X113969416Y-68111220D02*
X114159892Y-68111220D01*
X114159892Y-68111220D02*
X114255130Y-68158839D01*
X114255130Y-68158839D02*
X114350368Y-68254077D01*
X114350368Y-68254077D02*
X114397987Y-68444553D01*
X114397987Y-68444553D02*
X114397987Y-68777886D01*
X114397987Y-68777886D02*
X114350368Y-68968362D01*
X114350368Y-68968362D02*
X114255130Y-69063601D01*
X114255130Y-69063601D02*
X114159892Y-69111220D01*
X114159892Y-69111220D02*
X113969416Y-69111220D01*
X113969416Y-69111220D02*
X113874178Y-69063601D01*
X113874178Y-69063601D02*
X113778940Y-68968362D01*
X113778940Y-68968362D02*
X113731321Y-68777886D01*
X113731321Y-68777886D02*
X113731321Y-68444553D01*
X113731321Y-68444553D02*
X113778940Y-68254077D01*
X113778940Y-68254077D02*
X113874178Y-68158839D01*
X113874178Y-68158839D02*
X113969416Y-68111220D01*
X115112273Y-69444553D02*
X114874178Y-69444553D01*
X114874178Y-69444553D02*
X114874178Y-68015981D01*
X114874178Y-68015981D02*
X115112273Y-68015981D01*
X115397988Y-68111220D02*
X116017035Y-68111220D01*
X116017035Y-68111220D02*
X115683702Y-68492172D01*
X115683702Y-68492172D02*
X115826559Y-68492172D01*
X115826559Y-68492172D02*
X115921797Y-68539791D01*
X115921797Y-68539791D02*
X115969416Y-68587410D01*
X115969416Y-68587410D02*
X116017035Y-68682648D01*
X116017035Y-68682648D02*
X116017035Y-68920743D01*
X116017035Y-68920743D02*
X115969416Y-69015981D01*
X115969416Y-69015981D02*
X115921797Y-69063601D01*
X115921797Y-69063601D02*
X115826559Y-69111220D01*
X115826559Y-69111220D02*
X115540845Y-69111220D01*
X115540845Y-69111220D02*
X115445607Y-69063601D01*
X115445607Y-69063601D02*
X115397988Y-69015981D01*
X116921797Y-68111220D02*
X116445607Y-68111220D01*
X116445607Y-68111220D02*
X116397988Y-68587410D01*
X116397988Y-68587410D02*
X116445607Y-68539791D01*
X116445607Y-68539791D02*
X116540845Y-68492172D01*
X116540845Y-68492172D02*
X116778940Y-68492172D01*
X116778940Y-68492172D02*
X116874178Y-68539791D01*
X116874178Y-68539791D02*
X116921797Y-68587410D01*
X116921797Y-68587410D02*
X116969416Y-68682648D01*
X116969416Y-68682648D02*
X116969416Y-68920743D01*
X116969416Y-68920743D02*
X116921797Y-69015981D01*
X116921797Y-69015981D02*
X116874178Y-69063601D01*
X116874178Y-69063601D02*
X116778940Y-69111220D01*
X116778940Y-69111220D02*
X116540845Y-69111220D01*
X116540845Y-69111220D02*
X116445607Y-69063601D01*
X116445607Y-69063601D02*
X116397988Y-69015981D01*
X117302750Y-69444553D02*
X117540845Y-69444553D01*
X117540845Y-69444553D02*
X117540845Y-68015981D01*
X117540845Y-68015981D02*
X117302750Y-68015981D01*
X179109235Y-83379753D02*
X179109235Y-84189277D01*
X179109235Y-84189277D02*
X179061616Y-84284515D01*
X179061616Y-84284515D02*
X179013997Y-84332134D01*
X179013997Y-84332134D02*
X178918759Y-84379753D01*
X178918759Y-84379753D02*
X178775902Y-84379753D01*
X178775902Y-84379753D02*
X178680664Y-84332134D01*
X179109235Y-83998801D02*
X179013997Y-84046420D01*
X179013997Y-84046420D02*
X178823521Y-84046420D01*
X178823521Y-84046420D02*
X178728283Y-83998801D01*
X178728283Y-83998801D02*
X178680664Y-83951181D01*
X178680664Y-83951181D02*
X178633045Y-83855943D01*
X178633045Y-83855943D02*
X178633045Y-83570229D01*
X178633045Y-83570229D02*
X178680664Y-83474991D01*
X178680664Y-83474991D02*
X178728283Y-83427372D01*
X178728283Y-83427372D02*
X178823521Y-83379753D01*
X178823521Y-83379753D02*
X179013997Y-83379753D01*
X179013997Y-83379753D02*
X179109235Y-83427372D01*
X179585426Y-83379753D02*
X179585426Y-84379753D01*
X179585426Y-83427372D02*
X179680664Y-83379753D01*
X179680664Y-83379753D02*
X179871140Y-83379753D01*
X179871140Y-83379753D02*
X179966378Y-83427372D01*
X179966378Y-83427372D02*
X180013997Y-83474991D01*
X180013997Y-83474991D02*
X180061616Y-83570229D01*
X180061616Y-83570229D02*
X180061616Y-83855943D01*
X180061616Y-83855943D02*
X180013997Y-83951181D01*
X180013997Y-83951181D02*
X179966378Y-83998801D01*
X179966378Y-83998801D02*
X179871140Y-84046420D01*
X179871140Y-84046420D02*
X179680664Y-84046420D01*
X179680664Y-84046420D02*
X179585426Y-83998801D01*
X180490188Y-84046420D02*
X180490188Y-83379753D01*
X180490188Y-83046420D02*
X180442569Y-83094039D01*
X180442569Y-83094039D02*
X180490188Y-83141658D01*
X180490188Y-83141658D02*
X180537807Y-83094039D01*
X180537807Y-83094039D02*
X180490188Y-83046420D01*
X180490188Y-83046420D02*
X180490188Y-83141658D01*
X181109235Y-84046420D02*
X181013997Y-83998801D01*
X181013997Y-83998801D02*
X180966378Y-83951181D01*
X180966378Y-83951181D02*
X180918759Y-83855943D01*
X180918759Y-83855943D02*
X180918759Y-83570229D01*
X180918759Y-83570229D02*
X180966378Y-83474991D01*
X180966378Y-83474991D02*
X181013997Y-83427372D01*
X181013997Y-83427372D02*
X181109235Y-83379753D01*
X181109235Y-83379753D02*
X181252092Y-83379753D01*
X181252092Y-83379753D02*
X181347330Y-83427372D01*
X181347330Y-83427372D02*
X181394949Y-83474991D01*
X181394949Y-83474991D02*
X181442568Y-83570229D01*
X181442568Y-83570229D02*
X181442568Y-83855943D01*
X181442568Y-83855943D02*
X181394949Y-83951181D01*
X181394949Y-83951181D02*
X181347330Y-83998801D01*
X181347330Y-83998801D02*
X181252092Y-84046420D01*
X181252092Y-84046420D02*
X181109235Y-84046420D01*
X113353550Y-97102020D02*
X113353550Y-96102020D01*
X114020216Y-96102020D02*
X114210692Y-96102020D01*
X114210692Y-96102020D02*
X114305930Y-96149639D01*
X114305930Y-96149639D02*
X114401168Y-96244877D01*
X114401168Y-96244877D02*
X114448787Y-96435353D01*
X114448787Y-96435353D02*
X114448787Y-96768686D01*
X114448787Y-96768686D02*
X114401168Y-96959162D01*
X114401168Y-96959162D02*
X114305930Y-97054401D01*
X114305930Y-97054401D02*
X114210692Y-97102020D01*
X114210692Y-97102020D02*
X114020216Y-97102020D01*
X114020216Y-97102020D02*
X113924978Y-97054401D01*
X113924978Y-97054401D02*
X113829740Y-96959162D01*
X113829740Y-96959162D02*
X113782121Y-96768686D01*
X113782121Y-96768686D02*
X113782121Y-96435353D01*
X113782121Y-96435353D02*
X113829740Y-96244877D01*
X113829740Y-96244877D02*
X113924978Y-96149639D01*
X113924978Y-96149639D02*
X114020216Y-96102020D01*
X115163073Y-97435353D02*
X114924978Y-97435353D01*
X114924978Y-97435353D02*
X114924978Y-96006781D01*
X114924978Y-96006781D02*
X115163073Y-96006781D01*
X115496407Y-96197258D02*
X115544026Y-96149639D01*
X115544026Y-96149639D02*
X115639264Y-96102020D01*
X115639264Y-96102020D02*
X115877359Y-96102020D01*
X115877359Y-96102020D02*
X115972597Y-96149639D01*
X115972597Y-96149639D02*
X116020216Y-96197258D01*
X116020216Y-96197258D02*
X116067835Y-96292496D01*
X116067835Y-96292496D02*
X116067835Y-96387734D01*
X116067835Y-96387734D02*
X116020216Y-96530591D01*
X116020216Y-96530591D02*
X115448788Y-97102020D01*
X115448788Y-97102020D02*
X116067835Y-97102020D01*
X116401169Y-96102020D02*
X117067835Y-96102020D01*
X117067835Y-96102020D02*
X116639264Y-97102020D01*
X117353550Y-97435353D02*
X117591645Y-97435353D01*
X117591645Y-97435353D02*
X117591645Y-96006781D01*
X117591645Y-96006781D02*
X117353550Y-96006781D01*
X113820102Y-75778839D02*
X113724864Y-75731220D01*
X113724864Y-75731220D02*
X113582007Y-75731220D01*
X113582007Y-75731220D02*
X113439150Y-75778839D01*
X113439150Y-75778839D02*
X113343912Y-75874077D01*
X113343912Y-75874077D02*
X113296293Y-75969315D01*
X113296293Y-75969315D02*
X113248674Y-76159791D01*
X113248674Y-76159791D02*
X113248674Y-76302648D01*
X113248674Y-76302648D02*
X113296293Y-76493124D01*
X113296293Y-76493124D02*
X113343912Y-76588362D01*
X113343912Y-76588362D02*
X113439150Y-76683601D01*
X113439150Y-76683601D02*
X113582007Y-76731220D01*
X113582007Y-76731220D02*
X113677245Y-76731220D01*
X113677245Y-76731220D02*
X113820102Y-76683601D01*
X113820102Y-76683601D02*
X113867721Y-76635981D01*
X113867721Y-76635981D02*
X113867721Y-76302648D01*
X113867721Y-76302648D02*
X113677245Y-76302648D01*
X114296293Y-76731220D02*
X114296293Y-75731220D01*
X114296293Y-75731220D02*
X114867721Y-76731220D01*
X114867721Y-76731220D02*
X114867721Y-75731220D01*
X115343912Y-76731220D02*
X115343912Y-75731220D01*
X115343912Y-75731220D02*
X115582007Y-75731220D01*
X115582007Y-75731220D02*
X115724864Y-75778839D01*
X115724864Y-75778839D02*
X115820102Y-75874077D01*
X115820102Y-75874077D02*
X115867721Y-75969315D01*
X115867721Y-75969315D02*
X115915340Y-76159791D01*
X115915340Y-76159791D02*
X115915340Y-76302648D01*
X115915340Y-76302648D02*
X115867721Y-76493124D01*
X115867721Y-76493124D02*
X115820102Y-76588362D01*
X115820102Y-76588362D02*
X115724864Y-76683601D01*
X115724864Y-76683601D02*
X115582007Y-76731220D01*
X115582007Y-76731220D02*
X115343912Y-76731220D01*
X178091740Y-109649620D02*
X178091740Y-108649620D01*
X178758406Y-108649620D02*
X178948882Y-108649620D01*
X178948882Y-108649620D02*
X179044120Y-108697239D01*
X179044120Y-108697239D02*
X179139358Y-108792477D01*
X179139358Y-108792477D02*
X179186977Y-108982953D01*
X179186977Y-108982953D02*
X179186977Y-109316286D01*
X179186977Y-109316286D02*
X179139358Y-109506762D01*
X179139358Y-109506762D02*
X179044120Y-109602001D01*
X179044120Y-109602001D02*
X178948882Y-109649620D01*
X178948882Y-109649620D02*
X178758406Y-109649620D01*
X178758406Y-109649620D02*
X178663168Y-109602001D01*
X178663168Y-109602001D02*
X178567930Y-109506762D01*
X178567930Y-109506762D02*
X178520311Y-109316286D01*
X178520311Y-109316286D02*
X178520311Y-108982953D01*
X178520311Y-108982953D02*
X178567930Y-108792477D01*
X178567930Y-108792477D02*
X178663168Y-108697239D01*
X178663168Y-108697239D02*
X178758406Y-108649620D01*
X179901263Y-109982953D02*
X179663168Y-109982953D01*
X179663168Y-109982953D02*
X179663168Y-108554381D01*
X179663168Y-108554381D02*
X179901263Y-108554381D01*
X180758406Y-108649620D02*
X180282216Y-108649620D01*
X180282216Y-108649620D02*
X180234597Y-109125810D01*
X180234597Y-109125810D02*
X180282216Y-109078191D01*
X180282216Y-109078191D02*
X180377454Y-109030572D01*
X180377454Y-109030572D02*
X180615549Y-109030572D01*
X180615549Y-109030572D02*
X180710787Y-109078191D01*
X180710787Y-109078191D02*
X180758406Y-109125810D01*
X180758406Y-109125810D02*
X180806025Y-109221048D01*
X180806025Y-109221048D02*
X180806025Y-109459143D01*
X180806025Y-109459143D02*
X180758406Y-109554381D01*
X180758406Y-109554381D02*
X180710787Y-109602001D01*
X180710787Y-109602001D02*
X180615549Y-109649620D01*
X180615549Y-109649620D02*
X180377454Y-109649620D01*
X180377454Y-109649620D02*
X180282216Y-109602001D01*
X180282216Y-109602001D02*
X180234597Y-109554381D01*
X181139359Y-109982953D02*
X181377454Y-109982953D01*
X181377454Y-109982953D02*
X181377454Y-108554381D01*
X181377454Y-108554381D02*
X181139359Y-108554381D01*
X113353550Y-71702020D02*
X113353550Y-70702020D01*
X114020216Y-70702020D02*
X114210692Y-70702020D01*
X114210692Y-70702020D02*
X114305930Y-70749639D01*
X114305930Y-70749639D02*
X114401168Y-70844877D01*
X114401168Y-70844877D02*
X114448787Y-71035353D01*
X114448787Y-71035353D02*
X114448787Y-71368686D01*
X114448787Y-71368686D02*
X114401168Y-71559162D01*
X114401168Y-71559162D02*
X114305930Y-71654401D01*
X114305930Y-71654401D02*
X114210692Y-71702020D01*
X114210692Y-71702020D02*
X114020216Y-71702020D01*
X114020216Y-71702020D02*
X113924978Y-71654401D01*
X113924978Y-71654401D02*
X113829740Y-71559162D01*
X113829740Y-71559162D02*
X113782121Y-71368686D01*
X113782121Y-71368686D02*
X113782121Y-71035353D01*
X113782121Y-71035353D02*
X113829740Y-70844877D01*
X113829740Y-70844877D02*
X113924978Y-70749639D01*
X113924978Y-70749639D02*
X114020216Y-70702020D01*
X115163073Y-72035353D02*
X114924978Y-72035353D01*
X114924978Y-72035353D02*
X114924978Y-70606781D01*
X114924978Y-70606781D02*
X115163073Y-70606781D01*
X115448788Y-70702020D02*
X116067835Y-70702020D01*
X116067835Y-70702020D02*
X115734502Y-71082972D01*
X115734502Y-71082972D02*
X115877359Y-71082972D01*
X115877359Y-71082972D02*
X115972597Y-71130591D01*
X115972597Y-71130591D02*
X116020216Y-71178210D01*
X116020216Y-71178210D02*
X116067835Y-71273448D01*
X116067835Y-71273448D02*
X116067835Y-71511543D01*
X116067835Y-71511543D02*
X116020216Y-71606781D01*
X116020216Y-71606781D02*
X115972597Y-71654401D01*
X115972597Y-71654401D02*
X115877359Y-71702020D01*
X115877359Y-71702020D02*
X115591645Y-71702020D01*
X115591645Y-71702020D02*
X115496407Y-71654401D01*
X115496407Y-71654401D02*
X115448788Y-71606781D01*
X116924978Y-71035353D02*
X116924978Y-71702020D01*
X116686883Y-70654401D02*
X116448788Y-71368686D01*
X116448788Y-71368686D02*
X117067835Y-71368686D01*
X117353550Y-72035353D02*
X117591645Y-72035353D01*
X117591645Y-72035353D02*
X117591645Y-70606781D01*
X117591645Y-70606781D02*
X117353550Y-70606781D01*
X177331378Y-70882953D02*
X177569473Y-71549620D01*
X177569473Y-71549620D02*
X177807568Y-70882953D01*
X178617092Y-71549620D02*
X178617092Y-70549620D01*
X178617092Y-71502001D02*
X178521854Y-71549620D01*
X178521854Y-71549620D02*
X178331378Y-71549620D01*
X178331378Y-71549620D02*
X178236140Y-71502001D01*
X178236140Y-71502001D02*
X178188521Y-71454381D01*
X178188521Y-71454381D02*
X178140902Y-71359143D01*
X178140902Y-71359143D02*
X178140902Y-71073429D01*
X178140902Y-71073429D02*
X178188521Y-70978191D01*
X178188521Y-70978191D02*
X178236140Y-70930572D01*
X178236140Y-70930572D02*
X178331378Y-70882953D01*
X178331378Y-70882953D02*
X178521854Y-70882953D01*
X178521854Y-70882953D02*
X178617092Y-70930572D01*
X179521854Y-71549620D02*
X179521854Y-70549620D01*
X179521854Y-71502001D02*
X179426616Y-71549620D01*
X179426616Y-71549620D02*
X179236140Y-71549620D01*
X179236140Y-71549620D02*
X179140902Y-71502001D01*
X179140902Y-71502001D02*
X179093283Y-71454381D01*
X179093283Y-71454381D02*
X179045664Y-71359143D01*
X179045664Y-71359143D02*
X179045664Y-71073429D01*
X179045664Y-71073429D02*
X179093283Y-70978191D01*
X179093283Y-70978191D02*
X179140902Y-70930572D01*
X179140902Y-70930572D02*
X179236140Y-70882953D01*
X179236140Y-70882953D02*
X179426616Y-70882953D01*
X179426616Y-70882953D02*
X179521854Y-70930572D01*
X180426616Y-71549620D02*
X180426616Y-71025810D01*
X180426616Y-71025810D02*
X180378997Y-70930572D01*
X180378997Y-70930572D02*
X180283759Y-70882953D01*
X180283759Y-70882953D02*
X180093283Y-70882953D01*
X180093283Y-70882953D02*
X179998045Y-70930572D01*
X180426616Y-71502001D02*
X180331378Y-71549620D01*
X180331378Y-71549620D02*
X180093283Y-71549620D01*
X180093283Y-71549620D02*
X179998045Y-71502001D01*
X179998045Y-71502001D02*
X179950426Y-71406762D01*
X179950426Y-71406762D02*
X179950426Y-71311524D01*
X179950426Y-71311524D02*
X179998045Y-71216286D01*
X179998045Y-71216286D02*
X180093283Y-71168667D01*
X180093283Y-71168667D02*
X180331378Y-71168667D01*
X180331378Y-71168667D02*
X180426616Y-71121048D01*
X180855188Y-70644858D02*
X180902807Y-70597239D01*
X180902807Y-70597239D02*
X180998045Y-70549620D01*
X180998045Y-70549620D02*
X181236140Y-70549620D01*
X181236140Y-70549620D02*
X181331378Y-70597239D01*
X181331378Y-70597239D02*
X181378997Y-70644858D01*
X181378997Y-70644858D02*
X181426616Y-70740096D01*
X181426616Y-70740096D02*
X181426616Y-70835334D01*
X181426616Y-70835334D02*
X181378997Y-70978191D01*
X181378997Y-70978191D02*
X180807569Y-71549620D01*
X180807569Y-71549620D02*
X181426616Y-71549620D01*
X180429245Y-133273905D02*
X180381626Y-133369143D01*
X180381626Y-133369143D02*
X180381626Y-133512000D01*
X180381626Y-133512000D02*
X180429245Y-133654857D01*
X180429245Y-133654857D02*
X180524483Y-133750095D01*
X180524483Y-133750095D02*
X180619721Y-133797714D01*
X180619721Y-133797714D02*
X180810197Y-133845333D01*
X180810197Y-133845333D02*
X180953054Y-133845333D01*
X180953054Y-133845333D02*
X181143530Y-133797714D01*
X181143530Y-133797714D02*
X181238768Y-133750095D01*
X181238768Y-133750095D02*
X181334007Y-133654857D01*
X181334007Y-133654857D02*
X181381626Y-133512000D01*
X181381626Y-133512000D02*
X181381626Y-133416762D01*
X181381626Y-133416762D02*
X181334007Y-133273905D01*
X181334007Y-133273905D02*
X181286387Y-133226286D01*
X181286387Y-133226286D02*
X180953054Y-133226286D01*
X180953054Y-133226286D02*
X180953054Y-133416762D01*
X181381626Y-132797714D02*
X180381626Y-132797714D01*
X180381626Y-132797714D02*
X181381626Y-132226286D01*
X181381626Y-132226286D02*
X180381626Y-132226286D01*
X181381626Y-131750095D02*
X180381626Y-131750095D01*
X180381626Y-131750095D02*
X180381626Y-131512000D01*
X180381626Y-131512000D02*
X180429245Y-131369143D01*
X180429245Y-131369143D02*
X180524483Y-131273905D01*
X180524483Y-131273905D02*
X180619721Y-131226286D01*
X180619721Y-131226286D02*
X180810197Y-131178667D01*
X180810197Y-131178667D02*
X180953054Y-131178667D01*
X180953054Y-131178667D02*
X181143530Y-131226286D01*
X181143530Y-131226286D02*
X181238768Y-131273905D01*
X181238768Y-131273905D02*
X181334007Y-131369143D01*
X181334007Y-131369143D02*
X181381626Y-131512000D01*
X181381626Y-131512000D02*
X181381626Y-131750095D01*
X113378950Y-124838820D02*
X113378950Y-123838820D01*
X114045616Y-123838820D02*
X114236092Y-123838820D01*
X114236092Y-123838820D02*
X114331330Y-123886439D01*
X114331330Y-123886439D02*
X114426568Y-123981677D01*
X114426568Y-123981677D02*
X114474187Y-124172153D01*
X114474187Y-124172153D02*
X114474187Y-124505486D01*
X114474187Y-124505486D02*
X114426568Y-124695962D01*
X114426568Y-124695962D02*
X114331330Y-124791201D01*
X114331330Y-124791201D02*
X114236092Y-124838820D01*
X114236092Y-124838820D02*
X114045616Y-124838820D01*
X114045616Y-124838820D02*
X113950378Y-124791201D01*
X113950378Y-124791201D02*
X113855140Y-124695962D01*
X113855140Y-124695962D02*
X113807521Y-124505486D01*
X113807521Y-124505486D02*
X113807521Y-124172153D01*
X113807521Y-124172153D02*
X113855140Y-123981677D01*
X113855140Y-123981677D02*
X113950378Y-123886439D01*
X113950378Y-123886439D02*
X114045616Y-123838820D01*
X115188473Y-125172153D02*
X114950378Y-125172153D01*
X114950378Y-125172153D02*
X114950378Y-123743581D01*
X114950378Y-123743581D02*
X115188473Y-123743581D01*
X116093235Y-124838820D02*
X115521807Y-124838820D01*
X115807521Y-124838820D02*
X115807521Y-123838820D01*
X115807521Y-123838820D02*
X115712283Y-123981677D01*
X115712283Y-123981677D02*
X115617045Y-124076915D01*
X115617045Y-124076915D02*
X115521807Y-124124534D01*
X116950378Y-123838820D02*
X116759902Y-123838820D01*
X116759902Y-123838820D02*
X116664664Y-123886439D01*
X116664664Y-123886439D02*
X116617045Y-123934058D01*
X116617045Y-123934058D02*
X116521807Y-124076915D01*
X116521807Y-124076915D02*
X116474188Y-124267391D01*
X116474188Y-124267391D02*
X116474188Y-124648343D01*
X116474188Y-124648343D02*
X116521807Y-124743581D01*
X116521807Y-124743581D02*
X116569426Y-124791201D01*
X116569426Y-124791201D02*
X116664664Y-124838820D01*
X116664664Y-124838820D02*
X116855140Y-124838820D01*
X116855140Y-124838820D02*
X116950378Y-124791201D01*
X116950378Y-124791201D02*
X116997997Y-124743581D01*
X116997997Y-124743581D02*
X117045616Y-124648343D01*
X117045616Y-124648343D02*
X117045616Y-124410248D01*
X117045616Y-124410248D02*
X116997997Y-124315010D01*
X116997997Y-124315010D02*
X116950378Y-124267391D01*
X116950378Y-124267391D02*
X116855140Y-124219772D01*
X116855140Y-124219772D02*
X116664664Y-124219772D01*
X116664664Y-124219772D02*
X116569426Y-124267391D01*
X116569426Y-124267391D02*
X116521807Y-124315010D01*
X116521807Y-124315010D02*
X116474188Y-124410248D01*
X117378950Y-125172153D02*
X117617045Y-125172153D01*
X117617045Y-125172153D02*
X117617045Y-123743581D01*
X117617045Y-123743581D02*
X117378950Y-123743581D01*
X113302750Y-66622020D02*
X113302750Y-65622020D01*
X113969416Y-65622020D02*
X114159892Y-65622020D01*
X114159892Y-65622020D02*
X114255130Y-65669639D01*
X114255130Y-65669639D02*
X114350368Y-65764877D01*
X114350368Y-65764877D02*
X114397987Y-65955353D01*
X114397987Y-65955353D02*
X114397987Y-66288686D01*
X114397987Y-66288686D02*
X114350368Y-66479162D01*
X114350368Y-66479162D02*
X114255130Y-66574401D01*
X114255130Y-66574401D02*
X114159892Y-66622020D01*
X114159892Y-66622020D02*
X113969416Y-66622020D01*
X113969416Y-66622020D02*
X113874178Y-66574401D01*
X113874178Y-66574401D02*
X113778940Y-66479162D01*
X113778940Y-66479162D02*
X113731321Y-66288686D01*
X113731321Y-66288686D02*
X113731321Y-65955353D01*
X113731321Y-65955353D02*
X113778940Y-65764877D01*
X113778940Y-65764877D02*
X113874178Y-65669639D01*
X113874178Y-65669639D02*
X113969416Y-65622020D01*
X115112273Y-66955353D02*
X114874178Y-66955353D01*
X114874178Y-66955353D02*
X114874178Y-65526781D01*
X114874178Y-65526781D02*
X115112273Y-65526781D01*
X115397988Y-65622020D02*
X116017035Y-65622020D01*
X116017035Y-65622020D02*
X115683702Y-66002972D01*
X115683702Y-66002972D02*
X115826559Y-66002972D01*
X115826559Y-66002972D02*
X115921797Y-66050591D01*
X115921797Y-66050591D02*
X115969416Y-66098210D01*
X115969416Y-66098210D02*
X116017035Y-66193448D01*
X116017035Y-66193448D02*
X116017035Y-66431543D01*
X116017035Y-66431543D02*
X115969416Y-66526781D01*
X115969416Y-66526781D02*
X115921797Y-66574401D01*
X115921797Y-66574401D02*
X115826559Y-66622020D01*
X115826559Y-66622020D02*
X115540845Y-66622020D01*
X115540845Y-66622020D02*
X115445607Y-66574401D01*
X115445607Y-66574401D02*
X115397988Y-66526781D01*
X116874178Y-65622020D02*
X116683702Y-65622020D01*
X116683702Y-65622020D02*
X116588464Y-65669639D01*
X116588464Y-65669639D02*
X116540845Y-65717258D01*
X116540845Y-65717258D02*
X116445607Y-65860115D01*
X116445607Y-65860115D02*
X116397988Y-66050591D01*
X116397988Y-66050591D02*
X116397988Y-66431543D01*
X116397988Y-66431543D02*
X116445607Y-66526781D01*
X116445607Y-66526781D02*
X116493226Y-66574401D01*
X116493226Y-66574401D02*
X116588464Y-66622020D01*
X116588464Y-66622020D02*
X116778940Y-66622020D01*
X116778940Y-66622020D02*
X116874178Y-66574401D01*
X116874178Y-66574401D02*
X116921797Y-66526781D01*
X116921797Y-66526781D02*
X116969416Y-66431543D01*
X116969416Y-66431543D02*
X116969416Y-66193448D01*
X116969416Y-66193448D02*
X116921797Y-66098210D01*
X116921797Y-66098210D02*
X116874178Y-66050591D01*
X116874178Y-66050591D02*
X116778940Y-66002972D01*
X116778940Y-66002972D02*
X116588464Y-66002972D01*
X116588464Y-66002972D02*
X116493226Y-66050591D01*
X116493226Y-66050591D02*
X116445607Y-66098210D01*
X116445607Y-66098210D02*
X116397988Y-66193448D01*
X117302750Y-66955353D02*
X117540845Y-66955353D01*
X117540845Y-66955353D02*
X117540845Y-65526781D01*
X117540845Y-65526781D02*
X117302750Y-65526781D01*
X113251950Y-63980420D02*
X113251950Y-62980420D01*
X113918616Y-62980420D02*
X114109092Y-62980420D01*
X114109092Y-62980420D02*
X114204330Y-63028039D01*
X114204330Y-63028039D02*
X114299568Y-63123277D01*
X114299568Y-63123277D02*
X114347187Y-63313753D01*
X114347187Y-63313753D02*
X114347187Y-63647086D01*
X114347187Y-63647086D02*
X114299568Y-63837562D01*
X114299568Y-63837562D02*
X114204330Y-63932801D01*
X114204330Y-63932801D02*
X114109092Y-63980420D01*
X114109092Y-63980420D02*
X113918616Y-63980420D01*
X113918616Y-63980420D02*
X113823378Y-63932801D01*
X113823378Y-63932801D02*
X113728140Y-63837562D01*
X113728140Y-63837562D02*
X113680521Y-63647086D01*
X113680521Y-63647086D02*
X113680521Y-63313753D01*
X113680521Y-63313753D02*
X113728140Y-63123277D01*
X113728140Y-63123277D02*
X113823378Y-63028039D01*
X113823378Y-63028039D02*
X113918616Y-62980420D01*
X115061473Y-64313753D02*
X114823378Y-64313753D01*
X114823378Y-64313753D02*
X114823378Y-62885181D01*
X114823378Y-62885181D02*
X115061473Y-62885181D01*
X115347188Y-62980420D02*
X115966235Y-62980420D01*
X115966235Y-62980420D02*
X115632902Y-63361372D01*
X115632902Y-63361372D02*
X115775759Y-63361372D01*
X115775759Y-63361372D02*
X115870997Y-63408991D01*
X115870997Y-63408991D02*
X115918616Y-63456610D01*
X115918616Y-63456610D02*
X115966235Y-63551848D01*
X115966235Y-63551848D02*
X115966235Y-63789943D01*
X115966235Y-63789943D02*
X115918616Y-63885181D01*
X115918616Y-63885181D02*
X115870997Y-63932801D01*
X115870997Y-63932801D02*
X115775759Y-63980420D01*
X115775759Y-63980420D02*
X115490045Y-63980420D01*
X115490045Y-63980420D02*
X115394807Y-63932801D01*
X115394807Y-63932801D02*
X115347188Y-63885181D01*
X116299569Y-62980420D02*
X116966235Y-62980420D01*
X116966235Y-62980420D02*
X116537664Y-63980420D01*
X117251950Y-64313753D02*
X117490045Y-64313753D01*
X117490045Y-64313753D02*
X117490045Y-62885181D01*
X117490045Y-62885181D02*
X117251950Y-62885181D01*
X113353550Y-92022020D02*
X113353550Y-91022020D01*
X114020216Y-91022020D02*
X114210692Y-91022020D01*
X114210692Y-91022020D02*
X114305930Y-91069639D01*
X114305930Y-91069639D02*
X114401168Y-91164877D01*
X114401168Y-91164877D02*
X114448787Y-91355353D01*
X114448787Y-91355353D02*
X114448787Y-91688686D01*
X114448787Y-91688686D02*
X114401168Y-91879162D01*
X114401168Y-91879162D02*
X114305930Y-91974401D01*
X114305930Y-91974401D02*
X114210692Y-92022020D01*
X114210692Y-92022020D02*
X114020216Y-92022020D01*
X114020216Y-92022020D02*
X113924978Y-91974401D01*
X113924978Y-91974401D02*
X113829740Y-91879162D01*
X113829740Y-91879162D02*
X113782121Y-91688686D01*
X113782121Y-91688686D02*
X113782121Y-91355353D01*
X113782121Y-91355353D02*
X113829740Y-91164877D01*
X113829740Y-91164877D02*
X113924978Y-91069639D01*
X113924978Y-91069639D02*
X114020216Y-91022020D01*
X115163073Y-92355353D02*
X114924978Y-92355353D01*
X114924978Y-92355353D02*
X114924978Y-90926781D01*
X114924978Y-90926781D02*
X115163073Y-90926781D01*
X115496407Y-91117258D02*
X115544026Y-91069639D01*
X115544026Y-91069639D02*
X115639264Y-91022020D01*
X115639264Y-91022020D02*
X115877359Y-91022020D01*
X115877359Y-91022020D02*
X115972597Y-91069639D01*
X115972597Y-91069639D02*
X116020216Y-91117258D01*
X116020216Y-91117258D02*
X116067835Y-91212496D01*
X116067835Y-91212496D02*
X116067835Y-91307734D01*
X116067835Y-91307734D02*
X116020216Y-91450591D01*
X116020216Y-91450591D02*
X115448788Y-92022020D01*
X115448788Y-92022020D02*
X116067835Y-92022020D01*
X116544026Y-92022020D02*
X116734502Y-92022020D01*
X116734502Y-92022020D02*
X116829740Y-91974401D01*
X116829740Y-91974401D02*
X116877359Y-91926781D01*
X116877359Y-91926781D02*
X116972597Y-91783924D01*
X116972597Y-91783924D02*
X117020216Y-91593448D01*
X117020216Y-91593448D02*
X117020216Y-91212496D01*
X117020216Y-91212496D02*
X116972597Y-91117258D01*
X116972597Y-91117258D02*
X116924978Y-91069639D01*
X116924978Y-91069639D02*
X116829740Y-91022020D01*
X116829740Y-91022020D02*
X116639264Y-91022020D01*
X116639264Y-91022020D02*
X116544026Y-91069639D01*
X116544026Y-91069639D02*
X116496407Y-91117258D01*
X116496407Y-91117258D02*
X116448788Y-91212496D01*
X116448788Y-91212496D02*
X116448788Y-91450591D01*
X116448788Y-91450591D02*
X116496407Y-91545829D01*
X116496407Y-91545829D02*
X116544026Y-91593448D01*
X116544026Y-91593448D02*
X116639264Y-91641067D01*
X116639264Y-91641067D02*
X116829740Y-91641067D01*
X116829740Y-91641067D02*
X116924978Y-91593448D01*
X116924978Y-91593448D02*
X116972597Y-91545829D01*
X116972597Y-91545829D02*
X117020216Y-91450591D01*
X117353550Y-92355353D02*
X117591645Y-92355353D01*
X117591645Y-92355353D02*
X117591645Y-90926781D01*
X117591645Y-90926781D02*
X117353550Y-90926781D01*
D11*
X145337405Y-120724318D02*
X145760738Y-121994318D01*
X145760738Y-121994318D02*
X146184072Y-120724318D01*
X147333119Y-121994318D02*
X146909785Y-121389556D01*
X146607404Y-121994318D02*
X146607404Y-120724318D01*
X146607404Y-120724318D02*
X147091214Y-120724318D01*
X147091214Y-120724318D02*
X147212166Y-120784794D01*
X147212166Y-120784794D02*
X147272643Y-120845270D01*
X147272643Y-120845270D02*
X147333119Y-120966222D01*
X147333119Y-120966222D02*
X147333119Y-121147651D01*
X147333119Y-121147651D02*
X147272643Y-121268603D01*
X147272643Y-121268603D02*
X147212166Y-121329080D01*
X147212166Y-121329080D02*
X147091214Y-121389556D01*
X147091214Y-121389556D02*
X146607404Y-121389556D01*
X148421690Y-121147651D02*
X148421690Y-121994318D01*
X148119309Y-120663842D02*
X147816928Y-121570984D01*
X147816928Y-121570984D02*
X148603119Y-121570984D01*
X135639905Y-120724318D02*
X136063238Y-121994318D01*
X136063238Y-121994318D02*
X136486572Y-120724318D01*
X137635619Y-121994318D02*
X137212285Y-121389556D01*
X136909904Y-121994318D02*
X136909904Y-120724318D01*
X136909904Y-120724318D02*
X137393714Y-120724318D01*
X137393714Y-120724318D02*
X137514666Y-120784794D01*
X137514666Y-120784794D02*
X137575143Y-120845270D01*
X137575143Y-120845270D02*
X137635619Y-120966222D01*
X137635619Y-120966222D02*
X137635619Y-121147651D01*
X137635619Y-121147651D02*
X137575143Y-121268603D01*
X137575143Y-121268603D02*
X137514666Y-121329080D01*
X137514666Y-121329080D02*
X137393714Y-121389556D01*
X137393714Y-121389556D02*
X136909904Y-121389556D01*
X138058952Y-120724318D02*
X138845143Y-120724318D01*
X138845143Y-120724318D02*
X138421809Y-121208127D01*
X138421809Y-121208127D02*
X138603238Y-121208127D01*
X138603238Y-121208127D02*
X138724190Y-121268603D01*
X138724190Y-121268603D02*
X138784666Y-121329080D01*
X138784666Y-121329080D02*
X138845143Y-121450032D01*
X138845143Y-121450032D02*
X138845143Y-121752413D01*
X138845143Y-121752413D02*
X138784666Y-121873365D01*
X138784666Y-121873365D02*
X138724190Y-121933842D01*
X138724190Y-121933842D02*
X138603238Y-121994318D01*
X138603238Y-121994318D02*
X138240381Y-121994318D01*
X138240381Y-121994318D02*
X138119428Y-121933842D01*
X138119428Y-121933842D02*
X138058952Y-121873365D01*
X145337405Y-129724318D02*
X145760738Y-130994318D01*
X145760738Y-130994318D02*
X146184072Y-129724318D01*
X147333119Y-130994318D02*
X146909785Y-130389556D01*
X146607404Y-130994318D02*
X146607404Y-129724318D01*
X146607404Y-129724318D02*
X147091214Y-129724318D01*
X147091214Y-129724318D02*
X147212166Y-129784794D01*
X147212166Y-129784794D02*
X147272643Y-129845270D01*
X147272643Y-129845270D02*
X147333119Y-129966222D01*
X147333119Y-129966222D02*
X147333119Y-130147651D01*
X147333119Y-130147651D02*
X147272643Y-130268603D01*
X147272643Y-130268603D02*
X147212166Y-130329080D01*
X147212166Y-130329080D02*
X147091214Y-130389556D01*
X147091214Y-130389556D02*
X146607404Y-130389556D01*
X147816928Y-129845270D02*
X147877404Y-129784794D01*
X147877404Y-129784794D02*
X147998357Y-129724318D01*
X147998357Y-129724318D02*
X148300738Y-129724318D01*
X148300738Y-129724318D02*
X148421690Y-129784794D01*
X148421690Y-129784794D02*
X148482166Y-129845270D01*
X148482166Y-129845270D02*
X148542643Y-129966222D01*
X148542643Y-129966222D02*
X148542643Y-130087175D01*
X148542643Y-130087175D02*
X148482166Y-130268603D01*
X148482166Y-130268603D02*
X147756452Y-130994318D01*
X147756452Y-130994318D02*
X148542643Y-130994318D01*
X135639905Y-129724318D02*
X136063238Y-130994318D01*
X136063238Y-130994318D02*
X136486572Y-129724318D01*
X137635619Y-130994318D02*
X137212285Y-130389556D01*
X136909904Y-130994318D02*
X136909904Y-129724318D01*
X136909904Y-129724318D02*
X137393714Y-129724318D01*
X137393714Y-129724318D02*
X137514666Y-129784794D01*
X137514666Y-129784794D02*
X137575143Y-129845270D01*
X137575143Y-129845270D02*
X137635619Y-129966222D01*
X137635619Y-129966222D02*
X137635619Y-130147651D01*
X137635619Y-130147651D02*
X137575143Y-130268603D01*
X137575143Y-130268603D02*
X137514666Y-130329080D01*
X137514666Y-130329080D02*
X137393714Y-130389556D01*
X137393714Y-130389556D02*
X136909904Y-130389556D01*
X138845143Y-130994318D02*
X138119428Y-130994318D01*
X138482285Y-130994318D02*
X138482285Y-129724318D01*
X138482285Y-129724318D02*
X138361333Y-129905746D01*
X138361333Y-129905746D02*
X138240381Y-130026699D01*
X138240381Y-130026699D02*
X138119428Y-130087175D01*
D10*
X172589819Y-74108333D02*
X173304104Y-74108333D01*
X173304104Y-74108333D02*
X173446961Y-74155952D01*
X173446961Y-74155952D02*
X173542200Y-74251190D01*
X173542200Y-74251190D02*
X173589819Y-74394047D01*
X173589819Y-74394047D02*
X173589819Y-74489285D01*
X172685057Y-73679761D02*
X172637438Y-73632142D01*
X172637438Y-73632142D02*
X172589819Y-73536904D01*
X172589819Y-73536904D02*
X172589819Y-73298809D01*
X172589819Y-73298809D02*
X172637438Y-73203571D01*
X172637438Y-73203571D02*
X172685057Y-73155952D01*
X172685057Y-73155952D02*
X172780295Y-73108333D01*
X172780295Y-73108333D02*
X172875533Y-73108333D01*
X172875533Y-73108333D02*
X173018390Y-73155952D01*
X173018390Y-73155952D02*
X173589819Y-73727380D01*
X173589819Y-73727380D02*
X173589819Y-73108333D01*
X154589819Y-74108333D02*
X155304104Y-74108333D01*
X155304104Y-74108333D02*
X155446961Y-74155952D01*
X155446961Y-74155952D02*
X155542200Y-74251190D01*
X155542200Y-74251190D02*
X155589819Y-74394047D01*
X155589819Y-74394047D02*
X155589819Y-74489285D01*
X155589819Y-73108333D02*
X155589819Y-73679761D01*
X155589819Y-73394047D02*
X154589819Y-73394047D01*
X154589819Y-73394047D02*
X154732676Y-73489285D01*
X154732676Y-73489285D02*
X154827914Y-73584523D01*
X154827914Y-73584523D02*
X154875533Y-73679761D01*
D11*
X133959437Y-90889718D02*
X133959437Y-89619718D01*
X135289914Y-90768765D02*
X135229438Y-90829242D01*
X135229438Y-90829242D02*
X135048009Y-90889718D01*
X135048009Y-90889718D02*
X134927057Y-90889718D01*
X134927057Y-90889718D02*
X134745628Y-90829242D01*
X134745628Y-90829242D02*
X134624676Y-90708289D01*
X134624676Y-90708289D02*
X134564199Y-90587337D01*
X134564199Y-90587337D02*
X134503723Y-90345432D01*
X134503723Y-90345432D02*
X134503723Y-90164003D01*
X134503723Y-90164003D02*
X134564199Y-89922099D01*
X134564199Y-89922099D02*
X134624676Y-89801146D01*
X134624676Y-89801146D02*
X134745628Y-89680194D01*
X134745628Y-89680194D02*
X134927057Y-89619718D01*
X134927057Y-89619718D02*
X135048009Y-89619718D01*
X135048009Y-89619718D02*
X135229438Y-89680194D01*
X135229438Y-89680194D02*
X135289914Y-89740670D01*
X136015628Y-90164003D02*
X135894676Y-90103527D01*
X135894676Y-90103527D02*
X135834199Y-90043051D01*
X135834199Y-90043051D02*
X135773723Y-89922099D01*
X135773723Y-89922099D02*
X135773723Y-89861622D01*
X135773723Y-89861622D02*
X135834199Y-89740670D01*
X135834199Y-89740670D02*
X135894676Y-89680194D01*
X135894676Y-89680194D02*
X136015628Y-89619718D01*
X136015628Y-89619718D02*
X136257533Y-89619718D01*
X136257533Y-89619718D02*
X136378485Y-89680194D01*
X136378485Y-89680194D02*
X136438961Y-89740670D01*
X136438961Y-89740670D02*
X136499438Y-89861622D01*
X136499438Y-89861622D02*
X136499438Y-89922099D01*
X136499438Y-89922099D02*
X136438961Y-90043051D01*
X136438961Y-90043051D02*
X136378485Y-90103527D01*
X136378485Y-90103527D02*
X136257533Y-90164003D01*
X136257533Y-90164003D02*
X136015628Y-90164003D01*
X136015628Y-90164003D02*
X135894676Y-90224480D01*
X135894676Y-90224480D02*
X135834199Y-90284956D01*
X135834199Y-90284956D02*
X135773723Y-90405908D01*
X135773723Y-90405908D02*
X135773723Y-90647813D01*
X135773723Y-90647813D02*
X135834199Y-90768765D01*
X135834199Y-90768765D02*
X135894676Y-90829242D01*
X135894676Y-90829242D02*
X136015628Y-90889718D01*
X136015628Y-90889718D02*
X136257533Y-90889718D01*
X136257533Y-90889718D02*
X136378485Y-90829242D01*
X136378485Y-90829242D02*
X136438961Y-90768765D01*
X136438961Y-90768765D02*
X136499438Y-90647813D01*
X136499438Y-90647813D02*
X136499438Y-90405908D01*
X136499438Y-90405908D02*
X136438961Y-90284956D01*
X136438961Y-90284956D02*
X136378485Y-90224480D01*
X136378485Y-90224480D02*
X136257533Y-90164003D01*
X125082437Y-125891318D02*
X125082437Y-124621318D01*
X126412914Y-125770365D02*
X126352438Y-125830842D01*
X126352438Y-125830842D02*
X126171009Y-125891318D01*
X126171009Y-125891318D02*
X126050057Y-125891318D01*
X126050057Y-125891318D02*
X125868628Y-125830842D01*
X125868628Y-125830842D02*
X125747676Y-125709889D01*
X125747676Y-125709889D02*
X125687199Y-125588937D01*
X125687199Y-125588937D02*
X125626723Y-125347032D01*
X125626723Y-125347032D02*
X125626723Y-125165603D01*
X125626723Y-125165603D02*
X125687199Y-124923699D01*
X125687199Y-124923699D02*
X125747676Y-124802746D01*
X125747676Y-124802746D02*
X125868628Y-124681794D01*
X125868628Y-124681794D02*
X126050057Y-124621318D01*
X126050057Y-124621318D02*
X126171009Y-124621318D01*
X126171009Y-124621318D02*
X126352438Y-124681794D01*
X126352438Y-124681794D02*
X126412914Y-124742270D01*
X126836247Y-124621318D02*
X127682914Y-124621318D01*
X127682914Y-124621318D02*
X127138628Y-125891318D01*
X161548237Y-128209318D02*
X161548237Y-126939318D01*
X162878714Y-128088365D02*
X162818238Y-128148842D01*
X162818238Y-128148842D02*
X162636809Y-128209318D01*
X162636809Y-128209318D02*
X162515857Y-128209318D01*
X162515857Y-128209318D02*
X162334428Y-128148842D01*
X162334428Y-128148842D02*
X162213476Y-128027889D01*
X162213476Y-128027889D02*
X162152999Y-127906937D01*
X162152999Y-127906937D02*
X162092523Y-127665032D01*
X162092523Y-127665032D02*
X162092523Y-127483603D01*
X162092523Y-127483603D02*
X162152999Y-127241699D01*
X162152999Y-127241699D02*
X162213476Y-127120746D01*
X162213476Y-127120746D02*
X162334428Y-126999794D01*
X162334428Y-126999794D02*
X162515857Y-126939318D01*
X162515857Y-126939318D02*
X162636809Y-126939318D01*
X162636809Y-126939318D02*
X162818238Y-126999794D01*
X162818238Y-126999794D02*
X162878714Y-127060270D01*
X163967285Y-126939318D02*
X163725380Y-126939318D01*
X163725380Y-126939318D02*
X163604428Y-126999794D01*
X163604428Y-126999794D02*
X163543952Y-127060270D01*
X163543952Y-127060270D02*
X163422999Y-127241699D01*
X163422999Y-127241699D02*
X163362523Y-127483603D01*
X163362523Y-127483603D02*
X163362523Y-127967413D01*
X163362523Y-127967413D02*
X163422999Y-128088365D01*
X163422999Y-128088365D02*
X163483476Y-128148842D01*
X163483476Y-128148842D02*
X163604428Y-128209318D01*
X163604428Y-128209318D02*
X163846333Y-128209318D01*
X163846333Y-128209318D02*
X163967285Y-128148842D01*
X163967285Y-128148842D02*
X164027761Y-128088365D01*
X164027761Y-128088365D02*
X164088238Y-127967413D01*
X164088238Y-127967413D02*
X164088238Y-127665032D01*
X164088238Y-127665032D02*
X164027761Y-127544080D01*
X164027761Y-127544080D02*
X163967285Y-127483603D01*
X163967285Y-127483603D02*
X163846333Y-127423127D01*
X163846333Y-127423127D02*
X163604428Y-127423127D01*
X163604428Y-127423127D02*
X163483476Y-127483603D01*
X163483476Y-127483603D02*
X163422999Y-127544080D01*
X163422999Y-127544080D02*
X163362523Y-127665032D01*
X161548237Y-121659318D02*
X161548237Y-120389318D01*
X162878714Y-121538365D02*
X162818238Y-121598842D01*
X162818238Y-121598842D02*
X162636809Y-121659318D01*
X162636809Y-121659318D02*
X162515857Y-121659318D01*
X162515857Y-121659318D02*
X162334428Y-121598842D01*
X162334428Y-121598842D02*
X162213476Y-121477889D01*
X162213476Y-121477889D02*
X162152999Y-121356937D01*
X162152999Y-121356937D02*
X162092523Y-121115032D01*
X162092523Y-121115032D02*
X162092523Y-120933603D01*
X162092523Y-120933603D02*
X162152999Y-120691699D01*
X162152999Y-120691699D02*
X162213476Y-120570746D01*
X162213476Y-120570746D02*
X162334428Y-120449794D01*
X162334428Y-120449794D02*
X162515857Y-120389318D01*
X162515857Y-120389318D02*
X162636809Y-120389318D01*
X162636809Y-120389318D02*
X162818238Y-120449794D01*
X162818238Y-120449794D02*
X162878714Y-120510270D01*
X164027761Y-120389318D02*
X163422999Y-120389318D01*
X163422999Y-120389318D02*
X163362523Y-120994080D01*
X163362523Y-120994080D02*
X163422999Y-120933603D01*
X163422999Y-120933603D02*
X163543952Y-120873127D01*
X163543952Y-120873127D02*
X163846333Y-120873127D01*
X163846333Y-120873127D02*
X163967285Y-120933603D01*
X163967285Y-120933603D02*
X164027761Y-120994080D01*
X164027761Y-120994080D02*
X164088238Y-121115032D01*
X164088238Y-121115032D02*
X164088238Y-121417413D01*
X164088238Y-121417413D02*
X164027761Y-121538365D01*
X164027761Y-121538365D02*
X163967285Y-121598842D01*
X163967285Y-121598842D02*
X163846333Y-121659318D01*
X163846333Y-121659318D02*
X163543952Y-121659318D01*
X163543952Y-121659318D02*
X163422999Y-121598842D01*
X163422999Y-121598842D02*
X163362523Y-121538365D01*
X161548237Y-115109318D02*
X161548237Y-113839318D01*
X162878714Y-114988365D02*
X162818238Y-115048842D01*
X162818238Y-115048842D02*
X162636809Y-115109318D01*
X162636809Y-115109318D02*
X162515857Y-115109318D01*
X162515857Y-115109318D02*
X162334428Y-115048842D01*
X162334428Y-115048842D02*
X162213476Y-114927889D01*
X162213476Y-114927889D02*
X162152999Y-114806937D01*
X162152999Y-114806937D02*
X162092523Y-114565032D01*
X162092523Y-114565032D02*
X162092523Y-114383603D01*
X162092523Y-114383603D02*
X162152999Y-114141699D01*
X162152999Y-114141699D02*
X162213476Y-114020746D01*
X162213476Y-114020746D02*
X162334428Y-113899794D01*
X162334428Y-113899794D02*
X162515857Y-113839318D01*
X162515857Y-113839318D02*
X162636809Y-113839318D01*
X162636809Y-113839318D02*
X162818238Y-113899794D01*
X162818238Y-113899794D02*
X162878714Y-113960270D01*
X163967285Y-114262651D02*
X163967285Y-115109318D01*
X163664904Y-113778842D02*
X163362523Y-114685984D01*
X163362523Y-114685984D02*
X164148714Y-114685984D01*
X161548237Y-108559318D02*
X161548237Y-107289318D01*
X162878714Y-108438365D02*
X162818238Y-108498842D01*
X162818238Y-108498842D02*
X162636809Y-108559318D01*
X162636809Y-108559318D02*
X162515857Y-108559318D01*
X162515857Y-108559318D02*
X162334428Y-108498842D01*
X162334428Y-108498842D02*
X162213476Y-108377889D01*
X162213476Y-108377889D02*
X162152999Y-108256937D01*
X162152999Y-108256937D02*
X162092523Y-108015032D01*
X162092523Y-108015032D02*
X162092523Y-107833603D01*
X162092523Y-107833603D02*
X162152999Y-107591699D01*
X162152999Y-107591699D02*
X162213476Y-107470746D01*
X162213476Y-107470746D02*
X162334428Y-107349794D01*
X162334428Y-107349794D02*
X162515857Y-107289318D01*
X162515857Y-107289318D02*
X162636809Y-107289318D01*
X162636809Y-107289318D02*
X162818238Y-107349794D01*
X162818238Y-107349794D02*
X162878714Y-107410270D01*
X163302047Y-107289318D02*
X164088238Y-107289318D01*
X164088238Y-107289318D02*
X163664904Y-107773127D01*
X163664904Y-107773127D02*
X163846333Y-107773127D01*
X163846333Y-107773127D02*
X163967285Y-107833603D01*
X163967285Y-107833603D02*
X164027761Y-107894080D01*
X164027761Y-107894080D02*
X164088238Y-108015032D01*
X164088238Y-108015032D02*
X164088238Y-108317413D01*
X164088238Y-108317413D02*
X164027761Y-108438365D01*
X164027761Y-108438365D02*
X163967285Y-108498842D01*
X163967285Y-108498842D02*
X163846333Y-108559318D01*
X163846333Y-108559318D02*
X163483476Y-108559318D01*
X163483476Y-108559318D02*
X163362523Y-108498842D01*
X163362523Y-108498842D02*
X163302047Y-108438365D01*
X124982437Y-84391318D02*
X124982437Y-83121318D01*
X126312914Y-84270365D02*
X126252438Y-84330842D01*
X126252438Y-84330842D02*
X126071009Y-84391318D01*
X126071009Y-84391318D02*
X125950057Y-84391318D01*
X125950057Y-84391318D02*
X125768628Y-84330842D01*
X125768628Y-84330842D02*
X125647676Y-84209889D01*
X125647676Y-84209889D02*
X125587199Y-84088937D01*
X125587199Y-84088937D02*
X125526723Y-83847032D01*
X125526723Y-83847032D02*
X125526723Y-83665603D01*
X125526723Y-83665603D02*
X125587199Y-83423699D01*
X125587199Y-83423699D02*
X125647676Y-83302746D01*
X125647676Y-83302746D02*
X125768628Y-83181794D01*
X125768628Y-83181794D02*
X125950057Y-83121318D01*
X125950057Y-83121318D02*
X126071009Y-83121318D01*
X126071009Y-83121318D02*
X126252438Y-83181794D01*
X126252438Y-83181794D02*
X126312914Y-83242270D01*
X126796723Y-83242270D02*
X126857199Y-83181794D01*
X126857199Y-83181794D02*
X126978152Y-83121318D01*
X126978152Y-83121318D02*
X127280533Y-83121318D01*
X127280533Y-83121318D02*
X127401485Y-83181794D01*
X127401485Y-83181794D02*
X127461961Y-83242270D01*
X127461961Y-83242270D02*
X127522438Y-83363222D01*
X127522438Y-83363222D02*
X127522438Y-83484175D01*
X127522438Y-83484175D02*
X127461961Y-83665603D01*
X127461961Y-83665603D02*
X126736247Y-84391318D01*
X126736247Y-84391318D02*
X127522438Y-84391318D01*
D10*
X171282902Y-132982820D02*
X171854330Y-132982820D01*
X171568616Y-133982820D02*
X171568616Y-132982820D01*
X172187664Y-133982820D02*
X172187664Y-132982820D01*
X172187664Y-132982820D02*
X172568616Y-132982820D01*
X172568616Y-132982820D02*
X172663854Y-133030439D01*
X172663854Y-133030439D02*
X172711473Y-133078058D01*
X172711473Y-133078058D02*
X172759092Y-133173296D01*
X172759092Y-133173296D02*
X172759092Y-133316153D01*
X172759092Y-133316153D02*
X172711473Y-133411391D01*
X172711473Y-133411391D02*
X172663854Y-133459010D01*
X172663854Y-133459010D02*
X172568616Y-133506629D01*
X172568616Y-133506629D02*
X172187664Y-133506629D01*
X173140045Y-133078058D02*
X173187664Y-133030439D01*
X173187664Y-133030439D02*
X173282902Y-132982820D01*
X173282902Y-132982820D02*
X173520997Y-132982820D01*
X173520997Y-132982820D02*
X173616235Y-133030439D01*
X173616235Y-133030439D02*
X173663854Y-133078058D01*
X173663854Y-133078058D02*
X173711473Y-133173296D01*
X173711473Y-133173296D02*
X173711473Y-133268534D01*
X173711473Y-133268534D02*
X173663854Y-133411391D01*
X173663854Y-133411391D02*
X173092426Y-133982820D01*
X173092426Y-133982820D02*
X173711473Y-133982820D01*
D11*
X125760237Y-73074318D02*
X125760237Y-71804318D01*
X127090714Y-72953365D02*
X127030238Y-73013842D01*
X127030238Y-73013842D02*
X126848809Y-73074318D01*
X126848809Y-73074318D02*
X126727857Y-73074318D01*
X126727857Y-73074318D02*
X126546428Y-73013842D01*
X126546428Y-73013842D02*
X126425476Y-72892889D01*
X126425476Y-72892889D02*
X126364999Y-72771937D01*
X126364999Y-72771937D02*
X126304523Y-72530032D01*
X126304523Y-72530032D02*
X126304523Y-72348603D01*
X126304523Y-72348603D02*
X126364999Y-72106699D01*
X126364999Y-72106699D02*
X126425476Y-71985746D01*
X126425476Y-71985746D02*
X126546428Y-71864794D01*
X126546428Y-71864794D02*
X126727857Y-71804318D01*
X126727857Y-71804318D02*
X126848809Y-71804318D01*
X126848809Y-71804318D02*
X127030238Y-71864794D01*
X127030238Y-71864794D02*
X127090714Y-71925270D01*
X128300238Y-73074318D02*
X127574523Y-73074318D01*
X127937380Y-73074318D02*
X127937380Y-71804318D01*
X127937380Y-71804318D02*
X127816428Y-71985746D01*
X127816428Y-71985746D02*
X127695476Y-72106699D01*
X127695476Y-72106699D02*
X127574523Y-72167175D01*
D10*
X121301226Y-133494505D02*
X121301226Y-132923077D01*
X122301226Y-133208791D02*
X121301226Y-133208791D01*
X122301226Y-132589743D02*
X121301226Y-132589743D01*
X121301226Y-132589743D02*
X121301226Y-132208791D01*
X121301226Y-132208791D02*
X121348845Y-132113553D01*
X121348845Y-132113553D02*
X121396464Y-132065934D01*
X121396464Y-132065934D02*
X121491702Y-132018315D01*
X121491702Y-132018315D02*
X121634559Y-132018315D01*
X121634559Y-132018315D02*
X121729797Y-132065934D01*
X121729797Y-132065934D02*
X121777416Y-132113553D01*
X121777416Y-132113553D02*
X121825035Y-132208791D01*
X121825035Y-132208791D02*
X121825035Y-132589743D01*
X122301226Y-131065934D02*
X122301226Y-131637362D01*
X122301226Y-131351648D02*
X121301226Y-131351648D01*
X121301226Y-131351648D02*
X121444083Y-131446886D01*
X121444083Y-131446886D02*
X121539321Y-131542124D01*
X121539321Y-131542124D02*
X121586940Y-131637362D01*
X110525187Y-133866296D02*
X110525187Y-134437724D01*
X110525187Y-134437724D02*
X110487092Y-134552010D01*
X110487092Y-134552010D02*
X110410901Y-134628201D01*
X110410901Y-134628201D02*
X110296616Y-134666296D01*
X110296616Y-134666296D02*
X110220425Y-134666296D01*
X111325187Y-134666296D02*
X110868044Y-134666296D01*
X111096616Y-134666296D02*
X111096616Y-133866296D01*
X111096616Y-133866296D02*
X111020425Y-133980581D01*
X111020425Y-133980581D02*
X110944235Y-134056772D01*
X110944235Y-134056772D02*
X110868044Y-134094867D01*
X111820426Y-133866296D02*
X111896616Y-133866296D01*
X111896616Y-133866296D02*
X111972807Y-133904391D01*
X111972807Y-133904391D02*
X112010902Y-133942486D01*
X112010902Y-133942486D02*
X112048997Y-134018677D01*
X112048997Y-134018677D02*
X112087092Y-134171058D01*
X112087092Y-134171058D02*
X112087092Y-134361534D01*
X112087092Y-134361534D02*
X112048997Y-134513915D01*
X112048997Y-134513915D02*
X112010902Y-134590105D01*
X112010902Y-134590105D02*
X111972807Y-134628201D01*
X111972807Y-134628201D02*
X111896616Y-134666296D01*
X111896616Y-134666296D02*
X111820426Y-134666296D01*
X111820426Y-134666296D02*
X111744235Y-134628201D01*
X111744235Y-134628201D02*
X111706140Y-134590105D01*
X111706140Y-134590105D02*
X111668045Y-134513915D01*
X111668045Y-134513915D02*
X111629949Y-134361534D01*
X111629949Y-134361534D02*
X111629949Y-134171058D01*
X111629949Y-134171058D02*
X111668045Y-134018677D01*
X111668045Y-134018677D02*
X111706140Y-133942486D01*
X111706140Y-133942486D02*
X111744235Y-133904391D01*
X111744235Y-133904391D02*
X111820426Y-133866296D01*
X174883333Y-118179580D02*
X174835714Y-118227200D01*
X174835714Y-118227200D02*
X174692857Y-118274819D01*
X174692857Y-118274819D02*
X174597619Y-118274819D01*
X174597619Y-118274819D02*
X174454762Y-118227200D01*
X174454762Y-118227200D02*
X174359524Y-118131961D01*
X174359524Y-118131961D02*
X174311905Y-118036723D01*
X174311905Y-118036723D02*
X174264286Y-117846247D01*
X174264286Y-117846247D02*
X174264286Y-117703390D01*
X174264286Y-117703390D02*
X174311905Y-117512914D01*
X174311905Y-117512914D02*
X174359524Y-117417676D01*
X174359524Y-117417676D02*
X174454762Y-117322438D01*
X174454762Y-117322438D02*
X174597619Y-117274819D01*
X174597619Y-117274819D02*
X174692857Y-117274819D01*
X174692857Y-117274819D02*
X174835714Y-117322438D01*
X174835714Y-117322438D02*
X174883333Y-117370057D01*
X175264286Y-117370057D02*
X175311905Y-117322438D01*
X175311905Y-117322438D02*
X175407143Y-117274819D01*
X175407143Y-117274819D02*
X175645238Y-117274819D01*
X175645238Y-117274819D02*
X175740476Y-117322438D01*
X175740476Y-117322438D02*
X175788095Y-117370057D01*
X175788095Y-117370057D02*
X175835714Y-117465295D01*
X175835714Y-117465295D02*
X175835714Y-117560533D01*
X175835714Y-117560533D02*
X175788095Y-117703390D01*
X175788095Y-117703390D02*
X175216667Y-118274819D01*
X175216667Y-118274819D02*
X175835714Y-118274819D01*
X174883333Y-105179580D02*
X174835714Y-105227200D01*
X174835714Y-105227200D02*
X174692857Y-105274819D01*
X174692857Y-105274819D02*
X174597619Y-105274819D01*
X174597619Y-105274819D02*
X174454762Y-105227200D01*
X174454762Y-105227200D02*
X174359524Y-105131961D01*
X174359524Y-105131961D02*
X174311905Y-105036723D01*
X174311905Y-105036723D02*
X174264286Y-104846247D01*
X174264286Y-104846247D02*
X174264286Y-104703390D01*
X174264286Y-104703390D02*
X174311905Y-104512914D01*
X174311905Y-104512914D02*
X174359524Y-104417676D01*
X174359524Y-104417676D02*
X174454762Y-104322438D01*
X174454762Y-104322438D02*
X174597619Y-104274819D01*
X174597619Y-104274819D02*
X174692857Y-104274819D01*
X174692857Y-104274819D02*
X174835714Y-104322438D01*
X174835714Y-104322438D02*
X174883333Y-104370057D01*
X175740476Y-104608152D02*
X175740476Y-105274819D01*
X175502381Y-104227200D02*
X175264286Y-104941485D01*
X175264286Y-104941485D02*
X175883333Y-104941485D01*
X174883333Y-111679580D02*
X174835714Y-111727200D01*
X174835714Y-111727200D02*
X174692857Y-111774819D01*
X174692857Y-111774819D02*
X174597619Y-111774819D01*
X174597619Y-111774819D02*
X174454762Y-111727200D01*
X174454762Y-111727200D02*
X174359524Y-111631961D01*
X174359524Y-111631961D02*
X174311905Y-111536723D01*
X174311905Y-111536723D02*
X174264286Y-111346247D01*
X174264286Y-111346247D02*
X174264286Y-111203390D01*
X174264286Y-111203390D02*
X174311905Y-111012914D01*
X174311905Y-111012914D02*
X174359524Y-110917676D01*
X174359524Y-110917676D02*
X174454762Y-110822438D01*
X174454762Y-110822438D02*
X174597619Y-110774819D01*
X174597619Y-110774819D02*
X174692857Y-110774819D01*
X174692857Y-110774819D02*
X174835714Y-110822438D01*
X174835714Y-110822438D02*
X174883333Y-110870057D01*
X175216667Y-110774819D02*
X175835714Y-110774819D01*
X175835714Y-110774819D02*
X175502381Y-111155771D01*
X175502381Y-111155771D02*
X175645238Y-111155771D01*
X175645238Y-111155771D02*
X175740476Y-111203390D01*
X175740476Y-111203390D02*
X175788095Y-111251009D01*
X175788095Y-111251009D02*
X175835714Y-111346247D01*
X175835714Y-111346247D02*
X175835714Y-111584342D01*
X175835714Y-111584342D02*
X175788095Y-111679580D01*
X175788095Y-111679580D02*
X175740476Y-111727200D01*
X175740476Y-111727200D02*
X175645238Y-111774819D01*
X175645238Y-111774819D02*
X175359524Y-111774819D01*
X175359524Y-111774819D02*
X175264286Y-111727200D01*
X175264286Y-111727200D02*
X175216667Y-111679580D01*
X182758883Y-133788820D02*
X182758883Y-134503105D01*
X182758883Y-134503105D02*
X182711264Y-134645962D01*
X182711264Y-134645962D02*
X182616026Y-134741201D01*
X182616026Y-134741201D02*
X182473169Y-134788820D01*
X182473169Y-134788820D02*
X182377931Y-134788820D01*
X183758883Y-134788820D02*
X183187455Y-134788820D01*
X183473169Y-134788820D02*
X183473169Y-133788820D01*
X183473169Y-133788820D02*
X183377931Y-133931677D01*
X183377931Y-133931677D02*
X183282693Y-134026915D01*
X183282693Y-134026915D02*
X183187455Y-134074534D01*
X184711264Y-134788820D02*
X184139836Y-134788820D01*
X184425550Y-134788820D02*
X184425550Y-133788820D01*
X184425550Y-133788820D02*
X184330312Y-133931677D01*
X184330312Y-133931677D02*
X184235074Y-134026915D01*
X184235074Y-134026915D02*
X184139836Y-134074534D01*
X174883333Y-124679580D02*
X174835714Y-124727200D01*
X174835714Y-124727200D02*
X174692857Y-124774819D01*
X174692857Y-124774819D02*
X174597619Y-124774819D01*
X174597619Y-124774819D02*
X174454762Y-124727200D01*
X174454762Y-124727200D02*
X174359524Y-124631961D01*
X174359524Y-124631961D02*
X174311905Y-124536723D01*
X174311905Y-124536723D02*
X174264286Y-124346247D01*
X174264286Y-124346247D02*
X174264286Y-124203390D01*
X174264286Y-124203390D02*
X174311905Y-124012914D01*
X174311905Y-124012914D02*
X174359524Y-123917676D01*
X174359524Y-123917676D02*
X174454762Y-123822438D01*
X174454762Y-123822438D02*
X174597619Y-123774819D01*
X174597619Y-123774819D02*
X174692857Y-123774819D01*
X174692857Y-123774819D02*
X174835714Y-123822438D01*
X174835714Y-123822438D02*
X174883333Y-123870057D01*
X175835714Y-124774819D02*
X175264286Y-124774819D01*
X175550000Y-124774819D02*
X175550000Y-123774819D01*
X175550000Y-123774819D02*
X175454762Y-123917676D01*
X175454762Y-123917676D02*
X175359524Y-124012914D01*
X175359524Y-124012914D02*
X175264286Y-124060533D01*
D12*
X143302500Y-120000000D02*
X143302500Y-120000000D01*
X143302500Y-120000000D02*
X143302500Y-124810000D01*
X143302500Y-124810000D02*
X143302500Y-120000000D01*
X143302500Y-124810000D02*
X143302500Y-124810000D01*
X143302500Y-124810000D02*
X143302500Y-124810000D01*
X143302500Y-124810000D02*
X145447500Y-124810000D01*
X145197500Y-118030000D02*
X145197500Y-118030000D01*
X145197500Y-118030000D02*
X148197500Y-118030000D01*
X145447500Y-124810000D02*
X143302500Y-124810000D01*
X145447500Y-124810000D02*
X145447500Y-124810000D01*
X147697500Y-124810000D02*
X147697500Y-124810000D01*
X147697500Y-124810000D02*
X150012500Y-124810000D01*
X148197500Y-118030000D02*
X145197500Y-118030000D01*
X148197500Y-118030000D02*
X148197500Y-118030000D01*
X150012500Y-120000000D02*
X150012500Y-120000000D01*
X150012500Y-120000000D02*
X150012500Y-124810000D01*
X150012500Y-124810000D02*
X147697500Y-124810000D01*
X150012500Y-124810000D02*
X150012500Y-120000000D01*
X150012500Y-124810000D02*
X150012500Y-124810000D01*
X150012500Y-124810000D02*
X150012500Y-124810000D01*
D13*
X150597500Y-119000000D02*
X150597500Y-119000000D01*
X150597500Y-119000000D02*
X150597500Y-119000000D01*
X150697500Y-119000000D02*
X150697500Y-119000000D01*
X150597500Y-119000000D02*
G75*
G02*
X150697500Y-119000000I50000J0D01*
G01*
X150697500Y-119000000D02*
G75*
G02*
X150597500Y-119000000I-50000J0D01*
G01*
X150697500Y-119000000D02*
G75*
G02*
X150597500Y-119000000I-50000J0D01*
G01*
D12*
X133605000Y-120000000D02*
X133605000Y-120000000D01*
X133605000Y-120000000D02*
X133605000Y-124810000D01*
X133605000Y-124810000D02*
X133605000Y-120000000D01*
X133605000Y-124810000D02*
X133605000Y-124810000D01*
X133605000Y-124810000D02*
X133605000Y-124810000D01*
X133605000Y-124810000D02*
X135750000Y-124810000D01*
X135500000Y-118030000D02*
X135500000Y-118030000D01*
X135500000Y-118030000D02*
X138500000Y-118030000D01*
X135750000Y-124810000D02*
X133605000Y-124810000D01*
X135750000Y-124810000D02*
X135750000Y-124810000D01*
X138000000Y-124810000D02*
X138000000Y-124810000D01*
X138000000Y-124810000D02*
X140315000Y-124810000D01*
X138500000Y-118030000D02*
X135500000Y-118030000D01*
X138500000Y-118030000D02*
X138500000Y-118030000D01*
X140315000Y-120000000D02*
X140315000Y-120000000D01*
X140315000Y-120000000D02*
X140315000Y-124810000D01*
X140315000Y-124810000D02*
X138000000Y-124810000D01*
X140315000Y-124810000D02*
X140315000Y-120000000D01*
X140315000Y-124810000D02*
X140315000Y-124810000D01*
X140315000Y-124810000D02*
X140315000Y-124810000D01*
D13*
X140900000Y-119000000D02*
X140900000Y-119000000D01*
X140900000Y-119000000D02*
X140900000Y-119000000D01*
X141000000Y-119000000D02*
X141000000Y-119000000D01*
X140900000Y-119000000D02*
G75*
G02*
X141000000Y-119000000I50000J0D01*
G01*
X141000000Y-119000000D02*
G75*
G02*
X140900000Y-119000000I-50000J0D01*
G01*
X141000000Y-119000000D02*
G75*
G02*
X140900000Y-119000000I-50000J0D01*
G01*
D12*
X143302500Y-129000000D02*
X143302500Y-129000000D01*
X143302500Y-129000000D02*
X143302500Y-133810000D01*
X143302500Y-133810000D02*
X143302500Y-129000000D01*
X143302500Y-133810000D02*
X143302500Y-133810000D01*
X143302500Y-133810000D02*
X143302500Y-133810000D01*
X143302500Y-133810000D02*
X145447500Y-133810000D01*
X145197500Y-127030000D02*
X145197500Y-127030000D01*
X145197500Y-127030000D02*
X148197500Y-127030000D01*
X145447500Y-133810000D02*
X143302500Y-133810000D01*
X145447500Y-133810000D02*
X145447500Y-133810000D01*
X147697500Y-133810000D02*
X147697500Y-133810000D01*
X147697500Y-133810000D02*
X150012500Y-133810000D01*
X148197500Y-127030000D02*
X145197500Y-127030000D01*
X148197500Y-127030000D02*
X148197500Y-127030000D01*
X150012500Y-129000000D02*
X150012500Y-129000000D01*
X150012500Y-129000000D02*
X150012500Y-133810000D01*
X150012500Y-133810000D02*
X147697500Y-133810000D01*
X150012500Y-133810000D02*
X150012500Y-129000000D01*
X150012500Y-133810000D02*
X150012500Y-133810000D01*
X150012500Y-133810000D02*
X150012500Y-133810000D01*
D13*
X150597500Y-128000000D02*
X150597500Y-128000000D01*
X150597500Y-128000000D02*
X150597500Y-128000000D01*
X150697500Y-128000000D02*
X150697500Y-128000000D01*
X150597500Y-128000000D02*
G75*
G02*
X150697500Y-128000000I50000J0D01*
G01*
X150697500Y-128000000D02*
G75*
G02*
X150597500Y-128000000I-50000J0D01*
G01*
X150697500Y-128000000D02*
G75*
G02*
X150597500Y-128000000I-50000J0D01*
G01*
D12*
X133605000Y-129000000D02*
X133605000Y-129000000D01*
X133605000Y-129000000D02*
X133605000Y-133810000D01*
X133605000Y-133810000D02*
X133605000Y-129000000D01*
X133605000Y-133810000D02*
X133605000Y-133810000D01*
X133605000Y-133810000D02*
X133605000Y-133810000D01*
X133605000Y-133810000D02*
X135750000Y-133810000D01*
X135500000Y-127030000D02*
X135500000Y-127030000D01*
X135500000Y-127030000D02*
X138500000Y-127030000D01*
X135750000Y-133810000D02*
X133605000Y-133810000D01*
X135750000Y-133810000D02*
X135750000Y-133810000D01*
X138000000Y-133810000D02*
X138000000Y-133810000D01*
X138000000Y-133810000D02*
X140315000Y-133810000D01*
X138500000Y-127030000D02*
X135500000Y-127030000D01*
X138500000Y-127030000D02*
X138500000Y-127030000D01*
X140315000Y-129000000D02*
X140315000Y-129000000D01*
X140315000Y-129000000D02*
X140315000Y-133810000D01*
X140315000Y-133810000D02*
X138000000Y-133810000D01*
X140315000Y-133810000D02*
X140315000Y-129000000D01*
X140315000Y-133810000D02*
X140315000Y-133810000D01*
X140315000Y-133810000D02*
X140315000Y-133810000D01*
D13*
X140900000Y-128000000D02*
X140900000Y-128000000D01*
X140900000Y-128000000D02*
X140900000Y-128000000D01*
X141000000Y-128000000D02*
X141000000Y-128000000D01*
X140900000Y-128000000D02*
G75*
G02*
X141000000Y-128000000I50000J0D01*
G01*
X141000000Y-128000000D02*
G75*
G02*
X140900000Y-128000000I-50000J0D01*
G01*
X141000000Y-128000000D02*
G75*
G02*
X140900000Y-128000000I-50000J0D01*
G01*
D14*
X170200000Y-61600000D02*
X159800000Y-61600000D01*
X170200000Y-61600000D02*
X170200000Y-70600000D01*
X159800000Y-61600000D02*
X159800000Y-70600000D01*
X172000000Y-70600000D02*
X172000000Y-95600000D01*
X170200000Y-70600000D02*
X172000000Y-70600000D01*
X158000000Y-70600000D02*
X159800000Y-70600000D01*
X172000000Y-95600000D02*
X158000000Y-95600000D01*
X158000000Y-95600000D02*
X158000000Y-70600000D01*
D13*
X172600000Y-78100000D02*
G75*
G02*
X172400000Y-78100000I-100000J0D01*
G01*
X172400000Y-78100000D02*
G75*
G02*
X172600000Y-78100000I100000J0D01*
G01*
D14*
X152200000Y-61600000D02*
X141800000Y-61600000D01*
X152200000Y-61600000D02*
X152200000Y-70600000D01*
X141800000Y-61600000D02*
X141800000Y-70600000D01*
X154000000Y-70600000D02*
X154000000Y-95600000D01*
X152200000Y-70600000D02*
X154000000Y-70600000D01*
X140000000Y-70600000D02*
X141800000Y-70600000D01*
X154000000Y-95600000D02*
X140000000Y-95600000D01*
X140000000Y-95600000D02*
X140000000Y-70600000D01*
D13*
X154600000Y-78100000D02*
G75*
G02*
X154400000Y-78100000I-100000J0D01*
G01*
X154400000Y-78100000D02*
G75*
G02*
X154600000Y-78100000I100000J0D01*
G01*
X135932000Y-88000000D02*
X135500000Y-88432000D01*
X135932000Y-87068000D02*
X135932000Y-88000000D01*
X135500000Y-88432000D02*
X134568000Y-88432000D01*
X134568000Y-88432000D02*
X134568000Y-87068000D01*
X134568000Y-87068000D02*
X135932000Y-87068000D01*
X136032000Y-88432000D02*
G75*
G02*
X135832000Y-88432000I-100000J0D01*
G01*
X135832000Y-88432000D02*
G75*
G02*
X136032000Y-88432000I100000J0D01*
G01*
X128500000Y-130400000D02*
G75*
G02*
X128300000Y-130400000I-100000J0D01*
G01*
X128300000Y-130400000D02*
G75*
G02*
X128500000Y-130400000I100000J0D01*
G01*
X159313000Y-125055000D02*
X160838000Y-125055000D01*
X161188000Y-125185000D02*
X164388000Y-125185000D01*
X161188000Y-130085000D02*
X161188000Y-125185000D01*
X164388000Y-125185000D02*
X164388000Y-130085000D01*
X164388000Y-130085000D02*
X161188000Y-130085000D01*
X159313000Y-118505000D02*
X160838000Y-118505000D01*
X161188000Y-118635000D02*
X164388000Y-118635000D01*
X161188000Y-123535000D02*
X161188000Y-118635000D01*
X164388000Y-118635000D02*
X164388000Y-123535000D01*
X164388000Y-123535000D02*
X161188000Y-123535000D01*
X159313000Y-111955000D02*
X160838000Y-111955000D01*
X161188000Y-112085000D02*
X164388000Y-112085000D01*
X161188000Y-116985000D02*
X161188000Y-112085000D01*
X164388000Y-112085000D02*
X164388000Y-116985000D01*
X164388000Y-116985000D02*
X161188000Y-116985000D01*
X159313000Y-105405000D02*
X160838000Y-105405000D01*
X161188000Y-105535000D02*
X164388000Y-105535000D01*
X161188000Y-110435000D02*
X161188000Y-105535000D01*
X164388000Y-105535000D02*
X164388000Y-110435000D01*
X164388000Y-110435000D02*
X161188000Y-110435000D01*
X128400000Y-88900000D02*
G75*
G02*
X128200000Y-88900000I-100000J0D01*
G01*
X128200000Y-88900000D02*
G75*
G02*
X128400000Y-88900000I100000J0D01*
G01*
D15*
X174432807Y-131820001D02*
X174432807Y-134220001D01*
X174432807Y-134220001D02*
X179332807Y-134220001D01*
X179332807Y-131820001D02*
X174432807Y-131820001D01*
X179332807Y-134220001D02*
X179332807Y-131820001D01*
D13*
X125150000Y-69250000D02*
X128850000Y-69250000D01*
X125150000Y-75750000D02*
X125150000Y-69250000D01*
X128850000Y-69250000D02*
X128850000Y-75750000D01*
X128850000Y-75750000D02*
X125150000Y-75750000D01*
X130675000Y-76000000D02*
X129200000Y-76000000D01*
D15*
X153257007Y-131359801D02*
X153257007Y-134019801D01*
X166017007Y-131359801D02*
X153257007Y-131359801D01*
X166017007Y-131359801D02*
X166017007Y-134019801D01*
X166017007Y-134019801D02*
X153257007Y-134019801D01*
X167287007Y-131359801D02*
X168617007Y-131359801D01*
X168617007Y-131359801D02*
X168617007Y-132689801D01*
X115657207Y-131058001D02*
X115657207Y-133458001D01*
X115657207Y-133458001D02*
X120557207Y-133458001D01*
X120557207Y-131058001D02*
X115657207Y-131058001D01*
X120557207Y-133458001D02*
X120557207Y-131058001D01*
X109746807Y-62195601D02*
X111076807Y-62195601D01*
X109746807Y-63525601D02*
X109746807Y-62195601D01*
X109746807Y-64795601D02*
X109746807Y-133435601D01*
X109746807Y-64795601D02*
X112406807Y-64795601D01*
X109746807Y-133435601D02*
X112406807Y-133435601D01*
X112406807Y-64795601D02*
X112406807Y-133435601D01*
X174788748Y-118765000D02*
X175311252Y-118765000D01*
X174788748Y-120235000D02*
X175311252Y-120235000D01*
X174788748Y-105765000D02*
X175311252Y-105765000D01*
X174788748Y-107235000D02*
X175311252Y-107235000D01*
X174788748Y-112265000D02*
X175311252Y-112265000D01*
X174788748Y-113735000D02*
X175311252Y-113735000D01*
X182238407Y-130734001D02*
X182238407Y-62094001D01*
X184898407Y-62094001D02*
X182238407Y-62094001D01*
X184898407Y-130734001D02*
X182238407Y-130734001D01*
X184898407Y-130734001D02*
X184898407Y-62094001D01*
X184898407Y-132004001D02*
X184898407Y-133334001D01*
X184898407Y-133334001D02*
X183568407Y-133334001D01*
X174788748Y-125265000D02*
X175311252Y-125265000D01*
X174788748Y-126735000D02*
X175311252Y-126735000D01*
%LPC*%
D16*
X149197500Y-119000000D03*
X146657500Y-124080000D03*
X144117500Y-119000000D03*
X139500000Y-119000000D03*
X136960000Y-124080000D03*
X134420000Y-119000000D03*
X149197500Y-128000000D03*
X146657500Y-133080000D03*
X144117500Y-128000000D03*
X139500000Y-128000000D03*
X136960000Y-133080000D03*
X134420000Y-128000000D03*
D17*
X165000000Y-78100000D03*
X162500000Y-93000000D03*
X147000000Y-78100000D03*
X144500000Y-93000000D03*
D18*
X135500000Y-88000000D03*
X135000000Y-88000000D03*
X135500000Y-87500000D03*
X135000000Y-87500000D03*
D19*
X128000000Y-129800000D03*
X128000000Y-129400000D03*
X128000000Y-129000000D03*
X128000000Y-128600000D03*
X128000000Y-128200000D03*
D20*
X127300000Y-127500000D03*
X126900000Y-127500000D03*
X126500000Y-127500000D03*
X126100000Y-127500000D03*
X125700000Y-127500000D03*
D19*
X125000000Y-128200000D03*
X125000000Y-128600000D03*
X125000000Y-129000000D03*
X125000000Y-129400000D03*
X125000000Y-129800000D03*
D20*
X125700000Y-130500000D03*
X126100000Y-130500000D03*
X126500000Y-130500000D03*
X126900000Y-130500000D03*
X127300000Y-130500000D03*
D21*
X126500000Y-129000000D03*
D22*
X160076000Y-125730000D03*
X160076000Y-127000000D03*
X160076000Y-128270000D03*
X160076000Y-129540000D03*
X165500000Y-129540000D03*
X165500000Y-128270000D03*
X165500000Y-127000000D03*
X165500000Y-125730000D03*
X160076000Y-119180000D03*
X160076000Y-120450000D03*
X160076000Y-121720000D03*
X160076000Y-122990000D03*
X165500000Y-122990000D03*
X165500000Y-121720000D03*
X165500000Y-120450000D03*
X165500000Y-119180000D03*
X160076000Y-112630000D03*
X160076000Y-113900000D03*
X160076000Y-115170000D03*
X160076000Y-116440000D03*
X165500000Y-116440000D03*
X165500000Y-115170000D03*
X165500000Y-113900000D03*
X165500000Y-112630000D03*
X160076000Y-106080000D03*
X160076000Y-107350000D03*
X160076000Y-108620000D03*
X160076000Y-109890000D03*
X165500000Y-109890000D03*
X165500000Y-108620000D03*
X165500000Y-107350000D03*
X165500000Y-106080000D03*
D19*
X127900000Y-88300000D03*
X127900000Y-87900000D03*
X127900000Y-87500000D03*
X127900000Y-87100000D03*
X127900000Y-86700000D03*
D20*
X127200000Y-86000000D03*
X126800000Y-86000000D03*
X126400000Y-86000000D03*
X126000000Y-86000000D03*
X125600000Y-86000000D03*
D19*
X124900000Y-86700000D03*
X124900000Y-87100000D03*
X124900000Y-87500000D03*
X124900000Y-87900000D03*
X124900000Y-88300000D03*
D20*
X125600000Y-89000000D03*
X126000000Y-89000000D03*
X126400000Y-89000000D03*
X126800000Y-89000000D03*
X127200000Y-89000000D03*
D21*
X126400000Y-87500000D03*
D23*
X178132807Y-133020001D03*
X175592807Y-133020001D03*
D24*
X129938000Y-75425000D03*
X129938000Y-74775000D03*
X129938000Y-74125000D03*
X129938000Y-73475000D03*
X129938000Y-72825000D03*
X129938000Y-72175000D03*
X129938000Y-71525000D03*
X129938000Y-70875000D03*
X129938000Y-70225000D03*
X129938000Y-69575000D03*
X124062000Y-69575000D03*
X124062000Y-70225000D03*
X124062000Y-70875000D03*
X124062000Y-71525000D03*
X124062000Y-72175000D03*
X124062000Y-72825000D03*
X124062000Y-73475000D03*
X124062000Y-74125000D03*
X124062000Y-74775000D03*
X124062000Y-75425000D03*
D25*
X167287007Y-132689801D03*
D26*
X164747007Y-132689801D03*
X162207007Y-132689801D03*
X159667007Y-132689801D03*
X157127007Y-132689801D03*
X154587007Y-132689801D03*
D23*
X119357207Y-132258001D03*
X116817207Y-132258001D03*
D25*
X111076807Y-63525601D03*
D26*
X111076807Y-66065601D03*
X111076807Y-68605601D03*
X111076807Y-71145601D03*
X111076807Y-73685601D03*
X111076807Y-76225601D03*
X111076807Y-78765601D03*
X111076807Y-81305601D03*
X111076807Y-83845601D03*
X111076807Y-86385601D03*
X111076807Y-88925601D03*
X111076807Y-91465601D03*
X111076807Y-94005601D03*
X111076807Y-96545601D03*
X111076807Y-99085601D03*
X111076807Y-101625601D03*
X111076807Y-104165601D03*
X111076807Y-106705601D03*
X111076807Y-109245601D03*
X111076807Y-111785601D03*
X111076807Y-114325601D03*
X111076807Y-116865601D03*
X111076807Y-119405601D03*
X111076807Y-121945601D03*
X111076807Y-124485601D03*
X111076807Y-127025601D03*
X111076807Y-129565601D03*
X111076807Y-132105601D03*
D27*
X174100000Y-119500000D03*
X176000000Y-119500000D03*
X174100000Y-106500000D03*
X176000000Y-106500000D03*
X174100000Y-113000000D03*
X176000000Y-113000000D03*
D25*
X183568407Y-132004001D03*
D26*
X183568407Y-129464001D03*
X183568407Y-126924001D03*
X183568407Y-124384001D03*
X183568407Y-121844001D03*
X183568407Y-119304001D03*
X183568407Y-116764001D03*
X183568407Y-114224001D03*
X183568407Y-111684001D03*
X183568407Y-109144001D03*
X183568407Y-106604001D03*
X183568407Y-104064001D03*
X183568407Y-101524001D03*
X183568407Y-98984001D03*
X183568407Y-96444001D03*
X183568407Y-93904001D03*
X183568407Y-91364001D03*
X183568407Y-88824001D03*
X183568407Y-86284001D03*
X183568407Y-83744001D03*
X183568407Y-81204001D03*
X183568407Y-78664001D03*
X183568407Y-76124001D03*
X183568407Y-73584001D03*
X183568407Y-71044001D03*
X183568407Y-68504001D03*
X183568407Y-65964001D03*
X183568407Y-63424001D03*
D27*
X174100000Y-126000000D03*
X176000000Y-126000000D03*
%LPD*%
M02*
