%TF.GenerationSoftware,KiCad,Pcbnew,8.0.0*%
%TF.CreationDate,2024-04-16T18:42:12-05:00*%
%TF.ProjectId,BreakoutBoardPCB,42726561-6b6f-4757-9442-6f6172645043,rev?*%
%TF.SameCoordinates,Original*%
%TF.FileFunction,Copper,L2,Bot*%
%TF.FilePolarity,Positive*%
%FSLAX46Y46*%
G04 Gerber Fmt 4.6, Leading zero omitted, Abs format (unit mm)*
G04 Created by KiCad (PCBNEW 8.0.0) date 2024-04-16 18:42:12*
%MOMM*%
%LPD*%
G01*
G04 APERTURE LIST*
%TA.AperFunction,ComponentPad*%
%ADD10C,1.217000*%
%TD*%
%TA.AperFunction,ComponentPad*%
%ADD11O,1.508000X3.016000*%
%TD*%
%TA.AperFunction,ComponentPad*%
%ADD12C,2.000000*%
%TD*%
%TA.AperFunction,ComponentPad*%
%ADD13R,1.700000X1.700000*%
%TD*%
%TA.AperFunction,ComponentPad*%
%ADD14O,1.700000X1.700000*%
%TD*%
%TA.AperFunction,ViaPad*%
%ADD15C,0.500000*%
%TD*%
%TA.AperFunction,Conductor*%
%ADD16C,0.152400*%
%TD*%
G04 APERTURE END LIST*
D10*
X149197500Y-119000000D03*
X146657500Y-124080000D03*
X144117500Y-119000000D03*
X139500000Y-119000000D03*
X136960000Y-124080000D03*
X134420000Y-119000000D03*
X149197500Y-128000000D03*
X146657500Y-133080000D03*
X144117500Y-128000000D03*
X139500000Y-128000000D03*
X136960000Y-133080000D03*
X134420000Y-128000000D03*
D11*
X165000000Y-78100000D03*
X162500000Y-93000000D03*
X147000000Y-78100000D03*
X144500000Y-93000000D03*
D12*
X178132807Y-133020001D03*
X175592807Y-133020001D03*
D13*
X167287007Y-132689801D03*
D14*
X164747007Y-132689801D03*
X162207007Y-132689801D03*
X159667007Y-132689801D03*
X157127007Y-132689801D03*
X154587007Y-132689801D03*
D12*
X119357207Y-132258001D03*
X116817207Y-132258001D03*
D13*
X111076807Y-63525601D03*
D14*
X111076807Y-66065601D03*
X111076807Y-68605601D03*
X111076807Y-71145601D03*
X111076807Y-73685601D03*
X111076807Y-76225601D03*
X111076807Y-78765601D03*
X111076807Y-81305601D03*
X111076807Y-83845601D03*
X111076807Y-86385601D03*
X111076807Y-88925601D03*
X111076807Y-91465601D03*
X111076807Y-94005601D03*
X111076807Y-96545601D03*
X111076807Y-99085601D03*
X111076807Y-101625601D03*
X111076807Y-104165601D03*
X111076807Y-106705601D03*
X111076807Y-109245601D03*
X111076807Y-111785601D03*
X111076807Y-114325601D03*
X111076807Y-116865601D03*
X111076807Y-119405601D03*
X111076807Y-121945601D03*
X111076807Y-124485601D03*
X111076807Y-127025601D03*
X111076807Y-129565601D03*
X111076807Y-132105601D03*
D13*
X183568407Y-132004001D03*
D14*
X183568407Y-129464001D03*
X183568407Y-126924001D03*
X183568407Y-124384001D03*
X183568407Y-121844001D03*
X183568407Y-119304001D03*
X183568407Y-116764001D03*
X183568407Y-114224001D03*
X183568407Y-111684001D03*
X183568407Y-109144001D03*
X183568407Y-106604001D03*
X183568407Y-104064001D03*
X183568407Y-101524001D03*
X183568407Y-98984001D03*
X183568407Y-96444001D03*
X183568407Y-93904001D03*
X183568407Y-91364001D03*
X183568407Y-88824001D03*
X183568407Y-86284001D03*
X183568407Y-83744001D03*
X183568407Y-81204001D03*
X183568407Y-78664001D03*
X183568407Y-76124001D03*
X183568407Y-73584001D03*
X183568407Y-71044001D03*
X183568407Y-68504001D03*
X183568407Y-65964001D03*
X183568407Y-63424001D03*
D15*
X174100000Y-103500000D03*
X124500000Y-92000000D03*
X122411578Y-91911578D03*
X125157200Y-132000000D03*
X115000000Y-71000000D03*
X135500000Y-93000000D03*
X129500000Y-90000000D03*
X127500000Y-132000000D03*
X132500000Y-66500000D03*
X132000000Y-64000000D03*
X169000000Y-107500000D03*
X169000000Y-114000000D03*
X169000000Y-127000000D03*
X169000000Y-120500000D03*
X133500000Y-89000000D03*
X133500000Y-87500000D03*
X130000000Y-132500000D03*
X114000000Y-89500000D03*
X114000000Y-79000000D03*
X126800000Y-90300000D03*
X118000000Y-90000000D03*
X127000000Y-133500000D03*
X130000000Y-131500000D03*
X126500000Y-94000000D03*
X122000000Y-133000000D03*
X131500000Y-73500000D03*
X132000000Y-91000000D03*
X131500000Y-71000000D03*
X165000000Y-68500000D03*
X130000000Y-68500000D03*
X129500000Y-125500000D03*
X126500000Y-124000000D03*
X125500000Y-125000000D03*
X127000000Y-126000000D03*
X158500000Y-106000000D03*
X158500000Y-112500000D03*
X167035999Y-116500000D03*
X167035999Y-123000000D03*
X167000000Y-110000000D03*
X167000000Y-129500000D03*
X168000000Y-122000000D03*
X168000000Y-128000000D03*
X168000000Y-108500000D03*
X168000000Y-115500000D03*
X156500000Y-120500000D03*
X156500000Y-111500000D03*
X170000000Y-111500000D03*
X156500000Y-107500000D03*
X157500000Y-114000000D03*
X157500000Y-124500000D03*
X157500000Y-127000000D03*
X170000000Y-124500000D03*
X158500000Y-125500000D03*
X158500000Y-119500000D03*
X169500000Y-118000000D03*
D16*
X149000000Y-116000000D02*
X155000000Y-116000000D01*
X155000000Y-104000000D02*
X155500000Y-103500000D01*
X155000000Y-116000000D02*
X155000000Y-104000000D01*
X155500000Y-103500000D02*
X174100000Y-103500000D01*
X183568407Y-76124001D02*
X183568407Y-78664001D01*
X140000000Y-116000000D02*
X149000000Y-116000000D01*
X139500000Y-119000000D02*
X139500000Y-116500000D01*
X139500000Y-116500000D02*
X140000000Y-116000000D01*
X149000000Y-116000000D02*
X149197500Y-116197500D01*
X149197500Y-116197500D02*
X149197500Y-119000000D01*
X114725601Y-76225601D02*
X115000000Y-76500000D01*
X144500000Y-93000000D02*
X135500000Y-93000000D01*
X122500000Y-92000000D02*
X122411578Y-91911578D01*
X162500000Y-93000000D02*
X144500000Y-93000000D01*
X180500000Y-132000000D02*
X180504001Y-132004001D01*
X124500000Y-92000000D02*
X122500000Y-92000000D01*
X115000000Y-76500000D02*
X115000000Y-76000000D01*
X124500000Y-92000000D02*
X124500000Y-93000000D01*
X129500000Y-90000000D02*
X129500000Y-93000000D01*
X129500000Y-93000000D02*
X124500000Y-93000000D01*
X111076807Y-76225601D02*
X114725601Y-76225601D01*
X115000000Y-71000000D02*
X115000000Y-76000000D01*
X135500000Y-93000000D02*
X129500000Y-93000000D01*
X115000000Y-93000000D02*
X115000000Y-76500000D01*
X124500000Y-93000000D02*
X115000000Y-93000000D01*
X125157200Y-132000000D02*
X127500000Y-132000000D01*
X111076807Y-66065601D02*
X132065601Y-66065601D01*
X132065601Y-66065601D02*
X132500000Y-66500000D01*
X111076807Y-63525601D02*
X131525601Y-63525601D01*
X131525601Y-63525601D02*
X132000000Y-64000000D01*
X169000000Y-127000000D02*
X181500000Y-127000000D01*
X169000000Y-120500000D02*
X169000000Y-114000000D01*
X169000000Y-114000000D02*
X169000000Y-107500000D01*
X181500000Y-127000000D02*
X181500000Y-125000000D01*
X169000000Y-127000000D02*
X169000000Y-120500000D01*
X182115999Y-124384001D02*
X183568407Y-124384001D01*
X181500000Y-125000000D02*
X182115999Y-124384001D01*
X114000000Y-79000000D02*
X113765601Y-78765601D01*
X121500000Y-130000000D02*
X121500000Y-133500000D01*
X126800000Y-90300000D02*
X118300000Y-90300000D01*
X121500000Y-133500000D02*
X127000000Y-133500000D01*
X114000000Y-89500000D02*
X114000000Y-79000000D01*
X133500000Y-89000000D02*
X133500000Y-87500000D01*
X114000000Y-130000000D02*
X121500000Y-130000000D01*
X113765601Y-78765601D02*
X111076807Y-78765601D01*
X114000000Y-89500000D02*
X114000000Y-130000000D01*
X118300000Y-90300000D02*
X118000000Y-90000000D01*
X130000000Y-131500000D02*
X130000000Y-132500000D01*
X131500000Y-73500000D02*
X131584001Y-73584001D01*
X122000000Y-94000000D02*
X122500000Y-94000000D01*
X122500000Y-94000000D02*
X126500000Y-94000000D01*
X132000000Y-91000000D02*
X132000000Y-73584001D01*
X122000000Y-133000000D02*
X122000000Y-132000000D01*
X131584001Y-73584001D02*
X132000000Y-73584001D01*
X131500000Y-71000000D02*
X131500000Y-73500000D01*
X122000000Y-132000000D02*
X122000000Y-94000000D01*
X132000000Y-73584001D02*
X183568407Y-73584001D01*
X130000000Y-68500000D02*
X165000000Y-68500000D01*
X146500000Y-125500000D02*
X146657500Y-125657500D01*
X129500000Y-125500000D02*
X146500000Y-125500000D01*
X146657500Y-125657500D02*
X146657500Y-133080000D01*
X126500000Y-124000000D02*
X127500000Y-124000000D01*
X127500000Y-124000000D02*
X127580000Y-124080000D01*
X127580000Y-124080000D02*
X136960000Y-124080000D01*
X146657500Y-124080000D02*
X143420000Y-124080000D01*
X143420000Y-124080000D02*
X142500000Y-125000000D01*
X142500000Y-125000000D02*
X126823157Y-125000000D01*
X126823157Y-125000000D02*
X125500000Y-125000000D01*
X129000000Y-126000000D02*
X127000000Y-126000000D01*
X136960000Y-133080000D02*
X129080000Y-133080000D01*
X129080000Y-133080000D02*
X129000000Y-133000000D01*
X129000000Y-133000000D02*
X129000000Y-126000000D01*
X159000000Y-104500000D02*
X181500000Y-104500000D01*
X181500000Y-104500000D02*
X181500000Y-113500000D01*
X181500000Y-113500000D02*
X182224001Y-114224001D01*
X158500000Y-112500000D02*
X158500000Y-106000000D01*
X158500000Y-105000000D02*
X159000000Y-104500000D01*
X182224001Y-114224001D02*
X183568407Y-114224001D01*
X158500000Y-106000000D02*
X158500000Y-105000000D01*
X167035999Y-129464001D02*
X167035999Y-123000000D01*
X183568407Y-129464001D02*
X167035999Y-129464001D01*
X167035999Y-110035999D02*
X167000000Y-110000000D01*
X167035999Y-129464001D02*
X167000000Y-129500000D01*
X167035999Y-116500000D02*
X167035999Y-110035999D01*
X167035999Y-123000000D02*
X167035999Y-116500000D01*
X168000000Y-128000000D02*
X182492408Y-128000000D01*
X182492408Y-128000000D02*
X183568407Y-126924001D01*
X168000000Y-122000000D02*
X168000000Y-115500000D01*
X168000000Y-115500000D02*
X168000000Y-108500000D01*
X168000000Y-128000000D02*
X168000000Y-127500000D01*
X168000000Y-127500000D02*
X168000000Y-122000000D01*
X182264001Y-116764001D02*
X183568407Y-116764001D01*
X170000000Y-111500000D02*
X177000000Y-111500000D01*
X177000000Y-111500000D02*
X182264001Y-116764001D01*
X156500000Y-120500000D02*
X156500000Y-107500000D01*
X157500000Y-124500000D02*
X157500000Y-127000000D01*
X181655999Y-121844001D02*
X183568407Y-121844001D01*
X181500000Y-124500000D02*
X181500000Y-122000000D01*
X157500000Y-114000000D02*
X157500000Y-124500000D01*
X170000000Y-124500000D02*
X181500000Y-124500000D01*
X181500000Y-122000000D02*
X181655999Y-121844001D01*
X181500000Y-118000000D02*
X182804001Y-119304001D01*
X158500000Y-125000000D02*
X158500000Y-119500000D01*
X169500000Y-118000000D02*
X181500000Y-118000000D01*
X158500000Y-125500000D02*
X158500000Y-125000000D01*
X182804001Y-119304001D02*
X183568407Y-119304001D01*
X183568407Y-65964001D02*
X183568407Y-68504001D01*
%TA.AperFunction,Conductor*%
G36*
X118890996Y-130604702D02*
G01*
X118937489Y-130658358D01*
X118947593Y-130728632D01*
X118918099Y-130793212D01*
X118871093Y-130827109D01*
X118670473Y-130910207D01*
X118483315Y-131024898D01*
X118483315Y-131024899D01*
X119232259Y-131773843D01*
X119164214Y-131792076D01*
X119050200Y-131857902D01*
X118957108Y-131950994D01*
X118891282Y-132065008D01*
X118873049Y-132133053D01*
X118124104Y-131384108D01*
X118102018Y-131386723D01*
X118072400Y-131386723D01*
X118050308Y-131384108D01*
X117301364Y-132133052D01*
X117283132Y-132065008D01*
X117217306Y-131950994D01*
X117124214Y-131857902D01*
X117010200Y-131792076D01*
X116942153Y-131773842D01*
X117691097Y-131024898D01*
X117691097Y-131024897D01*
X117503945Y-130910209D01*
X117303321Y-130827109D01*
X117248040Y-130782561D01*
X117225619Y-130715198D01*
X117243177Y-130646406D01*
X117295139Y-130598028D01*
X117351539Y-130584700D01*
X118822875Y-130584700D01*
X118890996Y-130604702D01*
G37*
%TD.AperFunction*%
%TA.AperFunction,Conductor*%
G36*
X120857421Y-130604702D02*
G01*
X120903914Y-130658358D01*
X120915300Y-130710700D01*
X120915300Y-131467682D01*
X120895298Y-131535803D01*
X120841642Y-131582296D01*
X120771368Y-131592400D01*
X120706788Y-131562906D01*
X120681868Y-131533517D01*
X120590309Y-131384109D01*
X120590308Y-131384108D01*
X119841364Y-132133052D01*
X119823132Y-132065008D01*
X119757306Y-131950994D01*
X119664214Y-131857902D01*
X119550200Y-131792076D01*
X119482153Y-131773842D01*
X120231097Y-131024898D01*
X120231097Y-131024897D01*
X120043945Y-130910209D01*
X119843321Y-130827109D01*
X119788040Y-130782561D01*
X119765619Y-130715198D01*
X119783177Y-130646406D01*
X119835139Y-130598028D01*
X119891539Y-130584700D01*
X120789300Y-130584700D01*
X120857421Y-130604702D01*
G37*
%TD.AperFunction*%
%TA.AperFunction,Conductor*%
G36*
X183822407Y-90933298D02*
G01*
X183761400Y-90898076D01*
X183634233Y-90864001D01*
X183502581Y-90864001D01*
X183375414Y-90898076D01*
X183314407Y-90933298D01*
X183314407Y-89254703D01*
X183375414Y-89289926D01*
X183502581Y-89324001D01*
X183634233Y-89324001D01*
X183761400Y-89289926D01*
X183822407Y-89254703D01*
X183822407Y-90933298D01*
G37*
%TD.AperFunction*%
%TA.AperFunction,Conductor*%
G36*
X185313928Y-61290503D02*
G01*
X185360421Y-61344159D01*
X185371807Y-61396501D01*
X185371807Y-134875501D01*
X185351805Y-134943622D01*
X185298149Y-134990115D01*
X185245807Y-135001501D01*
X109399307Y-135001501D01*
X109331186Y-134981499D01*
X109284693Y-134927843D01*
X109273307Y-134875501D01*
X109273307Y-129565601D01*
X109713651Y-129565601D01*
X109722289Y-129669850D01*
X109732244Y-129789976D01*
X109787509Y-130008213D01*
X109787510Y-130008214D01*
X109787511Y-130008217D01*
X109866243Y-130187709D01*
X109877948Y-130214394D01*
X110001082Y-130402866D01*
X110001086Y-130402871D01*
X110153569Y-130568509D01*
X110183017Y-130591429D01*
X110331231Y-130706790D01*
X110365012Y-130725071D01*
X110415403Y-130775083D01*
X110430756Y-130844400D01*
X110406196Y-130911013D01*
X110365016Y-130946697D01*
X110331511Y-130964829D01*
X110331505Y-130964833D01*
X110153904Y-131103066D01*
X110001481Y-131268642D01*
X109878387Y-131457052D01*
X109787986Y-131663144D01*
X109787983Y-131663151D01*
X109740262Y-131851600D01*
X109740263Y-131851601D01*
X110646104Y-131851601D01*
X110610882Y-131912608D01*
X110576807Y-132039775D01*
X110576807Y-132171427D01*
X110610882Y-132298594D01*
X110646104Y-132359601D01*
X109740262Y-132359601D01*
X109787983Y-132548050D01*
X109787986Y-132548057D01*
X109878387Y-132754149D01*
X110001481Y-132942559D01*
X110153904Y-133108135D01*
X110331505Y-133246368D01*
X110331506Y-133246369D01*
X110529435Y-133353483D01*
X110529437Y-133353484D01*
X110742290Y-133426556D01*
X110742299Y-133426558D01*
X110822807Y-133439992D01*
X110822807Y-132536303D01*
X110883814Y-132571526D01*
X111010981Y-132605601D01*
X111142633Y-132605601D01*
X111269800Y-132571526D01*
X111330807Y-132536303D01*
X111330807Y-133439991D01*
X111411314Y-133426558D01*
X111411323Y-133426556D01*
X111624176Y-133353484D01*
X111624178Y-133353483D01*
X111822107Y-133246369D01*
X111822108Y-133246368D01*
X111999709Y-133108135D01*
X112152132Y-132942559D01*
X112275226Y-132754149D01*
X112365627Y-132548057D01*
X112365630Y-132548050D01*
X112413351Y-132359601D01*
X111507510Y-132359601D01*
X111542732Y-132298594D01*
X111576807Y-132171427D01*
X111576807Y-132039775D01*
X111542732Y-131912608D01*
X111507510Y-131851601D01*
X112413351Y-131851601D01*
X112413351Y-131851600D01*
X112365630Y-131663151D01*
X112365627Y-131663144D01*
X112275226Y-131457052D01*
X112152132Y-131268642D01*
X111999709Y-131103066D01*
X111822108Y-130964833D01*
X111822107Y-130964832D01*
X111788598Y-130946698D01*
X111738208Y-130896684D01*
X111722857Y-130827367D01*
X111747419Y-130760754D01*
X111788597Y-130725073D01*
X111822383Y-130706790D01*
X112000047Y-130568507D01*
X112152529Y-130402869D01*
X112275667Y-130214392D01*
X112366103Y-130008217D01*
X112421371Y-129789969D01*
X112439963Y-129565601D01*
X112421371Y-129341233D01*
X112366103Y-129122985D01*
X112275667Y-128916810D01*
X112261551Y-128895204D01*
X112152531Y-128728335D01*
X112152527Y-128728330D01*
X112000044Y-128562692D01*
X111918189Y-128498982D01*
X111822383Y-128424412D01*
X111789126Y-128406414D01*
X111738736Y-128356403D01*
X111723383Y-128287086D01*
X111747943Y-128220473D01*
X111789127Y-128184787D01*
X111822383Y-128166790D01*
X112000047Y-128028507D01*
X112152529Y-127862869D01*
X112275667Y-127674392D01*
X112366103Y-127468217D01*
X112421371Y-127249969D01*
X112439963Y-127025601D01*
X112421371Y-126801233D01*
X112369594Y-126596771D01*
X112366104Y-126582988D01*
X112366103Y-126582987D01*
X112366103Y-126582985D01*
X112275667Y-126376810D01*
X112248910Y-126335855D01*
X112152531Y-126188335D01*
X112152527Y-126188330D01*
X112000044Y-126022692D01*
X111918189Y-125958982D01*
X111822383Y-125884412D01*
X111789126Y-125866414D01*
X111738736Y-125816403D01*
X111723383Y-125747086D01*
X111747943Y-125680473D01*
X111789127Y-125644787D01*
X111822383Y-125626790D01*
X112000047Y-125488507D01*
X112152529Y-125322869D01*
X112275667Y-125134392D01*
X112366103Y-124928217D01*
X112421371Y-124709969D01*
X112439963Y-124485601D01*
X112421371Y-124261233D01*
X112375478Y-124080004D01*
X112366104Y-124042988D01*
X112366103Y-124042987D01*
X112366103Y-124042985D01*
X112275667Y-123836810D01*
X112242923Y-123786692D01*
X112152531Y-123648335D01*
X112152527Y-123648330D01*
X112000044Y-123482692D01*
X111888646Y-123395987D01*
X111822383Y-123344412D01*
X111789126Y-123326414D01*
X111738736Y-123276403D01*
X111723383Y-123207086D01*
X111747943Y-123140473D01*
X111789127Y-123104787D01*
X111822383Y-123086790D01*
X112000047Y-122948507D01*
X112152529Y-122782869D01*
X112275667Y-122594392D01*
X112366103Y-122388217D01*
X112421371Y-122169969D01*
X112439963Y-121945601D01*
X112421371Y-121721233D01*
X112421369Y-121721225D01*
X112366104Y-121502988D01*
X112366103Y-121502987D01*
X112366103Y-121502985D01*
X112275667Y-121296810D01*
X112244167Y-121248595D01*
X112152531Y-121108335D01*
X112152527Y-121108330D01*
X112000044Y-120942692D01*
X111918189Y-120878982D01*
X111822383Y-120804412D01*
X111789126Y-120786414D01*
X111738736Y-120736403D01*
X111723383Y-120667086D01*
X111747943Y-120600473D01*
X111789127Y-120564787D01*
X111822383Y-120546790D01*
X112000047Y-120408507D01*
X112152529Y-120242869D01*
X112275667Y-120054392D01*
X112366103Y-119848217D01*
X112421371Y-119629969D01*
X112439963Y-119405601D01*
X112421371Y-119181233D01*
X112375477Y-119000001D01*
X112366104Y-118962988D01*
X112366103Y-118962987D01*
X112366103Y-118962985D01*
X112275667Y-118756810D01*
X112248959Y-118715930D01*
X112152531Y-118568335D01*
X112152527Y-118568330D01*
X112000044Y-118402692D01*
X111881006Y-118310041D01*
X111822383Y-118264412D01*
X111789126Y-118246414D01*
X111738736Y-118196403D01*
X111723383Y-118127086D01*
X111747943Y-118060473D01*
X111789127Y-118024787D01*
X111822383Y-118006790D01*
X112000047Y-117868507D01*
X112152529Y-117702869D01*
X112275667Y-117514392D01*
X112366103Y-117308217D01*
X112421371Y-117089969D01*
X112439963Y-116865601D01*
X112421371Y-116641233D01*
X112385606Y-116500000D01*
X112366104Y-116422988D01*
X112366103Y-116422987D01*
X112366103Y-116422985D01*
X112275667Y-116216810D01*
X112226129Y-116140986D01*
X112152531Y-116028335D01*
X112152527Y-116028330D01*
X112000044Y-115862692D01*
X111918189Y-115798982D01*
X111822383Y-115724412D01*
X111789126Y-115706414D01*
X111738736Y-115656403D01*
X111723383Y-115587086D01*
X111747943Y-115520473D01*
X111789127Y-115484787D01*
X111822383Y-115466790D01*
X112000047Y-115328507D01*
X112152529Y-115162869D01*
X112275667Y-114974392D01*
X112366103Y-114768217D01*
X112421371Y-114549969D01*
X112439963Y-114325601D01*
X112421371Y-114101233D01*
X112366103Y-113882985D01*
X112275667Y-113676810D01*
X112210442Y-113576975D01*
X112152531Y-113488335D01*
X112152527Y-113488330D01*
X112000044Y-113322692D01*
X111884041Y-113232403D01*
X111822383Y-113184412D01*
X111789126Y-113166414D01*
X111738736Y-113116403D01*
X111723383Y-113047086D01*
X111747943Y-112980473D01*
X111789127Y-112944787D01*
X111822383Y-112926790D01*
X112000047Y-112788507D01*
X112152529Y-112622869D01*
X112275667Y-112434392D01*
X112366103Y-112228217D01*
X112421371Y-112009969D01*
X112439963Y-111785601D01*
X112421371Y-111561233D01*
X112366103Y-111342985D01*
X112275667Y-111136810D01*
X112240952Y-111083674D01*
X112152531Y-110948335D01*
X112152527Y-110948330D01*
X112027291Y-110812290D01*
X112000047Y-110782695D01*
X112000046Y-110782694D01*
X112000044Y-110782692D01*
X111918189Y-110718982D01*
X111822383Y-110644412D01*
X111789126Y-110626414D01*
X111738736Y-110576403D01*
X111723383Y-110507086D01*
X111747943Y-110440473D01*
X111789127Y-110404787D01*
X111822383Y-110386790D01*
X112000047Y-110248507D01*
X112152529Y-110082869D01*
X112275667Y-109894392D01*
X112366103Y-109688217D01*
X112421371Y-109469969D01*
X112439963Y-109245601D01*
X112421371Y-109021233D01*
X112373244Y-108831183D01*
X112366104Y-108802988D01*
X112366103Y-108802987D01*
X112366103Y-108802985D01*
X112275667Y-108596810D01*
X112212418Y-108500000D01*
X112152531Y-108408335D01*
X112152527Y-108408330D01*
X112000044Y-108242692D01*
X111918189Y-108178982D01*
X111822383Y-108104412D01*
X111789126Y-108086414D01*
X111738736Y-108036403D01*
X111723383Y-107967086D01*
X111747943Y-107900473D01*
X111789127Y-107864787D01*
X111822383Y-107846790D01*
X112000047Y-107708507D01*
X112152529Y-107542869D01*
X112275667Y-107354392D01*
X112366103Y-107148217D01*
X112421371Y-106929969D01*
X112439963Y-106705601D01*
X112421371Y-106481233D01*
X112366103Y-106262985D01*
X112275667Y-106056810D01*
X112238551Y-106000000D01*
X112152531Y-105868335D01*
X112152527Y-105868330D01*
X112000044Y-105702692D01*
X111918189Y-105638982D01*
X111822383Y-105564412D01*
X111789126Y-105546414D01*
X111738736Y-105496403D01*
X111723383Y-105427086D01*
X111747943Y-105360473D01*
X111789127Y-105324787D01*
X111822383Y-105306790D01*
X112000047Y-105168507D01*
X112152529Y-105002869D01*
X112275667Y-104814392D01*
X112366103Y-104608217D01*
X112421371Y-104389969D01*
X112439963Y-104165601D01*
X112421371Y-103941233D01*
X112366103Y-103722985D01*
X112275667Y-103516810D01*
X112268947Y-103506525D01*
X112152531Y-103328335D01*
X112152527Y-103328330D01*
X112000044Y-103162692D01*
X111918189Y-103098982D01*
X111822383Y-103024412D01*
X111821782Y-103024087D01*
X111789127Y-103006415D01*
X111738736Y-102956403D01*
X111723383Y-102887086D01*
X111747943Y-102820473D01*
X111789127Y-102784787D01*
X111822383Y-102766790D01*
X112000047Y-102628507D01*
X112152529Y-102462869D01*
X112275667Y-102274392D01*
X112366103Y-102068217D01*
X112421371Y-101849969D01*
X112439963Y-101625601D01*
X112421371Y-101401233D01*
X112366103Y-101182985D01*
X112275667Y-100976810D01*
X112268947Y-100966525D01*
X112152531Y-100788335D01*
X112152527Y-100788330D01*
X112000044Y-100622692D01*
X111918189Y-100558982D01*
X111822383Y-100484412D01*
X111789126Y-100466414D01*
X111738736Y-100416403D01*
X111723383Y-100347086D01*
X111747943Y-100280473D01*
X111789127Y-100244787D01*
X111822383Y-100226790D01*
X112000047Y-100088507D01*
X112152529Y-99922869D01*
X112275667Y-99734392D01*
X112366103Y-99528217D01*
X112421371Y-99309969D01*
X112439963Y-99085601D01*
X112421371Y-98861233D01*
X112366103Y-98642985D01*
X112275667Y-98436810D01*
X112268947Y-98426525D01*
X112152531Y-98248335D01*
X112152527Y-98248330D01*
X112000044Y-98082692D01*
X111918189Y-98018982D01*
X111822383Y-97944412D01*
X111789126Y-97926414D01*
X111738736Y-97876403D01*
X111723383Y-97807086D01*
X111747943Y-97740473D01*
X111789127Y-97704787D01*
X111822383Y-97686790D01*
X112000047Y-97548507D01*
X112152529Y-97382869D01*
X112275667Y-97194392D01*
X112366103Y-96988217D01*
X112421371Y-96769969D01*
X112439963Y-96545601D01*
X112421371Y-96321233D01*
X112366103Y-96102985D01*
X112275667Y-95896810D01*
X112268947Y-95886525D01*
X112152531Y-95708335D01*
X112152527Y-95708330D01*
X112000044Y-95542692D01*
X111918189Y-95478982D01*
X111822383Y-95404412D01*
X111789126Y-95386414D01*
X111738736Y-95336403D01*
X111723383Y-95267086D01*
X111747943Y-95200473D01*
X111789127Y-95164787D01*
X111822383Y-95146790D01*
X112000047Y-95008507D01*
X112152529Y-94842869D01*
X112275667Y-94654392D01*
X112366103Y-94448217D01*
X112421371Y-94229969D01*
X112439963Y-94005601D01*
X112421371Y-93781233D01*
X112366103Y-93562985D01*
X112275667Y-93356810D01*
X112209698Y-93255837D01*
X112152531Y-93168335D01*
X112152527Y-93168330D01*
X112000044Y-93002692D01*
X111918189Y-92938982D01*
X111822383Y-92864412D01*
X111789126Y-92846414D01*
X111738736Y-92796403D01*
X111723383Y-92727086D01*
X111747943Y-92660473D01*
X111789127Y-92624787D01*
X111822383Y-92606790D01*
X112000047Y-92468507D01*
X112152529Y-92302869D01*
X112275667Y-92114392D01*
X112366103Y-91908217D01*
X112421371Y-91689969D01*
X112439963Y-91465601D01*
X112421371Y-91241233D01*
X112402482Y-91166643D01*
X112366104Y-91022988D01*
X112366103Y-91022987D01*
X112366103Y-91022985D01*
X112275667Y-90816810D01*
X112232661Y-90750984D01*
X112152531Y-90628335D01*
X112152527Y-90628330D01*
X112006632Y-90469848D01*
X112000047Y-90462695D01*
X112000046Y-90462694D01*
X112000044Y-90462692D01*
X111869989Y-90361466D01*
X111822383Y-90324412D01*
X111789126Y-90306414D01*
X111738736Y-90256403D01*
X111723383Y-90187086D01*
X111747943Y-90120473D01*
X111789127Y-90084787D01*
X111822383Y-90066790D01*
X112000047Y-89928507D01*
X112152529Y-89762869D01*
X112275667Y-89574392D01*
X112366103Y-89368217D01*
X112421371Y-89149969D01*
X112439963Y-88925601D01*
X112421371Y-88701233D01*
X112394132Y-88593669D01*
X112366104Y-88482988D01*
X112366103Y-88482987D01*
X112366103Y-88482985D01*
X112275667Y-88276810D01*
X112209447Y-88175452D01*
X112152531Y-88088335D01*
X112152527Y-88088330D01*
X112000044Y-87922692D01*
X111892893Y-87839293D01*
X111822383Y-87784412D01*
X111789126Y-87766414D01*
X111738736Y-87716403D01*
X111723383Y-87647086D01*
X111747943Y-87580473D01*
X111789127Y-87544787D01*
X111822383Y-87526790D01*
X112000047Y-87388507D01*
X112152529Y-87222869D01*
X112275667Y-87034392D01*
X112366103Y-86828217D01*
X112421371Y-86609969D01*
X112439963Y-86385601D01*
X112421371Y-86161233D01*
X112366103Y-85942985D01*
X112275667Y-85736810D01*
X112268947Y-85726525D01*
X112152531Y-85548335D01*
X112152527Y-85548330D01*
X112000044Y-85382692D01*
X111918189Y-85318982D01*
X111822383Y-85244412D01*
X111789126Y-85226414D01*
X111738736Y-85176403D01*
X111723383Y-85107086D01*
X111747943Y-85040473D01*
X111789127Y-85004787D01*
X111822383Y-84986790D01*
X112000047Y-84848507D01*
X112152529Y-84682869D01*
X112275667Y-84494392D01*
X112366103Y-84288217D01*
X112421371Y-84069969D01*
X112439963Y-83845601D01*
X112421371Y-83621233D01*
X112366103Y-83402985D01*
X112275667Y-83196810D01*
X112268947Y-83186525D01*
X112152531Y-83008335D01*
X112152527Y-83008330D01*
X112000044Y-82842692D01*
X111918189Y-82778982D01*
X111822383Y-82704412D01*
X111789126Y-82686414D01*
X111738736Y-82636403D01*
X111723383Y-82567086D01*
X111747943Y-82500473D01*
X111789127Y-82464787D01*
X111822383Y-82446790D01*
X112000047Y-82308507D01*
X112152529Y-82142869D01*
X112275667Y-81954392D01*
X112366103Y-81748217D01*
X112421371Y-81529969D01*
X112439963Y-81305601D01*
X112421371Y-81081233D01*
X112366103Y-80862985D01*
X112275667Y-80656810D01*
X112268947Y-80646525D01*
X112152531Y-80468335D01*
X112152527Y-80468330D01*
X112000044Y-80302692D01*
X111918189Y-80238982D01*
X111822383Y-80164412D01*
X111789126Y-80146414D01*
X111738736Y-80096403D01*
X111723383Y-80027086D01*
X111747943Y-79960473D01*
X111789127Y-79924787D01*
X111822383Y-79906790D01*
X112000047Y-79768507D01*
X112152529Y-79602869D01*
X112218908Y-79501269D01*
X112278517Y-79410030D01*
X112279944Y-79410962D01*
X112324635Y-79365939D01*
X112385431Y-79350301D01*
X113254666Y-79350301D01*
X113322787Y-79370303D01*
X113361353Y-79409264D01*
X113395987Y-79464383D01*
X113415300Y-79531420D01*
X113415300Y-88968580D01*
X113395987Y-89035617D01*
X113312290Y-89168817D01*
X113255837Y-89330151D01*
X113236701Y-89500000D01*
X113255837Y-89669848D01*
X113312290Y-89831182D01*
X113312291Y-89831183D01*
X113395987Y-89964384D01*
X113415300Y-90031419D01*
X113415300Y-130076975D01*
X113415299Y-130076975D01*
X113455147Y-130225686D01*
X113532121Y-130359010D01*
X113532129Y-130359020D01*
X113640979Y-130467870D01*
X113640984Y-130467874D01*
X113640986Y-130467876D01*
X113774314Y-130544853D01*
X113923023Y-130584700D01*
X114076977Y-130584700D01*
X116282875Y-130584700D01*
X116350996Y-130604702D01*
X116397489Y-130658358D01*
X116407593Y-130728632D01*
X116378099Y-130793212D01*
X116331093Y-130827109D01*
X116130473Y-130910207D01*
X115943315Y-131024898D01*
X115943315Y-131024899D01*
X116692259Y-131773843D01*
X116624214Y-131792076D01*
X116510200Y-131857902D01*
X116417108Y-131950994D01*
X116351282Y-132065008D01*
X116333049Y-132133053D01*
X115584105Y-131384109D01*
X115584104Y-131384109D01*
X115469413Y-131571267D01*
X115378578Y-131790563D01*
X115323167Y-132021368D01*
X115304544Y-132258001D01*
X115323167Y-132494633D01*
X115378578Y-132725438D01*
X115469415Y-132944739D01*
X115584103Y-133131891D01*
X115584104Y-133131891D01*
X116333048Y-132382947D01*
X116351282Y-132450994D01*
X116417108Y-132565008D01*
X116510200Y-132658100D01*
X116624214Y-132723926D01*
X116692258Y-132742158D01*
X115943314Y-133491102D01*
X115943315Y-133491103D01*
X116130468Y-133605792D01*
X116349769Y-133696629D01*
X116580574Y-133752040D01*
X116817207Y-133770663D01*
X117053839Y-133752040D01*
X117284644Y-133696629D01*
X117503945Y-133605792D01*
X117691097Y-133491103D01*
X117691098Y-133491103D01*
X116942154Y-132742159D01*
X117010200Y-132723926D01*
X117124214Y-132658100D01*
X117217306Y-132565008D01*
X117283132Y-132450994D01*
X117301365Y-132382948D01*
X118050308Y-133131891D01*
X118072399Y-133129277D01*
X118102020Y-133129278D01*
X118124104Y-133131892D01*
X118873048Y-132382947D01*
X118891282Y-132450994D01*
X118957108Y-132565008D01*
X119050200Y-132658100D01*
X119164214Y-132723926D01*
X119232258Y-132742158D01*
X118483314Y-133491102D01*
X118483315Y-133491103D01*
X118670468Y-133605792D01*
X118889769Y-133696629D01*
X119120574Y-133752040D01*
X119357207Y-133770663D01*
X119593839Y-133752040D01*
X119824644Y-133696629D01*
X120043945Y-133605792D01*
X120231097Y-133491103D01*
X120231098Y-133491103D01*
X119482154Y-132742159D01*
X119550200Y-132723926D01*
X119664214Y-132658100D01*
X119757306Y-132565008D01*
X119823132Y-132450994D01*
X119841365Y-132382948D01*
X120590309Y-133131892D01*
X120590309Y-133131891D01*
X120681868Y-132982484D01*
X120734515Y-132934853D01*
X120804557Y-132923246D01*
X120869754Y-132951349D01*
X120909408Y-133010240D01*
X120915300Y-133048319D01*
X120915300Y-133576975D01*
X120915299Y-133576975D01*
X120955147Y-133725686D01*
X121032121Y-133859010D01*
X121032129Y-133859020D01*
X121140979Y-133967870D01*
X121140984Y-133967874D01*
X121140986Y-133967876D01*
X121140987Y-133967877D01*
X121140989Y-133967878D01*
X121180501Y-133990690D01*
X121274314Y-134044853D01*
X121423023Y-134084700D01*
X126468580Y-134084700D01*
X126535616Y-134104012D01*
X126668817Y-134187709D01*
X126830150Y-134244162D01*
X126830149Y-134244162D01*
X126847348Y-134246099D01*
X127000000Y-134263299D01*
X127169850Y-134244162D01*
X127331183Y-134187709D01*
X127475909Y-134096771D01*
X127596771Y-133975909D01*
X127687709Y-133831183D01*
X127744162Y-133669850D01*
X127763299Y-133500000D01*
X127744162Y-133330150D01*
X127687709Y-133168817D01*
X127596771Y-133024091D01*
X127596769Y-133024089D01*
X127596768Y-133024087D01*
X127475912Y-132903231D01*
X127464383Y-132895987D01*
X127360823Y-132830915D01*
X127331182Y-132812290D01*
X127231270Y-132777330D01*
X127169850Y-132755838D01*
X127169848Y-132755837D01*
X127169850Y-132755837D01*
X127000000Y-132736701D01*
X126830151Y-132755837D01*
X126668817Y-132812290D01*
X126622105Y-132841642D01*
X126535616Y-132895987D01*
X126468580Y-132915300D01*
X122863359Y-132915300D01*
X122795238Y-132895298D01*
X122748745Y-132841642D01*
X122744430Y-132830915D01*
X122687709Y-132668817D01*
X122656973Y-132619902D01*
X122604012Y-132535616D01*
X122584700Y-132468580D01*
X122584700Y-125000000D01*
X124736701Y-125000000D01*
X124755837Y-125169848D01*
X124812290Y-125331182D01*
X124903231Y-125475912D01*
X125024087Y-125596768D01*
X125024089Y-125596769D01*
X125024091Y-125596771D01*
X125168817Y-125687709D01*
X125330150Y-125744162D01*
X125330149Y-125744162D01*
X125347348Y-125746099D01*
X125500000Y-125763299D01*
X125669850Y-125744162D01*
X125831183Y-125687709D01*
X125964383Y-125604012D01*
X126031420Y-125584700D01*
X126164145Y-125584700D01*
X126232266Y-125604702D01*
X126278759Y-125658358D01*
X126288863Y-125728632D01*
X126283075Y-125752309D01*
X126260648Y-125816403D01*
X126255837Y-125830153D01*
X126236701Y-126000000D01*
X126255837Y-126169848D01*
X126312290Y-126331182D01*
X126403231Y-126475912D01*
X126524087Y-126596768D01*
X126524089Y-126596769D01*
X126524091Y-126596771D01*
X126668817Y-126687709D01*
X126830150Y-126744162D01*
X126830149Y-126744162D01*
X126847348Y-126746099D01*
X127000000Y-126763299D01*
X127169850Y-126744162D01*
X127331183Y-126687709D01*
X127464383Y-126604012D01*
X127531420Y-126584700D01*
X128289300Y-126584700D01*
X128357421Y-126604702D01*
X128403914Y-126658358D01*
X128415300Y-126710700D01*
X128415300Y-133076975D01*
X128415299Y-133076975D01*
X128455147Y-133225686D01*
X128501335Y-133305686D01*
X128532121Y-133359010D01*
X128532123Y-133359013D01*
X128532124Y-133359014D01*
X128612124Y-133439014D01*
X128720986Y-133547876D01*
X128854314Y-133624853D01*
X129003023Y-133664700D01*
X135939085Y-133664700D01*
X136007206Y-133684702D01*
X136039635Y-133714768D01*
X136130987Y-133835738D01*
X136283972Y-133975203D01*
X136342179Y-134011243D01*
X136459977Y-134084181D01*
X136653009Y-134158962D01*
X136856495Y-134197000D01*
X136856497Y-134197000D01*
X137063503Y-134197000D01*
X137063505Y-134197000D01*
X137266991Y-134158962D01*
X137460023Y-134084181D01*
X137636026Y-133975204D01*
X137789009Y-133835742D01*
X137913761Y-133670544D01*
X138006033Y-133485235D01*
X138062684Y-133286127D01*
X138076928Y-133132413D01*
X138081785Y-133080004D01*
X138081785Y-133079995D01*
X138065346Y-132902598D01*
X138062684Y-132873873D01*
X138006033Y-132674765D01*
X137913761Y-132489456D01*
X137849303Y-132404100D01*
X137789012Y-132324261D01*
X137636027Y-132184796D01*
X137460028Y-132075822D01*
X137460027Y-132075821D01*
X137460023Y-132075819D01*
X137319469Y-132021368D01*
X137266994Y-132001039D01*
X137266993Y-132001038D01*
X137266991Y-132001038D01*
X137063505Y-131963000D01*
X136856495Y-131963000D01*
X136653009Y-132001038D01*
X136653007Y-132001038D01*
X136653005Y-132001039D01*
X136459981Y-132075817D01*
X136459971Y-132075822D01*
X136283972Y-132184796D01*
X136130987Y-132324261D01*
X136039635Y-132445232D01*
X135982621Y-132487540D01*
X135939085Y-132495300D01*
X130875371Y-132495300D01*
X130807250Y-132475298D01*
X130760757Y-132421642D01*
X130750163Y-132383408D01*
X130744162Y-132330151D01*
X130718915Y-132258000D01*
X130687709Y-132168817D01*
X130623754Y-132067034D01*
X130604449Y-131998716D01*
X130623754Y-131932965D01*
X130687709Y-131831183D01*
X130744162Y-131669850D01*
X130763299Y-131500000D01*
X130744162Y-131330150D01*
X130687709Y-131168817D01*
X130596771Y-131024091D01*
X130596769Y-131024089D01*
X130596768Y-131024087D01*
X130475912Y-130903231D01*
X130331182Y-130812290D01*
X130224849Y-130775083D01*
X130169850Y-130755838D01*
X130169848Y-130755837D01*
X130169850Y-130755837D01*
X130000000Y-130736701D01*
X129830154Y-130755837D01*
X129830151Y-130755837D01*
X129830150Y-130755838D01*
X129775151Y-130775083D01*
X129752314Y-130783074D01*
X129681410Y-130786692D01*
X129619805Y-130751403D01*
X129587059Y-130688409D01*
X129584700Y-130664144D01*
X129584700Y-128948388D01*
X133830820Y-128948388D01*
X133920202Y-129003731D01*
X133920209Y-129003734D01*
X134113141Y-129078477D01*
X134113140Y-129078477D01*
X134316543Y-129116500D01*
X134523457Y-129116500D01*
X134726859Y-129078477D01*
X134919793Y-129003733D01*
X134919802Y-129003728D01*
X135009179Y-128948388D01*
X134420001Y-128359210D01*
X134420000Y-128359210D01*
X133830820Y-128948388D01*
X129584700Y-128948388D01*
X129584700Y-128000000D01*
X133298717Y-128000000D01*
X133317809Y-128206038D01*
X133374432Y-128405048D01*
X133466670Y-128590285D01*
X133468318Y-128592468D01*
X133468320Y-128592468D01*
X134014052Y-128046737D01*
X134065000Y-128046737D01*
X134089193Y-128137025D01*
X134135930Y-128217975D01*
X134202025Y-128284070D01*
X134282975Y-128330807D01*
X134373263Y-128355000D01*
X134466737Y-128355000D01*
X134557025Y-128330807D01*
X134637975Y-128284070D01*
X134704070Y-128217975D01*
X134750807Y-128137025D01*
X134775000Y-128046737D01*
X134775000Y-128000001D01*
X134779210Y-128000001D01*
X135371678Y-128592469D01*
X135371678Y-128592468D01*
X135373332Y-128590281D01*
X135465567Y-128405048D01*
X135522190Y-128206038D01*
X135541282Y-128000004D01*
X138378215Y-128000004D01*
X138397315Y-128206122D01*
X138397315Y-128206126D01*
X138453964Y-128405226D01*
X138453967Y-128405235D01*
X138546239Y-128590544D01*
X138546240Y-128590545D01*
X138546241Y-128590547D01*
X138670987Y-128755738D01*
X138823972Y-128895203D01*
X138870206Y-128923830D01*
X138999977Y-129004181D01*
X139193009Y-129078962D01*
X139396495Y-129117000D01*
X139396497Y-129117000D01*
X139603503Y-129117000D01*
X139603505Y-129117000D01*
X139806991Y-129078962D01*
X140000023Y-129004181D01*
X140090131Y-128948388D01*
X143528320Y-128948388D01*
X143617702Y-129003731D01*
X143617709Y-129003734D01*
X143810641Y-129078477D01*
X143810640Y-129078477D01*
X144014043Y-129116500D01*
X144220957Y-129116500D01*
X144424359Y-129078477D01*
X144617293Y-129003733D01*
X144617302Y-129003728D01*
X144706679Y-128948388D01*
X144117501Y-128359210D01*
X144117500Y-128359210D01*
X143528320Y-128948388D01*
X140090131Y-128948388D01*
X140176026Y-128895204D01*
X140329009Y-128755742D01*
X140453761Y-128590544D01*
X140546033Y-128405235D01*
X140602684Y-128206127D01*
X140619143Y-128028509D01*
X140621785Y-128000004D01*
X140621785Y-128000000D01*
X142996217Y-128000000D01*
X143015309Y-128206038D01*
X143071932Y-128405048D01*
X143164170Y-128590285D01*
X143165818Y-128592468D01*
X143165820Y-128592468D01*
X143711552Y-128046737D01*
X143762500Y-128046737D01*
X143786693Y-128137025D01*
X143833430Y-128217975D01*
X143899525Y-128284070D01*
X143980475Y-128330807D01*
X144070763Y-128355000D01*
X144164237Y-128355000D01*
X144254525Y-128330807D01*
X144335475Y-128284070D01*
X144401570Y-128217975D01*
X144448307Y-128137025D01*
X144472500Y-128046737D01*
X144472500Y-128000001D01*
X144476710Y-128000001D01*
X145069178Y-128592469D01*
X145069178Y-128592468D01*
X145070832Y-128590281D01*
X145163067Y-128405048D01*
X145219690Y-128206038D01*
X145238782Y-128000000D01*
X145219690Y-127793961D01*
X145163067Y-127594951D01*
X145070832Y-127409718D01*
X145069178Y-127407530D01*
X144476710Y-127999999D01*
X144476710Y-128000001D01*
X144472500Y-128000001D01*
X144472500Y-127953263D01*
X144448307Y-127862975D01*
X144401570Y-127782025D01*
X144335475Y-127715930D01*
X144254525Y-127669193D01*
X144164237Y-127645000D01*
X144070763Y-127645000D01*
X143980475Y-127669193D01*
X143899525Y-127715930D01*
X143833430Y-127782025D01*
X143786693Y-127862975D01*
X143762500Y-127953263D01*
X143762500Y-128046737D01*
X143711552Y-128046737D01*
X143758290Y-127999999D01*
X143165821Y-127407530D01*
X143165820Y-127407530D01*
X143164167Y-127409720D01*
X143071932Y-127594951D01*
X143015309Y-127793961D01*
X142996217Y-128000000D01*
X140621785Y-128000000D01*
X140621785Y-127999995D01*
X140602684Y-127793877D01*
X140602684Y-127793873D01*
X140593407Y-127761269D01*
X140546033Y-127594765D01*
X140453761Y-127409456D01*
X140431798Y-127380372D01*
X140329012Y-127244261D01*
X140176027Y-127104796D01*
X140090129Y-127051610D01*
X143528319Y-127051610D01*
X144117499Y-127640790D01*
X144117500Y-127640790D01*
X144706678Y-127051610D01*
X144617297Y-126996268D01*
X144617290Y-126996265D01*
X144424358Y-126921522D01*
X144424359Y-126921522D01*
X144220957Y-126883500D01*
X144014043Y-126883500D01*
X143810640Y-126921522D01*
X143617707Y-126996266D01*
X143617695Y-126996272D01*
X143528319Y-127051610D01*
X140090129Y-127051610D01*
X140000028Y-126995822D01*
X140000027Y-126995821D01*
X140000023Y-126995819D01*
X140000018Y-126995817D01*
X139806994Y-126921039D01*
X139806993Y-126921038D01*
X139806991Y-126921038D01*
X139603505Y-126883000D01*
X139396495Y-126883000D01*
X139193009Y-126921038D01*
X139193007Y-126921038D01*
X139193005Y-126921039D01*
X138999981Y-126995817D01*
X138999971Y-126995822D01*
X138823972Y-127104796D01*
X138670987Y-127244261D01*
X138546241Y-127409452D01*
X138453967Y-127594765D01*
X138453964Y-127594773D01*
X138397315Y-127793873D01*
X138397315Y-127793877D01*
X138378215Y-127999995D01*
X138378215Y-128000004D01*
X135541282Y-128000004D01*
X135541282Y-128000000D01*
X135522190Y-127793961D01*
X135465567Y-127594951D01*
X135373332Y-127409718D01*
X135371678Y-127407530D01*
X134779210Y-127999999D01*
X134779210Y-128000001D01*
X134775000Y-128000001D01*
X134775000Y-127953263D01*
X134750807Y-127862975D01*
X134704070Y-127782025D01*
X134637975Y-127715930D01*
X134557025Y-127669193D01*
X134466737Y-127645000D01*
X134373263Y-127645000D01*
X134282975Y-127669193D01*
X134202025Y-127715930D01*
X134135930Y-127782025D01*
X134089193Y-127862975D01*
X134065000Y-127953263D01*
X134065000Y-128046737D01*
X134014052Y-128046737D01*
X134060790Y-127999999D01*
X133468321Y-127407530D01*
X133468320Y-127407530D01*
X133466667Y-127409720D01*
X133374432Y-127594951D01*
X133317809Y-127793961D01*
X133298717Y-128000000D01*
X129584700Y-128000000D01*
X129584700Y-127051610D01*
X133830819Y-127051610D01*
X134419999Y-127640790D01*
X134420000Y-127640790D01*
X135009178Y-127051610D01*
X134919797Y-126996268D01*
X134919790Y-126996265D01*
X134726858Y-126921522D01*
X134726859Y-126921522D01*
X134523457Y-126883500D01*
X134316543Y-126883500D01*
X134113140Y-126921522D01*
X133920207Y-126996266D01*
X133920195Y-126996272D01*
X133830819Y-127051610D01*
X129584700Y-127051610D01*
X129584700Y-126363358D01*
X129604702Y-126295237D01*
X129658358Y-126248744D01*
X129669085Y-126244429D01*
X129669847Y-126244162D01*
X129669850Y-126244162D01*
X129831183Y-126187709D01*
X129964383Y-126104012D01*
X130031420Y-126084700D01*
X145946800Y-126084700D01*
X146014921Y-126104702D01*
X146061414Y-126158358D01*
X146072800Y-126210700D01*
X146072800Y-132058067D01*
X146052798Y-132126188D01*
X146013132Y-132165193D01*
X145981474Y-132184794D01*
X145981474Y-132184795D01*
X145828487Y-132324261D01*
X145703741Y-132489452D01*
X145611467Y-132674765D01*
X145611464Y-132674773D01*
X145554815Y-132873873D01*
X145554815Y-132873877D01*
X145535715Y-133079995D01*
X145535715Y-133080004D01*
X145554815Y-133286122D01*
X145554815Y-133286126D01*
X145598594Y-133439992D01*
X145611467Y-133485235D01*
X145703739Y-133670544D01*
X145703740Y-133670545D01*
X145703741Y-133670547D01*
X145828487Y-133835738D01*
X145981472Y-133975203D01*
X146039679Y-134011243D01*
X146157477Y-134084181D01*
X146350509Y-134158962D01*
X146553995Y-134197000D01*
X146553997Y-134197000D01*
X146761003Y-134197000D01*
X146761005Y-134197000D01*
X146964491Y-134158962D01*
X147157523Y-134084181D01*
X147333526Y-133975204D01*
X147486509Y-133835742D01*
X147611261Y-133670544D01*
X147703533Y-133485235D01*
X147760184Y-133286127D01*
X147774428Y-133132413D01*
X147779285Y-133080004D01*
X147779285Y-133079995D01*
X147762846Y-132902598D01*
X147760184Y-132873873D01*
X147707811Y-132689801D01*
X153223851Y-132689801D01*
X153241536Y-132903229D01*
X153242444Y-132914176D01*
X153297709Y-133132413D01*
X153297710Y-133132414D01*
X153297711Y-133132417D01*
X153386788Y-133335493D01*
X153388148Y-133338594D01*
X153511282Y-133527066D01*
X153511286Y-133527071D01*
X153663769Y-133692709D01*
X153706138Y-133725686D01*
X153841431Y-133830990D01*
X154039433Y-133938143D01*
X154039434Y-133938143D01*
X154039435Y-133938144D01*
X154126025Y-133967870D01*
X154252372Y-134011245D01*
X154474438Y-134048301D01*
X154474442Y-134048301D01*
X154699572Y-134048301D01*
X154699576Y-134048301D01*
X154921642Y-134011245D01*
X155134581Y-133938143D01*
X155332583Y-133830990D01*
X155510247Y-133692707D01*
X155662729Y-133527069D01*
X155751525Y-133391155D01*
X155805527Y-133345069D01*
X155875875Y-133335493D01*
X155940232Y-133365470D01*
X155962487Y-133391154D01*
X155985617Y-133426556D01*
X156051282Y-133527066D01*
X156051286Y-133527071D01*
X156203769Y-133692709D01*
X156246138Y-133725686D01*
X156381431Y-133830990D01*
X156579433Y-133938143D01*
X156579434Y-133938143D01*
X156579435Y-133938144D01*
X156666025Y-133967870D01*
X156792372Y-134011245D01*
X157014438Y-134048301D01*
X157014442Y-134048301D01*
X157239572Y-134048301D01*
X157239576Y-134048301D01*
X157461642Y-134011245D01*
X157674581Y-133938143D01*
X157872583Y-133830990D01*
X158050247Y-133692707D01*
X158202729Y-133527069D01*
X158291525Y-133391155D01*
X158345527Y-133345069D01*
X158415875Y-133335493D01*
X158480232Y-133365470D01*
X158502487Y-133391154D01*
X158525617Y-133426556D01*
X158591282Y-133527066D01*
X158591286Y-133527071D01*
X158743769Y-133692709D01*
X158786138Y-133725686D01*
X158921431Y-133830990D01*
X159119433Y-133938143D01*
X159119434Y-133938143D01*
X159119435Y-133938144D01*
X159206025Y-133967870D01*
X159332372Y-134011245D01*
X159554438Y-134048301D01*
X159554442Y-134048301D01*
X159779572Y-134048301D01*
X159779576Y-134048301D01*
X160001642Y-134011245D01*
X160214581Y-133938143D01*
X160412583Y-133830990D01*
X160590247Y-133692707D01*
X160742729Y-133527069D01*
X160831525Y-133391155D01*
X160885527Y-133345069D01*
X160955875Y-133335493D01*
X161020232Y-133365470D01*
X161042487Y-133391154D01*
X161065617Y-133426556D01*
X161131282Y-133527066D01*
X161131286Y-133527071D01*
X161283769Y-133692709D01*
X161326138Y-133725686D01*
X161461431Y-133830990D01*
X161659433Y-133938143D01*
X161659434Y-133938143D01*
X161659435Y-133938144D01*
X161746025Y-133967870D01*
X161872372Y-134011245D01*
X162094438Y-134048301D01*
X162094442Y-134048301D01*
X162319572Y-134048301D01*
X162319576Y-134048301D01*
X162541642Y-134011245D01*
X162754581Y-133938143D01*
X162952583Y-133830990D01*
X163130247Y-133692707D01*
X163282729Y-133527069D01*
X163371525Y-133391155D01*
X163425527Y-133345069D01*
X163495875Y-133335493D01*
X163560232Y-133365470D01*
X163582487Y-133391154D01*
X163605617Y-133426556D01*
X163671282Y-133527066D01*
X163671286Y-133527071D01*
X163823769Y-133692709D01*
X163866138Y-133725686D01*
X164001431Y-133830990D01*
X164199433Y-133938143D01*
X164199434Y-133938143D01*
X164199435Y-133938144D01*
X164286025Y-133967870D01*
X164412372Y-134011245D01*
X164634438Y-134048301D01*
X164634442Y-134048301D01*
X164859572Y-134048301D01*
X164859576Y-134048301D01*
X165081642Y-134011245D01*
X165294581Y-133938143D01*
X165492583Y-133830990D01*
X165670247Y-133692707D01*
X165731252Y-133626438D01*
X165792103Y-133589868D01*
X165863068Y-133592001D01*
X165921613Y-133632163D01*
X165942007Y-133667742D01*
X165986118Y-133786005D01*
X165986119Y-133786008D01*
X166073745Y-133903062D01*
X166190799Y-133990688D01*
X166190801Y-133990689D01*
X166190803Y-133990690D01*
X166245907Y-134011243D01*
X166327802Y-134041789D01*
X166327810Y-134041791D01*
X166388357Y-134048300D01*
X166388362Y-134048300D01*
X166388369Y-134048301D01*
X166388375Y-134048301D01*
X168185639Y-134048301D01*
X168185645Y-134048301D01*
X168185652Y-134048300D01*
X168185656Y-134048300D01*
X168246203Y-134041791D01*
X168246206Y-134041790D01*
X168246208Y-134041790D01*
X168383211Y-133990690D01*
X168453406Y-133938143D01*
X168500268Y-133903062D01*
X168587894Y-133786008D01*
X168587894Y-133786007D01*
X168587896Y-133786005D01*
X168638996Y-133649002D01*
X168640807Y-133632163D01*
X168645506Y-133588450D01*
X168645507Y-133588433D01*
X168645507Y-133020001D01*
X174080144Y-133020001D01*
X174098767Y-133256633D01*
X174154178Y-133487438D01*
X174245015Y-133706739D01*
X174359703Y-133893891D01*
X174359704Y-133893891D01*
X175108648Y-133144947D01*
X175126882Y-133212994D01*
X175192708Y-133327008D01*
X175285800Y-133420100D01*
X175399814Y-133485926D01*
X175467858Y-133504158D01*
X174718914Y-134253102D01*
X174718915Y-134253103D01*
X174906068Y-134367792D01*
X175125369Y-134458629D01*
X175356174Y-134514040D01*
X175592807Y-134532663D01*
X175829439Y-134514040D01*
X176060244Y-134458629D01*
X176279545Y-134367792D01*
X176466697Y-134253103D01*
X176466698Y-134253103D01*
X175717754Y-133504159D01*
X175785800Y-133485926D01*
X175899814Y-133420100D01*
X175992906Y-133327008D01*
X176058732Y-133212994D01*
X176076965Y-133144948D01*
X176825908Y-133893891D01*
X176847999Y-133891277D01*
X176877620Y-133891278D01*
X176899704Y-133893892D01*
X177648648Y-133144947D01*
X177666882Y-133212994D01*
X177732708Y-133327008D01*
X177825800Y-133420100D01*
X177939814Y-133485926D01*
X178007858Y-133504158D01*
X177258914Y-134253102D01*
X177258915Y-134253103D01*
X177446068Y-134367792D01*
X177665369Y-134458629D01*
X177896174Y-134514040D01*
X178132807Y-134532663D01*
X178369439Y-134514040D01*
X178600244Y-134458629D01*
X178819545Y-134367792D01*
X179006697Y-134253103D01*
X179006698Y-134253103D01*
X178257754Y-133504159D01*
X178325800Y-133485926D01*
X178439814Y-133420100D01*
X178532906Y-133327008D01*
X178598732Y-133212994D01*
X178616965Y-133144948D01*
X179365909Y-133893892D01*
X179365909Y-133893891D01*
X179480598Y-133706739D01*
X179571435Y-133487438D01*
X179626846Y-133256633D01*
X179645469Y-133020001D01*
X179626846Y-132783368D01*
X179571435Y-132552563D01*
X179480598Y-132333262D01*
X179365909Y-132146109D01*
X179365908Y-132146108D01*
X178616964Y-132895052D01*
X178598732Y-132827008D01*
X178532906Y-132712994D01*
X178439814Y-132619902D01*
X178325800Y-132554076D01*
X178257753Y-132535842D01*
X179006697Y-131786898D01*
X179006697Y-131786897D01*
X178819545Y-131672209D01*
X178600244Y-131581372D01*
X178369439Y-131525961D01*
X178132807Y-131507338D01*
X177896174Y-131525961D01*
X177665369Y-131581372D01*
X177446073Y-131672207D01*
X177258915Y-131786898D01*
X177258915Y-131786899D01*
X178007859Y-132535843D01*
X177939814Y-132554076D01*
X177825800Y-132619902D01*
X177732708Y-132712994D01*
X177666882Y-132827008D01*
X177648649Y-132895053D01*
X176899704Y-132146108D01*
X176877618Y-132148723D01*
X176848000Y-132148723D01*
X176825908Y-132146108D01*
X176076964Y-132895052D01*
X176058732Y-132827008D01*
X175992906Y-132712994D01*
X175899814Y-132619902D01*
X175785800Y-132554076D01*
X175717753Y-132535842D01*
X176466697Y-131786898D01*
X176466697Y-131786897D01*
X176279545Y-131672209D01*
X176060244Y-131581372D01*
X175829439Y-131525961D01*
X175592807Y-131507338D01*
X175356174Y-131525961D01*
X175125369Y-131581372D01*
X174906073Y-131672207D01*
X174718915Y-131786898D01*
X174718915Y-131786899D01*
X175467859Y-132535843D01*
X175399814Y-132554076D01*
X175285800Y-132619902D01*
X175192708Y-132712994D01*
X175126882Y-132827008D01*
X175108649Y-132895053D01*
X174359705Y-132146109D01*
X174359704Y-132146109D01*
X174245013Y-132333267D01*
X174154178Y-132552563D01*
X174098767Y-132783368D01*
X174080144Y-133020001D01*
X168645507Y-133020001D01*
X168645507Y-131791168D01*
X168645506Y-131791151D01*
X168638997Y-131730604D01*
X168638995Y-131730596D01*
X168592373Y-131605601D01*
X168587896Y-131593597D01*
X168587895Y-131593595D01*
X168587894Y-131593593D01*
X168500268Y-131476539D01*
X168383214Y-131388913D01*
X168383209Y-131388911D01*
X168246211Y-131337812D01*
X168246203Y-131337810D01*
X168185656Y-131331301D01*
X168185645Y-131331301D01*
X166388369Y-131331301D01*
X166388357Y-131331301D01*
X166327810Y-131337810D01*
X166327802Y-131337812D01*
X166190804Y-131388911D01*
X166190799Y-131388913D01*
X166073745Y-131476539D01*
X165986119Y-131593593D01*
X165986118Y-131593596D01*
X165942007Y-131711859D01*
X165899460Y-131768694D01*
X165832939Y-131793504D01*
X165763565Y-131778412D01*
X165731253Y-131753164D01*
X165670247Y-131686895D01*
X165670246Y-131686894D01*
X165670244Y-131686892D01*
X165588389Y-131623182D01*
X165492583Y-131548612D01*
X165294581Y-131441459D01*
X165294579Y-131441458D01*
X165294578Y-131441457D01*
X165081646Y-131368358D01*
X165081637Y-131368356D01*
X165037483Y-131360988D01*
X164859576Y-131331301D01*
X164634438Y-131331301D01*
X164486218Y-131356034D01*
X164412376Y-131368356D01*
X164412367Y-131368358D01*
X164199435Y-131441457D01*
X164199433Y-131441459D01*
X164001433Y-131548611D01*
X164001431Y-131548612D01*
X163823769Y-131686892D01*
X163671286Y-131852530D01*
X163582490Y-131988444D01*
X163528486Y-132034532D01*
X163458138Y-132044107D01*
X163393781Y-132014130D01*
X163371524Y-131988444D01*
X163282727Y-131852530D01*
X163130244Y-131686892D01*
X163048389Y-131623182D01*
X162952583Y-131548612D01*
X162754581Y-131441459D01*
X162754579Y-131441458D01*
X162754578Y-131441457D01*
X162541646Y-131368358D01*
X162541637Y-131368356D01*
X162497483Y-131360988D01*
X162319576Y-131331301D01*
X162094438Y-131331301D01*
X161946218Y-131356034D01*
X161872376Y-131368356D01*
X161872367Y-131368358D01*
X161659435Y-131441457D01*
X161659433Y-131441459D01*
X161461433Y-131548611D01*
X161461431Y-131548612D01*
X161283769Y-131686892D01*
X161131286Y-131852530D01*
X161042490Y-131988444D01*
X160988486Y-132034532D01*
X160918138Y-132044107D01*
X160853781Y-132014130D01*
X160831524Y-131988444D01*
X160742727Y-131852530D01*
X160590244Y-131686892D01*
X160508389Y-131623182D01*
X160412583Y-131548612D01*
X160214581Y-131441459D01*
X160214579Y-131441458D01*
X160214578Y-131441457D01*
X160001646Y-131368358D01*
X160001637Y-131368356D01*
X159957483Y-131360988D01*
X159779576Y-131331301D01*
X159554438Y-131331301D01*
X159406218Y-131356034D01*
X159332376Y-131368356D01*
X159332367Y-131368358D01*
X159119435Y-131441457D01*
X159119433Y-131441459D01*
X158921433Y-131548611D01*
X158921431Y-131548612D01*
X158743769Y-131686892D01*
X158591286Y-131852530D01*
X158502490Y-131988444D01*
X158448486Y-132034532D01*
X158378138Y-132044107D01*
X158313781Y-132014130D01*
X158291524Y-131988444D01*
X158202727Y-131852530D01*
X158050244Y-131686892D01*
X157968389Y-131623182D01*
X157872583Y-131548612D01*
X157674581Y-131441459D01*
X157674579Y-131441458D01*
X157674578Y-131441457D01*
X157461646Y-131368358D01*
X157461637Y-131368356D01*
X157417483Y-131360988D01*
X157239576Y-131331301D01*
X157014438Y-131331301D01*
X156866218Y-131356034D01*
X156792376Y-131368356D01*
X156792367Y-131368358D01*
X156579435Y-131441457D01*
X156579433Y-131441459D01*
X156381433Y-131548611D01*
X156381431Y-131548612D01*
X156203769Y-131686892D01*
X156051286Y-131852530D01*
X155962490Y-131988444D01*
X155908486Y-132034532D01*
X155838138Y-132044107D01*
X155773781Y-132014130D01*
X155751524Y-131988444D01*
X155662727Y-131852530D01*
X155510244Y-131686892D01*
X155428389Y-131623182D01*
X155332583Y-131548612D01*
X155134581Y-131441459D01*
X155134579Y-131441458D01*
X155134578Y-131441457D01*
X154921646Y-131368358D01*
X154921637Y-131368356D01*
X154877483Y-131360988D01*
X154699576Y-131331301D01*
X154474438Y-131331301D01*
X154326218Y-131356034D01*
X154252376Y-131368356D01*
X154252367Y-131368358D01*
X154039435Y-131441457D01*
X154039433Y-131441459D01*
X153841433Y-131548611D01*
X153841431Y-131548612D01*
X153663769Y-131686892D01*
X153511286Y-131852530D01*
X153511282Y-131852535D01*
X153388148Y-132041007D01*
X153297710Y-132247187D01*
X153297709Y-132247188D01*
X153242444Y-132465425D01*
X153242443Y-132465431D01*
X153242443Y-132465433D01*
X153223851Y-132689801D01*
X147707811Y-132689801D01*
X147703533Y-132674765D01*
X147611261Y-132489456D01*
X147546803Y-132404100D01*
X147486512Y-132324261D01*
X147333525Y-132184795D01*
X147333525Y-132184794D01*
X147301868Y-132165193D01*
X147254481Y-132112326D01*
X147242200Y-132058067D01*
X147242200Y-128000004D01*
X148075715Y-128000004D01*
X148094815Y-128206122D01*
X148094815Y-128206126D01*
X148151464Y-128405226D01*
X148151467Y-128405235D01*
X148243739Y-128590544D01*
X148243740Y-128590545D01*
X148243741Y-128590547D01*
X148368487Y-128755738D01*
X148521472Y-128895203D01*
X148567706Y-128923830D01*
X148697477Y-129004181D01*
X148890509Y-129078962D01*
X149093995Y-129117000D01*
X149093997Y-129117000D01*
X149301003Y-129117000D01*
X149301005Y-129117000D01*
X149504491Y-129078962D01*
X149697523Y-129004181D01*
X149873526Y-128895204D01*
X150026509Y-128755742D01*
X150151261Y-128590544D01*
X150243533Y-128405235D01*
X150300184Y-128206127D01*
X150316643Y-128028509D01*
X150319285Y-128000004D01*
X150319285Y-127999995D01*
X150300184Y-127793877D01*
X150300184Y-127793873D01*
X150290907Y-127761269D01*
X150243533Y-127594765D01*
X150151261Y-127409456D01*
X150129298Y-127380372D01*
X150026512Y-127244261D01*
X149873527Y-127104796D01*
X149697528Y-126995822D01*
X149697527Y-126995821D01*
X149697523Y-126995819D01*
X149697518Y-126995817D01*
X149504494Y-126921039D01*
X149504493Y-126921038D01*
X149504491Y-126921038D01*
X149301005Y-126883000D01*
X149093995Y-126883000D01*
X148890509Y-126921038D01*
X148890507Y-126921038D01*
X148890505Y-126921039D01*
X148697481Y-126995817D01*
X148697471Y-126995822D01*
X148521472Y-127104796D01*
X148368487Y-127244261D01*
X148243741Y-127409452D01*
X148151467Y-127594765D01*
X148151464Y-127594773D01*
X148094815Y-127793873D01*
X148094815Y-127793877D01*
X148075715Y-127999995D01*
X148075715Y-128000004D01*
X147242200Y-128000004D01*
X147242200Y-125580523D01*
X147241758Y-125578873D01*
X147232642Y-125544853D01*
X147202354Y-125431815D01*
X147202352Y-125431812D01*
X147202352Y-125431810D01*
X147125379Y-125298489D01*
X147125371Y-125298479D01*
X147116621Y-125289729D01*
X147082595Y-125227417D01*
X147087660Y-125156602D01*
X147130207Y-125099766D01*
X147152602Y-125087358D01*
X147152312Y-125086775D01*
X147157509Y-125084186D01*
X147157523Y-125084181D01*
X147333526Y-124975204D01*
X147486509Y-124835742D01*
X147611261Y-124670544D01*
X147703533Y-124485235D01*
X147760184Y-124286127D01*
X147771906Y-124159633D01*
X147779285Y-124080004D01*
X147779285Y-124079995D01*
X147760184Y-123873877D01*
X147760184Y-123873873D01*
X147734517Y-123783663D01*
X147703533Y-123674765D01*
X147611261Y-123489456D01*
X147546147Y-123403231D01*
X147486512Y-123324261D01*
X147333527Y-123184796D01*
X147157528Y-123075822D01*
X147157527Y-123075821D01*
X147157523Y-123075819D01*
X147099139Y-123053201D01*
X146964494Y-123001039D01*
X146964493Y-123001038D01*
X146964491Y-123001038D01*
X146761005Y-122963000D01*
X146553995Y-122963000D01*
X146350509Y-123001038D01*
X146350507Y-123001038D01*
X146350505Y-123001039D01*
X146157481Y-123075817D01*
X146157471Y-123075822D01*
X145981472Y-123184796D01*
X145828487Y-123324261D01*
X145737135Y-123445232D01*
X145680121Y-123487540D01*
X145636585Y-123495300D01*
X143343023Y-123495300D01*
X143194314Y-123535147D01*
X143194312Y-123535147D01*
X143194308Y-123535149D01*
X143127650Y-123573635D01*
X143060988Y-123612121D01*
X143060982Y-123612126D01*
X142294715Y-124378395D01*
X142232402Y-124412420D01*
X142205619Y-124415300D01*
X138188930Y-124415300D01*
X138120809Y-124395298D01*
X138074316Y-124341642D01*
X138063468Y-124277674D01*
X138081785Y-124080004D01*
X138081785Y-124079995D01*
X138062684Y-123873877D01*
X138062684Y-123873873D01*
X138037017Y-123783663D01*
X138006033Y-123674765D01*
X137913761Y-123489456D01*
X137848647Y-123403231D01*
X137789012Y-123324261D01*
X137636027Y-123184796D01*
X137460028Y-123075822D01*
X137460027Y-123075821D01*
X137460023Y-123075819D01*
X137401639Y-123053201D01*
X137266994Y-123001039D01*
X137266993Y-123001038D01*
X137266991Y-123001038D01*
X137063505Y-122963000D01*
X136856495Y-122963000D01*
X136653009Y-123001038D01*
X136653007Y-123001038D01*
X136653005Y-123001039D01*
X136459981Y-123075817D01*
X136459971Y-123075822D01*
X136283972Y-123184796D01*
X136130987Y-123324261D01*
X136039635Y-123445232D01*
X135982621Y-123487540D01*
X135939085Y-123495300D01*
X127828994Y-123495300D01*
X127765994Y-123478419D01*
X127725686Y-123455147D01*
X127688683Y-123445232D01*
X127576977Y-123415300D01*
X127576975Y-123415300D01*
X127031420Y-123415300D01*
X126964383Y-123395987D01*
X126882303Y-123344412D01*
X126831182Y-123312290D01*
X126728621Y-123276403D01*
X126669850Y-123255838D01*
X126669848Y-123255837D01*
X126669850Y-123255837D01*
X126500000Y-123236701D01*
X126330151Y-123255837D01*
X126168817Y-123312290D01*
X126024087Y-123403231D01*
X125903231Y-123524087D01*
X125812290Y-123668817D01*
X125755837Y-123830151D01*
X125736701Y-124000000D01*
X125749066Y-124109752D01*
X125736816Y-124179684D01*
X125688703Y-124231891D01*
X125620002Y-124249799D01*
X125609752Y-124249066D01*
X125500000Y-124236701D01*
X125330151Y-124255837D01*
X125168817Y-124312290D01*
X125024087Y-124403231D01*
X124903231Y-124524087D01*
X124812290Y-124668817D01*
X124755837Y-124830151D01*
X124736701Y-125000000D01*
X122584700Y-125000000D01*
X122584700Y-119948388D01*
X133830820Y-119948388D01*
X133920202Y-120003731D01*
X133920209Y-120003734D01*
X134113141Y-120078477D01*
X134113140Y-120078477D01*
X134316543Y-120116500D01*
X134523457Y-120116500D01*
X134726859Y-120078477D01*
X134919793Y-120003733D01*
X134919802Y-120003728D01*
X135009179Y-119948388D01*
X134420001Y-119359210D01*
X134420000Y-119359210D01*
X133830820Y-119948388D01*
X122584700Y-119948388D01*
X122584700Y-119000000D01*
X133298717Y-119000000D01*
X133317809Y-119206038D01*
X133374432Y-119405048D01*
X133466670Y-119590285D01*
X133468318Y-119592468D01*
X133468320Y-119592468D01*
X134014052Y-119046737D01*
X134065000Y-119046737D01*
X134089193Y-119137025D01*
X134135930Y-119217975D01*
X134202025Y-119284070D01*
X134282975Y-119330807D01*
X134373263Y-119355000D01*
X134466737Y-119355000D01*
X134557025Y-119330807D01*
X134637975Y-119284070D01*
X134704070Y-119217975D01*
X134750807Y-119137025D01*
X134775000Y-119046737D01*
X134775000Y-119000001D01*
X134779210Y-119000001D01*
X135371678Y-119592469D01*
X135371678Y-119592468D01*
X135373332Y-119590281D01*
X135465567Y-119405048D01*
X135522190Y-119206038D01*
X135541282Y-119000000D01*
X135522190Y-118793961D01*
X135465567Y-118594951D01*
X135373332Y-118409718D01*
X135371678Y-118407530D01*
X134779210Y-118999999D01*
X134779210Y-119000001D01*
X134775000Y-119000001D01*
X134775000Y-118953263D01*
X134750807Y-118862975D01*
X134704070Y-118782025D01*
X134637975Y-118715930D01*
X134557025Y-118669193D01*
X134466737Y-118645000D01*
X134373263Y-118645000D01*
X134282975Y-118669193D01*
X134202025Y-118715930D01*
X134135930Y-118782025D01*
X134089193Y-118862975D01*
X134065000Y-118953263D01*
X134065000Y-119046737D01*
X134014052Y-119046737D01*
X134060790Y-118999999D01*
X133468321Y-118407530D01*
X133468320Y-118407530D01*
X133466667Y-118409720D01*
X133374432Y-118594951D01*
X133317809Y-118793961D01*
X133298717Y-119000000D01*
X122584700Y-119000000D01*
X122584700Y-118051610D01*
X133830819Y-118051610D01*
X134419999Y-118640790D01*
X134420000Y-118640790D01*
X135009178Y-118051610D01*
X134919797Y-117996268D01*
X134919790Y-117996265D01*
X134726858Y-117921522D01*
X134726859Y-117921522D01*
X134523457Y-117883500D01*
X134316543Y-117883500D01*
X134113140Y-117921522D01*
X133920207Y-117996266D01*
X133920195Y-117996272D01*
X133830819Y-118051610D01*
X122584700Y-118051610D01*
X122584700Y-94710700D01*
X122604702Y-94642579D01*
X122658358Y-94596086D01*
X122710700Y-94584700D01*
X125968580Y-94584700D01*
X126035616Y-94604012D01*
X126168817Y-94687709D01*
X126330150Y-94744162D01*
X126330149Y-94744162D01*
X126347348Y-94746099D01*
X126500000Y-94763299D01*
X126669850Y-94744162D01*
X126831183Y-94687709D01*
X126975909Y-94596771D01*
X127096771Y-94475909D01*
X127187709Y-94331183D01*
X127244162Y-94169850D01*
X127263299Y-94000000D01*
X127246772Y-93853318D01*
X143238000Y-93853318D01*
X143269076Y-94049523D01*
X143330457Y-94238435D01*
X143330460Y-94238441D01*
X143420643Y-94415435D01*
X143537402Y-94576140D01*
X143677859Y-94716597D01*
X143838564Y-94833356D01*
X144015558Y-94923539D01*
X144015564Y-94923542D01*
X144204474Y-94984923D01*
X144246000Y-94991500D01*
X144246000Y-94030702D01*
X144307007Y-94065925D01*
X144434174Y-94100000D01*
X144565826Y-94100000D01*
X144692993Y-94065925D01*
X144754000Y-94030702D01*
X144754000Y-94991500D01*
X144795525Y-94984923D01*
X144984435Y-94923542D01*
X144984441Y-94923539D01*
X145161435Y-94833356D01*
X145322140Y-94716597D01*
X145462597Y-94576140D01*
X145579356Y-94415435D01*
X145669539Y-94238441D01*
X145669542Y-94238435D01*
X145730923Y-94049523D01*
X145762000Y-93853318D01*
X161238000Y-93853318D01*
X161269076Y-94049523D01*
X161330457Y-94238435D01*
X161330460Y-94238441D01*
X161420643Y-94415435D01*
X161537402Y-94576140D01*
X161677859Y-94716597D01*
X161838564Y-94833356D01*
X162015558Y-94923539D01*
X162015564Y-94923542D01*
X162204474Y-94984923D01*
X162246000Y-94991500D01*
X162246000Y-94030702D01*
X162307007Y-94065925D01*
X162434174Y-94100000D01*
X162565826Y-94100000D01*
X162692993Y-94065925D01*
X162754000Y-94030702D01*
X162754000Y-94991500D01*
X162795525Y-94984923D01*
X162984435Y-94923542D01*
X162984441Y-94923539D01*
X163161435Y-94833356D01*
X163322140Y-94716597D01*
X163462597Y-94576140D01*
X163579356Y-94415435D01*
X163669539Y-94238441D01*
X163669542Y-94238435D01*
X163730923Y-94049523D01*
X163762000Y-93853318D01*
X163762000Y-93254000D01*
X163000000Y-93254000D01*
X163000000Y-92746000D01*
X163762000Y-92746000D01*
X163762000Y-92146681D01*
X163730923Y-91950476D01*
X163669542Y-91761564D01*
X163669539Y-91761558D01*
X163579356Y-91584564D01*
X163462597Y-91423859D01*
X163322140Y-91283402D01*
X163161435Y-91166643D01*
X162984441Y-91076460D01*
X162984439Y-91076459D01*
X162795522Y-91015075D01*
X162795513Y-91015073D01*
X162754000Y-91008497D01*
X162754000Y-91969297D01*
X162692993Y-91934075D01*
X162565826Y-91900000D01*
X162434174Y-91900000D01*
X162307007Y-91934075D01*
X162246000Y-91969297D01*
X162246000Y-91008497D01*
X162245999Y-91008497D01*
X162204486Y-91015073D01*
X162204477Y-91015075D01*
X162015560Y-91076459D01*
X162015558Y-91076460D01*
X161838564Y-91166643D01*
X161677859Y-91283402D01*
X161537402Y-91423859D01*
X161420643Y-91584564D01*
X161330460Y-91761558D01*
X161330457Y-91761564D01*
X161269076Y-91950476D01*
X161238000Y-92146681D01*
X161238000Y-92746000D01*
X162000000Y-92746000D01*
X162000000Y-93254000D01*
X161238000Y-93254000D01*
X161238000Y-93853318D01*
X145762000Y-93853318D01*
X145762000Y-93254000D01*
X145000000Y-93254000D01*
X145000000Y-92746000D01*
X145762000Y-92746000D01*
X145762000Y-92146681D01*
X145730923Y-91950476D01*
X145669542Y-91761564D01*
X145669539Y-91761558D01*
X145579356Y-91584564D01*
X145462597Y-91423859D01*
X145322140Y-91283402D01*
X145161435Y-91166643D01*
X144984441Y-91076460D01*
X144984439Y-91076459D01*
X144795522Y-91015075D01*
X144795513Y-91015073D01*
X144754000Y-91008497D01*
X144754000Y-91969297D01*
X144692993Y-91934075D01*
X144565826Y-91900000D01*
X144434174Y-91900000D01*
X144307007Y-91934075D01*
X144246000Y-91969297D01*
X144246000Y-91008497D01*
X144245999Y-91008497D01*
X144204486Y-91015073D01*
X144204477Y-91015075D01*
X144015560Y-91076459D01*
X144015558Y-91076460D01*
X143838564Y-91166643D01*
X143677859Y-91283402D01*
X143537402Y-91423859D01*
X143420643Y-91584564D01*
X143330460Y-91761558D01*
X143330457Y-91761564D01*
X143269076Y-91950476D01*
X143238000Y-92146681D01*
X143238000Y-92746000D01*
X144000000Y-92746000D01*
X144000000Y-93254000D01*
X143238000Y-93254000D01*
X143238000Y-93853318D01*
X127246772Y-93853318D01*
X127244162Y-93830150D01*
X127187709Y-93668817D01*
X127096771Y-93524091D01*
X127096769Y-93524089D01*
X127096768Y-93524087D01*
X126975912Y-93403231D01*
X126964383Y-93395987D01*
X126902034Y-93356810D01*
X126831182Y-93312290D01*
X126731270Y-93277330D01*
X126669850Y-93255838D01*
X126669848Y-93255837D01*
X126669850Y-93255837D01*
X126500000Y-93236701D01*
X126330151Y-93255837D01*
X126168817Y-93312290D01*
X126067581Y-93375902D01*
X126035616Y-93395987D01*
X125968580Y-93415300D01*
X122576977Y-93415300D01*
X122076977Y-93415300D01*
X121923023Y-93415300D01*
X121823883Y-93441864D01*
X121774313Y-93455147D01*
X121640989Y-93532121D01*
X121640979Y-93532129D01*
X121532129Y-93640979D01*
X121532121Y-93640989D01*
X121455147Y-93774313D01*
X121415300Y-93923024D01*
X121415300Y-129289300D01*
X121395298Y-129357421D01*
X121341642Y-129403914D01*
X121289300Y-129415300D01*
X114710700Y-129415300D01*
X114642579Y-129395298D01*
X114596086Y-129341642D01*
X114584700Y-129289300D01*
X114584700Y-90031419D01*
X114593751Y-90000000D01*
X117236701Y-90000000D01*
X117255837Y-90169848D01*
X117312290Y-90331182D01*
X117403231Y-90475912D01*
X117524087Y-90596768D01*
X117524089Y-90596769D01*
X117524091Y-90596771D01*
X117668817Y-90687709D01*
X117830150Y-90744162D01*
X117830155Y-90744162D01*
X117830157Y-90744163D01*
X117890701Y-90750984D01*
X117939595Y-90767073D01*
X117954905Y-90775912D01*
X118074314Y-90844853D01*
X118223023Y-90884700D01*
X126268580Y-90884700D01*
X126335616Y-90904012D01*
X126468817Y-90987709D01*
X126630150Y-91044162D01*
X126630149Y-91044162D01*
X126647348Y-91046099D01*
X126800000Y-91063299D01*
X126969850Y-91044162D01*
X127131183Y-90987709D01*
X127275909Y-90896771D01*
X127396771Y-90775909D01*
X127487709Y-90631183D01*
X127544162Y-90469850D01*
X127563299Y-90300000D01*
X127544162Y-90130150D01*
X127487709Y-89968817D01*
X127396771Y-89824091D01*
X127396769Y-89824089D01*
X127396768Y-89824087D01*
X127275912Y-89703231D01*
X127264383Y-89695987D01*
X127208637Y-89660959D01*
X127131182Y-89612290D01*
X127022874Y-89574392D01*
X126969850Y-89555838D01*
X126969848Y-89555837D01*
X126969850Y-89555837D01*
X126800000Y-89536701D01*
X126630151Y-89555837D01*
X126468817Y-89612290D01*
X126378857Y-89668817D01*
X126335616Y-89695987D01*
X126268580Y-89715300D01*
X118786554Y-89715300D01*
X118718433Y-89695298D01*
X118679867Y-89656337D01*
X118596771Y-89524091D01*
X118596767Y-89524087D01*
X118596767Y-89524086D01*
X118475912Y-89403231D01*
X118331182Y-89312290D01*
X118200177Y-89266450D01*
X118169850Y-89255838D01*
X118169848Y-89255837D01*
X118169850Y-89255837D01*
X118000000Y-89236701D01*
X117830151Y-89255837D01*
X117668817Y-89312290D01*
X117524087Y-89403231D01*
X117403231Y-89524087D01*
X117312290Y-89668817D01*
X117255837Y-89830151D01*
X117236701Y-90000000D01*
X114593751Y-90000000D01*
X114604012Y-89964384D01*
X114687709Y-89831183D01*
X114744162Y-89669850D01*
X114763299Y-89500000D01*
X114744162Y-89330150D01*
X114687709Y-89168817D01*
X114604012Y-89035616D01*
X114584700Y-88968580D01*
X114584700Y-79531419D01*
X114604013Y-79464383D01*
X114687709Y-79331183D01*
X114744162Y-79169850D01*
X114763299Y-79000000D01*
X114744162Y-78830150D01*
X114687709Y-78668817D01*
X114596771Y-78524091D01*
X114596769Y-78524089D01*
X114596768Y-78524087D01*
X114475912Y-78403231D01*
X114331182Y-78312290D01*
X114169853Y-78255839D01*
X114169852Y-78255838D01*
X114169850Y-78255838D01*
X114079704Y-78245681D01*
X114049627Y-78242292D01*
X114000739Y-78226205D01*
X113991287Y-78220748D01*
X113842578Y-78180901D01*
X113842576Y-78180901D01*
X112385431Y-78180901D01*
X112317310Y-78160899D01*
X112279727Y-78120381D01*
X112278517Y-78121172D01*
X112152531Y-77928335D01*
X112152527Y-77928330D01*
X112000044Y-77762692D01*
X111918189Y-77698982D01*
X111822383Y-77624412D01*
X111788599Y-77606129D01*
X111738209Y-77556117D01*
X111722857Y-77486800D01*
X111747417Y-77420187D01*
X111788600Y-77384502D01*
X111822107Y-77366368D01*
X111822108Y-77366368D01*
X111999709Y-77228135D01*
X112152132Y-77062559D01*
X112275226Y-76874149D01*
X112365627Y-76668057D01*
X112365630Y-76668050D01*
X112413351Y-76479601D01*
X111507510Y-76479601D01*
X111542732Y-76418594D01*
X111576807Y-76291427D01*
X111576807Y-76159775D01*
X111542732Y-76032608D01*
X111507510Y-75971601D01*
X112413351Y-75971601D01*
X112413351Y-75971600D01*
X112365630Y-75783151D01*
X112365627Y-75783144D01*
X112275226Y-75577052D01*
X112152132Y-75388642D01*
X111999709Y-75223066D01*
X111822108Y-75084833D01*
X111822107Y-75084832D01*
X111788598Y-75066698D01*
X111738208Y-75016684D01*
X111722857Y-74947367D01*
X111747419Y-74880754D01*
X111788597Y-74845073D01*
X111822383Y-74826790D01*
X112000047Y-74688507D01*
X112152529Y-74522869D01*
X112275667Y-74334392D01*
X112366103Y-74128217D01*
X112421371Y-73909969D01*
X112439963Y-73685601D01*
X112424583Y-73500000D01*
X130736701Y-73500000D01*
X130755837Y-73669848D01*
X130812290Y-73831182D01*
X130903231Y-73975912D01*
X131024087Y-74096768D01*
X131024089Y-74096769D01*
X131024091Y-74096771D01*
X131168817Y-74187709D01*
X131330150Y-74244162D01*
X131330152Y-74244162D01*
X131330915Y-74244429D01*
X131388607Y-74285807D01*
X131414769Y-74351807D01*
X131415300Y-74363358D01*
X131415300Y-90468580D01*
X131395987Y-90535617D01*
X131312290Y-90668817D01*
X131255837Y-90830151D01*
X131236701Y-91000000D01*
X131255837Y-91169848D01*
X131312290Y-91331182D01*
X131403231Y-91475912D01*
X131524087Y-91596768D01*
X131524089Y-91596769D01*
X131524091Y-91596771D01*
X131668817Y-91687709D01*
X131830150Y-91744162D01*
X131830149Y-91744162D01*
X131847348Y-91746099D01*
X132000000Y-91763299D01*
X132169850Y-91744162D01*
X132331183Y-91687709D01*
X132475909Y-91596771D01*
X132596771Y-91475909D01*
X132687709Y-91331183D01*
X132744162Y-91169850D01*
X132763299Y-91000000D01*
X132744162Y-90830150D01*
X132687709Y-90668817D01*
X132604012Y-90535616D01*
X132584700Y-90468580D01*
X132584700Y-89406330D01*
X132604702Y-89338209D01*
X132658358Y-89291716D01*
X132728632Y-89281612D01*
X132793212Y-89311106D01*
X132817387Y-89339293D01*
X132903231Y-89475912D01*
X133024087Y-89596768D01*
X133024089Y-89596769D01*
X133024091Y-89596771D01*
X133168817Y-89687709D01*
X133330150Y-89744162D01*
X133330149Y-89744162D01*
X133347348Y-89746099D01*
X133500000Y-89763299D01*
X133669850Y-89744162D01*
X133831183Y-89687709D01*
X133975909Y-89596771D01*
X134096771Y-89475909D01*
X134187709Y-89331183D01*
X134244162Y-89169850D01*
X134263299Y-89000000D01*
X134244162Y-88830150D01*
X134187709Y-88668817D01*
X134104012Y-88535616D01*
X134084700Y-88468580D01*
X134084700Y-88031419D01*
X134104012Y-87964384D01*
X134187709Y-87831183D01*
X134244162Y-87669850D01*
X134263299Y-87500000D01*
X134244162Y-87330150D01*
X134187709Y-87168817D01*
X134096771Y-87024091D01*
X134096769Y-87024089D01*
X134096768Y-87024087D01*
X133975912Y-86903231D01*
X133831182Y-86812290D01*
X133731270Y-86777330D01*
X133669850Y-86755838D01*
X133669848Y-86755837D01*
X133669850Y-86755837D01*
X133500000Y-86736701D01*
X133330151Y-86755837D01*
X133168817Y-86812290D01*
X133024087Y-86903231D01*
X132903231Y-87024087D01*
X132817387Y-87160706D01*
X132764208Y-87207743D01*
X132694040Y-87218563D01*
X132629162Y-87189729D01*
X132590172Y-87130398D01*
X132584700Y-87093669D01*
X132584700Y-78953361D01*
X145737500Y-78953361D01*
X145768587Y-79149636D01*
X145768588Y-79149641D01*
X145829993Y-79338627D01*
X145829995Y-79338632D01*
X145920213Y-79515694D01*
X145920215Y-79515697D01*
X145949093Y-79555443D01*
X146037019Y-79676464D01*
X146037021Y-79676466D01*
X146037023Y-79676469D01*
X146177530Y-79816976D01*
X146177533Y-79816978D01*
X146177536Y-79816981D01*
X146338306Y-79933787D01*
X146515368Y-80024005D01*
X146704358Y-80085411D01*
X146704359Y-80085411D01*
X146704364Y-80085413D01*
X146900639Y-80116500D01*
X146900642Y-80116500D01*
X147099358Y-80116500D01*
X147099361Y-80116500D01*
X147295636Y-80085413D01*
X147484632Y-80024005D01*
X147661694Y-79933787D01*
X147822464Y-79816981D01*
X147962981Y-79676464D01*
X148079787Y-79515694D01*
X148170005Y-79338632D01*
X148231413Y-79149636D01*
X148262500Y-78953361D01*
X163737500Y-78953361D01*
X163768587Y-79149636D01*
X163768588Y-79149641D01*
X163829993Y-79338627D01*
X163829995Y-79338632D01*
X163920213Y-79515694D01*
X163920215Y-79515697D01*
X163949093Y-79555443D01*
X164037019Y-79676464D01*
X164037021Y-79676466D01*
X164037023Y-79676469D01*
X164177530Y-79816976D01*
X164177533Y-79816978D01*
X164177536Y-79816981D01*
X164338306Y-79933787D01*
X164515368Y-80024005D01*
X164704358Y-80085411D01*
X164704359Y-80085411D01*
X164704364Y-80085413D01*
X164900639Y-80116500D01*
X164900642Y-80116500D01*
X165099358Y-80116500D01*
X165099361Y-80116500D01*
X165295636Y-80085413D01*
X165484632Y-80024005D01*
X165661694Y-79933787D01*
X165822464Y-79816981D01*
X165962981Y-79676464D01*
X166079787Y-79515694D01*
X166170005Y-79338632D01*
X166231413Y-79149636D01*
X166262500Y-78953361D01*
X166262500Y-77246639D01*
X166231413Y-77050364D01*
X166170005Y-76861368D01*
X166079787Y-76684306D01*
X165962981Y-76523536D01*
X165962978Y-76523533D01*
X165962976Y-76523530D01*
X165822469Y-76383023D01*
X165822466Y-76383021D01*
X165822464Y-76383019D01*
X165661694Y-76266213D01*
X165484632Y-76175995D01*
X165484629Y-76175994D01*
X165484627Y-76175993D01*
X165295639Y-76114588D01*
X165295643Y-76114588D01*
X165259100Y-76108800D01*
X165099361Y-76083500D01*
X164900639Y-76083500D01*
X164704364Y-76114587D01*
X164704358Y-76114588D01*
X164515372Y-76175993D01*
X164515366Y-76175996D01*
X164338302Y-76266215D01*
X164177533Y-76383021D01*
X164177530Y-76383023D01*
X164037023Y-76523530D01*
X164037021Y-76523533D01*
X163920215Y-76684302D01*
X163829996Y-76861366D01*
X163829993Y-76861372D01*
X163768588Y-77050358D01*
X163768587Y-77050363D01*
X163768587Y-77050364D01*
X163737500Y-77246639D01*
X163737500Y-78953361D01*
X148262500Y-78953361D01*
X148262500Y-77246639D01*
X148231413Y-77050364D01*
X148170005Y-76861368D01*
X148079787Y-76684306D01*
X147962981Y-76523536D01*
X147962978Y-76523533D01*
X147962976Y-76523530D01*
X147822469Y-76383023D01*
X147822466Y-76383021D01*
X147822464Y-76383019D01*
X147661694Y-76266213D01*
X147484632Y-76175995D01*
X147484629Y-76175994D01*
X147484627Y-76175993D01*
X147295639Y-76114588D01*
X147295643Y-76114588D01*
X147259100Y-76108800D01*
X147099361Y-76083500D01*
X146900639Y-76083500D01*
X146704364Y-76114587D01*
X146704358Y-76114588D01*
X146515372Y-76175993D01*
X146515366Y-76175996D01*
X146338302Y-76266215D01*
X146177533Y-76383021D01*
X146177530Y-76383023D01*
X146037023Y-76523530D01*
X146037021Y-76523533D01*
X145920215Y-76684302D01*
X145829996Y-76861366D01*
X145829993Y-76861372D01*
X145768588Y-77050358D01*
X145768587Y-77050363D01*
X145768587Y-77050364D01*
X145737500Y-77246639D01*
X145737500Y-78953361D01*
X132584700Y-78953361D01*
X132584700Y-74294701D01*
X132604702Y-74226580D01*
X132658358Y-74180087D01*
X132710700Y-74168701D01*
X182259783Y-74168701D01*
X182327904Y-74188703D01*
X182365486Y-74229220D01*
X182366697Y-74228430D01*
X182492682Y-74421266D01*
X182492686Y-74421271D01*
X182645169Y-74586909D01*
X182699738Y-74629382D01*
X182822831Y-74725190D01*
X182856087Y-74743187D01*
X182906478Y-74793201D01*
X182921830Y-74862517D01*
X182897269Y-74929130D01*
X182856087Y-74964814D01*
X182822833Y-74982811D01*
X182822831Y-74982812D01*
X182645169Y-75121092D01*
X182492686Y-75286730D01*
X182492682Y-75286735D01*
X182369548Y-75475207D01*
X182279110Y-75681387D01*
X182279109Y-75681388D01*
X182223844Y-75899625D01*
X182223843Y-75899631D01*
X182223843Y-75899633D01*
X182205251Y-76124001D01*
X182217035Y-76266215D01*
X182223844Y-76348376D01*
X182279109Y-76566613D01*
X182279110Y-76566614D01*
X182279111Y-76566617D01*
X182330732Y-76684302D01*
X182369548Y-76772794D01*
X182492682Y-76961266D01*
X182492686Y-76961271D01*
X182645169Y-77126909D01*
X182699738Y-77169382D01*
X182822831Y-77265190D01*
X182822837Y-77265193D01*
X182856085Y-77283186D01*
X182906476Y-77333198D01*
X182921829Y-77402515D01*
X182897269Y-77469128D01*
X182856090Y-77504812D01*
X182822833Y-77522810D01*
X182822831Y-77522812D01*
X182645169Y-77661092D01*
X182492686Y-77826730D01*
X182492682Y-77826735D01*
X182369548Y-78015207D01*
X182279110Y-78221387D01*
X182279109Y-78221388D01*
X182223844Y-78439625D01*
X182223843Y-78439631D01*
X182223843Y-78439633D01*
X182215425Y-78541225D01*
X182205251Y-78664001D01*
X182223844Y-78888376D01*
X182279109Y-79106613D01*
X182279110Y-79106614D01*
X182279111Y-79106617D01*
X182323675Y-79208213D01*
X182369548Y-79312794D01*
X182492682Y-79501266D01*
X182492686Y-79501271D01*
X182645169Y-79666909D01*
X182657448Y-79676466D01*
X182822831Y-79805190D01*
X182856087Y-79823187D01*
X182906478Y-79873201D01*
X182921830Y-79942517D01*
X182897269Y-80009130D01*
X182856087Y-80044814D01*
X182822833Y-80062811D01*
X182822831Y-80062812D01*
X182645169Y-80201092D01*
X182492686Y-80366730D01*
X182492682Y-80366735D01*
X182369548Y-80555207D01*
X182279110Y-80761387D01*
X182279109Y-80761388D01*
X182223844Y-80979625D01*
X182205251Y-81204001D01*
X182223844Y-81428376D01*
X182279109Y-81646613D01*
X182279110Y-81646614D01*
X182369548Y-81852794D01*
X182492682Y-82041266D01*
X182492686Y-82041271D01*
X182645169Y-82206909D01*
X182699738Y-82249382D01*
X182822831Y-82345190D01*
X182856087Y-82363187D01*
X182906478Y-82413201D01*
X182921830Y-82482517D01*
X182897269Y-82549130D01*
X182856087Y-82584814D01*
X182822833Y-82602811D01*
X182822831Y-82602812D01*
X182645169Y-82741092D01*
X182492686Y-82906730D01*
X182492682Y-82906735D01*
X182369548Y-83095207D01*
X182279110Y-83301387D01*
X182279109Y-83301388D01*
X182223844Y-83519625D01*
X182205251Y-83744001D01*
X182223844Y-83968376D01*
X182279109Y-84186613D01*
X182279110Y-84186614D01*
X182369548Y-84392794D01*
X182492682Y-84581266D01*
X182492686Y-84581271D01*
X182645169Y-84746909D01*
X182699738Y-84789382D01*
X182822831Y-84885190D01*
X182856087Y-84903187D01*
X182906478Y-84953201D01*
X182921830Y-85022517D01*
X182897269Y-85089130D01*
X182856087Y-85124814D01*
X182822833Y-85142811D01*
X182822831Y-85142812D01*
X182645169Y-85281092D01*
X182492686Y-85446730D01*
X182492682Y-85446735D01*
X182369548Y-85635207D01*
X182279110Y-85841387D01*
X182279109Y-85841388D01*
X182223844Y-86059625D01*
X182205251Y-86284001D01*
X182223844Y-86508376D01*
X182279109Y-86726613D01*
X182279110Y-86726614D01*
X182279111Y-86726617D01*
X182369547Y-86932792D01*
X182369548Y-86932794D01*
X182492682Y-87121266D01*
X182492686Y-87121271D01*
X182645169Y-87286909D01*
X182699738Y-87329382D01*
X182822831Y-87425190D01*
X182856612Y-87443471D01*
X182907003Y-87493483D01*
X182922356Y-87562800D01*
X182897796Y-87629413D01*
X182856616Y-87665097D01*
X182823111Y-87683229D01*
X182823105Y-87683233D01*
X182645504Y-87821466D01*
X182493081Y-87987042D01*
X182369987Y-88175452D01*
X182279586Y-88381544D01*
X182279583Y-88381551D01*
X182231862Y-88570000D01*
X182231863Y-88570001D01*
X183137704Y-88570001D01*
X183102482Y-88631008D01*
X183068407Y-88758175D01*
X183068407Y-88889827D01*
X183102482Y-89016994D01*
X183137704Y-89078001D01*
X182231862Y-89078001D01*
X182279583Y-89266450D01*
X182279586Y-89266457D01*
X182369987Y-89472549D01*
X182493081Y-89660959D01*
X182645504Y-89826535D01*
X182823105Y-89964768D01*
X182823106Y-89964769D01*
X182857141Y-89983188D01*
X182907530Y-90033202D01*
X182922882Y-90102519D01*
X182898320Y-90169131D01*
X182857141Y-90204814D01*
X182823106Y-90223232D01*
X182823105Y-90223233D01*
X182645504Y-90361466D01*
X182493081Y-90527042D01*
X182369987Y-90715452D01*
X182279586Y-90921544D01*
X182279583Y-90921551D01*
X182231862Y-91110000D01*
X182231863Y-91110001D01*
X183137704Y-91110001D01*
X183102482Y-91171008D01*
X183068407Y-91298175D01*
X183068407Y-91429827D01*
X183102482Y-91556994D01*
X183137704Y-91618001D01*
X182231862Y-91618001D01*
X182279583Y-91806450D01*
X182279586Y-91806457D01*
X182369987Y-92012549D01*
X182493081Y-92200959D01*
X182645504Y-92366535D01*
X182823105Y-92504768D01*
X182823111Y-92504772D01*
X182856614Y-92522903D01*
X182907004Y-92572916D01*
X182922356Y-92642233D01*
X182897795Y-92708846D01*
X182856614Y-92744529D01*
X182822837Y-92762808D01*
X182822831Y-92762812D01*
X182645169Y-92901092D01*
X182492686Y-93066730D01*
X182492682Y-93066735D01*
X182369548Y-93255207D01*
X182279110Y-93461387D01*
X182279109Y-93461388D01*
X182223844Y-93679625D01*
X182223843Y-93679631D01*
X182223843Y-93679633D01*
X182205251Y-93904001D01*
X182221492Y-94100000D01*
X182223844Y-94128376D01*
X182279109Y-94346613D01*
X182279110Y-94346614D01*
X182369548Y-94552794D01*
X182492682Y-94741266D01*
X182492686Y-94741271D01*
X182645169Y-94906909D01*
X182666539Y-94923542D01*
X182822831Y-95045190D01*
X182856087Y-95063187D01*
X182906478Y-95113201D01*
X182921830Y-95182517D01*
X182897269Y-95249130D01*
X182856087Y-95284814D01*
X182822833Y-95302811D01*
X182822831Y-95302812D01*
X182645169Y-95441092D01*
X182492686Y-95606730D01*
X182492682Y-95606735D01*
X182369548Y-95795207D01*
X182279110Y-96001387D01*
X182279109Y-96001388D01*
X182223844Y-96219625D01*
X182205251Y-96444001D01*
X182223844Y-96668376D01*
X182279109Y-96886613D01*
X182279110Y-96886614D01*
X182369548Y-97092794D01*
X182492682Y-97281266D01*
X182492686Y-97281271D01*
X182645169Y-97446909D01*
X182699738Y-97489382D01*
X182822831Y-97585190D01*
X182856087Y-97603187D01*
X182906478Y-97653201D01*
X182921830Y-97722517D01*
X182897269Y-97789130D01*
X182856087Y-97824814D01*
X182822833Y-97842811D01*
X182822831Y-97842812D01*
X182645169Y-97981092D01*
X182492686Y-98146730D01*
X182492682Y-98146735D01*
X182369548Y-98335207D01*
X182279110Y-98541387D01*
X182279109Y-98541388D01*
X182223844Y-98759625D01*
X182205251Y-98984001D01*
X182223844Y-99208376D01*
X182279109Y-99426613D01*
X182279110Y-99426614D01*
X182369548Y-99632794D01*
X182492682Y-99821266D01*
X182492686Y-99821271D01*
X182645169Y-99986909D01*
X182699738Y-100029382D01*
X182822831Y-100125190D01*
X182856087Y-100143187D01*
X182906478Y-100193201D01*
X182921830Y-100262517D01*
X182897269Y-100329130D01*
X182856087Y-100364814D01*
X182822833Y-100382811D01*
X182822831Y-100382812D01*
X182645169Y-100521092D01*
X182492686Y-100686730D01*
X182492682Y-100686735D01*
X182369548Y-100875207D01*
X182279110Y-101081387D01*
X182279109Y-101081388D01*
X182223844Y-101299625D01*
X182205251Y-101524001D01*
X182223844Y-101748376D01*
X182279109Y-101966613D01*
X182279110Y-101966614D01*
X182369548Y-102172794D01*
X182492682Y-102361266D01*
X182492686Y-102361271D01*
X182645169Y-102526909D01*
X182699738Y-102569382D01*
X182822831Y-102665190D01*
X182856087Y-102683187D01*
X182906478Y-102733201D01*
X182921830Y-102802517D01*
X182897269Y-102869130D01*
X182856087Y-102904814D01*
X182822833Y-102922811D01*
X182822831Y-102922812D01*
X182645169Y-103061092D01*
X182492686Y-103226730D01*
X182492682Y-103226735D01*
X182369548Y-103415207D01*
X182279110Y-103621387D01*
X182279109Y-103621388D01*
X182223844Y-103839625D01*
X182223843Y-103839631D01*
X182223843Y-103839633D01*
X182207892Y-104032129D01*
X182205251Y-104064005D01*
X182205251Y-104064006D01*
X182206047Y-104073620D01*
X182191735Y-104143159D01*
X182142099Y-104193921D01*
X182072898Y-104209790D01*
X182006104Y-104185727D01*
X181971356Y-104147015D01*
X181967876Y-104140986D01*
X181967870Y-104140979D01*
X181859020Y-104032129D01*
X181859010Y-104032121D01*
X181725686Y-103955147D01*
X181576977Y-103915300D01*
X181576975Y-103915300D01*
X174935855Y-103915300D01*
X174867734Y-103895298D01*
X174821241Y-103841642D01*
X174811137Y-103771368D01*
X174816924Y-103747690D01*
X174844162Y-103669850D01*
X174863299Y-103500000D01*
X174844162Y-103330150D01*
X174787709Y-103168817D01*
X174696771Y-103024091D01*
X174696769Y-103024089D01*
X174696768Y-103024087D01*
X174575912Y-102903231D01*
X174564383Y-102895987D01*
X174498840Y-102854803D01*
X174431182Y-102812290D01*
X174317018Y-102772343D01*
X174269850Y-102755838D01*
X174269848Y-102755837D01*
X174269850Y-102755837D01*
X174100000Y-102736701D01*
X173930151Y-102755837D01*
X173768817Y-102812290D01*
X173678359Y-102869130D01*
X173635616Y-102895987D01*
X173568580Y-102915300D01*
X155576977Y-102915300D01*
X155423023Y-102915300D01*
X155343333Y-102936652D01*
X155274317Y-102955145D01*
X155274310Y-102955148D01*
X155140989Y-103032121D01*
X155140983Y-103032126D01*
X155010418Y-103162692D01*
X154640986Y-103532124D01*
X154586555Y-103586554D01*
X154532125Y-103640984D01*
X154532121Y-103640989D01*
X154455147Y-103774313D01*
X154455147Y-103774314D01*
X154417370Y-103915300D01*
X154415300Y-103923024D01*
X154415300Y-115289300D01*
X154395298Y-115357421D01*
X154341642Y-115403914D01*
X154289300Y-115415300D01*
X149076977Y-115415300D01*
X140076977Y-115415300D01*
X139923023Y-115415300D01*
X139843333Y-115436652D01*
X139774317Y-115455145D01*
X139774310Y-115455148D01*
X139640989Y-115532121D01*
X139640983Y-115532126D01*
X139502380Y-115670730D01*
X139140986Y-116032124D01*
X139101784Y-116071326D01*
X139032125Y-116140984D01*
X139032121Y-116140989D01*
X138955147Y-116274313D01*
X138955147Y-116274314D01*
X138915310Y-116422988D01*
X138915300Y-116423024D01*
X138915300Y-117978067D01*
X138895298Y-118046188D01*
X138855632Y-118085193D01*
X138823974Y-118104794D01*
X138823974Y-118104795D01*
X138670987Y-118244261D01*
X138546241Y-118409452D01*
X138453967Y-118594765D01*
X138453964Y-118594773D01*
X138397315Y-118793873D01*
X138397315Y-118793877D01*
X138378215Y-118999995D01*
X138378215Y-119000004D01*
X138397315Y-119206122D01*
X138397315Y-119206126D01*
X138453964Y-119405226D01*
X138453967Y-119405235D01*
X138546239Y-119590544D01*
X138546240Y-119590545D01*
X138546241Y-119590547D01*
X138670987Y-119755738D01*
X138823972Y-119895203D01*
X138823974Y-119895204D01*
X138999977Y-120004181D01*
X139193009Y-120078962D01*
X139396495Y-120117000D01*
X139396497Y-120117000D01*
X139603503Y-120117000D01*
X139603505Y-120117000D01*
X139806991Y-120078962D01*
X140000023Y-120004181D01*
X140090131Y-119948388D01*
X143528320Y-119948388D01*
X143617702Y-120003731D01*
X143617709Y-120003734D01*
X143810641Y-120078477D01*
X143810640Y-120078477D01*
X144014043Y-120116500D01*
X144220957Y-120116500D01*
X144424359Y-120078477D01*
X144617293Y-120003733D01*
X144617302Y-120003728D01*
X144706679Y-119948388D01*
X144117501Y-119359210D01*
X144117500Y-119359210D01*
X143528320Y-119948388D01*
X140090131Y-119948388D01*
X140176026Y-119895204D01*
X140329009Y-119755742D01*
X140453761Y-119590544D01*
X140546033Y-119405235D01*
X140602684Y-119206127D01*
X140614406Y-119079633D01*
X140621785Y-119000004D01*
X140621785Y-119000000D01*
X142996217Y-119000000D01*
X143015309Y-119206038D01*
X143071932Y-119405048D01*
X143164170Y-119590285D01*
X143165818Y-119592468D01*
X143165820Y-119592468D01*
X143711552Y-119046737D01*
X143762500Y-119046737D01*
X143786693Y-119137025D01*
X143833430Y-119217975D01*
X143899525Y-119284070D01*
X143980475Y-119330807D01*
X144070763Y-119355000D01*
X144164237Y-119355000D01*
X144254525Y-119330807D01*
X144335475Y-119284070D01*
X144401570Y-119217975D01*
X144448307Y-119137025D01*
X144472500Y-119046737D01*
X144472500Y-119000001D01*
X144476710Y-119000001D01*
X145069178Y-119592469D01*
X145069178Y-119592468D01*
X145070832Y-119590281D01*
X145163067Y-119405048D01*
X145219690Y-119206038D01*
X145238782Y-119000000D01*
X145219690Y-118793961D01*
X145163067Y-118594951D01*
X145070832Y-118409718D01*
X145069178Y-118407530D01*
X144476710Y-118999999D01*
X144476710Y-119000001D01*
X144472500Y-119000001D01*
X144472500Y-118953263D01*
X144448307Y-118862975D01*
X144401570Y-118782025D01*
X144335475Y-118715930D01*
X144254525Y-118669193D01*
X144164237Y-118645000D01*
X144070763Y-118645000D01*
X143980475Y-118669193D01*
X143899525Y-118715930D01*
X143833430Y-118782025D01*
X143786693Y-118862975D01*
X143762500Y-118953263D01*
X143762500Y-119046737D01*
X143711552Y-119046737D01*
X143758290Y-118999999D01*
X143165821Y-118407530D01*
X143165820Y-118407530D01*
X143164167Y-118409720D01*
X143071932Y-118594951D01*
X143015309Y-118793961D01*
X142996217Y-119000000D01*
X140621785Y-119000000D01*
X140621785Y-118999995D01*
X140611173Y-118885485D01*
X140602684Y-118793873D01*
X140546033Y-118594765D01*
X140453761Y-118409456D01*
X140448653Y-118402692D01*
X140329012Y-118244261D01*
X140324636Y-118240272D01*
X140176026Y-118104796D01*
X140176025Y-118104795D01*
X140176025Y-118104794D01*
X140144368Y-118085193D01*
X140114266Y-118051610D01*
X143528319Y-118051610D01*
X144117499Y-118640790D01*
X144117500Y-118640790D01*
X144706678Y-118051610D01*
X144617297Y-117996268D01*
X144617290Y-117996265D01*
X144424358Y-117921522D01*
X144424359Y-117921522D01*
X144220957Y-117883500D01*
X144014043Y-117883500D01*
X143810640Y-117921522D01*
X143617707Y-117996266D01*
X143617695Y-117996272D01*
X143528319Y-118051610D01*
X140114266Y-118051610D01*
X140096981Y-118032326D01*
X140084700Y-117978067D01*
X140084700Y-116794380D01*
X140104702Y-116726259D01*
X140121605Y-116705285D01*
X140205285Y-116621605D01*
X140267597Y-116587579D01*
X140294380Y-116584700D01*
X148486800Y-116584700D01*
X148554921Y-116604702D01*
X148601414Y-116658358D01*
X148612800Y-116710700D01*
X148612800Y-117978067D01*
X148592798Y-118046188D01*
X148553132Y-118085193D01*
X148521474Y-118104794D01*
X148521474Y-118104795D01*
X148368487Y-118244261D01*
X148243741Y-118409452D01*
X148151467Y-118594765D01*
X148151464Y-118594773D01*
X148094815Y-118793873D01*
X148094815Y-118793877D01*
X148075715Y-118999995D01*
X148075715Y-119000004D01*
X148094815Y-119206122D01*
X148094815Y-119206126D01*
X148151464Y-119405226D01*
X148151467Y-119405235D01*
X148243739Y-119590544D01*
X148243740Y-119590545D01*
X148243741Y-119590547D01*
X148368487Y-119755738D01*
X148521472Y-119895203D01*
X148521474Y-119895204D01*
X148697477Y-120004181D01*
X148890509Y-120078962D01*
X149093995Y-120117000D01*
X149093997Y-120117000D01*
X149301003Y-120117000D01*
X149301005Y-120117000D01*
X149504491Y-120078962D01*
X149697523Y-120004181D01*
X149873526Y-119895204D01*
X150026509Y-119755742D01*
X150151261Y-119590544D01*
X150243533Y-119405235D01*
X150300184Y-119206127D01*
X150311906Y-119079633D01*
X150319285Y-119000004D01*
X150319285Y-118999995D01*
X150308673Y-118885485D01*
X150300184Y-118793873D01*
X150243533Y-118594765D01*
X150151261Y-118409456D01*
X150146153Y-118402692D01*
X150026512Y-118244261D01*
X150022136Y-118240272D01*
X149873526Y-118104796D01*
X149873525Y-118104795D01*
X149873525Y-118104794D01*
X149841868Y-118085193D01*
X149794481Y-118032326D01*
X149782200Y-117978067D01*
X149782200Y-116710700D01*
X149802202Y-116642579D01*
X149855858Y-116596086D01*
X149908200Y-116584700D01*
X155076975Y-116584700D01*
X155076977Y-116584700D01*
X155225686Y-116544853D01*
X155359014Y-116467876D01*
X155467876Y-116359014D01*
X155544853Y-116225686D01*
X155584700Y-116076977D01*
X155584700Y-111906330D01*
X155604702Y-111838209D01*
X155658358Y-111791716D01*
X155728632Y-111781612D01*
X155793212Y-111811106D01*
X155817386Y-111839292D01*
X155895987Y-111964384D01*
X155915300Y-112031419D01*
X155915300Y-119968580D01*
X155895987Y-120035616D01*
X155884188Y-120054394D01*
X155812290Y-120168817D01*
X155755837Y-120330151D01*
X155736701Y-120500000D01*
X155755837Y-120669848D01*
X155812290Y-120831182D01*
X155903231Y-120975912D01*
X156024087Y-121096768D01*
X156024089Y-121096769D01*
X156024091Y-121096771D01*
X156168817Y-121187709D01*
X156330150Y-121244162D01*
X156330149Y-121244162D01*
X156347348Y-121246099D01*
X156500000Y-121263299D01*
X156669850Y-121244162D01*
X156747686Y-121216925D01*
X156818589Y-121213306D01*
X156880194Y-121248595D01*
X156912941Y-121311588D01*
X156915300Y-121335855D01*
X156915300Y-123968580D01*
X156895987Y-124035617D01*
X156812290Y-124168817D01*
X156755837Y-124330151D01*
X156736701Y-124500000D01*
X156755837Y-124669848D01*
X156812290Y-124831182D01*
X156835931Y-124868806D01*
X156895987Y-124964384D01*
X156915300Y-125031419D01*
X156915300Y-126468580D01*
X156895987Y-126535617D01*
X156812290Y-126668817D01*
X156755837Y-126830151D01*
X156736701Y-127000000D01*
X156755837Y-127169848D01*
X156812290Y-127331182D01*
X156903231Y-127475912D01*
X157024087Y-127596768D01*
X157024089Y-127596769D01*
X157024091Y-127596771D01*
X157168817Y-127687709D01*
X157330150Y-127744162D01*
X157330149Y-127744162D01*
X157347348Y-127746099D01*
X157500000Y-127763299D01*
X157669850Y-127744162D01*
X157831183Y-127687709D01*
X157975909Y-127596771D01*
X158096771Y-127475909D01*
X158187709Y-127331183D01*
X158244162Y-127169850D01*
X158263299Y-127000000D01*
X158244162Y-126830150D01*
X158187709Y-126668817D01*
X158104012Y-126535616D01*
X158084700Y-126468580D01*
X158084700Y-126335855D01*
X158104702Y-126267734D01*
X158158358Y-126221241D01*
X158228632Y-126211137D01*
X158252309Y-126216924D01*
X158330150Y-126244162D01*
X158500000Y-126263299D01*
X158669850Y-126244162D01*
X158831183Y-126187709D01*
X158975909Y-126096771D01*
X159096771Y-125975909D01*
X159187709Y-125831183D01*
X159244162Y-125669850D01*
X159263299Y-125500000D01*
X159244162Y-125330150D01*
X159187709Y-125168817D01*
X159104012Y-125035616D01*
X159084700Y-124968580D01*
X159084700Y-120031419D01*
X159104012Y-119964384D01*
X159187709Y-119831183D01*
X159244162Y-119669850D01*
X159263299Y-119500000D01*
X159244162Y-119330150D01*
X159187709Y-119168817D01*
X159096771Y-119024091D01*
X159096769Y-119024089D01*
X159096768Y-119024087D01*
X158975912Y-118903231D01*
X158831182Y-118812290D01*
X158731270Y-118777330D01*
X158669850Y-118755838D01*
X158669848Y-118755837D01*
X158669850Y-118755837D01*
X158500000Y-118736701D01*
X158330154Y-118755837D01*
X158330151Y-118755837D01*
X158330150Y-118755838D01*
X158262873Y-118779379D01*
X158252314Y-118783074D01*
X158181410Y-118786692D01*
X158119805Y-118751403D01*
X158087059Y-118688409D01*
X158084700Y-118664144D01*
X158084700Y-114531419D01*
X158104012Y-114464384D01*
X158187709Y-114331183D01*
X158244162Y-114169850D01*
X158263299Y-114000000D01*
X158244162Y-113830150D01*
X158187709Y-113668817D01*
X158096771Y-113524091D01*
X158096769Y-113524089D01*
X158096768Y-113524087D01*
X157975912Y-113403231D01*
X157949657Y-113386734D01*
X157847736Y-113322692D01*
X157831182Y-113312290D01*
X157691169Y-113263298D01*
X157669850Y-113255838D01*
X157669848Y-113255837D01*
X157669850Y-113255837D01*
X157500000Y-113236701D01*
X157330154Y-113255837D01*
X157330151Y-113255837D01*
X157330150Y-113255838D01*
X157262873Y-113279379D01*
X157252314Y-113283074D01*
X157181410Y-113286692D01*
X157119805Y-113251403D01*
X157087059Y-113188409D01*
X157084700Y-113164144D01*
X157084700Y-112031419D01*
X157104012Y-111964384D01*
X157187709Y-111831183D01*
X157244162Y-111669850D01*
X157263299Y-111500000D01*
X157244162Y-111330150D01*
X157187709Y-111168817D01*
X157104012Y-111035616D01*
X157084700Y-110968580D01*
X157084700Y-108031419D01*
X157104012Y-107964384D01*
X157187709Y-107831183D01*
X157244162Y-107669850D01*
X157263299Y-107500000D01*
X157244162Y-107330150D01*
X157187709Y-107168817D01*
X157096771Y-107024091D01*
X157096769Y-107024089D01*
X157096768Y-107024087D01*
X156975912Y-106903231D01*
X156831182Y-106812290D01*
X156731270Y-106777330D01*
X156669850Y-106755838D01*
X156669848Y-106755837D01*
X156669850Y-106755837D01*
X156500000Y-106736701D01*
X156330151Y-106755837D01*
X156168817Y-106812290D01*
X156024087Y-106903231D01*
X155903231Y-107024087D01*
X155817387Y-107160706D01*
X155764208Y-107207743D01*
X155694040Y-107218563D01*
X155629162Y-107189729D01*
X155590172Y-107130398D01*
X155584700Y-107093669D01*
X155584700Y-104294380D01*
X155604702Y-104226259D01*
X155621605Y-104205285D01*
X155705285Y-104121605D01*
X155767597Y-104087579D01*
X155794380Y-104084700D01*
X158284220Y-104084700D01*
X158352341Y-104104702D01*
X158398834Y-104158358D01*
X158408938Y-104228632D01*
X158379444Y-104293212D01*
X158373315Y-104299795D01*
X158140986Y-104532124D01*
X158104007Y-104569103D01*
X158032125Y-104640984D01*
X158032121Y-104640989D01*
X157955147Y-104774313D01*
X157915300Y-104923024D01*
X157915300Y-105468580D01*
X157895987Y-105535617D01*
X157812290Y-105668817D01*
X157755837Y-105830151D01*
X157736701Y-106000000D01*
X157755837Y-106169848D01*
X157812290Y-106331182D01*
X157812291Y-106331183D01*
X157895987Y-106464384D01*
X157915300Y-106531419D01*
X157915300Y-111968580D01*
X157895987Y-112035617D01*
X157812290Y-112168817D01*
X157755837Y-112330151D01*
X157736701Y-112500000D01*
X157755837Y-112669848D01*
X157812290Y-112831182D01*
X157903231Y-112975912D01*
X158024087Y-113096768D01*
X158024089Y-113096769D01*
X158024091Y-113096771D01*
X158168817Y-113187709D01*
X158330150Y-113244162D01*
X158330149Y-113244162D01*
X158347348Y-113246099D01*
X158500000Y-113263299D01*
X158669850Y-113244162D01*
X158831183Y-113187709D01*
X158975909Y-113096771D01*
X159096771Y-112975909D01*
X159187709Y-112831183D01*
X159244162Y-112669850D01*
X159263299Y-112500000D01*
X159244162Y-112330150D01*
X159187709Y-112168817D01*
X159104012Y-112035616D01*
X159084700Y-111968580D01*
X159084700Y-106531419D01*
X159104012Y-106464384D01*
X159187709Y-106331183D01*
X159244162Y-106169850D01*
X159263299Y-106000000D01*
X159244162Y-105830150D01*
X159187709Y-105668817D01*
X159104012Y-105535616D01*
X159084700Y-105468580D01*
X159084700Y-105294380D01*
X159104702Y-105226259D01*
X159121605Y-105205285D01*
X159205285Y-105121605D01*
X159267597Y-105087579D01*
X159294380Y-105084700D01*
X180789300Y-105084700D01*
X180857421Y-105104702D01*
X180903914Y-105158358D01*
X180915300Y-105210700D01*
X180915300Y-113576975D01*
X180915299Y-113576975D01*
X180955147Y-113725686D01*
X180987305Y-113781385D01*
X181032121Y-113859010D01*
X181032123Y-113859012D01*
X181032124Y-113859014D01*
X181756125Y-114583015D01*
X181864987Y-114691877D01*
X181998315Y-114768854D01*
X182147024Y-114808701D01*
X182259783Y-114808701D01*
X182327904Y-114828703D01*
X182365486Y-114869220D01*
X182366697Y-114868430D01*
X182492682Y-115061266D01*
X182492686Y-115061271D01*
X182645169Y-115226909D01*
X182699738Y-115269382D01*
X182822831Y-115365190D01*
X182856087Y-115383187D01*
X182906478Y-115433201D01*
X182921830Y-115502517D01*
X182897269Y-115569130D01*
X182856087Y-115604814D01*
X182822833Y-115622811D01*
X182822831Y-115622812D01*
X182645169Y-115761092D01*
X182492683Y-115926734D01*
X182483080Y-115941434D01*
X182429075Y-115987522D01*
X182358727Y-115997096D01*
X182294370Y-115967117D01*
X182288503Y-115961612D01*
X177359020Y-111032129D01*
X177359010Y-111032121D01*
X177259743Y-110974810D01*
X177225686Y-110955147D01*
X177076977Y-110915300D01*
X177076975Y-110915300D01*
X170531420Y-110915300D01*
X170464383Y-110895987D01*
X170385992Y-110846730D01*
X170331182Y-110812290D01*
X170231270Y-110777330D01*
X170169850Y-110755838D01*
X170169848Y-110755837D01*
X170169850Y-110755837D01*
X170000000Y-110736701D01*
X169830154Y-110755837D01*
X169830151Y-110755837D01*
X169830150Y-110755838D01*
X169762873Y-110779379D01*
X169752314Y-110783074D01*
X169681410Y-110786692D01*
X169619805Y-110751403D01*
X169587059Y-110688409D01*
X169584700Y-110664144D01*
X169584700Y-108031419D01*
X169604012Y-107964384D01*
X169687709Y-107831183D01*
X169744162Y-107669850D01*
X169763299Y-107500000D01*
X169744162Y-107330150D01*
X169687709Y-107168817D01*
X169596771Y-107024091D01*
X169596769Y-107024089D01*
X169596768Y-107024087D01*
X169475912Y-106903231D01*
X169331182Y-106812290D01*
X169231270Y-106777330D01*
X169169850Y-106755838D01*
X169169848Y-106755837D01*
X169169850Y-106755837D01*
X169000000Y-106736701D01*
X168830151Y-106755837D01*
X168668817Y-106812290D01*
X168524087Y-106903231D01*
X168403231Y-107024087D01*
X168312290Y-107168817D01*
X168255837Y-107330151D01*
X168236701Y-107500000D01*
X168249066Y-107609752D01*
X168236816Y-107679684D01*
X168188703Y-107731891D01*
X168120002Y-107749799D01*
X168109752Y-107749066D01*
X168000000Y-107736701D01*
X167830151Y-107755837D01*
X167668817Y-107812290D01*
X167524087Y-107903231D01*
X167403231Y-108024087D01*
X167312290Y-108168817D01*
X167255837Y-108330151D01*
X167236701Y-108500000D01*
X167255837Y-108669848D01*
X167312290Y-108831182D01*
X167312291Y-108831183D01*
X167395987Y-108964384D01*
X167415300Y-109031419D01*
X167415300Y-109164144D01*
X167395298Y-109232265D01*
X167341642Y-109278758D01*
X167271368Y-109288862D01*
X167247686Y-109283074D01*
X167235351Y-109278758D01*
X167169850Y-109255838D01*
X167169846Y-109255837D01*
X167169845Y-109255837D01*
X167000000Y-109236701D01*
X166830151Y-109255837D01*
X166668817Y-109312290D01*
X166524087Y-109403231D01*
X166403231Y-109524087D01*
X166312290Y-109668817D01*
X166255837Y-109830151D01*
X166236701Y-110000000D01*
X166255837Y-110169848D01*
X166312290Y-110331182D01*
X166358540Y-110404787D01*
X166403229Y-110475909D01*
X166414393Y-110487073D01*
X166448419Y-110549382D01*
X166451299Y-110576169D01*
X166451299Y-115968580D01*
X166431986Y-116035617D01*
X166348289Y-116168817D01*
X166291836Y-116330151D01*
X166272700Y-116500000D01*
X166291836Y-116669848D01*
X166348289Y-116831182D01*
X166348290Y-116831183D01*
X166431986Y-116964384D01*
X166451299Y-117031419D01*
X166451299Y-122468580D01*
X166431986Y-122535617D01*
X166348289Y-122668817D01*
X166291836Y-122830151D01*
X166272700Y-123000000D01*
X166291836Y-123169848D01*
X166348289Y-123331182D01*
X166348290Y-123331183D01*
X166431986Y-123464384D01*
X166451299Y-123531419D01*
X166451299Y-128923830D01*
X166431297Y-128991951D01*
X166414394Y-129012925D01*
X166403232Y-129024086D01*
X166403231Y-129024087D01*
X166312290Y-129168817D01*
X166255837Y-129330151D01*
X166236701Y-129500000D01*
X166255837Y-129669848D01*
X166312290Y-129831182D01*
X166403231Y-129975912D01*
X166524087Y-130096768D01*
X166524089Y-130096769D01*
X166524091Y-130096771D01*
X166668817Y-130187709D01*
X166830150Y-130244162D01*
X166830149Y-130244162D01*
X166847348Y-130246099D01*
X167000000Y-130263299D01*
X167169850Y-130244162D01*
X167331183Y-130187709D01*
X167475909Y-130096771D01*
X167475913Y-130096767D01*
X167487075Y-130085606D01*
X167549387Y-130051580D01*
X167576170Y-130048701D01*
X182259783Y-130048701D01*
X182327904Y-130068703D01*
X182365486Y-130109220D01*
X182366697Y-130108430D01*
X182492682Y-130301266D01*
X182492686Y-130301271D01*
X182636248Y-130457218D01*
X182667669Y-130520883D01*
X182659683Y-130591429D01*
X182614824Y-130646458D01*
X182587580Y-130660611D01*
X182472446Y-130703554D01*
X182472441Y-130703556D01*
X182355502Y-130791096D01*
X182267962Y-130908035D01*
X182267962Y-130908036D01*
X182216912Y-131044907D01*
X182210407Y-131105403D01*
X182210407Y-131750001D01*
X183137704Y-131750001D01*
X183102482Y-131811008D01*
X183068407Y-131938175D01*
X183068407Y-132069827D01*
X183102482Y-132196994D01*
X183137704Y-132258001D01*
X182210407Y-132258001D01*
X182210407Y-132902598D01*
X182216912Y-132963094D01*
X182267962Y-133099965D01*
X182267962Y-133099966D01*
X182355502Y-133216905D01*
X182472441Y-133304445D01*
X182609313Y-133355495D01*
X182669809Y-133362000D01*
X182669822Y-133362001D01*
X183314407Y-133362001D01*
X183314407Y-132434703D01*
X183375414Y-132469926D01*
X183502581Y-132504001D01*
X183634233Y-132504001D01*
X183761400Y-132469926D01*
X183822407Y-132434703D01*
X183822407Y-133362001D01*
X184466992Y-133362001D01*
X184467004Y-133362000D01*
X184527500Y-133355495D01*
X184664371Y-133304445D01*
X184664372Y-133304445D01*
X184781311Y-133216905D01*
X184868851Y-133099966D01*
X184868851Y-133099965D01*
X184919901Y-132963094D01*
X184926406Y-132902598D01*
X184926407Y-132902586D01*
X184926407Y-132258001D01*
X183999110Y-132258001D01*
X184034332Y-132196994D01*
X184068407Y-132069827D01*
X184068407Y-131938175D01*
X184034332Y-131811008D01*
X183999110Y-131750001D01*
X184926407Y-131750001D01*
X184926407Y-131105415D01*
X184926406Y-131105403D01*
X184919901Y-131044907D01*
X184868851Y-130908036D01*
X184868851Y-130908035D01*
X184781311Y-130791096D01*
X184664373Y-130703557D01*
X184549233Y-130660612D01*
X184492398Y-130618065D01*
X184467587Y-130551544D01*
X184482679Y-130482170D01*
X184500561Y-130457223D01*
X184644129Y-130301269D01*
X184767267Y-130112792D01*
X184857703Y-129906617D01*
X184912971Y-129688369D01*
X184931563Y-129464001D01*
X184912971Y-129239633D01*
X184895038Y-129168817D01*
X184857704Y-129021388D01*
X184857703Y-129021387D01*
X184857703Y-129021385D01*
X184767267Y-128815210D01*
X184720849Y-128744162D01*
X184644131Y-128626735D01*
X184644127Y-128626730D01*
X184491644Y-128461092D01*
X184375547Y-128370730D01*
X184313983Y-128322812D01*
X184280726Y-128304814D01*
X184230336Y-128254803D01*
X184214983Y-128185486D01*
X184239543Y-128118873D01*
X184280727Y-128083187D01*
X184313983Y-128065190D01*
X184491647Y-127926907D01*
X184644129Y-127761269D01*
X184767267Y-127572792D01*
X184857703Y-127366617D01*
X184912971Y-127148369D01*
X184931563Y-126924001D01*
X184912971Y-126699633D01*
X184883866Y-126584700D01*
X184857704Y-126481388D01*
X184857703Y-126481387D01*
X184857703Y-126481385D01*
X184767267Y-126275210D01*
X184746982Y-126244162D01*
X184644131Y-126086735D01*
X184644127Y-126086730D01*
X184491644Y-125921092D01*
X184357140Y-125816403D01*
X184313983Y-125782812D01*
X184280726Y-125764814D01*
X184230336Y-125714803D01*
X184214983Y-125645486D01*
X184239543Y-125578873D01*
X184280727Y-125543187D01*
X184313983Y-125525190D01*
X184491647Y-125386907D01*
X184644129Y-125221269D01*
X184767267Y-125032792D01*
X184857703Y-124826617D01*
X184912971Y-124608369D01*
X184931563Y-124384001D01*
X184912971Y-124159633D01*
X184892804Y-124079995D01*
X184857704Y-123941388D01*
X184857703Y-123941387D01*
X184857703Y-123941385D01*
X184767267Y-123735210D01*
X184760547Y-123724925D01*
X184644131Y-123546735D01*
X184644127Y-123546730D01*
X184491644Y-123381092D01*
X184357140Y-123276403D01*
X184313983Y-123242812D01*
X184280726Y-123224814D01*
X184230336Y-123174803D01*
X184214983Y-123105486D01*
X184239543Y-123038873D01*
X184280727Y-123003187D01*
X184313983Y-122985190D01*
X184491647Y-122846907D01*
X184644129Y-122681269D01*
X184767267Y-122492792D01*
X184857703Y-122286617D01*
X184912971Y-122068369D01*
X184931563Y-121844001D01*
X184912971Y-121619633D01*
X184890811Y-121532124D01*
X184857704Y-121401388D01*
X184857703Y-121401387D01*
X184857703Y-121401385D01*
X184767267Y-121195210D01*
X184702952Y-121096768D01*
X184644131Y-121006735D01*
X184644127Y-121006730D01*
X184491644Y-120841092D01*
X184357140Y-120736403D01*
X184313983Y-120702812D01*
X184280726Y-120684814D01*
X184230336Y-120634803D01*
X184214983Y-120565486D01*
X184239543Y-120498873D01*
X184280727Y-120463187D01*
X184313983Y-120445190D01*
X184491647Y-120306907D01*
X184644129Y-120141269D01*
X184767267Y-119952792D01*
X184857703Y-119746617D01*
X184912971Y-119528369D01*
X184931563Y-119304001D01*
X184912971Y-119079633D01*
X184892806Y-119000004D01*
X184857704Y-118861388D01*
X184857703Y-118861387D01*
X184857703Y-118861385D01*
X184767267Y-118655210D01*
X184734269Y-118604702D01*
X184644131Y-118466735D01*
X184644127Y-118466730D01*
X184491644Y-118301092D01*
X184357140Y-118196403D01*
X184313983Y-118162812D01*
X184280726Y-118144814D01*
X184230336Y-118094803D01*
X184214983Y-118025486D01*
X184239543Y-117958873D01*
X184280727Y-117923187D01*
X184283804Y-117921522D01*
X184313983Y-117905190D01*
X184491647Y-117766907D01*
X184644129Y-117601269D01*
X184767267Y-117412792D01*
X184857703Y-117206617D01*
X184912971Y-116988369D01*
X184931563Y-116764001D01*
X184912971Y-116539633D01*
X184883441Y-116423023D01*
X184857704Y-116321388D01*
X184857703Y-116321387D01*
X184857703Y-116321385D01*
X184767267Y-116115210D01*
X184738596Y-116071326D01*
X184644131Y-115926735D01*
X184644127Y-115926730D01*
X184491644Y-115761092D01*
X184357140Y-115656403D01*
X184313983Y-115622812D01*
X184280726Y-115604814D01*
X184230336Y-115554803D01*
X184214983Y-115485486D01*
X184239543Y-115418873D01*
X184280727Y-115383187D01*
X184313983Y-115365190D01*
X184491647Y-115226907D01*
X184644129Y-115061269D01*
X184767267Y-114872792D01*
X184857703Y-114666617D01*
X184912971Y-114448369D01*
X184931563Y-114224001D01*
X184912971Y-113999633D01*
X184857703Y-113781385D01*
X184767267Y-113575210D01*
X184705906Y-113481290D01*
X184644131Y-113386735D01*
X184644127Y-113386730D01*
X184491644Y-113221092D01*
X184331913Y-113096768D01*
X184313983Y-113082812D01*
X184280726Y-113064814D01*
X184230336Y-113014803D01*
X184214983Y-112945486D01*
X184239543Y-112878873D01*
X184280727Y-112843187D01*
X184313983Y-112825190D01*
X184491647Y-112686907D01*
X184644129Y-112521269D01*
X184767267Y-112332792D01*
X184857703Y-112126617D01*
X184912971Y-111908369D01*
X184931563Y-111684001D01*
X184912971Y-111459633D01*
X184912969Y-111459625D01*
X184857704Y-111241388D01*
X184857703Y-111241387D01*
X184857703Y-111241385D01*
X184767267Y-111035210D01*
X184723736Y-110968580D01*
X184644131Y-110846735D01*
X184644127Y-110846730D01*
X184491644Y-110681092D01*
X184357140Y-110576403D01*
X184313983Y-110542812D01*
X184280726Y-110524814D01*
X184230336Y-110474803D01*
X184214983Y-110405486D01*
X184239543Y-110338873D01*
X184280727Y-110303187D01*
X184313983Y-110285190D01*
X184491647Y-110146907D01*
X184644129Y-109981269D01*
X184767267Y-109792792D01*
X184857703Y-109586617D01*
X184912971Y-109368369D01*
X184931563Y-109144001D01*
X184912971Y-108919633D01*
X184890572Y-108831182D01*
X184857704Y-108701388D01*
X184857703Y-108701387D01*
X184857703Y-108701385D01*
X184767267Y-108495210D01*
X184659429Y-108330151D01*
X184644131Y-108306735D01*
X184644127Y-108306730D01*
X184491644Y-108141092D01*
X184357140Y-108036403D01*
X184313983Y-108002812D01*
X184280726Y-107984814D01*
X184230336Y-107934803D01*
X184214983Y-107865486D01*
X184239543Y-107798873D01*
X184280727Y-107763187D01*
X184313983Y-107745190D01*
X184491647Y-107606907D01*
X184644129Y-107441269D01*
X184767267Y-107252792D01*
X184857703Y-107046617D01*
X184912971Y-106828369D01*
X184931563Y-106604001D01*
X184912971Y-106379633D01*
X184900702Y-106331182D01*
X184857704Y-106161388D01*
X184857703Y-106161387D01*
X184857703Y-106161385D01*
X184767267Y-105955210D01*
X184685562Y-105830151D01*
X184644131Y-105766735D01*
X184644127Y-105766730D01*
X184491644Y-105601092D01*
X184392713Y-105524091D01*
X184313983Y-105462812D01*
X184280726Y-105444814D01*
X184230336Y-105394803D01*
X184214983Y-105325486D01*
X184239543Y-105258873D01*
X184280727Y-105223187D01*
X184313983Y-105205190D01*
X184491647Y-105066907D01*
X184644129Y-104901269D01*
X184767267Y-104712792D01*
X184857703Y-104506617D01*
X184912971Y-104288369D01*
X184931563Y-104064001D01*
X184912971Y-103839633D01*
X184889686Y-103747684D01*
X184857704Y-103621388D01*
X184857703Y-103621387D01*
X184857703Y-103621385D01*
X184767267Y-103415210D01*
X184760547Y-103404925D01*
X184644131Y-103226735D01*
X184644127Y-103226730D01*
X184491644Y-103061092D01*
X184357140Y-102956403D01*
X184313983Y-102922812D01*
X184280726Y-102904814D01*
X184230336Y-102854803D01*
X184214983Y-102785486D01*
X184239543Y-102718873D01*
X184280727Y-102683187D01*
X184313983Y-102665190D01*
X184491647Y-102526907D01*
X184644129Y-102361269D01*
X184767267Y-102172792D01*
X184857703Y-101966617D01*
X184912971Y-101748369D01*
X184931563Y-101524001D01*
X184912971Y-101299633D01*
X184912969Y-101299625D01*
X184857704Y-101081388D01*
X184857703Y-101081387D01*
X184857703Y-101081385D01*
X184767267Y-100875210D01*
X184710506Y-100788330D01*
X184644131Y-100686735D01*
X184644127Y-100686730D01*
X184491644Y-100521092D01*
X184357140Y-100416403D01*
X184313983Y-100382812D01*
X184280726Y-100364814D01*
X184230336Y-100314803D01*
X184214983Y-100245486D01*
X184239543Y-100178873D01*
X184280727Y-100143187D01*
X184313983Y-100125190D01*
X184491647Y-99986907D01*
X184644129Y-99821269D01*
X184767267Y-99632792D01*
X184857703Y-99426617D01*
X184912971Y-99208369D01*
X184931563Y-98984001D01*
X184912971Y-98759633D01*
X184912969Y-98759625D01*
X184857704Y-98541388D01*
X184857703Y-98541387D01*
X184857703Y-98541385D01*
X184767267Y-98335210D01*
X184710506Y-98248330D01*
X184644131Y-98146735D01*
X184644127Y-98146730D01*
X184491644Y-97981092D01*
X184357140Y-97876403D01*
X184313983Y-97842812D01*
X184280726Y-97824814D01*
X184230336Y-97774803D01*
X184214983Y-97705486D01*
X184239543Y-97638873D01*
X184280727Y-97603187D01*
X184313983Y-97585190D01*
X184491647Y-97446907D01*
X184644129Y-97281269D01*
X184767267Y-97092792D01*
X184857703Y-96886617D01*
X184912971Y-96668369D01*
X184931563Y-96444001D01*
X184912971Y-96219633D01*
X184912969Y-96219625D01*
X184857704Y-96001388D01*
X184857703Y-96001387D01*
X184857703Y-96001385D01*
X184767267Y-95795210D01*
X184710506Y-95708330D01*
X184644131Y-95606735D01*
X184644127Y-95606730D01*
X184491644Y-95441092D01*
X184357140Y-95336403D01*
X184313983Y-95302812D01*
X184280726Y-95284814D01*
X184230336Y-95234803D01*
X184214983Y-95165486D01*
X184239543Y-95098873D01*
X184280727Y-95063187D01*
X184313983Y-95045190D01*
X184491647Y-94906907D01*
X184644129Y-94741269D01*
X184767267Y-94552792D01*
X184857703Y-94346617D01*
X184912971Y-94128369D01*
X184931563Y-93904001D01*
X184912971Y-93679633D01*
X184903184Y-93640986D01*
X184857704Y-93461388D01*
X184857703Y-93461387D01*
X184857703Y-93461385D01*
X184767267Y-93255210D01*
X184760547Y-93244925D01*
X184644131Y-93066735D01*
X184644127Y-93066730D01*
X184491644Y-92901092D01*
X184357140Y-92796403D01*
X184313983Y-92762812D01*
X184280199Y-92744529D01*
X184229809Y-92694517D01*
X184214457Y-92625200D01*
X184239017Y-92558587D01*
X184280200Y-92522902D01*
X184313707Y-92504768D01*
X184313708Y-92504768D01*
X184491309Y-92366535D01*
X184643732Y-92200959D01*
X184766826Y-92012549D01*
X184857227Y-91806457D01*
X184857230Y-91806450D01*
X184904951Y-91618001D01*
X183999110Y-91618001D01*
X184034332Y-91556994D01*
X184068407Y-91429827D01*
X184068407Y-91298175D01*
X184034332Y-91171008D01*
X183999110Y-91110001D01*
X184904951Y-91110001D01*
X184904951Y-91110000D01*
X184857230Y-90921551D01*
X184857227Y-90921544D01*
X184766826Y-90715452D01*
X184643732Y-90527042D01*
X184491309Y-90361466D01*
X184313708Y-90223233D01*
X184313707Y-90223232D01*
X184279674Y-90204815D01*
X184229283Y-90154802D01*
X184213931Y-90085485D01*
X184238492Y-90018872D01*
X184279674Y-89983187D01*
X184313707Y-89964769D01*
X184313708Y-89964768D01*
X184491309Y-89826535D01*
X184643732Y-89660959D01*
X184766826Y-89472549D01*
X184857227Y-89266457D01*
X184857230Y-89266450D01*
X184904951Y-89078001D01*
X183999110Y-89078001D01*
X184034332Y-89016994D01*
X184068407Y-88889827D01*
X184068407Y-88758175D01*
X184034332Y-88631008D01*
X183999110Y-88570001D01*
X184904951Y-88570001D01*
X184904951Y-88570000D01*
X184857230Y-88381551D01*
X184857227Y-88381544D01*
X184766826Y-88175452D01*
X184643732Y-87987042D01*
X184491309Y-87821466D01*
X184313708Y-87683233D01*
X184313707Y-87683232D01*
X184280198Y-87665098D01*
X184229808Y-87615084D01*
X184214457Y-87545767D01*
X184239019Y-87479154D01*
X184280197Y-87443473D01*
X184313983Y-87425190D01*
X184491647Y-87286907D01*
X184644129Y-87121269D01*
X184767267Y-86932792D01*
X184857703Y-86726617D01*
X184912971Y-86508369D01*
X184931563Y-86284001D01*
X184912971Y-86059633D01*
X184912969Y-86059625D01*
X184857704Y-85841388D01*
X184857703Y-85841387D01*
X184857703Y-85841385D01*
X184767267Y-85635210D01*
X184710506Y-85548330D01*
X184644131Y-85446735D01*
X184644127Y-85446730D01*
X184491644Y-85281092D01*
X184357140Y-85176403D01*
X184313983Y-85142812D01*
X184280726Y-85124814D01*
X184230336Y-85074803D01*
X184214983Y-85005486D01*
X184239543Y-84938873D01*
X184280727Y-84903187D01*
X184313983Y-84885190D01*
X184491647Y-84746907D01*
X184644129Y-84581269D01*
X184767267Y-84392792D01*
X184857703Y-84186617D01*
X184912971Y-83968369D01*
X184931563Y-83744001D01*
X184912971Y-83519633D01*
X184912969Y-83519625D01*
X184857704Y-83301388D01*
X184857703Y-83301387D01*
X184857703Y-83301385D01*
X184767267Y-83095210D01*
X184710506Y-83008330D01*
X184644131Y-82906735D01*
X184644127Y-82906730D01*
X184491644Y-82741092D01*
X184357140Y-82636403D01*
X184313983Y-82602812D01*
X184280726Y-82584814D01*
X184230336Y-82534803D01*
X184214983Y-82465486D01*
X184239543Y-82398873D01*
X184280727Y-82363187D01*
X184313983Y-82345190D01*
X184491647Y-82206907D01*
X184644129Y-82041269D01*
X184767267Y-81852792D01*
X184857703Y-81646617D01*
X184912971Y-81428369D01*
X184931563Y-81204001D01*
X184912971Y-80979633D01*
X184912969Y-80979625D01*
X184857704Y-80761388D01*
X184857703Y-80761387D01*
X184857703Y-80761385D01*
X184767267Y-80555210D01*
X184710506Y-80468330D01*
X184644131Y-80366735D01*
X184644127Y-80366730D01*
X184491644Y-80201092D01*
X184409789Y-80137382D01*
X184313983Y-80062812D01*
X184280726Y-80044814D01*
X184230336Y-79994803D01*
X184214983Y-79925486D01*
X184239543Y-79858873D01*
X184280727Y-79823187D01*
X184313983Y-79805190D01*
X184491647Y-79666907D01*
X184644129Y-79501269D01*
X184767267Y-79312792D01*
X184857703Y-79106617D01*
X184912971Y-78888369D01*
X184931563Y-78664001D01*
X184912971Y-78439633D01*
X184903752Y-78403229D01*
X184857704Y-78221388D01*
X184857703Y-78221387D01*
X184857703Y-78221385D01*
X184767267Y-78015210D01*
X184710506Y-77928330D01*
X184644131Y-77826735D01*
X184644127Y-77826730D01*
X184491644Y-77661092D01*
X184375182Y-77570446D01*
X184313983Y-77522812D01*
X184313976Y-77522808D01*
X184280724Y-77504812D01*
X184230335Y-77454798D01*
X184214984Y-77385481D01*
X184239546Y-77318868D01*
X184280725Y-77283187D01*
X184313983Y-77265190D01*
X184491647Y-77126907D01*
X184644129Y-76961269D01*
X184767267Y-76772792D01*
X184857703Y-76566617D01*
X184912971Y-76348369D01*
X184931563Y-76124001D01*
X184912971Y-75899633D01*
X184912969Y-75899625D01*
X184857704Y-75681388D01*
X184857703Y-75681387D01*
X184857703Y-75681385D01*
X184767267Y-75475210D01*
X184760547Y-75464925D01*
X184644131Y-75286735D01*
X184644127Y-75286730D01*
X184491644Y-75121092D01*
X184345117Y-75007045D01*
X184313983Y-74982812D01*
X184280726Y-74964814D01*
X184230336Y-74914803D01*
X184214983Y-74845486D01*
X184239543Y-74778873D01*
X184280727Y-74743187D01*
X184313983Y-74725190D01*
X184491647Y-74586907D01*
X184644129Y-74421269D01*
X184767267Y-74232792D01*
X184857703Y-74026617D01*
X184912971Y-73808369D01*
X184931563Y-73584001D01*
X184912971Y-73359633D01*
X184905505Y-73330150D01*
X184857704Y-73141388D01*
X184857703Y-73141387D01*
X184857703Y-73141385D01*
X184767267Y-72935210D01*
X184710506Y-72848330D01*
X184644131Y-72746735D01*
X184644127Y-72746730D01*
X184491644Y-72581092D01*
X184357140Y-72476403D01*
X184313983Y-72442812D01*
X184280726Y-72424814D01*
X184230336Y-72374803D01*
X184214983Y-72305486D01*
X184239543Y-72238873D01*
X184280727Y-72203187D01*
X184313983Y-72185190D01*
X184491647Y-72046907D01*
X184644129Y-71881269D01*
X184767267Y-71692792D01*
X184857703Y-71486617D01*
X184912971Y-71268369D01*
X184931563Y-71044001D01*
X184912971Y-70819633D01*
X184912969Y-70819625D01*
X184857704Y-70601388D01*
X184857703Y-70601387D01*
X184857703Y-70601385D01*
X184767267Y-70395210D01*
X184760547Y-70384925D01*
X184644131Y-70206735D01*
X184644127Y-70206730D01*
X184491644Y-70041092D01*
X184357140Y-69936403D01*
X184313983Y-69902812D01*
X184280726Y-69884814D01*
X184230336Y-69834803D01*
X184214983Y-69765486D01*
X184239543Y-69698873D01*
X184280727Y-69663187D01*
X184313983Y-69645190D01*
X184491647Y-69506907D01*
X184644129Y-69341269D01*
X184767267Y-69152792D01*
X184857703Y-68946617D01*
X184912971Y-68728369D01*
X184931563Y-68504001D01*
X184912971Y-68279633D01*
X184884909Y-68168817D01*
X184857704Y-68061388D01*
X184857703Y-68061387D01*
X184857703Y-68061385D01*
X184767267Y-67855210D01*
X184702344Y-67755838D01*
X184644131Y-67666735D01*
X184644127Y-67666730D01*
X184491644Y-67501092D01*
X184357140Y-67396403D01*
X184313983Y-67362812D01*
X184313976Y-67362808D01*
X184280724Y-67344812D01*
X184230335Y-67294798D01*
X184214984Y-67225481D01*
X184239546Y-67158868D01*
X184280725Y-67123187D01*
X184313983Y-67105190D01*
X184491647Y-66966907D01*
X184644129Y-66801269D01*
X184767267Y-66612792D01*
X184857703Y-66406617D01*
X184912971Y-66188369D01*
X184931563Y-65964001D01*
X184912971Y-65739633D01*
X184906378Y-65713598D01*
X184857704Y-65521388D01*
X184857703Y-65521387D01*
X184857703Y-65521385D01*
X184767267Y-65315210D01*
X184710506Y-65228330D01*
X184644131Y-65126735D01*
X184644127Y-65126730D01*
X184491644Y-64961092D01*
X184384361Y-64877590D01*
X184313983Y-64822812D01*
X184280199Y-64804529D01*
X184229809Y-64754517D01*
X184214457Y-64685200D01*
X184239017Y-64618587D01*
X184280200Y-64582902D01*
X184313707Y-64564768D01*
X184313708Y-64564768D01*
X184491309Y-64426535D01*
X184643732Y-64260959D01*
X184766826Y-64072549D01*
X184857227Y-63866457D01*
X184857230Y-63866450D01*
X184904951Y-63678001D01*
X183999110Y-63678001D01*
X184034332Y-63616994D01*
X184068407Y-63489827D01*
X184068407Y-63358175D01*
X184034332Y-63231008D01*
X183999110Y-63170001D01*
X184904951Y-63170001D01*
X184904951Y-63170000D01*
X184857230Y-62981551D01*
X184857227Y-62981544D01*
X184766826Y-62775452D01*
X184643732Y-62587042D01*
X184491309Y-62421466D01*
X184313708Y-62283233D01*
X184313707Y-62283232D01*
X184115778Y-62176118D01*
X184115776Y-62176117D01*
X183902919Y-62103044D01*
X183902908Y-62103041D01*
X183822407Y-62089607D01*
X183822407Y-62993298D01*
X183761400Y-62958076D01*
X183634233Y-62924001D01*
X183502581Y-62924001D01*
X183375414Y-62958076D01*
X183314407Y-62993298D01*
X183314407Y-62089608D01*
X183314406Y-62089607D01*
X183233905Y-62103041D01*
X183233894Y-62103044D01*
X183021037Y-62176117D01*
X183021035Y-62176118D01*
X182823106Y-62283232D01*
X182823105Y-62283233D01*
X182645504Y-62421466D01*
X182493081Y-62587042D01*
X182369987Y-62775452D01*
X182279586Y-62981544D01*
X182279583Y-62981551D01*
X182231862Y-63170000D01*
X182231863Y-63170001D01*
X183137704Y-63170001D01*
X183102482Y-63231008D01*
X183068407Y-63358175D01*
X183068407Y-63489827D01*
X183102482Y-63616994D01*
X183137704Y-63678001D01*
X182231862Y-63678001D01*
X182279583Y-63866450D01*
X182279586Y-63866457D01*
X182369987Y-64072549D01*
X182493081Y-64260959D01*
X182645504Y-64426535D01*
X182823105Y-64564768D01*
X182823111Y-64564772D01*
X182856614Y-64582903D01*
X182907004Y-64632916D01*
X182922356Y-64702233D01*
X182897795Y-64768846D01*
X182856614Y-64804529D01*
X182822837Y-64822808D01*
X182822831Y-64822812D01*
X182645169Y-64961092D01*
X182492686Y-65126730D01*
X182492682Y-65126735D01*
X182369548Y-65315207D01*
X182279110Y-65521387D01*
X182279109Y-65521388D01*
X182223844Y-65739625D01*
X182223843Y-65739631D01*
X182223843Y-65739633D01*
X182215425Y-65841225D01*
X182205251Y-65964001D01*
X182223844Y-66188376D01*
X182279109Y-66406613D01*
X182279110Y-66406614D01*
X182369548Y-66612794D01*
X182492682Y-66801266D01*
X182492686Y-66801271D01*
X182645169Y-66966909D01*
X182656736Y-66975912D01*
X182822831Y-67105190D01*
X182822837Y-67105193D01*
X182856085Y-67123186D01*
X182906476Y-67173198D01*
X182921829Y-67242515D01*
X182897269Y-67309128D01*
X182856090Y-67344812D01*
X182822833Y-67362810D01*
X182822831Y-67362812D01*
X182645169Y-67501092D01*
X182492686Y-67666730D01*
X182492682Y-67666735D01*
X182369548Y-67855207D01*
X182279110Y-68061387D01*
X182279109Y-68061388D01*
X182223844Y-68279625D01*
X182205251Y-68504001D01*
X182223844Y-68728376D01*
X182279109Y-68946613D01*
X182279110Y-68946614D01*
X182279111Y-68946617D01*
X182344973Y-69096768D01*
X182369548Y-69152794D01*
X182492682Y-69341266D01*
X182492686Y-69341271D01*
X182645169Y-69506909D01*
X182699738Y-69549382D01*
X182822831Y-69645190D01*
X182856087Y-69663187D01*
X182906478Y-69713201D01*
X182921830Y-69782517D01*
X182897269Y-69849130D01*
X182856087Y-69884814D01*
X182822833Y-69902811D01*
X182822831Y-69902812D01*
X182645169Y-70041092D01*
X182492686Y-70206730D01*
X182492682Y-70206735D01*
X182369548Y-70395207D01*
X182279110Y-70601387D01*
X182279109Y-70601388D01*
X182223844Y-70819625D01*
X182223843Y-70819631D01*
X182223843Y-70819633D01*
X182205251Y-71044001D01*
X182215679Y-71169850D01*
X182223844Y-71268376D01*
X182279109Y-71486613D01*
X182279110Y-71486614D01*
X182369548Y-71692794D01*
X182492682Y-71881266D01*
X182492686Y-71881271D01*
X182645169Y-72046909D01*
X182699738Y-72089382D01*
X182822831Y-72185190D01*
X182856087Y-72203187D01*
X182906478Y-72253201D01*
X182921830Y-72322517D01*
X182897269Y-72389130D01*
X182856087Y-72424814D01*
X182822833Y-72442811D01*
X182822831Y-72442812D01*
X182645169Y-72581092D01*
X182492686Y-72746730D01*
X182492682Y-72746735D01*
X182366697Y-72939572D01*
X182365269Y-72938639D01*
X182320579Y-72983663D01*
X182259783Y-72999301D01*
X132210700Y-72999301D01*
X132142579Y-72979299D01*
X132096086Y-72925643D01*
X132084700Y-72873301D01*
X132084700Y-71531419D01*
X132104012Y-71464384D01*
X132187709Y-71331183D01*
X132244162Y-71169850D01*
X132263299Y-71000000D01*
X132244162Y-70830150D01*
X132187709Y-70668817D01*
X132096771Y-70524091D01*
X132096769Y-70524089D01*
X132096768Y-70524087D01*
X131975912Y-70403231D01*
X131831182Y-70312290D01*
X131731270Y-70277330D01*
X131669850Y-70255838D01*
X131669848Y-70255837D01*
X131669850Y-70255837D01*
X131500000Y-70236701D01*
X131330151Y-70255837D01*
X131168817Y-70312290D01*
X131024087Y-70403231D01*
X130903231Y-70524087D01*
X130812290Y-70668817D01*
X130755837Y-70830151D01*
X130736701Y-71000000D01*
X130755837Y-71169848D01*
X130812290Y-71331182D01*
X130812291Y-71331183D01*
X130895987Y-71464384D01*
X130915300Y-71531419D01*
X130915300Y-72968580D01*
X130895987Y-73035617D01*
X130812290Y-73168817D01*
X130755837Y-73330151D01*
X130736701Y-73500000D01*
X112424583Y-73500000D01*
X112421371Y-73461233D01*
X112395640Y-73359625D01*
X112366104Y-73242988D01*
X112366103Y-73242987D01*
X112366103Y-73242985D01*
X112275667Y-73036810D01*
X112251161Y-72999301D01*
X112152531Y-72848335D01*
X112152527Y-72848330D01*
X112000044Y-72682692D01*
X111918189Y-72618982D01*
X111822383Y-72544412D01*
X111789126Y-72526414D01*
X111738736Y-72476403D01*
X111723383Y-72407086D01*
X111747943Y-72340473D01*
X111789127Y-72304787D01*
X111822383Y-72286790D01*
X112000047Y-72148507D01*
X112152529Y-71982869D01*
X112275667Y-71794392D01*
X112366103Y-71588217D01*
X112421371Y-71369969D01*
X112439963Y-71145601D01*
X112421371Y-70921233D01*
X112366103Y-70702985D01*
X112275667Y-70496810D01*
X112214528Y-70403229D01*
X112152531Y-70308335D01*
X112152527Y-70308330D01*
X112000044Y-70142692D01*
X111918189Y-70078982D01*
X111822383Y-70004412D01*
X111789126Y-69986414D01*
X111738736Y-69936403D01*
X111723383Y-69867086D01*
X111747943Y-69800473D01*
X111789127Y-69764787D01*
X111822383Y-69746790D01*
X112000047Y-69608507D01*
X112152529Y-69442869D01*
X112275667Y-69254392D01*
X112366103Y-69048217D01*
X112421371Y-68829969D01*
X112439963Y-68605601D01*
X112431212Y-68500000D01*
X129236701Y-68500000D01*
X129255837Y-68669848D01*
X129312290Y-68831182D01*
X129312291Y-68831183D01*
X129384823Y-68946617D01*
X129403231Y-68975912D01*
X129524087Y-69096768D01*
X129524089Y-69096769D01*
X129524091Y-69096771D01*
X129668817Y-69187709D01*
X129830150Y-69244162D01*
X129830149Y-69244162D01*
X129847348Y-69246099D01*
X130000000Y-69263299D01*
X130169850Y-69244162D01*
X130331183Y-69187709D01*
X130464383Y-69104012D01*
X130531420Y-69084700D01*
X164468580Y-69084700D01*
X164535616Y-69104012D01*
X164668817Y-69187709D01*
X164830150Y-69244162D01*
X164830149Y-69244162D01*
X164847348Y-69246099D01*
X165000000Y-69263299D01*
X165169850Y-69244162D01*
X165331183Y-69187709D01*
X165475909Y-69096771D01*
X165596771Y-68975909D01*
X165687709Y-68831183D01*
X165744162Y-68669850D01*
X165763299Y-68500000D01*
X165744162Y-68330150D01*
X165687709Y-68168817D01*
X165596771Y-68024091D01*
X165596769Y-68024089D01*
X165596768Y-68024087D01*
X165475912Y-67903231D01*
X165464383Y-67895987D01*
X165399483Y-67855207D01*
X165331182Y-67812290D01*
X165205564Y-67768335D01*
X165169850Y-67755838D01*
X165169848Y-67755837D01*
X165169850Y-67755837D01*
X165000000Y-67736701D01*
X164830151Y-67755837D01*
X164668817Y-67812290D01*
X164600517Y-67855207D01*
X164535616Y-67895987D01*
X164468580Y-67915300D01*
X130531420Y-67915300D01*
X130464383Y-67895987D01*
X130399483Y-67855207D01*
X130331182Y-67812290D01*
X130205564Y-67768335D01*
X130169850Y-67755838D01*
X130169848Y-67755837D01*
X130169850Y-67755837D01*
X130000000Y-67736701D01*
X129830151Y-67755837D01*
X129668817Y-67812290D01*
X129524087Y-67903231D01*
X129403231Y-68024087D01*
X129312290Y-68168817D01*
X129255837Y-68330151D01*
X129236701Y-68500000D01*
X112431212Y-68500000D01*
X112421371Y-68381233D01*
X112366103Y-68162985D01*
X112275667Y-67956810D01*
X112240661Y-67903229D01*
X112152531Y-67768335D01*
X112152527Y-67768330D01*
X112000044Y-67602692D01*
X111918189Y-67538982D01*
X111822383Y-67464412D01*
X111789126Y-67446414D01*
X111738736Y-67396403D01*
X111723383Y-67327086D01*
X111747943Y-67260473D01*
X111789127Y-67224787D01*
X111822383Y-67206790D01*
X112000047Y-67068507D01*
X112152529Y-66902869D01*
X112218908Y-66801269D01*
X112278517Y-66710030D01*
X112279944Y-66710962D01*
X112324635Y-66665939D01*
X112385431Y-66650301D01*
X131659596Y-66650301D01*
X131727717Y-66670303D01*
X131774210Y-66723959D01*
X131778525Y-66734686D01*
X131812290Y-66831182D01*
X131903231Y-66975912D01*
X132024087Y-67096768D01*
X132024089Y-67096769D01*
X132024091Y-67096771D01*
X132168817Y-67187709D01*
X132330150Y-67244162D01*
X132330149Y-67244162D01*
X132347348Y-67246099D01*
X132500000Y-67263299D01*
X132669850Y-67244162D01*
X132831183Y-67187709D01*
X132975909Y-67096771D01*
X133096771Y-66975909D01*
X133187709Y-66831183D01*
X133244162Y-66669850D01*
X133263299Y-66500000D01*
X133244162Y-66330150D01*
X133187709Y-66168817D01*
X133096771Y-66024091D01*
X133096769Y-66024089D01*
X133096768Y-66024087D01*
X132975912Y-65903231D01*
X132831182Y-65812290D01*
X132669852Y-65755838D01*
X132669845Y-65755837D01*
X132615473Y-65749710D01*
X132550021Y-65722206D01*
X132540497Y-65713607D01*
X132424615Y-65597725D01*
X132407592Y-65587897D01*
X132407592Y-65587896D01*
X132407590Y-65587896D01*
X132291287Y-65520748D01*
X132142578Y-65480901D01*
X132142576Y-65480901D01*
X112385431Y-65480901D01*
X112317310Y-65460899D01*
X112279727Y-65420381D01*
X112278517Y-65421172D01*
X112152531Y-65228335D01*
X112152526Y-65228330D01*
X112059000Y-65126735D01*
X112009331Y-65072780D01*
X111977910Y-65009115D01*
X111985897Y-64938569D01*
X112030755Y-64883540D01*
X112057990Y-64869390D01*
X112173011Y-64826490D01*
X112177925Y-64822812D01*
X112290068Y-64738862D01*
X112377694Y-64621808D01*
X112377694Y-64621807D01*
X112377696Y-64621805D01*
X112428796Y-64484802D01*
X112435307Y-64424239D01*
X112435307Y-64236301D01*
X112455309Y-64168180D01*
X112508965Y-64121687D01*
X112561307Y-64110301D01*
X131145600Y-64110301D01*
X131213721Y-64130303D01*
X131260214Y-64183959D01*
X131264529Y-64194686D01*
X131312290Y-64331182D01*
X131403231Y-64475912D01*
X131524087Y-64596768D01*
X131524089Y-64596769D01*
X131524091Y-64596771D01*
X131668817Y-64687709D01*
X131830150Y-64744162D01*
X131830149Y-64744162D01*
X131847348Y-64746099D01*
X132000000Y-64763299D01*
X132169850Y-64744162D01*
X132331183Y-64687709D01*
X132475909Y-64596771D01*
X132596771Y-64475909D01*
X132687709Y-64331183D01*
X132744162Y-64169850D01*
X132763299Y-64000000D01*
X132744162Y-63830150D01*
X132687709Y-63668817D01*
X132596771Y-63524091D01*
X132596769Y-63524089D01*
X132596768Y-63524087D01*
X132475912Y-63403231D01*
X132331182Y-63312290D01*
X132169852Y-63255838D01*
X132169845Y-63255837D01*
X132115473Y-63249710D01*
X132050021Y-63222206D01*
X132040497Y-63213607D01*
X131884615Y-63057725D01*
X131867592Y-63047897D01*
X131867592Y-63047896D01*
X131867590Y-63047896D01*
X131826031Y-63023902D01*
X131751287Y-62980748D01*
X131602578Y-62940901D01*
X131602576Y-62940901D01*
X112561307Y-62940901D01*
X112493186Y-62920899D01*
X112446693Y-62867243D01*
X112435307Y-62814901D01*
X112435307Y-62626968D01*
X112435306Y-62626951D01*
X112428797Y-62566404D01*
X112428795Y-62566396D01*
X112377696Y-62429398D01*
X112377694Y-62429393D01*
X112290068Y-62312339D01*
X112173014Y-62224713D01*
X112173009Y-62224711D01*
X112036011Y-62173612D01*
X112036003Y-62173610D01*
X111975456Y-62167101D01*
X111975445Y-62167101D01*
X110178169Y-62167101D01*
X110178157Y-62167101D01*
X110117610Y-62173610D01*
X110117602Y-62173612D01*
X109980604Y-62224711D01*
X109980599Y-62224713D01*
X109863545Y-62312339D01*
X109775919Y-62429393D01*
X109775917Y-62429398D01*
X109724818Y-62566396D01*
X109724816Y-62566404D01*
X109718307Y-62626951D01*
X109718307Y-64424250D01*
X109724816Y-64484797D01*
X109724818Y-64484805D01*
X109775917Y-64621803D01*
X109775919Y-64621808D01*
X109863545Y-64738862D01*
X109980598Y-64826487D01*
X109980599Y-64826487D01*
X109980603Y-64826490D01*
X110095617Y-64869388D01*
X110152449Y-64911933D01*
X110177260Y-64978453D01*
X110162169Y-65047827D01*
X110144282Y-65072780D01*
X110001087Y-65228330D01*
X110001082Y-65228335D01*
X109877948Y-65416807D01*
X109787510Y-65622987D01*
X109787509Y-65622988D01*
X109732244Y-65841225D01*
X109713651Y-66065601D01*
X109732244Y-66289976D01*
X109787509Y-66508213D01*
X109787510Y-66508214D01*
X109787511Y-66508217D01*
X109877947Y-66714392D01*
X109877948Y-66714394D01*
X110001082Y-66902866D01*
X110001086Y-66902871D01*
X110153569Y-67068509D01*
X110200697Y-67105190D01*
X110331231Y-67206790D01*
X110364487Y-67224787D01*
X110414878Y-67274801D01*
X110430230Y-67344117D01*
X110405669Y-67410730D01*
X110364487Y-67446414D01*
X110331233Y-67464411D01*
X110331231Y-67464412D01*
X110153569Y-67602692D01*
X110001086Y-67768330D01*
X110001082Y-67768335D01*
X109877948Y-67956807D01*
X109787510Y-68162987D01*
X109787509Y-68162988D01*
X109732244Y-68381225D01*
X109713651Y-68605601D01*
X109732244Y-68829976D01*
X109787509Y-69048213D01*
X109787510Y-69048214D01*
X109787511Y-69048217D01*
X109873460Y-69244162D01*
X109877948Y-69254394D01*
X110001082Y-69442866D01*
X110001086Y-69442871D01*
X110153569Y-69608509D01*
X110200697Y-69645190D01*
X110331231Y-69746790D01*
X110364487Y-69764787D01*
X110414878Y-69814801D01*
X110430230Y-69884117D01*
X110405669Y-69950730D01*
X110364487Y-69986414D01*
X110331233Y-70004411D01*
X110331231Y-70004412D01*
X110153569Y-70142692D01*
X110001086Y-70308330D01*
X110001082Y-70308335D01*
X109877948Y-70496807D01*
X109787510Y-70702987D01*
X109787509Y-70702988D01*
X109732244Y-70921225D01*
X109713651Y-71145601D01*
X109732244Y-71369976D01*
X109787509Y-71588213D01*
X109787510Y-71588214D01*
X109787511Y-71588217D01*
X109877947Y-71794392D01*
X109877948Y-71794394D01*
X110001082Y-71982866D01*
X110001086Y-71982871D01*
X110153569Y-72148509D01*
X110200697Y-72185190D01*
X110331231Y-72286790D01*
X110364487Y-72304787D01*
X110414878Y-72354801D01*
X110430230Y-72424117D01*
X110405669Y-72490730D01*
X110364487Y-72526414D01*
X110331233Y-72544411D01*
X110331231Y-72544412D01*
X110153569Y-72682692D01*
X110001086Y-72848330D01*
X110001082Y-72848335D01*
X109877948Y-73036807D01*
X109787510Y-73242987D01*
X109787509Y-73242988D01*
X109732244Y-73461225D01*
X109732243Y-73461231D01*
X109732243Y-73461233D01*
X109713651Y-73685601D01*
X109725714Y-73831183D01*
X109732244Y-73909976D01*
X109787509Y-74128213D01*
X109787510Y-74128214D01*
X109787511Y-74128217D01*
X109838369Y-74244162D01*
X109877948Y-74334394D01*
X110001082Y-74522866D01*
X110001086Y-74522871D01*
X110153569Y-74688509D01*
X110200697Y-74725190D01*
X110331231Y-74826790D01*
X110365012Y-74845071D01*
X110415403Y-74895083D01*
X110430756Y-74964400D01*
X110406196Y-75031013D01*
X110365016Y-75066697D01*
X110331511Y-75084829D01*
X110331505Y-75084833D01*
X110153904Y-75223066D01*
X110001481Y-75388642D01*
X109878387Y-75577052D01*
X109787986Y-75783144D01*
X109787983Y-75783151D01*
X109740262Y-75971600D01*
X109740263Y-75971601D01*
X110646104Y-75971601D01*
X110610882Y-76032608D01*
X110576807Y-76159775D01*
X110576807Y-76291427D01*
X110610882Y-76418594D01*
X110646104Y-76479601D01*
X109740262Y-76479601D01*
X109787983Y-76668050D01*
X109787986Y-76668057D01*
X109878387Y-76874149D01*
X110001481Y-77062559D01*
X110153904Y-77228135D01*
X110331505Y-77366368D01*
X110331511Y-77366372D01*
X110365014Y-77384503D01*
X110415404Y-77434516D01*
X110430756Y-77503833D01*
X110406195Y-77570446D01*
X110365014Y-77606129D01*
X110331237Y-77624408D01*
X110331231Y-77624412D01*
X110153569Y-77762692D01*
X110001086Y-77928330D01*
X110001082Y-77928335D01*
X109877948Y-78116807D01*
X109787510Y-78322987D01*
X109787509Y-78322988D01*
X109732244Y-78541225D01*
X109732243Y-78541231D01*
X109732243Y-78541233D01*
X109713651Y-78765601D01*
X109729209Y-78953357D01*
X109732244Y-78989976D01*
X109787509Y-79208213D01*
X109787510Y-79208214D01*
X109787511Y-79208217D01*
X109877947Y-79414392D01*
X109877948Y-79414394D01*
X110001082Y-79602866D01*
X110001086Y-79602871D01*
X110153569Y-79768509D01*
X110200697Y-79805190D01*
X110331231Y-79906790D01*
X110364487Y-79924787D01*
X110414878Y-79974801D01*
X110430230Y-80044117D01*
X110405669Y-80110730D01*
X110364487Y-80146414D01*
X110331233Y-80164411D01*
X110331231Y-80164412D01*
X110153569Y-80302692D01*
X110001086Y-80468330D01*
X110001082Y-80468335D01*
X109877948Y-80656807D01*
X109787510Y-80862987D01*
X109787509Y-80862988D01*
X109732244Y-81081225D01*
X109713651Y-81305601D01*
X109732244Y-81529976D01*
X109787509Y-81748213D01*
X109787510Y-81748214D01*
X109787511Y-81748217D01*
X109877947Y-81954392D01*
X109877948Y-81954394D01*
X110001082Y-82142866D01*
X110001086Y-82142871D01*
X110153569Y-82308509D01*
X110200697Y-82345190D01*
X110331231Y-82446790D01*
X110364487Y-82464787D01*
X110414878Y-82514801D01*
X110430230Y-82584117D01*
X110405669Y-82650730D01*
X110364487Y-82686414D01*
X110331233Y-82704411D01*
X110331231Y-82704412D01*
X110153569Y-82842692D01*
X110001086Y-83008330D01*
X110001082Y-83008335D01*
X109877948Y-83196807D01*
X109787510Y-83402987D01*
X109787509Y-83402988D01*
X109732244Y-83621225D01*
X109713651Y-83845601D01*
X109732244Y-84069976D01*
X109787509Y-84288213D01*
X109787510Y-84288214D01*
X109787511Y-84288217D01*
X109877947Y-84494392D01*
X109877948Y-84494394D01*
X110001082Y-84682866D01*
X110001086Y-84682871D01*
X110153569Y-84848509D01*
X110200697Y-84885190D01*
X110331231Y-84986790D01*
X110364487Y-85004787D01*
X110414878Y-85054801D01*
X110430230Y-85124117D01*
X110405669Y-85190730D01*
X110364487Y-85226414D01*
X110331233Y-85244411D01*
X110331231Y-85244412D01*
X110153569Y-85382692D01*
X110001086Y-85548330D01*
X110001082Y-85548335D01*
X109877948Y-85736807D01*
X109787510Y-85942987D01*
X109787509Y-85942988D01*
X109732244Y-86161225D01*
X109713651Y-86385601D01*
X109732244Y-86609976D01*
X109787509Y-86828213D01*
X109787510Y-86828214D01*
X109787511Y-86828217D01*
X109873427Y-87024087D01*
X109877948Y-87034394D01*
X110001082Y-87222866D01*
X110001086Y-87222871D01*
X110153569Y-87388509D01*
X110200697Y-87425190D01*
X110331231Y-87526790D01*
X110364487Y-87544787D01*
X110414878Y-87594801D01*
X110430230Y-87664117D01*
X110405669Y-87730730D01*
X110364487Y-87766414D01*
X110331233Y-87784411D01*
X110331231Y-87784412D01*
X110153569Y-87922692D01*
X110001086Y-88088330D01*
X110001082Y-88088335D01*
X109877948Y-88276807D01*
X109787510Y-88482987D01*
X109787509Y-88482988D01*
X109732244Y-88701225D01*
X109732243Y-88701231D01*
X109732243Y-88701233D01*
X109713651Y-88925601D01*
X109726279Y-89078001D01*
X109732244Y-89149976D01*
X109787509Y-89368213D01*
X109787510Y-89368214D01*
X109787511Y-89368217D01*
X109855883Y-89524091D01*
X109877948Y-89574394D01*
X110001082Y-89762866D01*
X110001086Y-89762871D01*
X110153569Y-89928509D01*
X110199659Y-89964382D01*
X110331231Y-90066790D01*
X110364487Y-90084787D01*
X110414878Y-90134801D01*
X110430230Y-90204117D01*
X110405669Y-90270730D01*
X110364487Y-90306414D01*
X110331233Y-90324411D01*
X110331231Y-90324412D01*
X110153569Y-90462692D01*
X110001086Y-90628330D01*
X110001082Y-90628335D01*
X109877948Y-90816807D01*
X109787510Y-91022987D01*
X109787509Y-91022988D01*
X109732244Y-91241225D01*
X109732243Y-91241231D01*
X109732243Y-91241233D01*
X109713651Y-91465601D01*
X109726279Y-91618001D01*
X109732244Y-91689976D01*
X109787509Y-91908213D01*
X109787510Y-91908214D01*
X109787511Y-91908217D01*
X109827727Y-91999901D01*
X109877948Y-92114394D01*
X110001082Y-92302866D01*
X110001086Y-92302871D01*
X110153569Y-92468509D01*
X110200155Y-92504768D01*
X110331231Y-92606790D01*
X110364487Y-92624787D01*
X110414878Y-92674801D01*
X110430230Y-92744117D01*
X110405669Y-92810730D01*
X110364487Y-92846414D01*
X110331233Y-92864411D01*
X110331231Y-92864412D01*
X110153569Y-93002692D01*
X110001086Y-93168330D01*
X110001082Y-93168335D01*
X109877948Y-93356807D01*
X109787510Y-93562987D01*
X109787509Y-93562988D01*
X109732244Y-93781225D01*
X109732243Y-93781231D01*
X109732243Y-93781233D01*
X109713651Y-94005601D01*
X109727261Y-94169850D01*
X109732244Y-94229976D01*
X109787509Y-94448213D01*
X109787510Y-94448214D01*
X109787511Y-94448217D01*
X109877947Y-94654392D01*
X109877948Y-94654394D01*
X110001082Y-94842866D01*
X110001086Y-94842871D01*
X110153569Y-95008509D01*
X110200697Y-95045190D01*
X110331231Y-95146790D01*
X110364487Y-95164787D01*
X110414878Y-95214801D01*
X110430230Y-95284117D01*
X110405669Y-95350730D01*
X110364487Y-95386414D01*
X110331233Y-95404411D01*
X110331231Y-95404412D01*
X110153569Y-95542692D01*
X110001086Y-95708330D01*
X110001082Y-95708335D01*
X109877948Y-95896807D01*
X109787510Y-96102987D01*
X109787509Y-96102988D01*
X109732244Y-96321225D01*
X109713651Y-96545601D01*
X109732244Y-96769976D01*
X109787509Y-96988213D01*
X109787510Y-96988214D01*
X109787511Y-96988217D01*
X109877947Y-97194392D01*
X109877948Y-97194394D01*
X110001082Y-97382866D01*
X110001086Y-97382871D01*
X110153569Y-97548509D01*
X110200697Y-97585190D01*
X110331231Y-97686790D01*
X110364487Y-97704787D01*
X110414878Y-97754801D01*
X110430230Y-97824117D01*
X110405669Y-97890730D01*
X110364487Y-97926414D01*
X110331233Y-97944411D01*
X110331231Y-97944412D01*
X110153569Y-98082692D01*
X110001086Y-98248330D01*
X110001082Y-98248335D01*
X109877948Y-98436807D01*
X109787510Y-98642987D01*
X109787509Y-98642988D01*
X109732244Y-98861225D01*
X109713651Y-99085601D01*
X109732244Y-99309976D01*
X109787509Y-99528213D01*
X109787510Y-99528214D01*
X109787511Y-99528217D01*
X109877947Y-99734392D01*
X109877948Y-99734394D01*
X110001082Y-99922866D01*
X110001086Y-99922871D01*
X110153569Y-100088509D01*
X110200697Y-100125190D01*
X110331231Y-100226790D01*
X110364487Y-100244787D01*
X110414878Y-100294801D01*
X110430230Y-100364117D01*
X110405669Y-100430730D01*
X110364487Y-100466414D01*
X110331233Y-100484411D01*
X110331231Y-100484412D01*
X110153569Y-100622692D01*
X110001086Y-100788330D01*
X110001082Y-100788335D01*
X109877948Y-100976807D01*
X109787510Y-101182987D01*
X109787509Y-101182988D01*
X109732244Y-101401225D01*
X109713651Y-101625601D01*
X109732244Y-101849976D01*
X109787509Y-102068213D01*
X109787510Y-102068214D01*
X109787511Y-102068217D01*
X109877947Y-102274392D01*
X109877948Y-102274394D01*
X110001082Y-102462866D01*
X110001086Y-102462871D01*
X110153569Y-102628509D01*
X110200697Y-102665190D01*
X110331231Y-102766790D01*
X110364487Y-102784787D01*
X110414878Y-102834801D01*
X110430230Y-102904117D01*
X110405669Y-102970730D01*
X110364487Y-103006414D01*
X110331233Y-103024411D01*
X110331231Y-103024412D01*
X110153569Y-103162692D01*
X110001086Y-103328330D01*
X110001082Y-103328335D01*
X109877948Y-103516807D01*
X109787510Y-103722987D01*
X109787509Y-103722988D01*
X109732244Y-103941225D01*
X109732243Y-103941231D01*
X109732243Y-103941233D01*
X109713651Y-104165601D01*
X109724225Y-104293212D01*
X109732244Y-104389976D01*
X109787509Y-104608213D01*
X109787510Y-104608214D01*
X109787511Y-104608217D01*
X109860367Y-104774313D01*
X109877948Y-104814394D01*
X110001082Y-105002866D01*
X110001086Y-105002871D01*
X110153569Y-105168509D01*
X110200697Y-105205190D01*
X110331231Y-105306790D01*
X110364487Y-105324787D01*
X110414878Y-105374801D01*
X110430230Y-105444117D01*
X110405669Y-105510730D01*
X110364487Y-105546414D01*
X110331233Y-105564411D01*
X110331231Y-105564412D01*
X110153569Y-105702692D01*
X110001086Y-105868330D01*
X110001082Y-105868335D01*
X109877948Y-106056807D01*
X109787510Y-106262987D01*
X109787509Y-106262988D01*
X109732244Y-106481225D01*
X109732243Y-106481231D01*
X109732243Y-106481233D01*
X109713651Y-106705601D01*
X109730027Y-106903231D01*
X109732244Y-106929976D01*
X109787509Y-107148213D01*
X109787510Y-107148214D01*
X109787511Y-107148217D01*
X109867314Y-107330150D01*
X109877948Y-107354394D01*
X110001082Y-107542866D01*
X110001086Y-107542871D01*
X110153569Y-107708509D01*
X110200697Y-107745190D01*
X110331231Y-107846790D01*
X110364487Y-107864787D01*
X110414878Y-107914801D01*
X110430230Y-107984117D01*
X110405669Y-108050730D01*
X110364487Y-108086414D01*
X110331233Y-108104411D01*
X110331231Y-108104412D01*
X110153569Y-108242692D01*
X110001086Y-108408330D01*
X110001082Y-108408335D01*
X109877948Y-108596807D01*
X109787510Y-108802987D01*
X109787509Y-108802988D01*
X109732244Y-109021225D01*
X109732243Y-109021231D01*
X109732243Y-109021233D01*
X109713651Y-109245601D01*
X109732244Y-109469976D01*
X109787509Y-109688213D01*
X109787510Y-109688214D01*
X109787511Y-109688217D01*
X109849768Y-109830150D01*
X109877948Y-109894394D01*
X110001082Y-110082866D01*
X110001086Y-110082871D01*
X110153569Y-110248509D01*
X110200697Y-110285190D01*
X110331231Y-110386790D01*
X110364487Y-110404787D01*
X110414878Y-110454801D01*
X110430230Y-110524117D01*
X110405669Y-110590730D01*
X110364487Y-110626414D01*
X110331233Y-110644411D01*
X110331231Y-110644412D01*
X110153569Y-110782692D01*
X110001086Y-110948330D01*
X110001082Y-110948335D01*
X109877948Y-111136807D01*
X109787510Y-111342987D01*
X109787509Y-111342988D01*
X109732244Y-111561225D01*
X109732243Y-111561231D01*
X109732243Y-111561233D01*
X109713651Y-111785601D01*
X109728813Y-111968580D01*
X109732244Y-112009976D01*
X109787509Y-112228213D01*
X109787510Y-112228214D01*
X109787511Y-112228217D01*
X109834725Y-112335855D01*
X109877948Y-112434394D01*
X110001082Y-112622866D01*
X110001086Y-112622871D01*
X110153569Y-112788509D01*
X110200697Y-112825190D01*
X110331231Y-112926790D01*
X110364487Y-112944787D01*
X110414878Y-112994801D01*
X110430230Y-113064117D01*
X110405669Y-113130730D01*
X110364487Y-113166414D01*
X110331233Y-113184411D01*
X110331231Y-113184412D01*
X110153569Y-113322692D01*
X110001086Y-113488330D01*
X110001082Y-113488335D01*
X109877948Y-113676807D01*
X109787510Y-113882987D01*
X109787509Y-113882988D01*
X109732244Y-114101225D01*
X109732243Y-114101231D01*
X109732243Y-114101233D01*
X109713651Y-114325601D01*
X109727106Y-114487980D01*
X109732244Y-114549976D01*
X109787509Y-114768213D01*
X109787510Y-114768214D01*
X109787511Y-114768217D01*
X109877947Y-114974392D01*
X109877948Y-114974394D01*
X110001082Y-115162866D01*
X110001086Y-115162871D01*
X110153569Y-115328509D01*
X110200697Y-115365190D01*
X110331231Y-115466790D01*
X110364487Y-115484787D01*
X110414878Y-115534801D01*
X110430230Y-115604117D01*
X110405669Y-115670730D01*
X110364487Y-115706414D01*
X110331233Y-115724411D01*
X110331231Y-115724412D01*
X110153569Y-115862692D01*
X110001086Y-116028330D01*
X110001082Y-116028335D01*
X109877948Y-116216807D01*
X109787510Y-116422987D01*
X109787509Y-116422988D01*
X109732244Y-116641225D01*
X109732243Y-116641231D01*
X109732243Y-116641233D01*
X109713651Y-116865601D01*
X109727391Y-117031419D01*
X109732244Y-117089976D01*
X109787509Y-117308213D01*
X109787510Y-117308214D01*
X109787511Y-117308217D01*
X109834482Y-117415300D01*
X109877948Y-117514394D01*
X110001082Y-117702866D01*
X110001086Y-117702871D01*
X110153569Y-117868509D01*
X110200697Y-117905190D01*
X110331231Y-118006790D01*
X110364487Y-118024787D01*
X110414878Y-118074801D01*
X110430230Y-118144117D01*
X110405669Y-118210730D01*
X110364487Y-118246414D01*
X110331233Y-118264411D01*
X110331231Y-118264412D01*
X110153569Y-118402692D01*
X110001086Y-118568330D01*
X110001082Y-118568335D01*
X109877948Y-118756807D01*
X109787510Y-118962987D01*
X109787509Y-118962988D01*
X109732244Y-119181225D01*
X109732243Y-119181231D01*
X109732243Y-119181233D01*
X109713651Y-119405601D01*
X109729092Y-119591946D01*
X109732244Y-119629976D01*
X109787509Y-119848213D01*
X109787510Y-119848214D01*
X109787511Y-119848217D01*
X109848816Y-119987980D01*
X109877948Y-120054394D01*
X110001082Y-120242866D01*
X110001086Y-120242871D01*
X110153569Y-120408509D01*
X110200697Y-120445190D01*
X110331231Y-120546790D01*
X110364487Y-120564787D01*
X110414878Y-120614801D01*
X110430230Y-120684117D01*
X110405669Y-120750730D01*
X110364487Y-120786414D01*
X110331233Y-120804411D01*
X110331231Y-120804412D01*
X110153569Y-120942692D01*
X110001086Y-121108330D01*
X110001082Y-121108335D01*
X109877948Y-121296807D01*
X109787510Y-121502987D01*
X109787509Y-121502988D01*
X109732244Y-121721225D01*
X109713651Y-121945601D01*
X109732244Y-122169976D01*
X109787509Y-122388213D01*
X109787510Y-122388214D01*
X109787511Y-122388217D01*
X109852166Y-122535617D01*
X109877948Y-122594394D01*
X110001082Y-122782866D01*
X110001086Y-122782871D01*
X110153569Y-122948509D01*
X110200697Y-122985190D01*
X110331231Y-123086790D01*
X110364487Y-123104787D01*
X110414878Y-123154801D01*
X110430230Y-123224117D01*
X110405669Y-123290730D01*
X110364487Y-123326414D01*
X110331233Y-123344411D01*
X110331231Y-123344412D01*
X110153569Y-123482692D01*
X110001086Y-123648330D01*
X110001082Y-123648335D01*
X109877948Y-123836807D01*
X109787510Y-124042987D01*
X109787509Y-124042988D01*
X109732244Y-124261225D01*
X109732243Y-124261231D01*
X109732243Y-124261233D01*
X109713651Y-124485601D01*
X109728976Y-124670547D01*
X109732244Y-124709976D01*
X109787509Y-124928213D01*
X109787510Y-124928214D01*
X109787511Y-124928217D01*
X109857316Y-125087358D01*
X109877948Y-125134394D01*
X110001082Y-125322866D01*
X110001086Y-125322871D01*
X110153569Y-125488509D01*
X110200697Y-125525190D01*
X110331231Y-125626790D01*
X110364487Y-125644787D01*
X110414878Y-125694801D01*
X110430230Y-125764117D01*
X110405669Y-125830730D01*
X110364487Y-125866414D01*
X110331233Y-125884411D01*
X110331231Y-125884412D01*
X110153569Y-126022692D01*
X110001086Y-126188330D01*
X110001082Y-126188335D01*
X109877948Y-126376807D01*
X109787510Y-126582987D01*
X109787509Y-126582988D01*
X109732244Y-126801225D01*
X109732243Y-126801231D01*
X109732243Y-126801233D01*
X109713651Y-127025601D01*
X109720213Y-127104796D01*
X109732244Y-127249976D01*
X109787509Y-127468213D01*
X109787510Y-127468214D01*
X109787511Y-127468217D01*
X109843020Y-127594765D01*
X109877948Y-127674394D01*
X110001082Y-127862866D01*
X110001086Y-127862871D01*
X110153569Y-128028509D01*
X110200697Y-128065190D01*
X110331231Y-128166790D01*
X110364487Y-128184787D01*
X110414878Y-128234801D01*
X110430230Y-128304117D01*
X110405669Y-128370730D01*
X110364487Y-128406414D01*
X110331233Y-128424411D01*
X110331231Y-128424412D01*
X110153569Y-128562692D01*
X110001086Y-128728330D01*
X110001082Y-128728335D01*
X109877948Y-128916807D01*
X109787510Y-129122987D01*
X109787509Y-129122988D01*
X109732244Y-129341225D01*
X109732243Y-129341231D01*
X109732243Y-129341233D01*
X109713651Y-129565601D01*
X109273307Y-129565601D01*
X109273307Y-61396501D01*
X109293309Y-61328380D01*
X109346965Y-61281887D01*
X109399307Y-61270501D01*
X185245807Y-61270501D01*
X185313928Y-61290503D01*
G37*
%TD.AperFunction*%
M02*
