%TF.GenerationSoftware,KiCad,Pcbnew,8.0.0*%
%TF.CreationDate,2024-04-16T18:42:12-05:00*%
%TF.ProjectId,BreakoutBoardPCB,42726561-6b6f-4757-9442-6f6172645043,rev?*%
%TF.SameCoordinates,Original*%
%TF.FileFunction,Paste,Top*%
%TF.FilePolarity,Positive*%
%FSLAX46Y46*%
G04 Gerber Fmt 4.6, Leading zero omitted, Abs format (unit mm)*
G04 Created by KiCad (PCBNEW 8.0.0) date 2024-04-16 18:42:12*
%MOMM*%
%LPD*%
G01*
G04 APERTURE LIST*
G04 Aperture macros list*
%AMRoundRect*
0 Rectangle with rounded corners*
0 $1 Rounding radius*
0 $2 $3 $4 $5 $6 $7 $8 $9 X,Y pos of 4 corners*
0 Add a 4 corners polygon primitive as box body*
4,1,4,$2,$3,$4,$5,$6,$7,$8,$9,$2,$3,0*
0 Add four circle primitives for the rounded corners*
1,1,$1+$1,$2,$3*
1,1,$1+$1,$4,$5*
1,1,$1+$1,$6,$7*
1,1,$1+$1,$8,$9*
0 Add four rect primitives between the rounded corners*
20,1,$1+$1,$2,$3,$4,$5,0*
20,1,$1+$1,$4,$5,$6,$7,0*
20,1,$1+$1,$6,$7,$8,$9,0*
20,1,$1+$1,$8,$9,$2,$3,0*%
G04 Aperture macros list end*
%ADD10C,0.164000*%
%ADD11R,0.800000X0.200000*%
%ADD12R,0.200000X0.800000*%
%ADD13R,1.800000X1.800000*%
%ADD14R,1.525000X0.650000*%
%ADD15R,1.475000X0.450000*%
%ADD16RoundRect,0.250000X-0.250000X-0.475000X0.250000X-0.475000X0.250000X0.475000X-0.250000X0.475000X0*%
G04 APERTURE END LIST*
D10*
X135500000Y-88000000D03*
X135000000Y-88000000D03*
X135500000Y-87500000D03*
X135000000Y-87500000D03*
D11*
X128000000Y-129800000D03*
X128000000Y-129400000D03*
X128000000Y-129000000D03*
X128000000Y-128600000D03*
X128000000Y-128200000D03*
D12*
X127300000Y-127500000D03*
X126900000Y-127500000D03*
X126500000Y-127500000D03*
X126100000Y-127500000D03*
X125700000Y-127500000D03*
D11*
X125000000Y-128200000D03*
X125000000Y-128600000D03*
X125000000Y-129000000D03*
X125000000Y-129400000D03*
X125000000Y-129800000D03*
D12*
X125700000Y-130500000D03*
X126100000Y-130500000D03*
X126500000Y-130500000D03*
X126900000Y-130500000D03*
X127300000Y-130500000D03*
D13*
X126500000Y-129000000D03*
D14*
X160076000Y-125730000D03*
X160076000Y-127000000D03*
X160076000Y-128270000D03*
X160076000Y-129540000D03*
X165500000Y-129540000D03*
X165500000Y-128270000D03*
X165500000Y-127000000D03*
X165500000Y-125730000D03*
X160076000Y-119180000D03*
X160076000Y-120450000D03*
X160076000Y-121720000D03*
X160076000Y-122990000D03*
X165500000Y-122990000D03*
X165500000Y-121720000D03*
X165500000Y-120450000D03*
X165500000Y-119180000D03*
X160076000Y-112630000D03*
X160076000Y-113900000D03*
X160076000Y-115170000D03*
X160076000Y-116440000D03*
X165500000Y-116440000D03*
X165500000Y-115170000D03*
X165500000Y-113900000D03*
X165500000Y-112630000D03*
X160076000Y-106080000D03*
X160076000Y-107350000D03*
X160076000Y-108620000D03*
X160076000Y-109890000D03*
X165500000Y-109890000D03*
X165500000Y-108620000D03*
X165500000Y-107350000D03*
X165500000Y-106080000D03*
D11*
X127900000Y-88300000D03*
X127900000Y-87900000D03*
X127900000Y-87500000D03*
X127900000Y-87100000D03*
X127900000Y-86700000D03*
D12*
X127200000Y-86000000D03*
X126800000Y-86000000D03*
X126400000Y-86000000D03*
X126000000Y-86000000D03*
X125600000Y-86000000D03*
D11*
X124900000Y-86700000D03*
X124900000Y-87100000D03*
X124900000Y-87500000D03*
X124900000Y-87900000D03*
X124900000Y-88300000D03*
D12*
X125600000Y-89000000D03*
X126000000Y-89000000D03*
X126400000Y-89000000D03*
X126800000Y-89000000D03*
X127200000Y-89000000D03*
D13*
X126400000Y-87500000D03*
D15*
X129938000Y-75425000D03*
X129938000Y-74775000D03*
X129938000Y-74125000D03*
X129938000Y-73475000D03*
X129938000Y-72825000D03*
X129938000Y-72175000D03*
X129938000Y-71525000D03*
X129938000Y-70875000D03*
X129938000Y-70225000D03*
X129938000Y-69575000D03*
X124062000Y-69575000D03*
X124062000Y-70225000D03*
X124062000Y-70875000D03*
X124062000Y-71525000D03*
X124062000Y-72175000D03*
X124062000Y-72825000D03*
X124062000Y-73475000D03*
X124062000Y-74125000D03*
X124062000Y-74775000D03*
X124062000Y-75425000D03*
D16*
X174100000Y-119500000D03*
X176000000Y-119500000D03*
X174100000Y-106500000D03*
X176000000Y-106500000D03*
X174100000Y-113000000D03*
X176000000Y-113000000D03*
X174100000Y-126000000D03*
X176000000Y-126000000D03*
M02*
