M48
; DRILL file {KiCad 8.0.0} date 2024-04-16T18:42:18-0500
; FORMAT={-:-/ absolute / inch / decimal}
; #@! TF.CreationDate,2024-04-16T18:42:18-05:00
; #@! TF.GenerationSoftware,Kicad,Pcbnew,8.0.0
; #@! TF.FileFunction,Plated,1,2,PTH
FMAT,2
INCH
; #@! TA.AperFunction,Plated,PTH,ViaDrill
T1C0.0098
; #@! TA.AperFunction,Plated,PTH,ComponentDrill
T2C0.0280
; #@! TA.AperFunction,Plated,PTH,ComponentDrill
T3C0.0394
%
G90
G05
T1
X4.4882Y-3.1102
X4.4882Y-3.5236
X4.5276Y-2.7953
X4.6457Y-3.5433
X4.8031Y-5.2362
X4.8194Y-3.6186
X4.9016Y-3.622
X4.9274Y-5.1969
X4.9409Y-4.9213
X4.9803Y-3.7008
X4.9803Y-4.8819
X4.9921Y-3.5551
X5.0Y-4.9606
X5.0Y-5.2559
X5.0197Y-5.1969
X5.0984Y-3.5433
X5.0984Y-4.9409
X5.1181Y-2.6969
X5.1181Y-5.1772
X5.1181Y-5.2165
X5.1772Y-2.7953
X5.1772Y-2.8937
X5.1969Y-2.5197
X5.1969Y-3.5827
X5.2165Y-2.6181
X5.2559Y-3.4449
X5.2559Y-3.5039
X5.3346Y-3.6614
X6.1614Y-4.2323
X6.1614Y-4.3898
X6.1614Y-4.7441
X6.2008Y-4.4882
X6.2008Y-4.9016
X6.2008Y-5.0
X6.2402Y-4.1732
X6.2402Y-4.4291
X6.2402Y-4.7047
X6.2402Y-4.9409
X6.4961Y-2.6969
X6.5748Y-4.3307
X6.5748Y-5.0984
X6.5762Y-4.5866
X6.5762Y-4.8425
X6.6142Y-4.2717
X6.6142Y-4.5472
X6.6142Y-4.8031
X6.6142Y-5.0394
X6.6535Y-4.2323
X6.6535Y-4.4882
X6.6535Y-4.7441
X6.6535Y-5.0
X6.6732Y-4.6457
X6.6929Y-4.3898
X6.6929Y-4.9016
X6.8543Y-4.0748
T2
X5.2921Y-4.685
X5.2921Y-5.0394
X5.3921Y-4.885
X5.3921Y-5.2394
X5.4921Y-4.685
X5.4921Y-5.0394
X5.6739Y-4.685
X5.6739Y-5.0394
X5.7739Y-4.885
X5.7739Y-5.2394
X5.8739Y-4.685
X5.8739Y-5.0394
T3
X4.3731Y-2.501
X4.3731Y-2.601
X4.3731Y-2.701
X4.3731Y-2.801
X4.3731Y-2.901
X4.3731Y-3.001
X4.3731Y-3.101
X4.3731Y-3.201
X4.3731Y-3.301
X4.3731Y-3.401
X4.3731Y-3.501
X4.3731Y-3.601
X4.3731Y-3.701
X4.3731Y-3.801
X4.3731Y-3.901
X4.3731Y-4.001
X4.3731Y-4.101
X4.3731Y-4.201
X4.3731Y-4.301
X4.3731Y-4.401
X4.3731Y-4.501
X4.3731Y-4.601
X4.3731Y-4.701
X4.3731Y-4.801
X4.3731Y-4.901
X4.3731Y-5.001
X4.3731Y-5.101
X4.3731Y-5.201
X4.5991Y-5.207
X4.6991Y-5.207
X6.0861Y-5.224
X6.1861Y-5.224
X6.2861Y-5.224
X6.3861Y-5.224
X6.4861Y-5.224
X6.5861Y-5.224
X6.9131Y-5.237
X7.0131Y-5.237
X7.2271Y-2.497
X7.2271Y-2.597
X7.2271Y-2.697
X7.2271Y-2.797
X7.2271Y-2.897
X7.2271Y-2.997
X7.2271Y-3.097
X7.2271Y-3.197
X7.2271Y-3.297
X7.2271Y-3.397
X7.2271Y-3.497
X7.2271Y-3.597
X7.2271Y-3.697
X7.2271Y-3.797
X7.2271Y-3.897
X7.2271Y-3.997
X7.2271Y-4.097
X7.2271Y-4.197
X7.2271Y-4.297
X7.2271Y-4.397
X7.2271Y-4.497
X7.2271Y-4.597
X7.2271Y-4.697
X7.2271Y-4.797
X7.2271Y-4.897
X7.2271Y-4.997
X7.2271Y-5.097
X7.2271Y-5.197
T3
X5.689Y-3.6378G85X5.689Y-3.685
G05
X5.7874Y-3.0512G85X5.7874Y-3.0984
G05
X6.3976Y-3.6378G85X6.3976Y-3.685
G05
X6.4961Y-3.0512G85X6.4961Y-3.0984
G05
M30
